<?xml version="1.0" encoding="UTF-8" standalone="no"?>
<!-- Created with Inkscape (http://www.inkscape.org/) -->

<svg
   xmlns:ns1="http://www.iki.fi/pav/software/textext/"
   xmlns:dc="http://purl.org/dc/elements/1.1/"
   xmlns:cc="http://creativecommons.org/ns#"
   xmlns:rdf="http://www.w3.org/1999/02/22-rdf-syntax-ns#"
   xmlns:svg="http://www.w3.org/2000/svg"
   xmlns="http://www.w3.org/2000/svg"
   xmlns:sodipodi="http://sodipodi.sourceforge.net/DTD/sodipodi-0.dtd"
   xmlns:inkscape="http://www.inkscape.org/namespaces/inkscape"
   width="66.986961mm"
   height="44.899876mm"
   viewBox="0 0 66.986961 44.899877"
   version="1.1"
   id="svg2070"
   inkscape:version="0.92.3 (2405546, 2018-03-11)"
   sodipodi:docname="IntroOverviewSideCap.svg">
  <sodipodi:namedview
     id="namedview2072"
     pagecolor="#ffffff"
     bordercolor="#666666"
     borderopacity="1.0"
     inkscape:pageshadow="2"
     inkscape:pageopacity="0.0"
     inkscape:pagecheckerboard="0"
     inkscape:document-units="mm"
     showgrid="false"
     inkscape:zoom="4.413663"
     inkscape:cx="89.721398"
     inkscape:cy="84.850158"
     inkscape:window-width="2560"
     inkscape:window-height="1387"
     inkscape:window-x="-8"
     inkscape:window-y="-8"
     inkscape:window-maximized="1"
     inkscape:current-layer="layer1"
     inkscape:snap-global="false"
     showguides="true"
     inkscape:guide-bbox="true">
    <sodipodi:guide
       position="94.50325,164.67542"
       orientation="0,-1"
       id="guide12838"
       inkscape:locked="false" />
  </sodipodi:namedview>
  <metadata
     id="metadata219155">
    <rdf:RDF>
      <cc:Work
         rdf:about="">
        <dc:format>image/svg+xml</dc:format>
        <dc:type
           rdf:resource="http://purl.org/dc/dcmitype/StillImage" />
      </cc:Work>
    </rdf:RDF>
  </metadata>
  <defs
     id="defs2067" />
  <g
     inkscape:label="Layer 1"
     inkscape:groupmode="layer"
     id="layer1"
     transform="translate(-156.91962,-185.49096)">
    <rect
       style="fill:#a0d9d3;fill-opacity:1;stroke:#000000;stroke-width:0.264999"
       id="rect12920"
       width="20.293894"
       height="23.768536"
       x="180.35712"
       y="204.47771"
       ry="3.9770296" />
    <rect
       style="fill:#a0d9d3;fill-opacity:1;stroke:#000000;stroke-width:0.264999"
       id="rect12924"
       width="20.293894"
       height="23.768536"
       x="201.4926"
       y="204.47771"
       ry="3.9770296" />
    <rect
       style="fill:#c6cdcf;fill-opacity:1;stroke:#000000;stroke-width:0.264999"
       id="rect1195"
       width="66.721962"
       height="44.634876"
       x="157.05212"
       y="185.62346"
       ry="3.2927935" />
    <rect
       style="fill:#d18362;fill-opacity:1;stroke:#000000;stroke-width:0.264999"
       id="rect1726"
       width="64.438354"
       height="28.283245"
       x="158.24619"
       y="200.82109"
       ry="2.6085718" />
    <rect
       style="fill:#a0d9d3;fill-opacity:1;stroke:#000000;stroke-width:0.264999"
       id="rect2179"
       width="20.293894"
       height="23.768536"
       x="159.22163"
       y="204.47771"
       ry="3.9770296" />
    <rect
       style="fill:#a0d9d3;fill-opacity:1;stroke:#000000;stroke-width:0.264999"
       id="rect2918"
       width="20.293898"
       height="24.096096"
       x="180.35712"
       y="204.47771"
       ry="3.9770296" />
    <rect
       style="fill:#a0d9d3;fill-opacity:1;stroke:#000000;stroke-width:0.264999"
       id="rect12922"
       width="20.293898"
       height="24.096096"
       x="201.4926"
       y="204.47771"
       ry="3.9770296" />
    <rect
       style="fill:#aec3cf;fill-opacity:0.510121;stroke:#000000;stroke-width:0.264999"
       id="rect13743"
       width="60.880974"
       height="11.682964"
       x="160.06357"
       y="215.6348"
       ry="2.7296638" />
    <g
       transform="matrix(0.28678,0,0,0.28678,102.86404,150.03022)"
       ns1:version="0.11.0"
       ns1:texconverter="pdflatex"
       ns1:pdfconverter="pdf2svg"
       ns1:text="\\begin{center}\n\\noindent Artificial intelligence\n\\end{center}"
       ns1:preamble="C:\\Users\\drsjd\\AppData\\Roaming\\inkscape\\extensions\\textext\\default_packages_simon.tex"
       ns1:scale="0.812915907022"
       ns1:alignment="middle center"
       inkscapeversion="1.1.2"
       ns1:jacobian_sqrt="0.28678"
       style="fill:#000000;fill-opacity:1"
       id="g220100">
      <g
         id="surface1"
         style="fill:#000000;fill-opacity:1">
        <g
           style="fill:#000000;fill-opacity:1"
           id="g220067">
          <path
             inkscape:connector-curvature="0"
             style="fill:#000000;fill-opacity:1;stroke:none;stroke-width:0"
             d="M 5.875,0 3.421875,-6.890625 H 2.515625 L 0.078125,0 H 0.875 L 1.453125,-1.796875 H 4.5 L 5.078125,0 Z M 4.25,-2.515625 H 1.703125 L 2.984375,-6.0625 Z m 0,0"
             transform="translate(264.453,134.765)"
             id="path220049" />
          <path
             inkscape:connector-curvature="0"
             style="fill:#000000;fill-opacity:1;stroke:none;stroke-width:0"
             d="M 3.1875,-3.59375 3.421875,-4.3125 C 3.3125,-4.4375 2.828125,-4.5625 2.5,-4.5625 2.03125,-4.546875 1.640625,-4.3125 1.4375,-3.890625 V -4.5 h -0.75 V 0 h 0.75 v -2.375 c 0,-0.015625 0,-0.03125 0,-0.03125 0,-0.65625 0.34375,-1.515625 1.046875,-1.515625 H 2.53125 c 0.234375,0 0.421875,0.140625 0.65625,0.328125 z m 0,0"
             transform="translate(270.40067,134.765)"
             id="path220051" />
          <path
             inkscape:connector-curvature="0"
             style="fill:#000000;fill-opacity:1;stroke:none;stroke-width:0"
             d="M 3.203125,0 V -0.640625 H 2.421875 C 1.71875,-0.640625 1.59375,-0.8125 1.59375,-1.46875 v -2.4375 H 2.921875 V -4.5 H 1.59375 V -5.78125 H 1.28125 L 0.859375,-4.5 h -0.53125 v 0.59375 h 0.53125 v 2.4375 C 0.859375,-0.34375 1.3125,0 2.421875,0 Z m 0,0"
             transform="translate(274.08683,134.765)"
             id="path220053" />
          <path
             inkscape:connector-curvature="0"
             style="fill:#000000;fill-opacity:1;stroke:none;stroke-width:0"
             d="m 1.4375,0 v -4.5 h -0.75 V 0 Z m -0.375,-6.890625 c -0.234375,0 -0.4375,0.21875 -0.4375,0.453125 0,0.25 0.203125,0.46875 0.4375,0.46875 0.25,0 0.4375,-0.21875 0.4375,-0.46875 0,-0.234375 -0.1875,-0.453125 -0.4375,-0.453125 z m 0,0"
             transform="translate(277.52393,134.765)"
             id="path220055" />
          <path
             inkscape:connector-curvature="0"
             style="fill:#000000;fill-opacity:1;stroke:none;stroke-width:0"
             d="M 4.640625,-4.5 H 1.75 v -0.6875 c 0,-0.875 0.5,-1.078125 0.703125,-1.078125 H 3.1875 v -0.625 H 2.46875 C 1.75,-6.890625 1.03125,-6.40625 1,-5.09375 V -4.5 H 0.265625 v 0.609375 H 1 V 0 H 1.75 V -3.890625 H 3.890625 V 0 h 0.75 z m -0.375,-2.390625 c -0.234375,0 -0.4375,0.21875 -0.4375,0.453125 0,0.25 0.203125,0.46875 0.4375,0.46875 0.234375,0 0.4375,-0.21875 0.4375,-0.46875 0,-0.234375 -0.203125,-0.453125 -0.4375,-0.453125 z m 0,0"
             transform="translate(279.64596,134.765)"
             id="path220057" />
          <path
             inkscape:connector-curvature="0"
             style="fill:#000000;fill-opacity:1;stroke:none;stroke-width:0"
             d="m 4.140625,-0.15625 v -0.734375 c -0.484375,0.25 -0.6875,0.375 -1.3125,0.375 -1.09375,-0.015625 -1.625,-0.65625 -1.625,-1.734375 0,-1.046875 0.546875,-1.71875 1.625,-1.71875 0.59375,0.03125 0.8125,0.125 1.3125,0.375 v -0.75 c -0.40625,-0.125 -0.84375,-0.265625 -1.359375,-0.265625 -1.46875,0 -2.328125,0.9375 -2.328125,2.359375 0.03125,1.40625 0.828125,2.375 2.28125,2.375 0.5,0 1.03125,-0.140625 1.40625,-0.28125 z m 0,0"
             transform="translate(284.96599,134.765)"
             id="path220059" />
          <path
             inkscape:connector-curvature="0"
             style="fill:#000000;fill-opacity:1;stroke:none;stroke-width:0"
             d="m 1.4375,0 v -4.5 h -0.75 V 0 Z m -0.375,-6.890625 c -0.234375,0 -0.4375,0.21875 -0.4375,0.453125 0,0.25 0.203125,0.46875 0.4375,0.46875 0.25,0 0.4375,-0.21875 0.4375,-0.46875 0,-0.234375 -0.1875,-0.453125 -0.4375,-0.453125 z m 0,0"
             transform="translate(289.46909,134.765)"
             id="path220061" />
          <path
             inkscape:connector-curvature="0"
             style="fill:#000000;fill-opacity:1;stroke:none;stroke-width:0"
             d="m 4.140625,0 v -2.5625 c 0,-1.296875 -0.546875,-2.046875 -1.890625,-2.046875 -0.484375,0 -1.078125,0.15625 -1.515625,0.3125 V -3.5625 C 1.1875,-3.8125 1.5625,-3.96875 2.1875,-3.96875 c 0.71875,0.015625 1.265625,0.375 1.265625,1.125 h -1.03125 c -1.0625,0 -2,0.359375 -2,1.53125 0.03125,0.90625 0.5625,1.4375 1.46875,1.4375 0.640625,0 1.21875,-0.265625 1.5625,-0.71875 V 0 Z m -0.6875,-2.09375 c 0,0.875 -0.40625,1.578125 -1.34375,1.578125 -0.546875,0 -1,-0.25 -1,-0.84375 0,-0.875 0.828125,-0.875 1.609375,-0.875 h 0.734375 z m 0,0"
             transform="translate(291.59112,134.765)"
             id="path220063" />
          <path
             inkscape:connector-curvature="0"
             style="fill:#000000;fill-opacity:1;stroke:none;stroke-width:0"
             d="M 1.3125,-6.890625 H 0.578125 V 0 H 1.3125 Z m 0,0"
             transform="translate(296.36321,134.765)"
             id="path220065" />
        </g>
        <g
           style="fill:#000000;fill-opacity:1"
           id="g220075">
          <path
             inkscape:connector-curvature="0"
             style="fill:#000000;fill-opacity:1;stroke:none;stroke-width:0"
             d="m 1.4375,0 v -4.5 h -0.75 V 0 Z m -0.375,-6.890625 c -0.234375,0 -0.4375,0.21875 -0.4375,0.453125 0,0.25 0.203125,0.46875 0.4375,0.46875 0.25,0 0.4375,-0.21875 0.4375,-0.46875 0,-0.234375 -0.1875,-0.453125 -0.4375,-0.453125 z m 0,0"
             transform="translate(301.34451,134.765)"
             id="path220069" />
          <path
             inkscape:connector-curvature="0"
             style="fill:#000000;fill-opacity:1;stroke:none;stroke-width:0"
             d="m 4.5625,0 v -2.71875 c 0,-1.0625 -0.453125,-1.890625 -1.609375,-1.890625 -0.578125,0 -1.171875,0.21875 -1.53125,0.71875 V -4.5 H 0.6875 V 0 h 0.734375 v -2.546875 c 0.03125,-0.859375 0.5625,-1.40625 1.359375,-1.40625 0.78125,0 1.0625,0.46875 1.0625,1.265625 V 0 Z m 0,0"
             transform="translate(303.46654,134.765)"
             id="path220071" />
          <path
             inkscape:connector-curvature="0"
             style="fill:#000000;fill-opacity:1;stroke:none;stroke-width:0"
             d="M 3.203125,0 V -0.640625 H 2.421875 C 1.71875,-0.640625 1.59375,-0.8125 1.59375,-1.46875 v -2.4375 H 2.921875 V -4.5 H 1.59375 V -5.78125 H 1.28125 L 0.859375,-4.5 h -0.53125 v 0.59375 h 0.53125 v 2.4375 C 0.859375,-0.34375 1.3125,0 2.421875,0 Z m 0,0"
             transform="translate(308.65706,134.765)"
             id="path220073" />
        </g>
        <g
           style="fill:#000000;fill-opacity:1"
           id="g220087">
          <path
             inkscape:connector-curvature="0"
             style="fill:#000000;fill-opacity:1;stroke:none;stroke-width:0"
             d="m 4.546875,-2.25 v -0.078125 c 0,-1.296875 -0.53125,-2.25 -2.015625,-2.28125 -1.328125,0 -2.078125,1.15625 -2.078125,2.40625 0,1.359375 0.828125,2.328125 2.203125,2.328125 0.625,0 1.1875,-0.140625 1.734375,-0.34375 v -0.75 C 3.671875,-0.625 3.5625,-0.546875 2.71875,-0.546875 c -0.9375,0 -1.5,-0.5625 -1.5,-1.625 V -2.25 Z M 3.8125,-2.859375 H 1.25 c 0.09375,-0.59375 0.53125,-1.109375 1.28125,-1.109375 0.78125,0 1.28125,0.484375 1.28125,1.109375 z m 0,0"
             transform="translate(311.79527,134.765)"
             id="path220077" />
          <path
             inkscape:connector-curvature="0"
             style="fill:#000000;fill-opacity:1;stroke:none;stroke-width:0"
             d="M 1.3125,-6.890625 H 0.578125 V 0 H 1.3125 Z m 0,0"
             transform="translate(316.73672,134.765)"
             id="path220079" />
          <path
             inkscape:connector-curvature="0"
             style="fill:#000000;fill-opacity:1;stroke:none;stroke-width:0"
             d="M 1.3125,-6.890625 H 0.578125 V 0 H 1.3125 Z m 0,0"
             transform="translate(318.72924,134.765)"
             id="path220081" />
          <path
             inkscape:connector-curvature="0"
             style="fill:#000000;fill-opacity:1;stroke:none;stroke-width:0"
             d="m 1.4375,0 v -4.5 h -0.75 V 0 Z m -0.375,-6.890625 c -0.234375,0 -0.4375,0.21875 -0.4375,0.453125 0,0.25 0.203125,0.46875 0.4375,0.46875 0.25,0 0.4375,-0.21875 0.4375,-0.46875 0,-0.234375 -0.1875,-0.453125 -0.4375,-0.453125 z m 0,0"
             transform="translate(320.72176,134.765)"
             id="path220083" />
          <path
             inkscape:connector-curvature="0"
             style="fill:#000000;fill-opacity:1;stroke:none;stroke-width:0"
             d="m 2.046875,-0.109375 c 0.84375,0 1.421875,0.40625 1.421875,0.953125 0,0.546875 -0.578125,0.9375 -1.421875,0.9375 -0.84375,0 -1.3125,-0.390625 -1.3125,-0.9375 0,-0.546875 0.46875,-0.953125 1.3125,-0.953125 z m 0,-0.640625 c -0.078125,0 -0.15625,0 -0.25,0.015625 -0.46875,0 -0.875,-0.28125 -0.875,-0.46875 0,-0.21875 0.25,-0.296875 0.4375,-0.296875 h 0.0625 c 0.15625,0.140625 0.625,0.1875 0.765625,0.1875 0.859375,0 1.546875,-0.734375 1.546875,-1.640625 0,-0.359375 -0.125,-0.703125 -0.328125,-0.96875 h 0.734375 v -0.5625 H 2.875 c -0.203125,-0.0625 -0.484375,-0.09375 -0.640625,-0.09375 -0.859375,0 -1.578125,0.734375 -1.609375,1.625 0,0.4375 0.15625,0.828125 0.4375,1.109375 -0.328125,0.0625 -0.6875,0.28125 -0.6875,0.703125 0,0.265625 0.171875,0.515625 0.53125,0.671875 -0.578125,0.296875 -0.921875,0.78125 -0.921875,1.296875 0,0.8125 0.828125,1.5625 2.0625,1.5625 1.25,0 2.265625,-0.75 2.265625,-1.546875 C 4.3125,-0.203125 3.09375,-0.75 2.046875,-0.75 Z M 2.1875,-3.953125 c 0.53125,0 0.96875,0.4375 0.96875,0.984375 C 3.15625,-2.4375 2.71875,-2 2.1875,-2 1.640625,-2 1.21875,-2.4375 1.21875,-2.96875 c 0,-0.546875 0.421875,-0.984375 0.96875,-0.984375 z m 0,0"
             transform="translate(322.8438,134.765)"
             id="path220085" />
        </g>
        <g
           style="fill:#000000;fill-opacity:1"
           id="g220097">
          <path
             inkscape:connector-curvature="0"
             style="fill:#000000;fill-opacity:1;stroke:none;stroke-width:0"
             d="m 4.546875,-2.25 v -0.078125 c 0,-1.296875 -0.53125,-2.25 -2.015625,-2.28125 -1.328125,0 -2.078125,1.15625 -2.078125,2.40625 0,1.359375 0.828125,2.328125 2.203125,2.328125 0.625,0 1.1875,-0.140625 1.734375,-0.34375 v -0.75 C 3.671875,-0.625 3.5625,-0.546875 2.71875,-0.546875 c -0.9375,0 -1.5,-0.5625 -1.5,-1.625 V -2.25 Z M 3.8125,-2.859375 H 1.25 c 0.09375,-0.59375 0.53125,-1.109375 1.28125,-1.109375 0.78125,0 1.28125,0.484375 1.28125,1.109375 z m 0,0"
             transform="translate(327.21738,134.765)"
             id="path220089" />
          <path
             inkscape:connector-curvature="0"
             style="fill:#000000;fill-opacity:1;stroke:none;stroke-width:0"
             d="m 4.5625,0 v -2.71875 c 0,-1.0625 -0.453125,-1.890625 -1.609375,-1.890625 -0.578125,0 -1.171875,0.21875 -1.53125,0.71875 V -4.5 H 0.6875 V 0 h 0.734375 v -2.546875 c 0.03125,-0.859375 0.5625,-1.40625 1.359375,-1.40625 0.78125,0 1.0625,0.46875 1.0625,1.265625 V 0 Z m 0,0"
             transform="translate(332.15883,134.765)"
             id="path220091" />
          <path
             inkscape:connector-curvature="0"
             style="fill:#000000;fill-opacity:1;stroke:none;stroke-width:0"
             d="m 4.140625,-0.15625 v -0.734375 c -0.484375,0.25 -0.6875,0.375 -1.3125,0.375 -1.09375,-0.015625 -1.625,-0.65625 -1.625,-1.734375 0,-1.046875 0.546875,-1.71875 1.625,-1.71875 0.59375,0.03125 0.8125,0.125 1.3125,0.375 v -0.75 c -0.40625,-0.125 -0.84375,-0.265625 -1.359375,-0.265625 -1.46875,0 -2.328125,0.9375 -2.328125,2.359375 0.03125,1.40625 0.828125,2.375 2.28125,2.375 0.5,0 1.03125,-0.140625 1.40625,-0.28125 z m 0,0"
             transform="translate(337.34934,134.765)"
             id="path220093" />
          <path
             inkscape:connector-curvature="0"
             style="fill:#000000;fill-opacity:1;stroke:none;stroke-width:0"
             d="m 4.546875,-2.25 v -0.078125 c 0,-1.296875 -0.53125,-2.25 -2.015625,-2.28125 -1.328125,0 -2.078125,1.15625 -2.078125,2.40625 0,1.359375 0.828125,2.328125 2.203125,2.328125 0.625,0 1.1875,-0.140625 1.734375,-0.34375 v -0.75 C 3.671875,-0.625 3.5625,-0.546875 2.71875,-0.546875 c -0.9375,0 -1.5,-0.5625 -1.5,-1.625 V -2.25 Z M 3.8125,-2.859375 H 1.25 c 0.09375,-0.59375 0.53125,-1.109375 1.28125,-1.109375 0.78125,0 1.28125,0.484375 1.28125,1.109375 z m 0,0"
             transform="translate(341.85244,134.765)"
             id="path220095" />
        </g>
      </g>
    </g>
    <g
       id="g220834"
       style="fill:#000000;fill-opacity:1"
       ns1:jacobian_sqrt="0.28678"
       inkscapeversion="1.1.2"
       ns1:alignment="middle center"
       ns1:scale="0.812915907022"
       ns1:preamble="C:\\Users\\drsjd\\AppData\\Roaming\\inkscape\\extensions\\textext\\default_packages_simon.tex"
       ns1:text="\\begin{center}\n\\noindent Machine learning\n\\end{center}"
       ns1:pdfconverter="pdf2svg"
       ns1:texconverter="pdflatex"
       ns1:version="0.11.0"
       transform="matrix(0.28678,0,0,0.28678,102.76436,164.69379)">
      <g
         style="fill:#000000;fill-opacity:1"
         id="g220832">
        <g
           id="g220810"
           style="fill:#000000;fill-opacity:1">
          <path
             id="path220796"
             transform="translate(271.034,134.765)"
             d="m 6.46875,0 v -6.890625 h -0.75 L 3.59375,-2.8125 1.4375,-6.890625 h -0.75 V 0 h 0.75 v -5.515625 l 2.15625,4.171875 2.125,-4.171875 V 0 Z m 0,0"
             style="fill:#000000;fill-opacity:1;stroke:none;stroke-width:0"
             inkscape:connector-curvature="0" />
          <path
             id="path220798"
             transform="translate(278.18715,134.765)"
             d="m 4.140625,0 v -2.5625 c 0,-1.296875 -0.546875,-2.046875 -1.890625,-2.046875 -0.484375,0 -1.078125,0.15625 -1.515625,0.3125 V -3.5625 C 1.1875,-3.8125 1.5625,-3.96875 2.1875,-3.96875 c 0.71875,0.015625 1.265625,0.375 1.265625,1.125 h -1.03125 c -1.0625,0 -2,0.359375 -2,1.53125 0.03125,0.90625 0.5625,1.4375 1.46875,1.4375 0.640625,0 1.21875,-0.265625 1.5625,-0.71875 V 0 Z m -0.6875,-2.09375 c 0,0.875 -0.40625,1.578125 -1.34375,1.578125 -0.546875,0 -1,-0.25 -1,-0.84375 0,-0.875 0.828125,-0.875 1.609375,-0.875 h 0.734375 z m 0,0"
             style="fill:#000000;fill-opacity:1;stroke:none;stroke-width:0"
             inkscape:connector-curvature="0" />
          <path
             id="path220800"
             transform="translate(282.95923,134.765)"
             d="m 4.140625,-0.15625 v -0.734375 c -0.484375,0.25 -0.6875,0.375 -1.3125,0.375 -1.09375,-0.015625 -1.625,-0.65625 -1.625,-1.734375 0,-1.046875 0.546875,-1.71875 1.625,-1.71875 0.59375,0.03125 0.8125,0.125 1.3125,0.375 v -0.75 c -0.40625,-0.125 -0.84375,-0.265625 -1.359375,-0.265625 -1.46875,0 -2.328125,0.9375 -2.328125,2.359375 0.03125,1.40625 0.828125,2.375 2.28125,2.375 0.5,0 1.03125,-0.140625 1.40625,-0.28125 z m 0,0"
             style="fill:#000000;fill-opacity:1;stroke:none;stroke-width:0"
             inkscape:connector-curvature="0" />
          <path
             id="path220802"
             transform="translate(287.46233,134.765)"
             d="m 4.5625,0 v -2.734375 c 0,-1.046875 -0.46875,-1.875 -1.609375,-1.875 -0.609375,0 -1.1875,0.1875 -1.53125,0.734375 V -6.890625 H 0.6875 V 0 h 0.734375 v -2.546875 c 0.03125,-0.859375 0.609375,-1.40625 1.359375,-1.40625 0.796875,0.015625 1.0625,0.46875 1.0625,1.265625 V 0 Z m 0,0"
             style="fill:#000000;fill-opacity:1;stroke:none;stroke-width:0"
             inkscape:connector-curvature="0" />
          <path
             id="path220804"
             transform="translate(292.65284,134.765)"
             d="m 1.4375,0 v -4.5 h -0.75 V 0 Z m -0.375,-6.890625 c -0.234375,0 -0.4375,0.21875 -0.4375,0.453125 0,0.25 0.203125,0.46875 0.4375,0.46875 0.25,0 0.4375,-0.21875 0.4375,-0.46875 0,-0.234375 -0.1875,-0.453125 -0.4375,-0.453125 z m 0,0"
             style="fill:#000000;fill-opacity:1;stroke:none;stroke-width:0"
             inkscape:connector-curvature="0" />
          <path
             id="path220806"
             transform="translate(294.77488,134.765)"
             d="m 4.5625,0 v -2.71875 c 0,-1.0625 -0.453125,-1.890625 -1.609375,-1.890625 -0.578125,0 -1.171875,0.21875 -1.53125,0.71875 V -4.5 H 0.6875 V 0 h 0.734375 v -2.546875 c 0.03125,-0.859375 0.5625,-1.40625 1.359375,-1.40625 0.78125,0 1.0625,0.46875 1.0625,1.265625 V 0 Z m 0,0"
             style="fill:#000000;fill-opacity:1;stroke:none;stroke-width:0"
             inkscape:connector-curvature="0" />
          <path
             id="path220808"
             transform="translate(299.96539,134.765)"
             d="m 4.546875,-2.25 v -0.078125 c 0,-1.296875 -0.53125,-2.25 -2.015625,-2.28125 -1.328125,0 -2.078125,1.15625 -2.078125,2.40625 0,1.359375 0.828125,2.328125 2.203125,2.328125 0.625,0 1.1875,-0.140625 1.734375,-0.34375 v -0.75 C 3.671875,-0.625 3.5625,-0.546875 2.71875,-0.546875 c -0.9375,0 -1.5,-0.5625 -1.5,-1.625 V -2.25 Z M 3.8125,-2.859375 H 1.25 c 0.09375,-0.59375 0.53125,-1.109375 1.28125,-1.109375 0.78125,0 1.28125,0.484375 1.28125,1.109375 z m 0,0"
             style="fill:#000000;fill-opacity:1;stroke:none;stroke-width:0"
             inkscape:connector-curvature="0" />
        </g>
        <g
           id="g220820"
           style="fill:#000000;fill-opacity:1">
          <path
             id="path220812"
             transform="translate(307.89562,134.765)"
             d="M 1.3125,-6.890625 H 0.578125 V 0 H 1.3125 Z m 0,0"
             style="fill:#000000;fill-opacity:1;stroke:none;stroke-width:0"
             inkscape:connector-curvature="0" />
          <path
             id="path220814"
             transform="translate(309.88814,134.765)"
             d="m 4.546875,-2.25 v -0.078125 c 0,-1.296875 -0.53125,-2.25 -2.015625,-2.28125 -1.328125,0 -2.078125,1.15625 -2.078125,2.40625 0,1.359375 0.828125,2.328125 2.203125,2.328125 0.625,0 1.1875,-0.140625 1.734375,-0.34375 v -0.75 C 3.671875,-0.625 3.5625,-0.546875 2.71875,-0.546875 c -0.9375,0 -1.5,-0.5625 -1.5,-1.625 V -2.25 Z M 3.8125,-2.859375 H 1.25 c 0.09375,-0.59375 0.53125,-1.109375 1.28125,-1.109375 0.78125,0 1.28125,0.484375 1.28125,1.109375 z m 0,0"
             style="fill:#000000;fill-opacity:1;stroke:none;stroke-width:0"
             inkscape:connector-curvature="0" />
          <path
             id="path220816"
             transform="translate(314.82959,134.765)"
             d="m 4.140625,0 v -2.5625 c 0,-1.296875 -0.546875,-2.046875 -1.890625,-2.046875 -0.484375,0 -1.078125,0.15625 -1.515625,0.3125 V -3.5625 C 1.1875,-3.8125 1.5625,-3.96875 2.1875,-3.96875 c 0.71875,0.015625 1.265625,0.375 1.265625,1.125 h -1.03125 c -1.0625,0 -2,0.359375 -2,1.53125 0.03125,0.90625 0.5625,1.4375 1.46875,1.4375 0.640625,0 1.21875,-0.265625 1.5625,-0.71875 V 0 Z m -0.6875,-2.09375 c 0,0.875 -0.40625,1.578125 -1.34375,1.578125 -0.546875,0 -1,-0.25 -1,-0.84375 0,-0.875 0.828125,-0.875 1.609375,-0.875 h 0.734375 z m 0,0"
             style="fill:#000000;fill-opacity:1;stroke:none;stroke-width:0"
             inkscape:connector-curvature="0" />
          <path
             id="path220818"
             transform="translate(319.60167,134.765)"
             d="M 3.1875,-3.59375 3.421875,-4.3125 C 3.3125,-4.4375 2.828125,-4.5625 2.5,-4.5625 2.03125,-4.546875 1.640625,-4.3125 1.4375,-3.890625 V -4.5 h -0.75 V 0 h 0.75 v -2.375 c 0,-0.015625 0,-0.03125 0,-0.03125 0,-0.65625 0.34375,-1.515625 1.046875,-1.515625 H 2.53125 c 0.234375,0 0.421875,0.140625 0.65625,0.328125 z m 0,0"
             style="fill:#000000;fill-opacity:1;stroke:none;stroke-width:0"
             inkscape:connector-curvature="0" />
        </g>
        <g
           id="g220830"
           style="fill:#000000;fill-opacity:1">
          <path
             id="path220822"
             transform="translate(323.08859,134.765)"
             d="m 4.5625,0 v -2.71875 c 0,-1.0625 -0.453125,-1.890625 -1.609375,-1.890625 -0.578125,0 -1.171875,0.21875 -1.53125,0.71875 V -4.5 H 0.6875 V 0 h 0.734375 v -2.546875 c 0.03125,-0.859375 0.5625,-1.40625 1.359375,-1.40625 0.78125,0 1.0625,0.46875 1.0625,1.265625 V 0 Z m 0,0"
             style="fill:#000000;fill-opacity:1;stroke:none;stroke-width:0"
             inkscape:connector-curvature="0" />
          <path
             id="path220824"
             transform="translate(328.2791,134.765)"
             d="m 1.4375,0 v -4.5 h -0.75 V 0 Z m -0.375,-6.890625 c -0.234375,0 -0.4375,0.21875 -0.4375,0.453125 0,0.25 0.203125,0.46875 0.4375,0.46875 0.25,0 0.4375,-0.21875 0.4375,-0.46875 0,-0.234375 -0.1875,-0.453125 -0.4375,-0.453125 z m 0,0"
             style="fill:#000000;fill-opacity:1;stroke:none;stroke-width:0"
             inkscape:connector-curvature="0" />
          <path
             id="path220826"
             transform="translate(330.40113,134.765)"
             d="m 4.5625,0 v -2.71875 c 0,-1.0625 -0.453125,-1.890625 -1.609375,-1.890625 -0.578125,0 -1.171875,0.21875 -1.53125,0.71875 V -4.5 H 0.6875 V 0 h 0.734375 v -2.546875 c 0.03125,-0.859375 0.5625,-1.40625 1.359375,-1.40625 0.78125,0 1.0625,0.46875 1.0625,1.265625 V 0 Z m 0,0"
             style="fill:#000000;fill-opacity:1;stroke:none;stroke-width:0"
             inkscape:connector-curvature="0" />
          <path
             id="path220828"
             transform="translate(335.59165,134.765)"
             d="m 2.046875,-0.109375 c 0.84375,0 1.421875,0.40625 1.421875,0.953125 0,0.546875 -0.578125,0.9375 -1.421875,0.9375 -0.84375,0 -1.3125,-0.390625 -1.3125,-0.9375 0,-0.546875 0.46875,-0.953125 1.3125,-0.953125 z m 0,-0.640625 c -0.078125,0 -0.15625,0 -0.25,0.015625 -0.46875,0 -0.875,-0.28125 -0.875,-0.46875 0,-0.21875 0.25,-0.296875 0.4375,-0.296875 h 0.0625 c 0.15625,0.140625 0.625,0.1875 0.765625,0.1875 0.859375,0 1.546875,-0.734375 1.546875,-1.640625 0,-0.359375 -0.125,-0.703125 -0.328125,-0.96875 h 0.734375 v -0.5625 H 2.875 c -0.203125,-0.0625 -0.484375,-0.09375 -0.640625,-0.09375 -0.859375,0 -1.578125,0.734375 -1.609375,1.625 0,0.4375 0.15625,0.828125 0.4375,1.109375 -0.328125,0.0625 -0.6875,0.28125 -0.6875,0.703125 0,0.265625 0.171875,0.515625 0.53125,0.671875 -0.578125,0.296875 -0.921875,0.78125 -0.921875,1.296875 0,0.8125 0.828125,1.5625 2.0625,1.5625 1.25,0 2.265625,-0.75 2.265625,-1.546875 C 4.3125,-0.203125 3.09375,-0.75 2.046875,-0.75 Z M 2.1875,-3.953125 c 0.53125,0 0.96875,0.4375 0.96875,0.984375 C 3.15625,-2.4375 2.71875,-2 2.1875,-2 1.640625,-2 1.21875,-2.4375 1.21875,-2.96875 c 0,-0.546875 0.421875,-0.984375 0.96875,-0.984375 z m 0,0"
             style="fill:#000000;fill-opacity:1;stroke:none;stroke-width:0"
             inkscape:connector-curvature="0" />
        </g>
      </g>
    </g>
    <g
       transform="matrix(0.28678,0,0,0.28678,81.762093,169.28338)"
       ns1:version="0.11.0"
       ns1:texconverter="pdflatex"
       ns1:pdfconverter="pdf2svg"
       ns1:text="\\begin{center}\n\\noindent Supervised\\\\learning\n\\end{center}"
       ns1:preamble="C:\\Users\\drsjd\\AppData\\Roaming\\inkscape\\extensions\\textext\\default_packages_simon.tex"
       ns1:scale="0.812915907022"
       ns1:alignment="middle center"
       inkscapeversion="1.1.2"
       ns1:jacobian_sqrt="0.28678"
       style="fill:#000000;fill-opacity:1"
       id="g221482">
      <g
         id="g221480"
         style="fill:#000000;fill-opacity:1">
        <g
           style="fill:#000000;fill-opacity:1"
           id="g221458">
          <path
             style="fill:#000000;fill-opacity:1;stroke:none;stroke-width:0"
             d="m 4.859375,-1.875 c 0,-1.234375 -0.75,-1.78125 -1.859375,-2.03125 L 2.4375,-4 C 1.71875,-4.15625 1.125,-4.34375 1.125,-5.140625 c 0.015625,-0.90625 0.75,-1.203125 1.59375,-1.203125 0.765625,0 1.125,0.1875 1.765625,0.5 v -0.8125 c -0.5,-0.21875 -1.28125,-0.359375 -1.859375,-0.359375 -1.265625,0 -2.203125,0.59375 -2.203125,1.953125 0,1.203125 0.703125,1.609375 1.828125,1.859375 l 0.515625,0.09375 c 0.78125,0.203125 1.34375,0.4375 1.34375,1.3125 0,0.921875 -0.859375,1.265625 -1.671875,1.265625 -0.78125,0 -1.421875,-0.265625 -2.03125,-0.671875 v 0.90625 c 0.640625,0.21875 1.328125,0.4375 2.03125,0.4375 1.34375,0 2.421875,-0.515625 2.421875,-2.015625 z m 0,0"
             transform="translate(282.72,134.765)"
             id="path221438"
             inkscape:connector-curvature="0" />
          <path
             style="fill:#000000;fill-opacity:1;stroke:none;stroke-width:0"
             d="M 4.53125,0 V -4.5 H 3.765625 v 2.546875 c 0,0.84375 -0.421875,1.421875 -1.328125,1.421875 -0.796875,0 -1.078125,-0.5 -1.078125,-1.265625 V -4.5 h -0.71875 v 2.71875 c 0,1.0625 0.5,1.90625 1.625,1.90625 0.578125,0 1.171875,-0.328125 1.5,-0.71875 V 0 Z m 0,0"
             transform="translate(287.91051,134.765)"
             id="path221440"
             inkscape:connector-curvature="0" />
          <path
             style="fill:#000000;fill-opacity:1;stroke:none;stroke-width:0"
             d="m 4.8125,-2.25 c 0,-1.3125 -0.875,-2.25 -2.203125,-2.25 H 0.6875 v 6.90625 h 0.75 V 0 H 2.546875 C 4,0 4.8125,-0.90625 4.8125,-2.25 Z m -0.71875,0 c 0,0.890625 -0.5625,1.59375 -1.546875,1.59375 H 1.4375 v -3.1875 h 1.109375 c 0.96875,0 1.546875,0.640625 1.546875,1.59375 z m 0,0"
             transform="translate(293.13092,134.765)"
             id="path221442"
             inkscape:connector-curvature="0" />
          <path
             style="fill:#000000;fill-opacity:1;stroke:none;stroke-width:0"
             d="m 4.546875,-2.25 v -0.078125 c 0,-1.296875 -0.53125,-2.25 -2.015625,-2.28125 -1.328125,0 -2.078125,1.15625 -2.078125,2.40625 0,1.359375 0.828125,2.328125 2.203125,2.328125 0.625,0 1.1875,-0.140625 1.734375,-0.34375 v -0.75 C 3.671875,-0.625 3.5625,-0.546875 2.71875,-0.546875 c -0.9375,0 -1.5,-0.5625 -1.5,-1.625 V -2.25 Z M 3.8125,-2.859375 H 1.25 c 0.09375,-0.59375 0.53125,-1.109375 1.28125,-1.109375 0.78125,0 1.28125,0.484375 1.28125,1.109375 z m 0,0"
             transform="translate(298.40113,134.765)"
             id="path221444"
             inkscape:connector-curvature="0" />
          <path
             style="fill:#000000;fill-opacity:1;stroke:none;stroke-width:0"
             d="M 3.1875,-3.59375 3.421875,-4.3125 C 3.3125,-4.4375 2.828125,-4.5625 2.5,-4.5625 2.03125,-4.546875 1.640625,-4.3125 1.4375,-3.890625 V -4.5 h -0.75 V 0 h 0.75 v -2.375 c 0,-0.015625 0,-0.03125 0,-0.03125 0,-0.65625 0.34375,-1.515625 1.046875,-1.515625 H 2.53125 c 0.234375,0 0.421875,0.140625 0.65625,0.328125 z m 0,0"
             transform="translate(303.34258,134.765)"
             id="path221446"
             inkscape:connector-curvature="0" />
          <path
             style="fill:#000000;fill-opacity:1;stroke:none;stroke-width:0"
             d="m 4.59375,-4.5 h -0.6875 l -1.5,3.15625 L 0.890625,-4.5 h -0.6875 L 2.40625,0.140625 Z m 0,0"
             transform="translate(307.02874,134.765)"
             id="path221448"
             inkscape:connector-curvature="0" />
          <path
             style="fill:#000000;fill-opacity:1;stroke:none;stroke-width:0"
             d="m 1.4375,0 v -4.5 h -0.75 V 0 Z m -0.375,-6.890625 c -0.234375,0 -0.4375,0.21875 -0.4375,0.453125 0,0.25 0.203125,0.46875 0.4375,0.46875 0.25,0 0.4375,-0.21875 0.4375,-0.46875 0,-0.234375 -0.1875,-0.453125 -0.4375,-0.453125 z m 0,0"
             transform="translate(311.82076,134.765)"
             id="path221450"
             inkscape:connector-curvature="0" />
          <path
             style="fill:#000000;fill-opacity:1;stroke:none;stroke-width:0"
             d="M 3.984375,-1.25 C 3.984375,-2.140625 3.375,-2.421875 2.5625,-2.578125 L 2.25,-2.640625 c -0.4375,-0.09375 -1.078125,-0.1875 -1.078125,-0.671875 0.03125,-0.5625 0.6875,-0.671875 1.1875,-0.671875 0.796875,0.03125 0.734375,0.078125 1.40625,0.359375 v -0.734375 c -0.421875,-0.171875 -0.953125,-0.25 -1.5,-0.25 C 1.375,-4.609375 0.5,-4.28125 0.5,-3.28125 c 0.015625,0.8125 0.5625,1.125 1.3125,1.265625 l 0.28125,0.0625 c 0.546875,0.125 1.171875,0.1875 1.171875,0.765625 C 3.234375,-0.625 2.59375,-0.515625 2.09375,-0.515625 1.265625,-0.53125 1.140625,-0.625 0.421875,-0.96875 v 0.8125 c 0.421875,0.109375 1.15625,0.28125 1.65625,0.28125 0.875,0 1.90625,-0.328125 1.90625,-1.375 z m 0,0"
             transform="translate(313.94279,134.765)"
             id="path221452"
             inkscape:connector-curvature="0" />
          <path
             style="fill:#000000;fill-opacity:1;stroke:none;stroke-width:0"
             d="m 4.546875,-2.25 v -0.078125 c 0,-1.296875 -0.53125,-2.25 -2.015625,-2.28125 -1.328125,0 -2.078125,1.15625 -2.078125,2.40625 0,1.359375 0.828125,2.328125 2.203125,2.328125 0.625,0 1.1875,-0.140625 1.734375,-0.34375 v -0.75 C 3.671875,-0.625 3.5625,-0.546875 2.71875,-0.546875 c -0.9375,0 -1.5,-0.5625 -1.5,-1.625 V -2.25 Z M 3.8125,-2.859375 H 1.25 c 0.09375,-0.59375 0.53125,-1.109375 1.28125,-1.109375 0.78125,0 1.28125,0.484375 1.28125,1.109375 z m 0,0"
             transform="translate(318.33629,134.765)"
             id="path221454"
             inkscape:connector-curvature="0" />
          <path
             style="fill:#000000;fill-opacity:1;stroke:none;stroke-width:0"
             d="m 0.4375,-2.25 c 0,1.328125 0.875,2.25 2.21875,2.25 H 4.5625 v -6.890625 h -0.75 V -4.5 H 2.71875 C 1.25,-4.5 0.4375,-3.59375 0.4375,-2.25 Z m 0.71875,0 c 0,-0.875 0.5625,-1.59375 1.5625,-1.59375 H 3.8125 v 3.1875 H 2.71875 c -0.984375,0 -1.5625,-0.625 -1.5625,-1.59375 z m 0,0"
             transform="translate(323.27774,134.765)"
             id="path221456"
             inkscape:connector-curvature="0" />
        </g>
        <g
           style="fill:#000000;fill-opacity:1"
           id="g221468">
          <path
             style="fill:#000000;fill-opacity:1;stroke:none;stroke-width:0"
             d="M 1.3125,-6.890625 H 0.578125 V 0 H 1.3125 Z m 0,0"
             transform="translate(289.465,146.72)"
             id="path221460"
             inkscape:connector-curvature="0" />
          <path
             style="fill:#000000;fill-opacity:1;stroke:none;stroke-width:0"
             d="m 4.546875,-2.25 v -0.078125 c 0,-1.296875 -0.53125,-2.25 -2.015625,-2.28125 -1.328125,0 -2.078125,1.15625 -2.078125,2.40625 0,1.359375 0.828125,2.328125 2.203125,2.328125 0.625,0 1.1875,-0.140625 1.734375,-0.34375 v -0.75 C 3.671875,-0.625 3.5625,-0.546875 2.71875,-0.546875 c -0.9375,0 -1.5,-0.5625 -1.5,-1.625 V -2.25 Z M 3.8125,-2.859375 H 1.25 c 0.09375,-0.59375 0.53125,-1.109375 1.28125,-1.109375 0.78125,0 1.28125,0.484375 1.28125,1.109375 z m 0,0"
             transform="translate(291.45752,146.72)"
             id="path221462"
             inkscape:connector-curvature="0" />
          <path
             style="fill:#000000;fill-opacity:1;stroke:none;stroke-width:0"
             d="m 4.140625,0 v -2.5625 c 0,-1.296875 -0.546875,-2.046875 -1.890625,-2.046875 -0.484375,0 -1.078125,0.15625 -1.515625,0.3125 V -3.5625 C 1.1875,-3.8125 1.5625,-3.96875 2.1875,-3.96875 c 0.71875,0.015625 1.265625,0.375 1.265625,1.125 h -1.03125 c -1.0625,0 -2,0.359375 -2,1.53125 0.03125,0.90625 0.5625,1.4375 1.46875,1.4375 0.640625,0 1.21875,-0.265625 1.5625,-0.71875 V 0 Z m -0.6875,-2.09375 c 0,0.875 -0.40625,1.578125 -1.34375,1.578125 -0.546875,0 -1,-0.25 -1,-0.84375 0,-0.875 0.828125,-0.875 1.609375,-0.875 h 0.734375 z m 0,0"
             transform="translate(296.39897,146.72)"
             id="path221464"
             inkscape:connector-curvature="0" />
          <path
             style="fill:#000000;fill-opacity:1;stroke:none;stroke-width:0"
             d="M 3.1875,-3.59375 3.421875,-4.3125 C 3.3125,-4.4375 2.828125,-4.5625 2.5,-4.5625 2.03125,-4.546875 1.640625,-4.3125 1.4375,-3.890625 V -4.5 h -0.75 V 0 h 0.75 v -2.375 c 0,-0.015625 0,-0.03125 0,-0.03125 0,-0.65625 0.34375,-1.515625 1.046875,-1.515625 H 2.53125 c 0.234375,0 0.421875,0.140625 0.65625,0.328125 z m 0,0"
             transform="translate(301.17106,146.72)"
             id="path221466"
             inkscape:connector-curvature="0" />
        </g>
        <g
           style="fill:#000000;fill-opacity:1"
           id="g221478">
          <path
             style="fill:#000000;fill-opacity:1;stroke:none;stroke-width:0"
             d="m 4.5625,0 v -2.71875 c 0,-1.0625 -0.453125,-1.890625 -1.609375,-1.890625 -0.578125,0 -1.171875,0.21875 -1.53125,0.71875 V -4.5 H 0.6875 V 0 h 0.734375 v -2.546875 c 0.03125,-0.859375 0.5625,-1.40625 1.359375,-1.40625 0.78125,0 1.0625,0.46875 1.0625,1.265625 V 0 Z m 0,0"
             transform="translate(304.65796,146.72)"
             id="path221470"
             inkscape:connector-curvature="0" />
          <path
             style="fill:#000000;fill-opacity:1;stroke:none;stroke-width:0"
             d="m 1.4375,0 v -4.5 h -0.75 V 0 Z m -0.375,-6.890625 c -0.234375,0 -0.4375,0.21875 -0.4375,0.453125 0,0.25 0.203125,0.46875 0.4375,0.46875 0.25,0 0.4375,-0.21875 0.4375,-0.46875 0,-0.234375 -0.1875,-0.453125 -0.4375,-0.453125 z m 0,0"
             transform="translate(309.84848,146.72)"
             id="path221472"
             inkscape:connector-curvature="0" />
          <path
             style="fill:#000000;fill-opacity:1;stroke:none;stroke-width:0"
             d="m 4.5625,0 v -2.71875 c 0,-1.0625 -0.453125,-1.890625 -1.609375,-1.890625 -0.578125,0 -1.171875,0.21875 -1.53125,0.71875 V -4.5 H 0.6875 V 0 h 0.734375 v -2.546875 c 0.03125,-0.859375 0.5625,-1.40625 1.359375,-1.40625 0.78125,0 1.0625,0.46875 1.0625,1.265625 V 0 Z m 0,0"
             transform="translate(311.97051,146.72)"
             id="path221474"
             inkscape:connector-curvature="0" />
          <path
             style="fill:#000000;fill-opacity:1;stroke:none;stroke-width:0"
             d="m 2.046875,-0.109375 c 0.84375,0 1.421875,0.40625 1.421875,0.953125 0,0.546875 -0.578125,0.9375 -1.421875,0.9375 -0.84375,0 -1.3125,-0.390625 -1.3125,-0.9375 0,-0.546875 0.46875,-0.953125 1.3125,-0.953125 z m 0,-0.640625 c -0.078125,0 -0.15625,0 -0.25,0.015625 -0.46875,0 -0.875,-0.28125 -0.875,-0.46875 0,-0.21875 0.25,-0.296875 0.4375,-0.296875 h 0.0625 c 0.15625,0.140625 0.625,0.1875 0.765625,0.1875 0.859375,0 1.546875,-0.734375 1.546875,-1.640625 0,-0.359375 -0.125,-0.703125 -0.328125,-0.96875 h 0.734375 v -0.5625 H 2.875 c -0.203125,-0.0625 -0.484375,-0.09375 -0.640625,-0.09375 -0.859375,0 -1.578125,0.734375 -1.609375,1.625 0,0.4375 0.15625,0.828125 0.4375,1.109375 -0.328125,0.0625 -0.6875,0.28125 -0.6875,0.703125 0,0.265625 0.171875,0.515625 0.53125,0.671875 -0.578125,0.296875 -0.921875,0.78125 -0.921875,1.296875 0,0.8125 0.828125,1.5625 2.0625,1.5625 1.25,0 2.265625,-0.75 2.265625,-1.546875 C 4.3125,-0.203125 3.09375,-0.75 2.046875,-0.75 Z M 2.1875,-3.953125 c 0.53125,0 0.96875,0.4375 0.96875,0.984375 C 3.15625,-2.4375 2.71875,-2 2.1875,-2 1.640625,-2 1.21875,-2.4375 1.21875,-2.96875 c 0,-0.546875 0.421875,-0.984375 0.96875,-0.984375 z m 0,0"
             transform="translate(317.16103,146.72)"
             id="path221476"
             inkscape:connector-curvature="0" />
        </g>
      </g>
    </g>
    <g
       id="g222032"
       style="fill:#000000;fill-opacity:1"
       ns1:jacobian_sqrt="0.28678"
       inkscapeversion="1.1.2"
       ns1:alignment="middle center"
       ns1:scale="0.812915907022"
       ns1:preamble="C:\\Users\\drsjd\\AppData\\Roaming\\inkscape\\extensions\\textext\\default_packages_simon.tex"
       ns1:text="\\begin{center}\n\\noindent Unsupervised\\\\learning\n\\end{center}"
       ns1:pdfconverter="pdf2svg"
       ns1:texconverter="pdflatex"
       ns1:version="0.11.0"
       transform="matrix(0.28678,0,0,0.28678,102.86573,169.20269)">
      <g
         style="fill:#000000;fill-opacity:1"
         id="g222030">
        <g
           id="g222008"
           style="fill:#000000;fill-opacity:1">
          <path
             id="path221984"
             transform="translate(277.475,134.765)"
             d="m 5.46875,-2.578125 v -4.3125 H 4.734375 V -2.6875 c 0,1.265625 -0.296875,2.15625 -1.65625,2.15625 C 1.6875,-0.53125 1.375,-1.390625 1.375,-2.6875 v -4.203125 h -0.75 v 4.3125 c 0,1.671875 0.734375,2.71875 2.453125,2.71875 1.703125,0 2.390625,-1.078125 2.390625,-2.71875 z m 0,0"
             style="fill:#000000;fill-opacity:1;stroke:none;stroke-width:0"
             inkscape:connector-curvature="0" />
          <path
             id="path221986"
             transform="translate(283.57211,134.765)"
             d="m 4.5625,0 v -2.71875 c 0,-1.0625 -0.453125,-1.890625 -1.609375,-1.890625 -0.578125,0 -1.171875,0.21875 -1.53125,0.71875 V -4.5 H 0.6875 V 0 h 0.734375 v -2.546875 c 0.03125,-0.859375 0.5625,-1.40625 1.359375,-1.40625 0.78125,0 1.0625,0.46875 1.0625,1.265625 V 0 Z m 0,0"
             style="fill:#000000;fill-opacity:1;stroke:none;stroke-width:0"
             inkscape:connector-curvature="0" />
          <path
             id="path221988"
             transform="translate(288.76263,134.765)"
             d="M 3.984375,-1.25 C 3.984375,-2.140625 3.375,-2.421875 2.5625,-2.578125 L 2.25,-2.640625 c -0.4375,-0.09375 -1.078125,-0.1875 -1.078125,-0.671875 0.03125,-0.5625 0.6875,-0.671875 1.1875,-0.671875 0.796875,0.03125 0.734375,0.078125 1.40625,0.359375 v -0.734375 c -0.421875,-0.171875 -0.953125,-0.25 -1.5,-0.25 C 1.375,-4.609375 0.5,-4.28125 0.5,-3.28125 c 0.015625,0.8125 0.5625,1.125 1.3125,1.265625 l 0.28125,0.0625 c 0.546875,0.125 1.171875,0.1875 1.171875,0.765625 C 3.234375,-0.625 2.59375,-0.515625 2.09375,-0.515625 1.265625,-0.53125 1.140625,-0.625 0.421875,-0.96875 v 0.8125 c 0.421875,0.109375 1.15625,0.28125 1.65625,0.28125 0.875,0 1.90625,-0.328125 1.90625,-1.375 z m 0,0"
             style="fill:#000000;fill-opacity:1;stroke:none;stroke-width:0"
             inkscape:connector-curvature="0" />
          <path
             id="path221990"
             transform="translate(293.15613,134.765)"
             d="M 4.53125,0 V -4.5 H 3.765625 v 2.546875 c 0,0.84375 -0.421875,1.421875 -1.328125,1.421875 -0.796875,0 -1.078125,-0.5 -1.078125,-1.265625 V -4.5 h -0.71875 v 2.71875 c 0,1.0625 0.5,1.90625 1.625,1.90625 0.578125,0 1.171875,-0.328125 1.5,-0.71875 V 0 Z m 0,0"
             style="fill:#000000;fill-opacity:1;stroke:none;stroke-width:0"
             inkscape:connector-curvature="0" />
          <path
             id="path221992"
             transform="translate(298.37653,134.765)"
             d="m 4.8125,-2.25 c 0,-1.3125 -0.875,-2.25 -2.203125,-2.25 H 0.6875 v 6.90625 h 0.75 V 0 H 2.546875 C 4,0 4.8125,-0.90625 4.8125,-2.25 Z m -0.71875,0 c 0,0.890625 -0.5625,1.59375 -1.546875,1.59375 H 1.4375 v -3.1875 h 1.109375 c 0.96875,0 1.546875,0.640625 1.546875,1.59375 z m 0,0"
             style="fill:#000000;fill-opacity:1;stroke:none;stroke-width:0"
             inkscape:connector-curvature="0" />
          <path
             id="path221994"
             transform="translate(303.64675,134.765)"
             d="m 4.546875,-2.25 v -0.078125 c 0,-1.296875 -0.53125,-2.25 -2.015625,-2.28125 -1.328125,0 -2.078125,1.15625 -2.078125,2.40625 0,1.359375 0.828125,2.328125 2.203125,2.328125 0.625,0 1.1875,-0.140625 1.734375,-0.34375 v -0.75 C 3.671875,-0.625 3.5625,-0.546875 2.71875,-0.546875 c -0.9375,0 -1.5,-0.5625 -1.5,-1.625 V -2.25 Z M 3.8125,-2.859375 H 1.25 c 0.09375,-0.59375 0.53125,-1.109375 1.28125,-1.109375 0.78125,0 1.28125,0.484375 1.28125,1.109375 z m 0,0"
             style="fill:#000000;fill-opacity:1;stroke:none;stroke-width:0"
             inkscape:connector-curvature="0" />
          <path
             id="path221996"
             transform="translate(308.5882,134.765)"
             d="M 3.1875,-3.59375 3.421875,-4.3125 C 3.3125,-4.4375 2.828125,-4.5625 2.5,-4.5625 2.03125,-4.546875 1.640625,-4.3125 1.4375,-3.890625 V -4.5 h -0.75 V 0 h 0.75 v -2.375 c 0,-0.015625 0,-0.03125 0,-0.03125 0,-0.65625 0.34375,-1.515625 1.046875,-1.515625 H 2.53125 c 0.234375,0 0.421875,0.140625 0.65625,0.328125 z m 0,0"
             style="fill:#000000;fill-opacity:1;stroke:none;stroke-width:0"
             inkscape:connector-curvature="0" />
          <path
             id="path221998"
             transform="translate(312.27436,134.765)"
             d="m 4.59375,-4.5 h -0.6875 l -1.5,3.15625 L 0.890625,-4.5 h -0.6875 L 2.40625,0.140625 Z m 0,0"
             style="fill:#000000;fill-opacity:1;stroke:none;stroke-width:0"
             inkscape:connector-curvature="0" />
          <path
             id="path222000"
             transform="translate(317.06637,134.765)"
             d="m 1.4375,0 v -4.5 h -0.75 V 0 Z m -0.375,-6.890625 c -0.234375,0 -0.4375,0.21875 -0.4375,0.453125 0,0.25 0.203125,0.46875 0.4375,0.46875 0.25,0 0.4375,-0.21875 0.4375,-0.46875 0,-0.234375 -0.1875,-0.453125 -0.4375,-0.453125 z m 0,0"
             style="fill:#000000;fill-opacity:1;stroke:none;stroke-width:0"
             inkscape:connector-curvature="0" />
          <path
             id="path222002"
             transform="translate(319.18841,134.765)"
             d="M 3.984375,-1.25 C 3.984375,-2.140625 3.375,-2.421875 2.5625,-2.578125 L 2.25,-2.640625 c -0.4375,-0.09375 -1.078125,-0.1875 -1.078125,-0.671875 0.03125,-0.5625 0.6875,-0.671875 1.1875,-0.671875 0.796875,0.03125 0.734375,0.078125 1.40625,0.359375 v -0.734375 c -0.421875,-0.171875 -0.953125,-0.25 -1.5,-0.25 C 1.375,-4.609375 0.5,-4.28125 0.5,-3.28125 c 0.015625,0.8125 0.5625,1.125 1.3125,1.265625 l 0.28125,0.0625 c 0.546875,0.125 1.171875,0.1875 1.171875,0.765625 C 3.234375,-0.625 2.59375,-0.515625 2.09375,-0.515625 1.265625,-0.53125 1.140625,-0.625 0.421875,-0.96875 v 0.8125 c 0.421875,0.109375 1.15625,0.28125 1.65625,0.28125 0.875,0 1.90625,-0.328125 1.90625,-1.375 z m 0,0"
             style="fill:#000000;fill-opacity:1;stroke:none;stroke-width:0"
             inkscape:connector-curvature="0" />
          <path
             id="path222004"
             transform="translate(323.58191,134.765)"
             d="m 4.546875,-2.25 v -0.078125 c 0,-1.296875 -0.53125,-2.25 -2.015625,-2.28125 -1.328125,0 -2.078125,1.15625 -2.078125,2.40625 0,1.359375 0.828125,2.328125 2.203125,2.328125 0.625,0 1.1875,-0.140625 1.734375,-0.34375 v -0.75 C 3.671875,-0.625 3.5625,-0.546875 2.71875,-0.546875 c -0.9375,0 -1.5,-0.5625 -1.5,-1.625 V -2.25 Z M 3.8125,-2.859375 H 1.25 c 0.09375,-0.59375 0.53125,-1.109375 1.28125,-1.109375 0.78125,0 1.28125,0.484375 1.28125,1.109375 z m 0,0"
             style="fill:#000000;fill-opacity:1;stroke:none;stroke-width:0"
             inkscape:connector-curvature="0" />
          <path
             id="path222006"
             transform="translate(328.52336,134.765)"
             d="m 0.4375,-2.25 c 0,1.328125 0.875,2.25 2.21875,2.25 H 4.5625 v -6.890625 h -0.75 V -4.5 H 2.71875 C 1.25,-4.5 0.4375,-3.59375 0.4375,-2.25 Z m 0.71875,0 c 0,-0.875 0.5625,-1.59375 1.5625,-1.59375 H 3.8125 v 3.1875 H 2.71875 c -0.984375,0 -1.5625,-0.625 -1.5625,-1.59375 z m 0,0"
             style="fill:#000000;fill-opacity:1;stroke:none;stroke-width:0"
             inkscape:connector-curvature="0" />
        </g>
        <g
           id="g222018"
           style="fill:#000000;fill-opacity:1">
          <path
             id="path222010"
             transform="translate(289.465,146.72)"
             d="M 1.3125,-6.890625 H 0.578125 V 0 H 1.3125 Z m 0,0"
             style="fill:#000000;fill-opacity:1;stroke:none;stroke-width:0"
             inkscape:connector-curvature="0" />
          <path
             id="path222012"
             transform="translate(291.45752,146.72)"
             d="m 4.546875,-2.25 v -0.078125 c 0,-1.296875 -0.53125,-2.25 -2.015625,-2.28125 -1.328125,0 -2.078125,1.15625 -2.078125,2.40625 0,1.359375 0.828125,2.328125 2.203125,2.328125 0.625,0 1.1875,-0.140625 1.734375,-0.34375 v -0.75 C 3.671875,-0.625 3.5625,-0.546875 2.71875,-0.546875 c -0.9375,0 -1.5,-0.5625 -1.5,-1.625 V -2.25 Z M 3.8125,-2.859375 H 1.25 c 0.09375,-0.59375 0.53125,-1.109375 1.28125,-1.109375 0.78125,0 1.28125,0.484375 1.28125,1.109375 z m 0,0"
             style="fill:#000000;fill-opacity:1;stroke:none;stroke-width:0"
             inkscape:connector-curvature="0" />
          <path
             id="path222014"
             transform="translate(296.39897,146.72)"
             d="m 4.140625,0 v -2.5625 c 0,-1.296875 -0.546875,-2.046875 -1.890625,-2.046875 -0.484375,0 -1.078125,0.15625 -1.515625,0.3125 V -3.5625 C 1.1875,-3.8125 1.5625,-3.96875 2.1875,-3.96875 c 0.71875,0.015625 1.265625,0.375 1.265625,1.125 h -1.03125 c -1.0625,0 -2,0.359375 -2,1.53125 0.03125,0.90625 0.5625,1.4375 1.46875,1.4375 0.640625,0 1.21875,-0.265625 1.5625,-0.71875 V 0 Z m -0.6875,-2.09375 c 0,0.875 -0.40625,1.578125 -1.34375,1.578125 -0.546875,0 -1,-0.25 -1,-0.84375 0,-0.875 0.828125,-0.875 1.609375,-0.875 h 0.734375 z m 0,0"
             style="fill:#000000;fill-opacity:1;stroke:none;stroke-width:0"
             inkscape:connector-curvature="0" />
          <path
             id="path222016"
             transform="translate(301.17106,146.72)"
             d="M 3.1875,-3.59375 3.421875,-4.3125 C 3.3125,-4.4375 2.828125,-4.5625 2.5,-4.5625 2.03125,-4.546875 1.640625,-4.3125 1.4375,-3.890625 V -4.5 h -0.75 V 0 h 0.75 v -2.375 c 0,-0.015625 0,-0.03125 0,-0.03125 0,-0.65625 0.34375,-1.515625 1.046875,-1.515625 H 2.53125 c 0.234375,0 0.421875,0.140625 0.65625,0.328125 z m 0,0"
             style="fill:#000000;fill-opacity:1;stroke:none;stroke-width:0"
             inkscape:connector-curvature="0" />
        </g>
        <g
           id="g222028"
           style="fill:#000000;fill-opacity:1">
          <path
             id="path222020"
             transform="translate(304.65796,146.72)"
             d="m 4.5625,0 v -2.71875 c 0,-1.0625 -0.453125,-1.890625 -1.609375,-1.890625 -0.578125,0 -1.171875,0.21875 -1.53125,0.71875 V -4.5 H 0.6875 V 0 h 0.734375 v -2.546875 c 0.03125,-0.859375 0.5625,-1.40625 1.359375,-1.40625 0.78125,0 1.0625,0.46875 1.0625,1.265625 V 0 Z m 0,0"
             style="fill:#000000;fill-opacity:1;stroke:none;stroke-width:0"
             inkscape:connector-curvature="0" />
          <path
             id="path222022"
             transform="translate(309.84848,146.72)"
             d="m 1.4375,0 v -4.5 h -0.75 V 0 Z m -0.375,-6.890625 c -0.234375,0 -0.4375,0.21875 -0.4375,0.453125 0,0.25 0.203125,0.46875 0.4375,0.46875 0.25,0 0.4375,-0.21875 0.4375,-0.46875 0,-0.234375 -0.1875,-0.453125 -0.4375,-0.453125 z m 0,0"
             style="fill:#000000;fill-opacity:1;stroke:none;stroke-width:0"
             inkscape:connector-curvature="0" />
          <path
             id="path222024"
             transform="translate(311.97051,146.72)"
             d="m 4.5625,0 v -2.71875 c 0,-1.0625 -0.453125,-1.890625 -1.609375,-1.890625 -0.578125,0 -1.171875,0.21875 -1.53125,0.71875 V -4.5 H 0.6875 V 0 h 0.734375 v -2.546875 c 0.03125,-0.859375 0.5625,-1.40625 1.359375,-1.40625 0.78125,0 1.0625,0.46875 1.0625,1.265625 V 0 Z m 0,0"
             style="fill:#000000;fill-opacity:1;stroke:none;stroke-width:0"
             inkscape:connector-curvature="0" />
          <path
             id="path222026"
             transform="translate(317.16103,146.72)"
             d="m 2.046875,-0.109375 c 0.84375,0 1.421875,0.40625 1.421875,0.953125 0,0.546875 -0.578125,0.9375 -1.421875,0.9375 -0.84375,0 -1.3125,-0.390625 -1.3125,-0.9375 0,-0.546875 0.46875,-0.953125 1.3125,-0.953125 z m 0,-0.640625 c -0.078125,0 -0.15625,0 -0.25,0.015625 -0.46875,0 -0.875,-0.28125 -0.875,-0.46875 0,-0.21875 0.25,-0.296875 0.4375,-0.296875 h 0.0625 c 0.15625,0.140625 0.625,0.1875 0.765625,0.1875 0.859375,0 1.546875,-0.734375 1.546875,-1.640625 0,-0.359375 -0.125,-0.703125 -0.328125,-0.96875 h 0.734375 v -0.5625 H 2.875 c -0.203125,-0.0625 -0.484375,-0.09375 -0.640625,-0.09375 -0.859375,0 -1.578125,0.734375 -1.609375,1.625 0,0.4375 0.15625,0.828125 0.4375,1.109375 -0.328125,0.0625 -0.6875,0.28125 -0.6875,0.703125 0,0.265625 0.171875,0.515625 0.53125,0.671875 -0.578125,0.296875 -0.921875,0.78125 -0.921875,1.296875 0,0.8125 0.828125,1.5625 2.0625,1.5625 1.25,0 2.265625,-0.75 2.265625,-1.546875 C 4.3125,-0.203125 3.09375,-0.75 2.046875,-0.75 Z M 2.1875,-3.953125 c 0.53125,0 0.96875,0.4375 0.96875,0.984375 C 3.15625,-2.4375 2.71875,-2 2.1875,-2 1.640625,-2 1.21875,-2.4375 1.21875,-2.96875 c 0,-0.546875 0.421875,-0.984375 0.96875,-0.984375 z m 0,0"
             style="fill:#000000;fill-opacity:1;stroke:none;stroke-width:0"
             inkscape:connector-curvature="0" />
        </g>
      </g>
    </g>
    <g
       transform="matrix(0.28678,0,0,0.28678,123.92778,169.234)"
       ns1:version="0.11.0"
       ns1:texconverter="pdflatex"
       ns1:pdfconverter="pdf2svg"
       ns1:text="\\begin{center}\n\\noindent Reinforcement\\\\learning\n\\end{center}"
       ns1:preamble="C:\\Users\\drsjd\\AppData\\Roaming\\inkscape\\extensions\\textext\\default_packages_simon.tex"
       ns1:scale="0.812915907022"
       ns1:alignment="middle center"
       inkscapeversion="1.1.2"
       ns1:jacobian_sqrt="0.28678"
       style="fill:#000000;fill-opacity:1"
       id="g222486">
      <g
         id="g222484"
         style="fill:#000000;fill-opacity:1">
        <g
           style="fill:#000000;fill-opacity:1"
           id="g222432">
          <path
             style="fill:#000000;fill-opacity:1;stroke:none;stroke-width:0"
             d="M 5.3125,0 C 4.609375,-0.796875 4.46875,-2.640625 3.453125,-3.265625 4.546875,-3.5625 4.734375,-4.125 4.734375,-4.9375 4.734375,-6.3125 3.9375,-6.890625 2.625,-6.890625 H 0.6875 V 0 h 0.75 V -2.953125 H 2.53125 C 2.984375,-2.953125 3.375,-2.5625 3.75,-1.78125 3.984375,-1.171875 4.046875,-0.4375 4.53125,0 Z M 4,-4.9375 c 0,0.875 -0.53125,1.296875 -1.375,1.296875 H 1.4375 v -2.5625 H 2.625 C 3.453125,-6.1875 4,-5.859375 4,-4.9375 Z m 0,0"
             transform="translate(275.681,134.765)"
             id="path222430"
             inkscape:connector-curvature="0" />
        </g>
        <g
           style="fill:#000000;fill-opacity:1"
           id="g222442">
          <path
             style="fill:#000000;fill-opacity:1;stroke:none;stroke-width:0"
             d="m 4.546875,-2.25 v -0.078125 c 0,-1.296875 -0.53125,-2.25 -2.015625,-2.28125 -1.328125,0 -2.078125,1.15625 -2.078125,2.40625 0,1.359375 0.828125,2.328125 2.203125,2.328125 0.625,0 1.1875,-0.140625 1.734375,-0.34375 v -0.75 C 3.671875,-0.625 3.5625,-0.546875 2.71875,-0.546875 c -0.9375,0 -1.5,-0.5625 -1.5,-1.625 V -2.25 Z M 3.8125,-2.859375 H 1.25 c 0.09375,-0.59375 0.53125,-1.109375 1.28125,-1.109375 0.78125,0 1.28125,0.484375 1.28125,1.109375 z m 0,0"
             transform="translate(280.96118,134.765)"
             id="path222434"
             inkscape:connector-curvature="0" />
          <path
             style="fill:#000000;fill-opacity:1;stroke:none;stroke-width:0"
             d="m 1.4375,0 v -4.5 h -0.75 V 0 Z m -0.375,-6.890625 c -0.234375,0 -0.4375,0.21875 -0.4375,0.453125 0,0.25 0.203125,0.46875 0.4375,0.46875 0.25,0 0.4375,-0.21875 0.4375,-0.46875 0,-0.234375 -0.1875,-0.453125 -0.4375,-0.453125 z m 0,0"
             transform="translate(285.90263,134.765)"
             id="path222436"
             inkscape:connector-curvature="0" />
          <path
             style="fill:#000000;fill-opacity:1;stroke:none;stroke-width:0"
             d="m 4.5625,0 v -2.71875 c 0,-1.0625 -0.453125,-1.890625 -1.609375,-1.890625 -0.578125,0 -1.171875,0.21875 -1.53125,0.71875 V -4.5 H 0.6875 V 0 h 0.734375 v -2.546875 c 0.03125,-0.859375 0.5625,-1.40625 1.359375,-1.40625 0.78125,0 1.0625,0.46875 1.0625,1.265625 V 0 Z m 0,0"
             transform="translate(288.02466,134.765)"
             id="path222438"
             inkscape:connector-curvature="0" />
          <path
             style="fill:#000000;fill-opacity:1;stroke:none;stroke-width:0"
             d="m 3.1875,-6.265625 v -0.625 H 2.46875 C 1.75,-6.890625 1.03125,-6.40625 1,-5.09375 V -4.5 H 0.265625 v 0.609375 H 1 V 0 H 1.75 V -3.890625 H 3.015625 V -4.5 H 1.75 v -0.6875 c 0,-0.875 0.5,-1.078125 0.703125,-1.078125 z m 0,0"
             transform="translate(293.21518,134.765)"
             id="path222440"
             inkscape:connector-curvature="0" />
        </g>
        <g
           style="fill:#000000;fill-opacity:1"
           id="g222448">
          <path
             style="fill:#000000;fill-opacity:1;stroke:none;stroke-width:0"
             d="m 4.6875,-2.25 c 0,-1.140625 -0.609375,-2.359375 -2.109375,-2.359375 -1.359375,0 -2.125,1.046875 -2.125,2.359375 0,1.234375 0.796875,2.34375 2.125,2.375 C 3.921875,0.09375 4.6875,-0.984375 4.6875,-2.25 Z m -0.734375,0 c 0,0.890625 -0.546875,1.6875 -1.375,1.6875 -1.125,-0.015625 -1.375,-1.015625 -1.375,-1.703125 0,-0.90625 0.4375,-1.65625 1.375,-1.671875 0.875,0.015625 1.375,0.828125 1.375,1.6875 z m 0,0"
             transform="translate(296.11429,134.765)"
             id="path222444"
             inkscape:connector-curvature="0" />
          <path
             style="fill:#000000;fill-opacity:1;stroke:none;stroke-width:0"
             d="M 3.1875,-3.59375 3.421875,-4.3125 C 3.3125,-4.4375 2.828125,-4.5625 2.5,-4.5625 2.03125,-4.546875 1.640625,-4.3125 1.4375,-3.890625 V -4.5 h -0.75 V 0 h 0.75 v -2.375 c 0,-0.015625 0,-0.03125 0,-0.03125 0,-0.65625 0.34375,-1.515625 1.046875,-1.515625 H 2.53125 c 0.234375,0 0.421875,0.140625 0.65625,0.328125 z m 0,0"
             transform="translate(301.28488,134.765)"
             id="path222446"
             inkscape:connector-curvature="0" />
        </g>
        <g
           style="fill:#000000;fill-opacity:1"
           id="g222462">
          <path
             style="fill:#000000;fill-opacity:1;stroke:none;stroke-width:0"
             d="m 4.140625,-0.15625 v -0.734375 c -0.484375,0.25 -0.6875,0.375 -1.3125,0.375 -1.09375,-0.015625 -1.625,-0.65625 -1.625,-1.734375 0,-1.046875 0.546875,-1.71875 1.625,-1.71875 0.59375,0.03125 0.8125,0.125 1.3125,0.375 v -0.75 c -0.40625,-0.125 -0.84375,-0.265625 -1.359375,-0.265625 -1.46875,0 -2.328125,0.9375 -2.328125,2.359375 0.03125,1.40625 0.828125,2.375 2.28125,2.375 0.5,0 1.03125,-0.140625 1.40625,-0.28125 z m 0,0"
             transform="translate(304.54265,134.765)"
             id="path222450"
             inkscape:connector-curvature="0" />
          <path
             style="fill:#000000;fill-opacity:1;stroke:none;stroke-width:0"
             d="m 4.546875,-2.25 v -0.078125 c 0,-1.296875 -0.53125,-2.25 -2.015625,-2.28125 -1.328125,0 -2.078125,1.15625 -2.078125,2.40625 0,1.359375 0.828125,2.328125 2.203125,2.328125 0.625,0 1.1875,-0.140625 1.734375,-0.34375 v -0.75 C 3.671875,-0.625 3.5625,-0.546875 2.71875,-0.546875 c -0.9375,0 -1.5,-0.5625 -1.5,-1.625 V -2.25 Z M 3.8125,-2.859375 H 1.25 c 0.09375,-0.59375 0.53125,-1.109375 1.28125,-1.109375 0.78125,0 1.28125,0.484375 1.28125,1.109375 z m 0,0"
             transform="translate(309.04575,134.765)"
             id="path222452"
             inkscape:connector-curvature="0" />
          <path
             style="fill:#000000;fill-opacity:1;stroke:none;stroke-width:0"
             d="m 7.375,0 v -2.71875 c 0,-0.96875 -0.359375,-1.890625 -1.46875,-1.890625 -0.6875,0 -1.25,0.359375 -1.609375,0.90625 -0.234375,-0.53125 -0.734375,-0.90625 -1.375,-0.90625 -0.59375,0 -1.171875,0.3125 -1.5,0.71875 V -4.5 H 0.6875 V 0 H 1.421875 V -2.546875 C 1.453125,-3.34375 1.9375,-3.953125 2.65625,-3.953125 h 0.046875 c 0.75,0 0.96875,0.46875 0.96875,1.265625 V 0 h 0.71875 v -2.546875 c 0.015625,-0.84375 0.4375,-1.40625 1.3125,-1.40625 0.75,0 0.96875,0.515625 0.96875,1.265625 V 0 Z m 0,0"
             transform="translate(313.9872,134.765)"
             id="path222454"
             inkscape:connector-curvature="0" />
          <path
             style="fill:#000000;fill-opacity:1;stroke:none;stroke-width:0"
             d="m 4.546875,-2.25 v -0.078125 c 0,-1.296875 -0.53125,-2.25 -2.015625,-2.28125 -1.328125,0 -2.078125,1.15625 -2.078125,2.40625 0,1.359375 0.828125,2.328125 2.203125,2.328125 0.625,0 1.1875,-0.140625 1.734375,-0.34375 v -0.75 C 3.671875,-0.625 3.5625,-0.546875 2.71875,-0.546875 c -0.9375,0 -1.5,-0.5625 -1.5,-1.625 V -2.25 Z M 3.8125,-2.859375 H 1.25 c 0.09375,-0.59375 0.53125,-1.109375 1.28125,-1.109375 0.78125,0 1.28125,0.484375 1.28125,1.109375 z m 0,0"
             transform="translate(321.99713,134.765)"
             id="path222456"
             inkscape:connector-curvature="0" />
          <path
             style="fill:#000000;fill-opacity:1;stroke:none;stroke-width:0"
             d="m 4.5625,0 v -2.71875 c 0,-1.0625 -0.453125,-1.890625 -1.609375,-1.890625 -0.578125,0 -1.171875,0.21875 -1.53125,0.71875 V -4.5 H 0.6875 V 0 h 0.734375 v -2.546875 c 0.03125,-0.859375 0.5625,-1.40625 1.359375,-1.40625 0.78125,0 1.0625,0.46875 1.0625,1.265625 V 0 Z m 0,0"
             transform="translate(326.93858,134.765)"
             id="path222458"
             inkscape:connector-curvature="0" />
          <path
             style="fill:#000000;fill-opacity:1;stroke:none;stroke-width:0"
             d="M 3.203125,0 V -0.640625 H 2.421875 C 1.71875,-0.640625 1.59375,-0.8125 1.59375,-1.46875 v -2.4375 H 2.921875 V -4.5 H 1.59375 V -5.78125 H 1.28125 L 0.859375,-4.5 h -0.53125 v 0.59375 h 0.53125 v 2.4375 C 0.859375,-0.34375 1.3125,0 2.421875,0 Z m 0,0"
             transform="translate(332.12909,134.765)"
             id="path222460"
             inkscape:connector-curvature="0" />
        </g>
        <g
           style="fill:#000000;fill-opacity:1"
           id="g222472">
          <path
             style="fill:#000000;fill-opacity:1;stroke:none;stroke-width:0"
             d="M 1.3125,-6.890625 H 0.578125 V 0 H 1.3125 Z m 0,0"
             transform="translate(289.465,146.72)"
             id="path222464"
             inkscape:connector-curvature="0" />
          <path
             style="fill:#000000;fill-opacity:1;stroke:none;stroke-width:0"
             d="m 4.546875,-2.25 v -0.078125 c 0,-1.296875 -0.53125,-2.25 -2.015625,-2.28125 -1.328125,0 -2.078125,1.15625 -2.078125,2.40625 0,1.359375 0.828125,2.328125 2.203125,2.328125 0.625,0 1.1875,-0.140625 1.734375,-0.34375 v -0.75 C 3.671875,-0.625 3.5625,-0.546875 2.71875,-0.546875 c -0.9375,0 -1.5,-0.5625 -1.5,-1.625 V -2.25 Z M 3.8125,-2.859375 H 1.25 c 0.09375,-0.59375 0.53125,-1.109375 1.28125,-1.109375 0.78125,0 1.28125,0.484375 1.28125,1.109375 z m 0,0"
             transform="translate(291.45752,146.72)"
             id="path222466"
             inkscape:connector-curvature="0" />
          <path
             style="fill:#000000;fill-opacity:1;stroke:none;stroke-width:0"
             d="m 4.140625,0 v -2.5625 c 0,-1.296875 -0.546875,-2.046875 -1.890625,-2.046875 -0.484375,0 -1.078125,0.15625 -1.515625,0.3125 V -3.5625 C 1.1875,-3.8125 1.5625,-3.96875 2.1875,-3.96875 c 0.71875,0.015625 1.265625,0.375 1.265625,1.125 h -1.03125 c -1.0625,0 -2,0.359375 -2,1.53125 0.03125,0.90625 0.5625,1.4375 1.46875,1.4375 0.640625,0 1.21875,-0.265625 1.5625,-0.71875 V 0 Z m -0.6875,-2.09375 c 0,0.875 -0.40625,1.578125 -1.34375,1.578125 -0.546875,0 -1,-0.25 -1,-0.84375 0,-0.875 0.828125,-0.875 1.609375,-0.875 h 0.734375 z m 0,0"
             transform="translate(296.39897,146.72)"
             id="path222468"
             inkscape:connector-curvature="0" />
          <path
             style="fill:#000000;fill-opacity:1;stroke:none;stroke-width:0"
             d="M 3.1875,-3.59375 3.421875,-4.3125 C 3.3125,-4.4375 2.828125,-4.5625 2.5,-4.5625 2.03125,-4.546875 1.640625,-4.3125 1.4375,-3.890625 V -4.5 h -0.75 V 0 h 0.75 v -2.375 c 0,-0.015625 0,-0.03125 0,-0.03125 0,-0.65625 0.34375,-1.515625 1.046875,-1.515625 H 2.53125 c 0.234375,0 0.421875,0.140625 0.65625,0.328125 z m 0,0"
             transform="translate(301.17106,146.72)"
             id="path222470"
             inkscape:connector-curvature="0" />
        </g>
        <g
           style="fill:#000000;fill-opacity:1"
           id="g222482">
          <path
             style="fill:#000000;fill-opacity:1;stroke:none;stroke-width:0"
             d="m 4.5625,0 v -2.71875 c 0,-1.0625 -0.453125,-1.890625 -1.609375,-1.890625 -0.578125,0 -1.171875,0.21875 -1.53125,0.71875 V -4.5 H 0.6875 V 0 h 0.734375 v -2.546875 c 0.03125,-0.859375 0.5625,-1.40625 1.359375,-1.40625 0.78125,0 1.0625,0.46875 1.0625,1.265625 V 0 Z m 0,0"
             transform="translate(304.65796,146.72)"
             id="path222474"
             inkscape:connector-curvature="0" />
          <path
             style="fill:#000000;fill-opacity:1;stroke:none;stroke-width:0"
             d="m 1.4375,0 v -4.5 h -0.75 V 0 Z m -0.375,-6.890625 c -0.234375,0 -0.4375,0.21875 -0.4375,0.453125 0,0.25 0.203125,0.46875 0.4375,0.46875 0.25,0 0.4375,-0.21875 0.4375,-0.46875 0,-0.234375 -0.1875,-0.453125 -0.4375,-0.453125 z m 0,0"
             transform="translate(309.84848,146.72)"
             id="path222476"
             inkscape:connector-curvature="0" />
          <path
             style="fill:#000000;fill-opacity:1;stroke:none;stroke-width:0"
             d="m 4.5625,0 v -2.71875 c 0,-1.0625 -0.453125,-1.890625 -1.609375,-1.890625 -0.578125,0 -1.171875,0.21875 -1.53125,0.71875 V -4.5 H 0.6875 V 0 h 0.734375 v -2.546875 c 0.03125,-0.859375 0.5625,-1.40625 1.359375,-1.40625 0.78125,0 1.0625,0.46875 1.0625,1.265625 V 0 Z m 0,0"
             transform="translate(311.97051,146.72)"
             id="path222478"
             inkscape:connector-curvature="0" />
          <path
             style="fill:#000000;fill-opacity:1;stroke:none;stroke-width:0"
             d="m 2.046875,-0.109375 c 0.84375,0 1.421875,0.40625 1.421875,0.953125 0,0.546875 -0.578125,0.9375 -1.421875,0.9375 -0.84375,0 -1.3125,-0.390625 -1.3125,-0.9375 0,-0.546875 0.46875,-0.953125 1.3125,-0.953125 z m 0,-0.640625 c -0.078125,0 -0.15625,0 -0.25,0.015625 -0.46875,0 -0.875,-0.28125 -0.875,-0.46875 0,-0.21875 0.25,-0.296875 0.4375,-0.296875 h 0.0625 c 0.15625,0.140625 0.625,0.1875 0.765625,0.1875 0.859375,0 1.546875,-0.734375 1.546875,-1.640625 0,-0.359375 -0.125,-0.703125 -0.328125,-0.96875 h 0.734375 v -0.5625 H 2.875 c -0.203125,-0.0625 -0.484375,-0.09375 -0.640625,-0.09375 -0.859375,0 -1.578125,0.734375 -1.609375,1.625 0,0.4375 0.15625,0.828125 0.4375,1.109375 -0.328125,0.0625 -0.6875,0.28125 -0.6875,0.703125 0,0.265625 0.171875,0.515625 0.53125,0.671875 -0.578125,0.296875 -0.921875,0.78125 -0.921875,1.296875 0,0.8125 0.828125,1.5625 2.0625,1.5625 1.25,0 2.265625,-0.75 2.265625,-1.546875 C 4.3125,-0.203125 3.09375,-0.75 2.046875,-0.75 Z M 2.1875,-3.953125 c 0.53125,0 0.96875,0.4375 0.96875,0.984375 C 3.15625,-2.4375 2.71875,-2 2.1875,-2 1.640625,-2 1.21875,-2.4375 1.21875,-2.96875 c 0,-0.546875 0.421875,-0.984375 0.96875,-0.984375 z m 0,0"
             transform="translate(317.16103,146.72)"
             id="path222480"
             inkscape:connector-curvature="0" />
        </g>
      </g>
    </g>
    <g
       id="g222845"
       style="fill:#000000;fill-opacity:1"
       ns1:jacobian_sqrt="0.28678"
       inkscapeversion="1.1.2"
       ns1:alignment="middle center"
       ns1:scale="0.812915907022"
       ns1:preamble="C:\\Users\\drsjd\\AppData\\Roaming\\inkscape\\extensions\\textext\\default_packages_simon.tex"
       ns1:text="\\begin{center}\n\\noindent Deep learning\n\\end{center}"
       ns1:pdfconverter="pdf2svg"
       ns1:texconverter="pdflatex"
       ns1:version="0.11.0"
       transform="matrix(0.28678,0,0,0.28678,102.76434,179.66149)">
      <g
         style="fill:#000000;fill-opacity:1"
         id="g222843">
        <g
           id="g222821"
           style="fill:#000000;fill-opacity:1">
          <path
             id="path222813"
             transform="translate(277.181,134.765)"
             d="m 5.984375,-3.453125 c 0,-2.46875 -1.15625,-3.4375 -3.546875,-3.4375 h -1.75 V 0 h 1.75 c 2.390625,0 3.546875,-1 3.546875,-3.453125 z m -0.71875,0 c 0,1.875 -0.84375,2.765625 -2.6875,2.765625 H 1.4375 v -5.515625 h 1.140625 c 1.84375,0.015625 2.6875,0.8125 2.6875,2.75 z m 0,0"
             style="fill:#000000;fill-opacity:1;stroke:none;stroke-width:0"
             inkscape:connector-curvature="0" />
          <path
             id="path222815"
             transform="translate(283.60688,134.765)"
             d="m 4.546875,-2.25 v -0.078125 c 0,-1.296875 -0.53125,-2.25 -2.015625,-2.28125 -1.328125,0 -2.078125,1.15625 -2.078125,2.40625 0,1.359375 0.828125,2.328125 2.203125,2.328125 0.625,0 1.1875,-0.140625 1.734375,-0.34375 v -0.75 C 3.671875,-0.625 3.5625,-0.546875 2.71875,-0.546875 c -0.9375,0 -1.5,-0.5625 -1.5,-1.625 V -2.25 Z M 3.8125,-2.859375 H 1.25 c 0.09375,-0.59375 0.53125,-1.109375 1.28125,-1.109375 0.78125,0 1.28125,0.484375 1.28125,1.109375 z m 0,0"
             style="fill:#000000;fill-opacity:1;stroke:none;stroke-width:0"
             inkscape:connector-curvature="0" />
          <path
             id="path222817"
             transform="translate(288.54833,134.765)"
             d="m 4.546875,-2.25 v -0.078125 c 0,-1.296875 -0.53125,-2.25 -2.015625,-2.28125 -1.328125,0 -2.078125,1.15625 -2.078125,2.40625 0,1.359375 0.828125,2.328125 2.203125,2.328125 0.625,0 1.1875,-0.140625 1.734375,-0.34375 v -0.75 C 3.671875,-0.625 3.5625,-0.546875 2.71875,-0.546875 c -0.9375,0 -1.5,-0.5625 -1.5,-1.625 V -2.25 Z M 3.8125,-2.859375 H 1.25 c 0.09375,-0.59375 0.53125,-1.109375 1.28125,-1.109375 0.78125,0 1.28125,0.484375 1.28125,1.109375 z m 0,0"
             style="fill:#000000;fill-opacity:1;stroke:none;stroke-width:0"
             inkscape:connector-curvature="0" />
          <path
             id="path222819"
             transform="translate(293.48978,134.765)"
             d="m 4.8125,-2.25 c 0,-1.3125 -0.875,-2.25 -2.203125,-2.25 H 0.6875 v 6.90625 h 0.75 V 0 H 2.546875 C 4,0 4.8125,-0.90625 4.8125,-2.25 Z m -0.71875,0 c 0,0.890625 -0.5625,1.59375 -1.546875,1.59375 H 1.4375 v -3.1875 h 1.109375 c 0.96875,0 1.546875,0.640625 1.546875,1.59375 z m 0,0"
             style="fill:#000000;fill-opacity:1;stroke:none;stroke-width:0"
             inkscape:connector-curvature="0" />
        </g>
        <g
           id="g222831"
           style="fill:#000000;fill-opacity:1">
          <path
             id="path222823"
             transform="translate(301.74877,134.765)"
             d="M 1.3125,-6.890625 H 0.578125 V 0 H 1.3125 Z m 0,0"
             style="fill:#000000;fill-opacity:1;stroke:none;stroke-width:0"
             inkscape:connector-curvature="0" />
          <path
             id="path222825"
             transform="translate(303.74129,134.765)"
             d="m 4.546875,-2.25 v -0.078125 c 0,-1.296875 -0.53125,-2.25 -2.015625,-2.28125 -1.328125,0 -2.078125,1.15625 -2.078125,2.40625 0,1.359375 0.828125,2.328125 2.203125,2.328125 0.625,0 1.1875,-0.140625 1.734375,-0.34375 v -0.75 C 3.671875,-0.625 3.5625,-0.546875 2.71875,-0.546875 c -0.9375,0 -1.5,-0.5625 -1.5,-1.625 V -2.25 Z M 3.8125,-2.859375 H 1.25 c 0.09375,-0.59375 0.53125,-1.109375 1.28125,-1.109375 0.78125,0 1.28125,0.484375 1.28125,1.109375 z m 0,0"
             style="fill:#000000;fill-opacity:1;stroke:none;stroke-width:0"
             inkscape:connector-curvature="0" />
          <path
             id="path222827"
             transform="translate(308.68274,134.765)"
             d="m 4.140625,0 v -2.5625 c 0,-1.296875 -0.546875,-2.046875 -1.890625,-2.046875 -0.484375,0 -1.078125,0.15625 -1.515625,0.3125 V -3.5625 C 1.1875,-3.8125 1.5625,-3.96875 2.1875,-3.96875 c 0.71875,0.015625 1.265625,0.375 1.265625,1.125 h -1.03125 c -1.0625,0 -2,0.359375 -2,1.53125 0.03125,0.90625 0.5625,1.4375 1.46875,1.4375 0.640625,0 1.21875,-0.265625 1.5625,-0.71875 V 0 Z m -0.6875,-2.09375 c 0,0.875 -0.40625,1.578125 -1.34375,1.578125 -0.546875,0 -1,-0.25 -1,-0.84375 0,-0.875 0.828125,-0.875 1.609375,-0.875 h 0.734375 z m 0,0"
             style="fill:#000000;fill-opacity:1;stroke:none;stroke-width:0"
             inkscape:connector-curvature="0" />
          <path
             id="path222829"
             transform="translate(313.45483,134.765)"
             d="M 3.1875,-3.59375 3.421875,-4.3125 C 3.3125,-4.4375 2.828125,-4.5625 2.5,-4.5625 2.03125,-4.546875 1.640625,-4.3125 1.4375,-3.890625 V -4.5 h -0.75 V 0 h 0.75 v -2.375 c 0,-0.015625 0,-0.03125 0,-0.03125 0,-0.65625 0.34375,-1.515625 1.046875,-1.515625 H 2.53125 c 0.234375,0 0.421875,0.140625 0.65625,0.328125 z m 0,0"
             style="fill:#000000;fill-opacity:1;stroke:none;stroke-width:0"
             inkscape:connector-curvature="0" />
        </g>
        <g
           id="g222841"
           style="fill:#000000;fill-opacity:1">
          <path
             id="path222833"
             transform="translate(316.94174,134.765)"
             d="m 4.5625,0 v -2.71875 c 0,-1.0625 -0.453125,-1.890625 -1.609375,-1.890625 -0.578125,0 -1.171875,0.21875 -1.53125,0.71875 V -4.5 H 0.6875 V 0 h 0.734375 v -2.546875 c 0.03125,-0.859375 0.5625,-1.40625 1.359375,-1.40625 0.78125,0 1.0625,0.46875 1.0625,1.265625 V 0 Z m 0,0"
             style="fill:#000000;fill-opacity:1;stroke:none;stroke-width:0"
             inkscape:connector-curvature="0" />
          <path
             id="path222835"
             transform="translate(322.13225,134.765)"
             d="m 1.4375,0 v -4.5 h -0.75 V 0 Z m -0.375,-6.890625 c -0.234375,0 -0.4375,0.21875 -0.4375,0.453125 0,0.25 0.203125,0.46875 0.4375,0.46875 0.25,0 0.4375,-0.21875 0.4375,-0.46875 0,-0.234375 -0.1875,-0.453125 -0.4375,-0.453125 z m 0,0"
             style="fill:#000000;fill-opacity:1;stroke:none;stroke-width:0"
             inkscape:connector-curvature="0" />
          <path
             id="path222837"
             transform="translate(324.25428,134.765)"
             d="m 4.5625,0 v -2.71875 c 0,-1.0625 -0.453125,-1.890625 -1.609375,-1.890625 -0.578125,0 -1.171875,0.21875 -1.53125,0.71875 V -4.5 H 0.6875 V 0 h 0.734375 v -2.546875 c 0.03125,-0.859375 0.5625,-1.40625 1.359375,-1.40625 0.78125,0 1.0625,0.46875 1.0625,1.265625 V 0 Z m 0,0"
             style="fill:#000000;fill-opacity:1;stroke:none;stroke-width:0"
             inkscape:connector-curvature="0" />
          <path
             id="path222839"
             transform="translate(329.4448,134.765)"
             d="m 2.046875,-0.109375 c 0.84375,0 1.421875,0.40625 1.421875,0.953125 0,0.546875 -0.578125,0.9375 -1.421875,0.9375 -0.84375,0 -1.3125,-0.390625 -1.3125,-0.9375 0,-0.546875 0.46875,-0.953125 1.3125,-0.953125 z m 0,-0.640625 c -0.078125,0 -0.15625,0 -0.25,0.015625 -0.46875,0 -0.875,-0.28125 -0.875,-0.46875 0,-0.21875 0.25,-0.296875 0.4375,-0.296875 h 0.0625 c 0.15625,0.140625 0.625,0.1875 0.765625,0.1875 0.859375,0 1.546875,-0.734375 1.546875,-1.640625 0,-0.359375 -0.125,-0.703125 -0.328125,-0.96875 h 0.734375 v -0.5625 H 2.875 c -0.203125,-0.0625 -0.484375,-0.09375 -0.640625,-0.09375 -0.859375,0 -1.578125,0.734375 -1.609375,1.625 0,0.4375 0.15625,0.828125 0.4375,1.109375 -0.328125,0.0625 -0.6875,0.28125 -0.6875,0.703125 0,0.265625 0.171875,0.515625 0.53125,0.671875 -0.578125,0.296875 -0.921875,0.78125 -0.921875,1.296875 0,0.8125 0.828125,1.5625 2.0625,1.5625 1.25,0 2.265625,-0.75 2.265625,-1.546875 C 4.3125,-0.203125 3.09375,-0.75 2.046875,-0.75 Z M 2.1875,-3.953125 c 0.53125,0 0.96875,0.4375 0.96875,0.984375 C 3.15625,-2.4375 2.71875,-2 2.1875,-2 1.640625,-2 1.21875,-2.4375 1.21875,-2.96875 c 0,-0.546875 0.421875,-0.984375 0.96875,-0.984375 z m 0,0"
             style="fill:#000000;fill-opacity:1;stroke:none;stroke-width:0"
             inkscape:connector-curvature="0" />
        </g>
      </g>
    </g>
  </g>
</svg>
