<?xml version="1.0" encoding="UTF-8" standalone="no"?>
<!-- Created with Inkscape (http://www.inkscape.org/) -->

<svg
   xmlns:ns1="http://www.iki.fi/pav/software/textext/"
   xmlns:dc="http://purl.org/dc/elements/1.1/"
   xmlns:cc="http://creativecommons.org/ns#"
   xmlns:rdf="http://www.w3.org/1999/02/22-rdf-syntax-ns#"
   xmlns:svg="http://www.w3.org/2000/svg"
   xmlns="http://www.w3.org/2000/svg"
   xmlns:sodipodi="http://sodipodi.sourceforge.net/DTD/sodipodi-0.dtd"
   xmlns:inkscape="http://www.inkscape.org/namespaces/inkscape"
   sodipodi:docname="PerfBiasVarianceTradeoff.svg"
   inkscape:version="0.92.3 (2405546, 2018-03-11)"
   id="svg318594"
   version="1.1"
   viewBox="0 0 66.827003 54.29153"
   height="54.291531mm"
   width="66.827003mm">
  <sodipodi:namedview
     showguides="false"
     inkscape:window-maximized="1"
     inkscape:window-y="-8"
     inkscape:window-x="2552"
     inkscape:window-height="1387"
     inkscape:window-width="2560"
     showgrid="false"
     inkscape:current-layer="layer1"
     inkscape:document-units="mm"
     inkscape:cy="-162.35703"
     inkscape:cx="487.48497"
     inkscape:zoom="1.1698473"
     inkscape:pageshadow="2"
     inkscape:pageopacity="0.0"
     borderopacity="1.0"
     bordercolor="#666666"
     pagecolor="#ffffff"
     id="base"
     fit-margin-top="0"
     fit-margin-left="0"
     fit-margin-right="0"
     fit-margin-bottom="0"
     inkscape:snap-global="false" />
  <defs
     style="stroke-linecap:butt;stroke-linejoin:round"
     id="defs318588">
    <style
       type="text/css"
       id="style57508">
*{stroke-linecap:butt;stroke-linejoin:round;}
  </style>
    <path
       inkscape:connector-curvature="0"
       d="m 72,-221.84607 v 100.22792 l 4.509091,-5.46844 4.509091,-5.80228 4.509091,-6.12913 4.509091,-6.44361 4.509091,-6.73959 4.50909,-7.01041 4.509095,-7.24892 4.50909,-7.44758 4.50909,-7.59873 4.50909,-7.69464 4.50909,-7.72794 4.50909,-7.69171 4.50909,-7.57984 4.50909,-7.38735 4.50909,-7.1106 4.50909,-6.74752 4.5091,-6.29796 4.50909,-5.7637 4.50909,-5.14864 4.50909,-4.45877 4.50909,-3.70216 4.50909,-2.88877 4.50909,-2.03021 4.50909,-1.13947 4.50909,-0.2305 4.50909,0.68217 4.50909,1.5839 4.50909,2.46039 4.5091,3.29812 4.50909,4.08474 4.50909,4.80941 4.50909,5.4631 4.50909,6.03876 4.50909,6.53141 4.50909,6.93823 4.50909,7.2584 4.50909,7.49305 4.50909,7.64506 4.50909,7.71874 4.5091,7.71973 4.50909,7.6545 4.50909,7.53028 4.50909,7.35463 4.50909,7.13527 4.50909,6.87983 4.50909,6.59567 4.50909,6.28974 4.50909,5.96841 4.50909,5.63746 4.50909,5.30198 4.5091,4.96642 4.50909,4.63446 4.50909,4.30922 4.50909,3.9931 4.50909,3.688021 4.50909,3.395324 4.50909,3.115926 4.50909,2.850334 4.50909,2.598729 4.50909,2.361001 4.5091,2.136812 4.50909,1.925635 4.50909,1.726801 4.50909,1.539523 4.50909,1.362934 4.50909,1.196106 4.50909,1.038073 4.50909,0.887842 4.50909,0.744406 4.50909,0.606753 4.5091,0.47387 4.50908,0.344748 4.5091,0.218381 4.50909,0.09377 4.50909,-0.03009 4.50909,-0.154194 4.50909,-0.279535 4.50909,-0.407116 4.50909,-0.537941 4.50909,-0.673017 4.50909,-0.813354 4.50909,-0.959968 4.50909,-1.113867 4.5091,-1.276053 4.50909,-1.447507 4.50909,-1.629181 4.50909,-1.821973 4.50909,-2.026716 4.50909,-2.244143 4.50909,-2.474859 4.50909,-2.719305 4.50909,-2.977712 4.5091,-3.250058 4.50908,-3.536009 4.5091,-3.834861 4.50909,-4.14551 4.50909,-4.46634 4.50909,-4.79518 4.50909,-5.12933 v -100.22792 0 l -4.50909,5.12932 -4.50909,4.79519 -4.50909,4.46633 -4.50909,4.14551 -4.5091,3.83487 -4.50908,3.53601 -4.5091,3.25006 -4.50909,2.97771 -4.50909,2.7193 -4.50909,2.47486 -4.50909,2.24415 -4.50909,2.02671 -4.50909,1.82198 -4.50909,1.62918 -4.50909,1.4475 -4.5091,1.27606 -4.50909,1.11386 -4.50909,0.95997 -4.50909,0.81336 -4.50909,0.67301 -4.50909,0.53794 -4.50909,0.40712 -4.50909,0.27953 -4.50909,0.1542 -4.50909,0.0301 -4.50909,-0.0938 -4.5091,-0.21838 -4.50908,-0.34475 -4.5091,-0.47387 -4.50909,-0.60675 -4.50909,-0.7444 -4.50909,-0.88785 -4.50909,-1.03807 -4.50909,-1.19611 -4.50909,-1.36293 -4.50909,-1.53952 -4.50909,-1.7268 -4.50909,-1.92564 -4.5091,-2.13681 -4.50909,-2.361 -4.50909,-2.59873 -4.50909,-2.85033 -4.50909,-3.11593 -4.50909,-3.39532 -4.50909,-3.68802 -4.50909,-3.99311 -4.50909,-4.30921 -4.50909,-4.63447 -4.5091,-4.96641 -4.50909,-5.30199 -4.50909,-5.63745 -4.50909,-5.96841 -4.50909,-6.28974 -4.50909,-6.59568 -4.50909,-6.87983 -4.50909,-7.13527 -4.50909,-7.35463 -4.50909,-7.53028 -4.50909,-7.6545 -4.5091,-7.71972 -4.50909,-7.71875 -4.50909,-7.64505 -4.50909,-7.49306 -4.50909,-7.25839 -4.50909,-6.93823 -4.50909,-6.53142 -4.50909,-6.03876 -4.50909,-5.4631 -4.50909,-4.80941 -4.50909,-4.08474 -4.5091,-3.29812 -4.50909,-2.46039 -4.50909,-1.5839 -4.50909,-0.68216 -4.50909,0.2305 -4.50909,1.13946 -4.50909,2.03022 -4.50909,2.88877 -4.50909,3.70216 -4.50909,4.45877 -4.50909,5.14863 -4.50909,5.7637 -4.5091,6.29796 -4.50909,6.74753 -4.50909,7.11059 -4.50909,7.38736 -4.50909,7.57984 -4.50909,7.6917 -4.50909,7.72794 -4.50909,7.69465 -4.50909,7.59872 -4.50909,7.44759 -4.509095,7.24892 -4.50909,7.01041 -4.509091,6.73959 -4.509091,6.4436 -4.509091,6.12914 -4.509091,5.80227 z"
       id="m294cea26aa"
       style="stroke:#d3d3d3;stroke-linecap:butt;stroke-linejoin:round" />
    <path
       inkscape:connector-curvature="0"
       d="M 0,0 V 3.5"
       id="m2813816b9a"
       style="stroke:#000000;stroke-width:0.80000001;stroke-linecap:butt;stroke-linejoin:round" />
    <path
       style="stroke-linecap:butt;stroke-linejoin:round"
       inkscape:connector-curvature="0"
       d="m 31.78125,66.40625 q -7.609375,0 -11.453125,-7.5 Q 16.5,51.421875 16.5,36.375 q 0,-14.984375 3.828125,-22.484375 3.84375,-7.5 11.453125,-7.5 7.671875,0 11.5,7.5 3.84375,7.5 3.84375,22.484375 0,15.046875 -3.84375,22.53125 -3.828125,7.5 -11.5,7.5 z m 0,7.8125 q 12.265625,0 18.734375,-9.703125 6.46875,-9.6875 6.46875,-28.140625 0,-18.40625 -6.46875,-28.109375 -6.46875,-9.6875 -18.734375,-9.6875 -12.25,0 -18.71875,9.6875 Q 6.59375,17.96875 6.59375,36.375 q 0,18.453125 6.46875,28.140625 6.46875,9.703125 18.71875,9.703125 z"
       id="DejaVuSans-48" />
    <path
       style="stroke-linecap:butt;stroke-linejoin:round"
       inkscape:connector-curvature="0"
       d="M 10.6875,12.40625 H 21 V 0 H 10.6875 Z"
       id="DejaVuSans-46" />
    <path
       style="stroke-linecap:butt;stroke-linejoin:round"
       inkscape:connector-curvature="0"
       d="M 19.1875,8.296875 H 53.609375 V 0 H 7.328125 v 8.296875 q 5.609375,5.8125 15.296875,15.59375 9.703125,9.796875 12.1875,12.640625 4.734375,5.3125 6.609375,9 1.890625,3.6875 1.890625,7.25 0,5.8125 -4.078125,9.46875 -4.078125,3.671875 -10.625,3.671875 -4.640625,0 -9.796875,-1.609375 -5.140625,-1.609375 -11,-4.890625 v 9.96875 Q 13.765625,71.78125 18.9375,73 q 5.1875,1.21875 9.484375,1.21875 11.328125,0 18.0625,-5.671875 6.734375,-5.65625 6.734375,-15.125 0,-4.5 -1.6875,-8.53125 Q 49.859375,40.875 45.40625,35.40625 44.1875,33.984375 37.640625,27.21875 31.109375,20.453125 19.1875,8.296875 Z"
       id="DejaVuSans-50" />
    <path
       style="stroke-linecap:butt;stroke-linejoin:round"
       inkscape:connector-curvature="0"
       d="M 37.796875,64.3125 12.890625,25.390625 h 24.90625 z m -2.59375,8.59375 h 12.40625 V 25.390625 h 10.40625 V 17.1875 H 47.609375 V 0 h -9.8125 V 17.1875 H 4.890625 v 9.515625 z"
       id="DejaVuSans-52" />
    <path
       style="stroke-linecap:butt;stroke-linejoin:round"
       inkscape:connector-curvature="0"
       d="m 33.015625,40.375 q -6.640625,0 -10.53125,-4.546875 -3.875,-4.53125 -3.875,-12.4375 0,-7.859375 3.875,-12.4375 3.890625,-4.5625 10.53125,-4.5625 6.640625,0 10.515625,4.5625 3.875,4.578125 3.875,12.4375 0,7.90625 -3.875,12.4375 Q 39.65625,40.375 33.015625,40.375 Z M 52.59375,71.296875 V 62.3125 q -3.71875,1.75 -7.5,2.671875 -3.78125,0.9375 -7.5,0.9375 -9.765625,0 -14.921875,-6.59375 -5.140625,-6.59375 -5.875,-19.921875 2.875,4.25 7.21875,6.515625 4.359375,2.265625 9.578125,2.265625 10.984375,0 17.359375,-6.671875 6.375,-6.65625 6.375,-18.125 0,-11.234375 -6.640625,-18.03125 -6.640625,-6.78125 -17.671875,-6.78125 -12.65625,0 -19.34375,9.6875 -6.6875,9.703125 -6.6875,28.109375 0,17.28125 8.203125,27.5625 8.203125,10.28125 22.015625,10.28125 3.71875,0 7.5,-0.734375 3.78125,-0.734375 7.890625,-2.1875 z"
       id="DejaVuSans-54" />
    <path
       style="stroke-linecap:butt;stroke-linejoin:round"
       inkscape:connector-curvature="0"
       d="m 31.78125,34.625 q -7.03125,0 -11.0625,-3.765625 -4.015625,-3.765625 -4.015625,-10.34375 0,-6.59375 4.015625,-10.359375 4.03125,-3.765625 11.0625,-3.765625 7.03125,0 11.078125,3.78125 4.0625,3.796875 4.0625,10.34375 0,6.578125 -4.03125,10.34375 Q 38.875,34.625 31.78125,34.625 Z m -9.859375,4.1875 Q 15.578125,40.375 12.03125,44.71875 8.5,49.078125 8.5,55.328125 q 0,8.734375 6.21875,13.8125 6.234375,5.078125 17.0625,5.078125 10.890625,0 17.09375,-5.078125 6.203125,-5.078125 6.203125,-13.8125 0,-6.25 -3.546875,-10.609375 Q 48,40.375 41.703125,38.8125 q 7.125,-1.65625 11.09375,-6.5 3.984375,-4.828125 3.984375,-11.796875 0,-10.609375 -6.46875,-16.28125 -6.46875,-5.65625 -18.53125,-5.65625 -12.046875,0 -18.53125,5.65625 -6.46875,5.671875 -6.46875,16.28125 0,6.96875 4,11.796875 4.015625,4.84375 11.140625,6.5 z M 18.3125,54.390625 q 0,-5.65625 3.53125,-8.828125 3.546875,-3.171875 9.9375,-3.171875 6.359375,0 9.9375,3.171875 3.59375,3.171875 3.59375,8.828125 0,5.671875 -3.59375,8.84375 -3.578125,3.171875 -9.9375,3.171875 -6.390625,0 -9.9375,-3.171875 Q 18.3125,60.0625 18.3125,54.390625 Z"
       id="DejaVuSans-56" />
    <path
       style="stroke-linecap:butt;stroke-linejoin:round"
       inkscape:connector-curvature="0"
       d="m 12.40625,8.296875 h 16.109375 v 55.625 L 10.984375,60.40625 v 8.984375 l 17.4375,3.515625 H 38.28125 V 8.296875 H 54.390625 V 0 H 12.40625 Z"
       id="DejaVuSans-49" />
    <path
       inkscape:connector-curvature="0"
       d="M 0,0 H -3.5"
       id="m04794a6e91"
       style="stroke:#000000;stroke-width:0.80000001;stroke-linecap:butt;stroke-linejoin:round" />
    <path
       style="stroke-linecap:butt;stroke-linejoin:round"
       inkscape:connector-curvature="0"
       d="m 10.796875,72.90625 h 38.71875 v -8.3125 h -29.6875 V 46.734375 q 2.140625,0.734375 4.28125,1.09375 2.15625,0.359375 4.3125,0.359375 Q 40.625,48.1875 47.75,41.5 54.890625,34.8125 54.890625,23.390625 54.890625,11.625 47.5625,5.09375 40.234375,-1.421875 26.90625,-1.421875 q -4.59375,0 -9.359375,0.78125 -4.75,0.78125 -9.828125,2.34375 V 11.625 q 4.390625,-2.390625 9.078125,-3.5625 4.6875,-1.171875 9.90625,-1.171875 8.453125,0 13.375,4.4375 4.9375,4.4375 4.9375,12.0625 0,7.609375 -4.9375,12.046875 -4.921875,4.453125 -13.375,4.453125 -3.953125,0 -7.890625,-0.875 -3.921875,-0.875 -8.015625,-2.734375 z"
       id="DejaVuSans-53" />
    <path
       style="stroke-linecap:butt;stroke-linejoin:round"
       inkscape:connector-curvature="0"
       d="M 40.578125,39.3125 Q 47.65625,37.796875 51.625,33 q 3.984375,-4.78125 3.984375,-11.8125 0,-10.78125 -7.421875,-16.703125 -7.421875,-5.90625 -21.09375,-5.90625 -4.578125,0 -9.4375,0.90625 -4.859375,0.90625 -10.03125,2.71875 v 9.515625 q 4.09375,-2.390625 8.96875,-3.609375 4.890625,-1.21875 10.21875,-1.21875 9.265625,0 14.125,3.65625 4.859375,3.65625 4.859375,10.640625 0,6.453125 -4.515625,10.078125 -4.515625,3.640625 -12.5625,3.640625 h -8.5 v 8.109375 h 8.890625 q 7.265625,0 11.125,2.90625 3.859375,2.90625 3.859375,8.375 0,5.609375 -3.984375,8.609375 -3.96875,3.015625 -11.390625,3.015625 -4.0625,0 -8.703125,-0.890625 Q 15.375,64.15625 9.8125,62.3125 v 8.78125 q 5.625,1.5625 10.53125,2.34375 4.90625,0.78125 9.25,0.78125 11.234375,0 17.765625,-5.109375 6.546875,-5.09375 6.546875,-13.78125 0,-6.0625 -3.46875,-10.234375 -3.46875,-4.171875 -9.859375,-5.78125 z"
       id="DejaVuSans-51" />
    <path
       inkscape:connector-curvature="0"
       d="M 0,3 C 0.795609,3 1.55874,2.683901 2.12132,2.12132 2.683901,1.55874 3,0.795609 3,0 3,-0.795609 2.683901,-1.55874 2.12132,-2.12132 1.55874,-2.683901 0.795609,-3 0,-3 -0.795609,-3 -1.55874,-2.683901 -2.12132,-2.12132 -2.683901,-1.55874 -3,-0.795609 -3,0 -3,0.795609 -2.683901,1.55874 -2.12132,2.12132 -1.55874,2.683901 -0.795609,3 0,3 Z"
       id="m12501dede2"
       style="stroke:#ff0000;stroke-linecap:butt;stroke-linejoin:round" />
    <clipPath
       style="stroke-linecap:butt;stroke-linejoin:round"
       id="p2c1325abbc">
      <rect
         style="stroke-linecap:butt;stroke-linejoin:round"
         height="326.16"
         width="446.39999"
         x="72"
         y="51.84"
         id="rect57895" />
    </clipPath>
    <clipPath
       style="stroke-linecap:butt;stroke-linejoin:round"
       id="p73e112cabf">
      <rect
         style="stroke-linecap:butt;stroke-linejoin:round"
         id="rect140579"
         y="51.84"
         x="63"
         width="390.60001"
         height="326.16" />
    </clipPath>
    <clipPath
       style="stroke-linecap:butt;stroke-linejoin:round"
       id="clipPath10028">
      <rect
         style="stroke-linecap:butt;stroke-linejoin:round"
         id="rect10026"
         y="51.84"
         x="63"
         width="390.60001"
         height="326.16" />
    </clipPath>
    <clipPath
       style="stroke-linecap:butt;stroke-linejoin:round"
       id="clipPath10032">
      <rect
         style="stroke-linecap:butt;stroke-linejoin:round"
         id="rect10030"
         y="51.84"
         x="63"
         width="390.60001"
         height="326.16" />
    </clipPath>
    <clipPath
       style="stroke-linecap:butt;stroke-linejoin:round"
       id="clipPath10036">
      <rect
         style="stroke-linecap:butt;stroke-linejoin:round"
         id="rect10034"
         y="51.84"
         x="63"
         width="390.60001"
         height="326.16" />
    </clipPath>
    <path
       style="stroke:#d3d3d3;stroke-linecap:butt;stroke-linejoin:round"
       id="path140610"
       d="m 63,-221.84607 v 100.22792 l 3.945455,-5.46844 3.945454,-5.80228 3.945455,-6.12913 3.945454,-6.44361 3.945455,-6.73959 3.945454,-7.01041 3.945455,-7.24892 3.945454,-7.44758 3.945455,-7.59873 3.945449,-7.69464 3.94546,-7.72794 3.94546,-7.69171 3.94545,-7.57984 3.94545,-7.38735 3.94546,-7.1106 3.94545,-6.74752 3.94546,-6.29796 3.94545,-5.7637 3.94546,-5.14864 3.94545,-4.45877 3.94545,-3.70216 3.94546,-2.88877 3.94545,-2.03021 3.94546,-1.13947 3.94545,-0.2305 3.94546,0.68217 3.94545,1.5839 3.94546,2.46039 3.94545,3.29812 3.94546,4.08474 3.94545,4.80941 3.94545,5.4631 3.94546,6.03876 3.94545,6.53141 3.94546,6.93823 3.94545,7.2584 3.94546,7.49305 3.94545,7.64506 3.94546,7.71874 3.94545,7.71973 3.94546,7.6545 3.94545,7.53028 3.94546,7.35463 3.94545,7.13527 3.94545,6.87983 3.94546,6.59567 3.94545,6.28974 3.94546,5.96841 3.94545,5.63746 3.94546,5.30198 3.94545,4.96642 3.94546,4.63446 3.94545,4.30922 3.94546,3.9931 3.94545,3.688021 3.94545,3.395324 3.94546,3.115926 3.94545,2.850334 3.94546,2.598729 3.94545,2.361001 3.94546,2.136812 3.94545,1.925635 3.94546,1.726801 3.94545,1.539523 3.94545,1.362934 3.94546,1.196106 3.94546,1.038073 3.94545,0.887842 3.94545,0.744406 3.94546,0.606753 3.94545,0.47387 3.94546,0.344748 3.94545,0.218381 3.94546,0.09377 3.94545,-0.03009 3.94545,-0.154194 3.94546,-0.279535 3.94545,-0.407116 3.94546,-0.537941 3.94545,-0.673017 3.94546,-0.813354 3.94545,-0.959968 3.94546,-1.113867 3.94545,-1.276053 3.94546,-1.447507 3.94545,-1.629181 3.94545,-1.821973 3.94546,-2.026716 3.94546,-2.244143 3.94545,-2.474859 3.94545,-2.719305 3.94546,-2.977712 3.94545,-3.250058 3.94546,-3.536009 3.94545,-3.834861 3.94546,-4.14551 3.94545,-4.46634 3.94545,-4.79518 3.94546,-5.12933 v -100.22792 0 l -3.94546,5.12932 -3.94545,4.79519 -3.94545,4.46633 -3.94546,4.14551 -3.94545,3.83487 -3.94546,3.53601 -3.94545,3.25006 -3.94546,2.97771 -3.94545,2.7193 -3.94545,2.47486 -3.94546,2.24415 -3.94546,2.02671 -3.94545,1.82198 -3.94545,1.62918 -3.94546,1.4475 -3.94545,1.27606 -3.94546,1.11386 -3.94545,0.95997 -3.94546,0.81336 -3.94545,0.67301 -3.94546,0.53794 -3.94545,0.40712 -3.94546,0.27953 -3.94545,0.1542 -3.94545,0.0301 -3.94546,-0.0938 -3.94545,-0.21838 -3.94546,-0.34475 -3.94545,-0.47387 -3.94546,-0.60675 -3.94545,-0.7444 -3.94545,-0.88785 -3.94546,-1.03807 -3.94546,-1.19611 -3.94545,-1.36293 -3.94545,-1.53952 -3.94546,-1.7268 -3.94545,-1.92564 -3.94546,-2.13681 -3.94545,-2.361 -3.94546,-2.59873 -3.94545,-2.85033 -3.94546,-3.11593 -3.94545,-3.39532 -3.94545,-3.68802 -3.94546,-3.99311 -3.94545,-4.30921 -3.94546,-4.63447 -3.94545,-4.96641 -3.94546,-5.30199 -3.94545,-5.63745 -3.94546,-5.96841 -3.94545,-6.28974 -3.94546,-6.59568 -3.94545,-6.87983 -3.94545,-7.13527 -3.94546,-7.35463 -3.94545,-7.53028 -3.94546,-7.6545 -3.94545,-7.71972 -3.94546,-7.71875 -3.94545,-7.64505 -3.94546,-7.49306 -3.94545,-7.25839 -3.94546,-6.93823 -3.94545,-6.53142 -3.94546,-6.03876 -3.94545,-5.4631 -3.94545,-4.80941 -3.94546,-4.08474 -3.94545,-3.29812 -3.94546,-2.46039 -3.94545,-1.5839 -3.94546,-0.68216 -3.94545,0.2305 -3.94546,1.13946 -3.94545,2.03022 -3.94546,2.88877 -3.94545,3.70216 -3.94545,4.45877 -3.94546,5.14863 -3.94545,5.7637 -3.94546,6.29796 -3.94545,6.74753 -3.94546,7.11059 -3.94545,7.38736 -3.94545,7.57984 -3.94546,7.6917 -3.94546,7.72794 -3.945449,7.69465 -3.945455,7.59872 -3.945454,7.44759 -3.945455,7.24892 -3.945454,7.01041 -3.945455,6.73959 -3.945454,6.4436 -3.945455,6.12914 -3.945454,5.80227 z"
       inkscape:connector-curvature="0" />
    <path
       style="stroke:#d18362;stroke-linecap:butt;stroke-linejoin:round"
       id="path140778"
       d="M 0,3 C 0.795609,3 1.55874,2.683901 2.12132,2.12132 2.683901,1.55874 3,0.795609 3,0 3,-0.795609 2.683901,-1.55874 2.12132,-2.12132 1.55874,-2.683901 0.795609,-3 0,-3 -0.795609,-3 -1.55874,-2.683901 -2.12132,-2.12132 -2.683901,-1.55874 -3,-0.795609 -3,0 -3,0.795609 -2.683901,1.55874 -2.12132,2.12132 -1.55874,2.683901 -0.795609,3 0,3 Z"
       inkscape:connector-curvature="0" />
    <style
       type="text/css"
       id="style10473">
*{stroke-linecap:butt;stroke-linejoin:round;}
  </style>
    <path
       inkscape:connector-curvature="0"
       d="m 63,-221.84607 v 100.22792 l 3.945455,-5.46844 3.945454,-5.80228 3.945455,-6.12913 3.945454,-6.44361 3.945455,-6.73959 3.945454,-7.01041 3.945455,-7.24892 3.945454,-7.44758 3.945455,-7.59873 3.945449,-7.69464 3.94546,-7.72794 3.94546,-7.69171 3.94545,-7.57984 3.94545,-7.38735 3.94546,-7.1106 3.94545,-6.74752 3.94546,-6.29796 3.94545,-5.7637 3.94546,-5.14864 3.94545,-4.45877 3.94545,-3.70216 3.94546,-2.88877 3.94545,-2.03021 3.94546,-1.13947 3.94545,-0.2305 3.94546,0.68217 3.94545,1.5839 3.94546,2.46039 3.94545,3.29812 3.94546,4.08474 3.94545,4.80941 3.94545,5.4631 3.94546,6.03876 3.94545,6.53141 3.94546,6.93823 3.94545,7.2584 3.94546,7.49305 3.94545,7.64506 3.94546,7.71874 3.94545,7.71973 3.94546,7.6545 3.94545,7.53028 3.94546,7.35463 3.94545,7.13527 3.94545,6.87983 3.94546,6.59567 3.94545,6.28974 3.94546,5.96841 3.94545,5.63746 3.94546,5.30198 3.94545,4.96642 3.94546,4.63446 3.94545,4.30922 3.94546,3.9931 3.94545,3.688021 3.94545,3.395324 3.94546,3.115926 3.94545,2.850334 3.94546,2.598729 3.94545,2.361001 3.94546,2.136812 3.94545,1.925635 3.94546,1.726801 3.94545,1.539523 3.94545,1.362934 3.94546,1.196106 3.94546,1.038073 3.94545,0.887842 3.94545,0.744406 3.94546,0.606753 3.94545,0.47387 3.94546,0.344748 3.94545,0.218381 3.94546,0.09377 3.94545,-0.03009 3.94545,-0.154194 3.94546,-0.279535 3.94545,-0.407116 3.94546,-0.537941 3.94545,-0.673017 3.94546,-0.813354 3.94545,-0.959968 3.94546,-1.113867 3.94545,-1.276053 3.94546,-1.447507 3.94545,-1.629181 3.94545,-1.821973 3.94546,-2.026716 3.94546,-2.244143 3.94545,-2.474859 3.94545,-2.719305 3.94546,-2.977712 3.94545,-3.250058 3.94546,-3.536009 3.94545,-3.834861 3.94546,-4.14551 3.94545,-4.46634 3.94545,-4.79518 3.94546,-5.12933 v -100.22792 0 l -3.94546,5.12932 -3.94545,4.79519 -3.94545,4.46633 -3.94546,4.14551 -3.94545,3.83487 -3.94546,3.53601 -3.94545,3.25006 -3.94546,2.97771 -3.94545,2.7193 -3.94545,2.47486 -3.94546,2.24415 -3.94546,2.02671 -3.94545,1.82198 -3.94545,1.62918 -3.94546,1.4475 -3.94545,1.27606 -3.94546,1.11386 -3.94545,0.95997 -3.94546,0.81336 -3.94545,0.67301 -3.94546,0.53794 -3.94545,0.40712 -3.94546,0.27953 -3.94545,0.1542 -3.94545,0.0301 -3.94546,-0.0938 -3.94545,-0.21838 -3.94546,-0.34475 -3.94545,-0.47387 -3.94546,-0.60675 -3.94545,-0.7444 -3.94545,-0.88785 -3.94546,-1.03807 -3.94546,-1.19611 -3.94545,-1.36293 -3.94545,-1.53952 -3.94546,-1.7268 -3.94545,-1.92564 -3.94546,-2.13681 -3.94545,-2.361 -3.94546,-2.59873 -3.94545,-2.85033 -3.94546,-3.11593 -3.94545,-3.39532 -3.94545,-3.68802 -3.94546,-3.99311 -3.94545,-4.30921 -3.94546,-4.63447 -3.94545,-4.96641 -3.94546,-5.30199 -3.94545,-5.63745 -3.94546,-5.96841 -3.94545,-6.28974 -3.94546,-6.59568 -3.94545,-6.87983 -3.94545,-7.13527 -3.94546,-7.35463 -3.94545,-7.53028 -3.94546,-7.6545 -3.94545,-7.71972 -3.94546,-7.71875 -3.94545,-7.64505 -3.94546,-7.49306 -3.94545,-7.25839 -3.94546,-6.93823 -3.94545,-6.53142 -3.94546,-6.03876 -3.94545,-5.4631 -3.94545,-4.80941 -3.94546,-4.08474 -3.94545,-3.29812 -3.94546,-2.46039 -3.94545,-1.5839 -3.94546,-0.68216 -3.94545,0.2305 -3.94546,1.13946 -3.94545,2.03022 -3.94546,2.88877 -3.94545,3.70216 -3.94545,4.45877 -3.94546,5.14863 -3.94545,5.7637 -3.94546,6.29796 -3.94545,6.74753 -3.94546,7.11059 -3.94545,7.38736 -3.94545,7.57984 -3.94546,7.6917 -3.94546,7.72794 -3.945449,7.69465 -3.945455,7.59872 -3.945454,7.44759 -3.945455,7.24892 -3.945454,7.01041 -3.945455,6.73959 -3.945454,6.4436 -3.945455,6.12914 -3.945454,5.80227 z"
       id="me0fa955cbe"
       style="stroke:#d3d3d3;stroke-linecap:butt;stroke-linejoin:round" />
    <path
       inkscape:connector-curvature="0"
       d="M 0,0 V 3.5"
       id="m760e6b6fb5"
       style="stroke:#000000;stroke-width:0.80000001;stroke-linecap:butt;stroke-linejoin:round" />
    <path
       style="stroke-linecap:butt;stroke-linejoin:round"
       inkscape:connector-curvature="0"
       d="m 31.78125,66.40625 q -7.609375,0 -11.453125,-7.5 Q 16.5,51.421875 16.5,36.375 q 0,-14.984375 3.828125,-22.484375 3.84375,-7.5 11.453125,-7.5 7.671875,0 11.5,7.5 3.84375,7.5 3.84375,22.484375 0,15.046875 -3.84375,22.53125 -3.828125,7.5 -11.5,7.5 z m 0,7.8125 q 12.265625,0 18.734375,-9.703125 6.46875,-9.6875 6.46875,-28.140625 0,-18.40625 -6.46875,-28.109375 -6.46875,-9.6875 -18.734375,-9.6875 -12.25,0 -18.71875,9.6875 Q 6.59375,17.96875 6.59375,36.375 q 0,18.453125 6.46875,28.140625 6.46875,9.703125 18.71875,9.703125 z"
       id="DejaVuSans-48-0" />
    <path
       style="stroke-linecap:butt;stroke-linejoin:round"
       inkscape:connector-curvature="0"
       d="M 10.6875,12.40625 H 21 V 0 H 10.6875 Z"
       id="DejaVuSans-46-3" />
    <path
       style="stroke-linecap:butt;stroke-linejoin:round"
       inkscape:connector-curvature="0"
       d="M 19.1875,8.296875 H 53.609375 V 0 H 7.328125 v 8.296875 q 5.609375,5.8125 15.296875,15.59375 9.703125,9.796875 12.1875,12.640625 4.734375,5.3125 6.609375,9 1.890625,3.6875 1.890625,7.25 0,5.8125 -4.078125,9.46875 -4.078125,3.671875 -10.625,3.671875 -4.640625,0 -9.796875,-1.609375 -5.140625,-1.609375 -11,-4.890625 v 9.96875 Q 13.765625,71.78125 18.9375,73 q 5.1875,1.21875 9.484375,1.21875 11.328125,0 18.0625,-5.671875 6.734375,-5.65625 6.734375,-15.125 0,-4.5 -1.6875,-8.53125 Q 49.859375,40.875 45.40625,35.40625 44.1875,33.984375 37.640625,27.21875 31.109375,20.453125 19.1875,8.296875 Z"
       id="DejaVuSans-50-6" />
    <path
       style="stroke-linecap:butt;stroke-linejoin:round"
       inkscape:connector-curvature="0"
       d="M 37.796875,64.3125 12.890625,25.390625 h 24.90625 z m -2.59375,8.59375 h 12.40625 V 25.390625 h 10.40625 V 17.1875 H 47.609375 V 0 h -9.8125 V 17.1875 H 4.890625 v 9.515625 z"
       id="DejaVuSans-52-5" />
    <path
       style="stroke-linecap:butt;stroke-linejoin:round"
       inkscape:connector-curvature="0"
       d="m 33.015625,40.375 q -6.640625,0 -10.53125,-4.546875 -3.875,-4.53125 -3.875,-12.4375 0,-7.859375 3.875,-12.4375 3.890625,-4.5625 10.53125,-4.5625 6.640625,0 10.515625,4.5625 3.875,4.578125 3.875,12.4375 0,7.90625 -3.875,12.4375 Q 39.65625,40.375 33.015625,40.375 Z M 52.59375,71.296875 V 62.3125 q -3.71875,1.75 -7.5,2.671875 -3.78125,0.9375 -7.5,0.9375 -9.765625,0 -14.921875,-6.59375 -5.140625,-6.59375 -5.875,-19.921875 2.875,4.25 7.21875,6.515625 4.359375,2.265625 9.578125,2.265625 10.984375,0 17.359375,-6.671875 6.375,-6.65625 6.375,-18.125 0,-11.234375 -6.640625,-18.03125 -6.640625,-6.78125 -17.671875,-6.78125 -12.65625,0 -19.34375,9.6875 -6.6875,9.703125 -6.6875,28.109375 0,17.28125 8.203125,27.5625 8.203125,10.28125 22.015625,10.28125 3.71875,0 7.5,-0.734375 3.78125,-0.734375 7.890625,-2.1875 z"
       id="DejaVuSans-54-7" />
    <path
       style="stroke-linecap:butt;stroke-linejoin:round"
       inkscape:connector-curvature="0"
       d="m 31.78125,34.625 q -7.03125,0 -11.0625,-3.765625 -4.015625,-3.765625 -4.015625,-10.34375 0,-6.59375 4.015625,-10.359375 4.03125,-3.765625 11.0625,-3.765625 7.03125,0 11.078125,3.78125 4.0625,3.796875 4.0625,10.34375 0,6.578125 -4.03125,10.34375 Q 38.875,34.625 31.78125,34.625 Z m -9.859375,4.1875 Q 15.578125,40.375 12.03125,44.71875 8.5,49.078125 8.5,55.328125 q 0,8.734375 6.21875,13.8125 6.234375,5.078125 17.0625,5.078125 10.890625,0 17.09375,-5.078125 6.203125,-5.078125 6.203125,-13.8125 0,-6.25 -3.546875,-10.609375 Q 48,40.375 41.703125,38.8125 q 7.125,-1.65625 11.09375,-6.5 3.984375,-4.828125 3.984375,-11.796875 0,-10.609375 -6.46875,-16.28125 -6.46875,-5.65625 -18.53125,-5.65625 -12.046875,0 -18.53125,5.65625 -6.46875,5.671875 -6.46875,16.28125 0,6.96875 4,11.796875 4.015625,4.84375 11.140625,6.5 z M 18.3125,54.390625 q 0,-5.65625 3.53125,-8.828125 3.546875,-3.171875 9.9375,-3.171875 6.359375,0 9.9375,3.171875 3.59375,3.171875 3.59375,8.828125 0,5.671875 -3.59375,8.84375 -3.578125,3.171875 -9.9375,3.171875 -6.390625,0 -9.9375,-3.171875 Q 18.3125,60.0625 18.3125,54.390625 Z"
       id="DejaVuSans-56-0" />
    <path
       style="stroke-linecap:butt;stroke-linejoin:round"
       inkscape:connector-curvature="0"
       d="m 12.40625,8.296875 h 16.109375 v 55.625 L 10.984375,60.40625 v 8.984375 l 17.4375,3.515625 H 38.28125 V 8.296875 H 54.390625 V 0 H 12.40625 Z"
       id="DejaVuSans-49-7" />
    <path
       inkscape:connector-curvature="0"
       d="M 0,0 H -3.5"
       id="mc7e4868470"
       style="stroke:#000000;stroke-width:0.80000001;stroke-linecap:butt;stroke-linejoin:round" />
    <path
       style="stroke-linecap:butt;stroke-linejoin:round"
       inkscape:connector-curvature="0"
       d="m 10.796875,72.90625 h 38.71875 v -8.3125 h -29.6875 V 46.734375 q 2.140625,0.734375 4.28125,1.09375 2.15625,0.359375 4.3125,0.359375 Q 40.625,48.1875 47.75,41.5 54.890625,34.8125 54.890625,23.390625 54.890625,11.625 47.5625,5.09375 40.234375,-1.421875 26.90625,-1.421875 q -4.59375,0 -9.359375,0.78125 -4.75,0.78125 -9.828125,2.34375 V 11.625 q 4.390625,-2.390625 9.078125,-3.5625 4.6875,-1.171875 9.90625,-1.171875 8.453125,0 13.375,4.4375 4.9375,4.4375 4.9375,12.0625 0,7.609375 -4.9375,12.046875 -4.921875,4.453125 -13.375,4.453125 -3.953125,0 -7.890625,-0.875 -3.921875,-0.875 -8.015625,-2.734375 z"
       id="DejaVuSans-53-1" />
    <path
       style="stroke-linecap:butt;stroke-linejoin:round"
       inkscape:connector-curvature="0"
       d="M 40.578125,39.3125 Q 47.65625,37.796875 51.625,33 q 3.984375,-4.78125 3.984375,-11.8125 0,-10.78125 -7.421875,-16.703125 -7.421875,-5.90625 -21.09375,-5.90625 -4.578125,0 -9.4375,0.90625 -4.859375,0.90625 -10.03125,2.71875 v 9.515625 q 4.09375,-2.390625 8.96875,-3.609375 4.890625,-1.21875 10.21875,-1.21875 9.265625,0 14.125,3.65625 4.859375,3.65625 4.859375,10.640625 0,6.453125 -4.515625,10.078125 -4.515625,3.640625 -12.5625,3.640625 h -8.5 v 8.109375 h 8.890625 q 7.265625,0 11.125,2.90625 3.859375,2.90625 3.859375,8.375 0,5.609375 -3.984375,8.609375 -3.96875,3.015625 -11.390625,3.015625 -4.0625,0 -8.703125,-0.890625 Q 15.375,64.15625 9.8125,62.3125 v 8.78125 q 5.625,1.5625 10.53125,2.34375 4.90625,0.78125 9.25,0.78125 11.234375,0 17.765625,-5.109375 6.546875,-5.09375 6.546875,-13.78125 0,-6.0625 -3.46875,-10.234375 -3.46875,-4.171875 -9.859375,-5.78125 z"
       id="DejaVuSans-51-8" />
    <path
       inkscape:connector-curvature="0"
       d="M 0,3 C 0.795609,3 1.55874,2.683901 2.12132,2.12132 2.683901,1.55874 3,0.795609 3,0 3,-0.795609 2.683901,-1.55874 2.12132,-2.12132 1.55874,-2.683901 0.795609,-3 0,-3 -0.795609,-3 -1.55874,-2.683901 -2.12132,-2.12132 -2.683901,-1.55874 -3,-0.795609 -3,0 -3,0.795609 -2.683901,1.55874 -2.12132,2.12132 -1.55874,2.683901 -0.795609,3 0,3 Z"
       id="m4b208e1034"
       style="stroke:#d18362;stroke-linecap:butt;stroke-linejoin:round" />
    <clipPath
       style="stroke-linecap:butt;stroke-linejoin:round"
       id="p73e112cabf-0">
      <rect
         style="stroke-linecap:butt;stroke-linejoin:round"
         height="326.16"
         width="390.60001"
         x="63"
         y="51.84"
         id="rect10780" />
    </clipPath>
    <clipPath
       style="stroke-linecap:butt;stroke-linejoin:round"
       id="p73e112cabf-4">
      <rect
         style="stroke-linecap:butt;stroke-linejoin:round"
         id="rect140579-6"
         y="51.84"
         x="63"
         width="390.60001"
         height="326.16" />
    </clipPath>
    <clipPath
       style="stroke-linecap:butt;stroke-linejoin:round"
       id="clipPath11018">
      <rect
         style="stroke-linecap:butt;stroke-linejoin:round"
         id="rect11016"
         y="51.84"
         x="63"
         width="390.60001"
         height="326.16" />
    </clipPath>
    <clipPath
       style="stroke-linecap:butt;stroke-linejoin:round"
       id="clipPath11022">
      <rect
         style="stroke-linecap:butt;stroke-linejoin:round"
         id="rect11020"
         y="51.84"
         x="63"
         width="390.60001"
         height="326.16" />
    </clipPath>
    <clipPath
       style="stroke-linecap:butt;stroke-linejoin:round"
       id="clipPath11026">
      <rect
         style="stroke-linecap:butt;stroke-linejoin:round"
         id="rect11024"
         y="51.84"
         x="63"
         width="390.60001"
         height="326.16" />
    </clipPath>
    <path
       style="stroke:#d3d3d3;stroke-linecap:butt;stroke-linejoin:round"
       id="path140610-3"
       d="m 63,-221.84607 v 100.22792 l 3.945455,-5.46844 3.945454,-5.80228 3.945455,-6.12913 3.945454,-6.44361 3.945455,-6.73959 3.945454,-7.01041 3.945455,-7.24892 3.945454,-7.44758 3.945455,-7.59873 3.945449,-7.69464 3.94546,-7.72794 3.94546,-7.69171 3.94545,-7.57984 3.94545,-7.38735 3.94546,-7.1106 3.94545,-6.74752 3.94546,-6.29796 3.94545,-5.7637 3.94546,-5.14864 3.94545,-4.45877 3.94545,-3.70216 3.94546,-2.88877 3.94545,-2.03021 3.94546,-1.13947 3.94545,-0.2305 3.94546,0.68217 3.94545,1.5839 3.94546,2.46039 3.94545,3.29812 3.94546,4.08474 3.94545,4.80941 3.94545,5.4631 3.94546,6.03876 3.94545,6.53141 3.94546,6.93823 3.94545,7.2584 3.94546,7.49305 3.94545,7.64506 3.94546,7.71874 3.94545,7.71973 3.94546,7.6545 3.94545,7.53028 3.94546,7.35463 3.94545,7.13527 3.94545,6.87983 3.94546,6.59567 3.94545,6.28974 3.94546,5.96841 3.94545,5.63746 3.94546,5.30198 3.94545,4.96642 3.94546,4.63446 3.94545,4.30922 3.94546,3.9931 3.94545,3.688021 3.94545,3.395324 3.94546,3.115926 3.94545,2.850334 3.94546,2.598729 3.94545,2.361001 3.94546,2.136812 3.94545,1.925635 3.94546,1.726801 3.94545,1.539523 3.94545,1.362934 3.94546,1.196106 3.94546,1.038073 3.94545,0.887842 3.94545,0.744406 3.94546,0.606753 3.94545,0.47387 3.94546,0.344748 3.94545,0.218381 3.94546,0.09377 3.94545,-0.03009 3.94545,-0.154194 3.94546,-0.279535 3.94545,-0.407116 3.94546,-0.537941 3.94545,-0.673017 3.94546,-0.813354 3.94545,-0.959968 3.94546,-1.113867 3.94545,-1.276053 3.94546,-1.447507 3.94545,-1.629181 3.94545,-1.821973 3.94546,-2.026716 3.94546,-2.244143 3.94545,-2.474859 3.94545,-2.719305 3.94546,-2.977712 3.94545,-3.250058 3.94546,-3.536009 3.94545,-3.834861 3.94546,-4.14551 3.94545,-4.46634 3.94545,-4.79518 3.94546,-5.12933 v -100.22792 0 l -3.94546,5.12932 -3.94545,4.79519 -3.94545,4.46633 -3.94546,4.14551 -3.94545,3.83487 -3.94546,3.53601 -3.94545,3.25006 -3.94546,2.97771 -3.94545,2.7193 -3.94545,2.47486 -3.94546,2.24415 -3.94546,2.02671 -3.94545,1.82198 -3.94545,1.62918 -3.94546,1.4475 -3.94545,1.27606 -3.94546,1.11386 -3.94545,0.95997 -3.94546,0.81336 -3.94545,0.67301 -3.94546,0.53794 -3.94545,0.40712 -3.94546,0.27953 -3.94545,0.1542 -3.94545,0.0301 -3.94546,-0.0938 -3.94545,-0.21838 -3.94546,-0.34475 -3.94545,-0.47387 -3.94546,-0.60675 -3.94545,-0.7444 -3.94545,-0.88785 -3.94546,-1.03807 -3.94546,-1.19611 -3.94545,-1.36293 -3.94545,-1.53952 -3.94546,-1.7268 -3.94545,-1.92564 -3.94546,-2.13681 -3.94545,-2.361 -3.94546,-2.59873 -3.94545,-2.85033 -3.94546,-3.11593 -3.94545,-3.39532 -3.94545,-3.68802 -3.94546,-3.99311 -3.94545,-4.30921 -3.94546,-4.63447 -3.94545,-4.96641 -3.94546,-5.30199 -3.94545,-5.63745 -3.94546,-5.96841 -3.94545,-6.28974 -3.94546,-6.59568 -3.94545,-6.87983 -3.94545,-7.13527 -3.94546,-7.35463 -3.94545,-7.53028 -3.94546,-7.6545 -3.94545,-7.71972 -3.94546,-7.71875 -3.94545,-7.64505 -3.94546,-7.49306 -3.94545,-7.25839 -3.94546,-6.93823 -3.94545,-6.53142 -3.94546,-6.03876 -3.94545,-5.4631 -3.94545,-4.80941 -3.94546,-4.08474 -3.94545,-3.29812 -3.94546,-2.46039 -3.94545,-1.5839 -3.94546,-0.68216 -3.94545,0.2305 -3.94546,1.13946 -3.94545,2.03022 -3.94546,2.88877 -3.94545,3.70216 -3.94545,4.45877 -3.94546,5.14863 -3.94545,5.7637 -3.94546,6.29796 -3.94545,6.74753 -3.94546,7.11059 -3.94545,7.38736 -3.94545,7.57984 -3.94546,7.6917 -3.94546,7.72794 -3.945449,7.69465 -3.945455,7.59872 -3.945454,7.44759 -3.945455,7.24892 -3.945454,7.01041 -3.945455,6.73959 -3.945454,6.4436 -3.945455,6.12914 -3.945454,5.80227 z"
       inkscape:connector-curvature="0" />
    <path
       style="stroke:#d18362;stroke-linecap:butt;stroke-linejoin:round"
       id="path140778-4"
       d="M 0,3 C 0.795609,3 1.55874,2.683901 2.12132,2.12132 2.683901,1.55874 3,0.795609 3,0 3,-0.795609 2.683901,-1.55874 2.12132,-2.12132 1.55874,-2.683901 0.795609,-3 0,-3 -0.795609,-3 -1.55874,-2.683901 -2.12132,-2.12132 -2.683901,-1.55874 -3,-0.795609 -3,0 -3,0.795609 -2.683901,1.55874 -2.12132,2.12132 -1.55874,2.683901 -0.795609,3 0,3 Z"
       inkscape:connector-curvature="0" />
    <style
       type="text/css"
       id="style193588">
*{stroke-linecap:butt;stroke-linejoin:round;}
  </style>
    <path
       d="M 0 0  L 0 3.5  "
       id="m4e913206ca"
       style="stroke:#000000;stroke-width:0.8;" />
    <path
       d="M 31.78125 66.40625  Q 24.171875 66.40625 20.328125 58.90625  Q 16.5 51.421875 16.5 36.375  Q 16.5 21.390625 20.328125 13.890625  Q 24.171875 6.390625 31.78125 6.390625  Q 39.453125 6.390625 43.28125 13.890625  Q 47.125 21.390625 47.125 36.375  Q 47.125 51.421875 43.28125 58.90625  Q 39.453125 66.40625 31.78125 66.40625  z M 31.78125 74.21875  Q 44.046875 74.21875 50.515625 64.515625  Q 56.984375 54.828125 56.984375 36.375  Q 56.984375 17.96875 50.515625 8.265625  Q 44.046875 -1.421875 31.78125 -1.421875  Q 19.53125 -1.421875 13.0625 8.265625  Q 6.59375 17.96875 6.59375 36.375  Q 6.59375 54.828125 13.0625 64.515625  Q 19.53125 74.21875 31.78125 74.21875  z "
       id="DejaVuSans-48-1" />
    <path
       d="M 19.1875 8.296875  L 53.609375 8.296875  L 53.609375 0  L 7.328125 0  L 7.328125 8.296875  Q 12.9375 14.109375 22.625 23.890625  Q 32.328125 33.6875 34.8125 36.53125  Q 39.546875 41.84375 41.421875 45.53125  Q 43.3125 49.21875 43.3125 52.78125  Q 43.3125 58.59375 39.234375 62.25  Q 35.15625 65.921875 28.609375 65.921875  Q 23.96875 65.921875 18.8125 64.3125  Q 13.671875 62.703125 7.8125 59.421875  L 7.8125 69.390625  Q 13.765625 71.78125 18.9375 73  Q 24.125 74.21875 28.421875 74.21875  Q 39.75 74.21875 46.484375 68.546875  Q 53.21875 62.890625 53.21875 53.421875  Q 53.21875 48.921875 51.53125 44.890625  Q 49.859375 40.875 45.40625 35.40625  Q 44.1875 33.984375 37.640625 27.21875  Q 31.109375 20.453125 19.1875 8.296875  z "
       id="DejaVuSans-50-2" />
    <path
       d="M 37.796875 64.3125  L 12.890625 25.390625  L 37.796875 25.390625  z M 35.203125 72.90625  L 47.609375 72.90625  L 47.609375 25.390625  L 58.015625 25.390625  L 58.015625 17.1875  L 47.609375 17.1875  L 47.609375 0  L 37.796875 0  L 37.796875 17.1875  L 4.890625 17.1875  L 4.890625 26.703125  z "
       id="DejaVuSans-52-4" />
    <path
       d="M 33.015625 40.375  Q 26.375 40.375 22.484375 35.828125  Q 18.609375 31.296875 18.609375 23.390625  Q 18.609375 15.53125 22.484375 10.953125  Q 26.375 6.390625 33.015625 6.390625  Q 39.65625 6.390625 43.53125 10.953125  Q 47.40625 15.53125 47.40625 23.390625  Q 47.40625 31.296875 43.53125 35.828125  Q 39.65625 40.375 33.015625 40.375  z M 52.59375 71.296875  L 52.59375 62.3125  Q 48.875 64.0625 45.09375 64.984375  Q 41.3125 65.921875 37.59375 65.921875  Q 27.828125 65.921875 22.671875 59.328125  Q 17.53125 52.734375 16.796875 39.40625  Q 19.671875 43.65625 24.015625 45.921875  Q 28.375 48.1875 33.59375 48.1875  Q 44.578125 48.1875 50.953125 41.515625  Q 57.328125 34.859375 57.328125 23.390625  Q 57.328125 12.15625 50.6875 5.359375  Q 44.046875 -1.421875 33.015625 -1.421875  Q 20.359375 -1.421875 13.671875 8.265625  Q 6.984375 17.96875 6.984375 36.375  Q 6.984375 53.65625 15.1875 63.9375  Q 23.390625 74.21875 37.203125 74.21875  Q 40.921875 74.21875 44.703125 73.484375  Q 48.484375 72.75 52.59375 71.296875  z "
       id="DejaVuSans-54-8" />
    <path
       d="M 31.78125 34.625  Q 24.75 34.625 20.71875 30.859375  Q 16.703125 27.09375 16.703125 20.515625  Q 16.703125 13.921875 20.71875 10.15625  Q 24.75 6.390625 31.78125 6.390625  Q 38.8125 6.390625 42.859375 10.171875  Q 46.921875 13.96875 46.921875 20.515625  Q 46.921875 27.09375 42.890625 30.859375  Q 38.875 34.625 31.78125 34.625  z M 21.921875 38.8125  Q 15.578125 40.375 12.03125 44.71875  Q 8.5 49.078125 8.5 55.328125  Q 8.5 64.0625 14.71875 69.140625  Q 20.953125 74.21875 31.78125 74.21875  Q 42.671875 74.21875 48.875 69.140625  Q 55.078125 64.0625 55.078125 55.328125  Q 55.078125 49.078125 51.53125 44.71875  Q 48 40.375 41.703125 38.8125  Q 48.828125 37.15625 52.796875 32.3125  Q 56.78125 27.484375 56.78125 20.515625  Q 56.78125 9.90625 50.3125 4.234375  Q 43.84375 -1.421875 31.78125 -1.421875  Q 19.734375 -1.421875 13.25 4.234375  Q 6.78125 9.90625 6.78125 20.515625  Q 6.78125 27.484375 10.78125 32.3125  Q 14.796875 37.15625 21.921875 38.8125  z M 18.3125 54.390625  Q 18.3125 48.734375 21.84375 45.5625  Q 25.390625 42.390625 31.78125 42.390625  Q 38.140625 42.390625 41.71875 45.5625  Q 45.3125 48.734375 45.3125 54.390625  Q 45.3125 60.0625 41.71875 63.234375  Q 38.140625 66.40625 31.78125 66.40625  Q 25.390625 66.40625 21.84375 63.234375  Q 18.3125 60.0625 18.3125 54.390625  z "
       id="DejaVuSans-56-05" />
    <path
       d="M 12.40625 8.296875  L 28.515625 8.296875  L 28.515625 63.921875  L 10.984375 60.40625  L 10.984375 69.390625  L 28.421875 72.90625  L 38.28125 72.90625  L 38.28125 8.296875  L 54.390625 8.296875  L 54.390625 0  L 12.40625 0  z "
       id="DejaVuSans-49-70" />
    <path
       d="M 0 0  L -3.5 0  "
       id="me9dc5c6175"
       style="stroke:#000000;stroke-width:0.8;" />
    <path
       d="M 10.6875 12.40625  L 21 12.40625  L 21 0  L 10.6875 0  z "
       id="DejaVuSans-46-8" />
    <path
       d="M 40.578125 39.3125  Q 47.65625 37.796875 51.625 33  Q 55.609375 28.21875 55.609375 21.1875  Q 55.609375 10.40625 48.1875 4.484375  Q 40.765625 -1.421875 27.09375 -1.421875  Q 22.515625 -1.421875 17.65625 -0.515625  Q 12.796875 0.390625 7.625 2.203125  L 7.625 11.71875  Q 11.71875 9.328125 16.59375 8.109375  Q 21.484375 6.890625 26.8125 6.890625  Q 36.078125 6.890625 40.9375 10.546875  Q 45.796875 14.203125 45.796875 21.1875  Q 45.796875 27.640625 41.28125 31.265625  Q 36.765625 34.90625 28.71875 34.90625  L 20.21875 34.90625  L 20.21875 43.015625  L 29.109375 43.015625  Q 36.375 43.015625 40.234375 45.921875  Q 44.09375 48.828125 44.09375 54.296875  Q 44.09375 59.90625 40.109375 62.90625  Q 36.140625 65.921875 28.71875 65.921875  Q 24.65625 65.921875 20.015625 65.03125  Q 15.375 64.15625 9.8125 62.3125  L 9.8125 71.09375  Q 15.4375 72.65625 20.34375 73.4375  Q 25.25 74.21875 29.59375 74.21875  Q 40.828125 74.21875 47.359375 69.109375  Q 53.90625 64.015625 53.90625 55.328125  Q 53.90625 49.265625 50.4375 45.09375  Q 46.96875 40.921875 40.578125 39.3125  z "
       id="DejaVuSans-51-7" />
    <path
       d="M 10.796875 72.90625  L 49.515625 72.90625  L 49.515625 64.59375  L 19.828125 64.59375  L 19.828125 46.734375  Q 21.96875 47.46875 24.109375 47.828125  Q 26.265625 48.1875 28.421875 48.1875  Q 40.625 48.1875 47.75 41.5  Q 54.890625 34.8125 54.890625 23.390625  Q 54.890625 11.625 47.5625 5.09375  Q 40.234375 -1.421875 26.90625 -1.421875  Q 22.3125 -1.421875 17.546875 -0.640625  Q 12.796875 0.140625 7.71875 1.703125  L 7.71875 11.625  Q 12.109375 9.234375 16.796875 8.0625  Q 21.484375 6.890625 26.703125 6.890625  Q 35.15625 6.890625 40.078125 11.328125  Q 45.015625 15.765625 45.015625 23.390625  Q 45.015625 31 40.078125 35.4375  Q 35.15625 39.890625 26.703125 39.890625  Q 22.75 39.890625 18.8125 39.015625  Q 14.890625 38.140625 10.796875 36.28125  z "
       id="DejaVuSans-53-2" />
    <clipPath
       id="p437b9e4545">
      <rect
         height="326.16"
         width="446.4"
         x="72"
         y="51.84"
         id="rect193827" />
    </clipPath>
  </defs>
  <metadata
     id="metadata318591">
    <rdf:RDF>
      <cc:Work
         rdf:about="">
        <dc:format>image/svg+xml</dc:format>
        <dc:type
           rdf:resource="http://purl.org/dc/dcmitype/StillImage" />
        <dc:title />
      </cc:Work>
    </rdf:RDF>
  </metadata>
  <g
     style="stroke-linecap:butt;stroke-linejoin:round"
     transform="translate(-28.838978,-123.17108)"
     inkscape:label="Layer 1"
     inkscape:groupmode="layer"
     id="layer1">
    <g
       transform="matrix(0.394951,0,0,0.394951,-5.5741835,121.80014)"
       ns1:version="0.11.0"
       ns1:texconverter="pdflatex"
       ns1:pdfconverter="pdf2svg"
       ns1:text="Model capacity"
       ns1:preamble="C:\\Users\\drsjd\\AppData\\Roaming\\inkscape\\extensions\\textext\\default_packages_simon.tex"
       ns1:scale="1.11954289487"
       ns1:alignment="middle center"
       inkscapeversion="0.92.3"
       ns1:jacobian_sqrt="0.394951"
       style="fill:#000000;fill-opacity:1;stroke-linecap:butt;stroke-linejoin:round"
       id="g135150">
      <g
         id="g135148"
         style="fill:#000000;fill-opacity:1;stroke-linecap:butt;stroke-linejoin:round">
        <g
           style="fill:#000000;fill-opacity:1;stroke-linecap:butt;stroke-linejoin:round"
           id="g135128">
          <path
             inkscape:connector-curvature="0"
             style="fill:#000000;fill-opacity:1;stroke:none;stroke-width:0;stroke-linecap:butt;stroke-linejoin:round"
             d="m 6.46875,0 v -6.890625 h -0.75 L 3.59375,-2.8125 1.4375,-6.890625 h -0.75 V 0 h 0.75 v -5.515625 l 2.15625,4.171875 2.125,-4.171875 V 0 Z m 0,0"
             transform="translate(148.712,134.765)"
             id="path135118" />
          <path
             inkscape:connector-curvature="0"
             style="fill:#000000;fill-opacity:1;stroke:none;stroke-width:0;stroke-linecap:butt;stroke-linejoin:round"
             d="m 4.6875,-2.25 c 0,-1.140625 -0.609375,-2.359375 -2.109375,-2.359375 -1.359375,0 -2.125,1.046875 -2.125,2.359375 0,1.234375 0.796875,2.34375 2.125,2.375 C 3.921875,0.09375 4.6875,-0.984375 4.6875,-2.25 Z m -0.734375,0 c 0,0.890625 -0.546875,1.6875 -1.375,1.6875 -1.125,-0.015625 -1.375,-1.015625 -1.375,-1.703125 0,-0.90625 0.4375,-1.65625 1.375,-1.671875 0.875,0.015625 1.375,0.828125 1.375,1.6875 z m 0,0"
             transform="translate(155.86515,134.765)"
             id="path135120" />
          <path
             inkscape:connector-curvature="0"
             style="fill:#000000;fill-opacity:1;stroke:none;stroke-width:0;stroke-linecap:butt;stroke-linejoin:round"
             d="m 0.4375,-2.25 c 0,1.328125 0.875,2.25 2.21875,2.25 H 4.5625 v -6.890625 h -0.75 V -4.5 H 2.71875 C 1.25,-4.5 0.4375,-3.59375 0.4375,-2.25 Z m 0.71875,0 c 0,-0.875 0.5625,-1.59375 1.5625,-1.59375 H 3.8125 v 3.1875 H 2.71875 c -0.984375,0 -1.5625,-0.625 -1.5625,-1.59375 z m 0,0"
             transform="translate(161.03574,134.765)"
             id="path135122" />
          <path
             inkscape:connector-curvature="0"
             style="fill:#000000;fill-opacity:1;stroke:none;stroke-width:0;stroke-linecap:butt;stroke-linejoin:round"
             d="m 4.546875,-2.25 v -0.078125 c 0,-1.296875 -0.53125,-2.25 -2.015625,-2.28125 -1.328125,0 -2.078125,1.15625 -2.078125,2.40625 0,1.359375 0.828125,2.328125 2.203125,2.328125 0.625,0 1.1875,-0.140625 1.734375,-0.34375 v -0.75 C 3.671875,-0.625 3.5625,-0.546875 2.71875,-0.546875 c -0.9375,0 -1.5,-0.5625 -1.5,-1.625 V -2.25 Z M 3.8125,-2.859375 H 1.25 c 0.09375,-0.59375 0.53125,-1.109375 1.28125,-1.109375 0.78125,0 1.28125,0.484375 1.28125,1.109375 z m 0,0"
             transform="translate(166.28603,134.765)"
             id="path135124" />
          <path
             inkscape:connector-curvature="0"
             style="fill:#000000;fill-opacity:1;stroke:none;stroke-width:0;stroke-linecap:butt;stroke-linejoin:round"
             d="M 1.3125,-6.890625 H 0.578125 V 0 H 1.3125 Z m 0,0"
             transform="translate(171.22748,134.765)"
             id="path135126" />
        </g>
        <g
           style="fill:#000000;fill-opacity:1;stroke-linecap:butt;stroke-linejoin:round"
           id="g135146">
          <path
             inkscape:connector-curvature="0"
             style="fill:#000000;fill-opacity:1;stroke:none;stroke-width:0;stroke-linecap:butt;stroke-linejoin:round"
             d="m 4.140625,-0.15625 v -0.734375 c -0.484375,0.25 -0.6875,0.375 -1.3125,0.375 -1.09375,-0.015625 -1.625,-0.65625 -1.625,-1.734375 0,-1.046875 0.546875,-1.71875 1.625,-1.71875 0.59375,0.03125 0.8125,0.125 1.3125,0.375 v -0.75 c -0.40625,-0.125 -0.84375,-0.265625 -1.359375,-0.265625 -1.46875,0 -2.328125,0.9375 -2.328125,2.359375 0.03125,1.40625 0.828125,2.375 2.28125,2.375 0.5,0 1.03125,-0.140625 1.40625,-0.28125 z m 0,0"
             transform="translate(176.20878,134.765)"
             id="path135130" />
          <path
             inkscape:connector-curvature="0"
             style="fill:#000000;fill-opacity:1;stroke:none;stroke-width:0;stroke-linecap:butt;stroke-linejoin:round"
             d="m 4.140625,0 v -2.5625 c 0,-1.296875 -0.546875,-2.046875 -1.890625,-2.046875 -0.484375,0 -1.078125,0.15625 -1.515625,0.3125 V -3.5625 C 1.1875,-3.8125 1.5625,-3.96875 2.1875,-3.96875 c 0.71875,0.015625 1.265625,0.375 1.265625,1.125 h -1.03125 c -1.0625,0 -2,0.359375 -2,1.53125 0.03125,0.90625 0.5625,1.4375 1.46875,1.4375 0.640625,0 1.21875,-0.265625 1.5625,-0.71875 V 0 Z m -0.6875,-2.09375 c 0,0.875 -0.40625,1.578125 -1.34375,1.578125 -0.546875,0 -1,-0.25 -1,-0.84375 0,-0.875 0.828125,-0.875 1.609375,-0.875 h 0.734375 z m 0,0"
             transform="translate(180.71187,134.765)"
             id="path135132" />
          <path
             inkscape:connector-curvature="0"
             style="fill:#000000;fill-opacity:1;stroke:none;stroke-width:0;stroke-linecap:butt;stroke-linejoin:round"
             d="m 4.8125,-2.25 c 0,-1.3125 -0.875,-2.25 -2.203125,-2.25 H 0.6875 v 6.90625 h 0.75 V 0 H 2.546875 C 4,0 4.8125,-0.90625 4.8125,-2.25 Z m -0.71875,0 c 0,0.890625 -0.5625,1.59375 -1.546875,1.59375 H 1.4375 v -3.1875 h 1.109375 c 0.96875,0 1.546875,0.640625 1.546875,1.59375 z m 0,0"
             transform="translate(185.48396,134.765)"
             id="path135134" />
          <path
             inkscape:connector-curvature="0"
             style="fill:#000000;fill-opacity:1;stroke:none;stroke-width:0;stroke-linecap:butt;stroke-linejoin:round"
             d="m 4.140625,0 v -2.5625 c 0,-1.296875 -0.546875,-2.046875 -1.890625,-2.046875 -0.484375,0 -1.078125,0.15625 -1.515625,0.3125 V -3.5625 C 1.1875,-3.8125 1.5625,-3.96875 2.1875,-3.96875 c 0.71875,0.015625 1.265625,0.375 1.265625,1.125 h -1.03125 c -1.0625,0 -2,0.359375 -2,1.53125 0.03125,0.90625 0.5625,1.4375 1.46875,1.4375 0.640625,0 1.21875,-0.265625 1.5625,-0.71875 V 0 Z m -0.6875,-2.09375 c 0,0.875 -0.40625,1.578125 -1.34375,1.578125 -0.546875,0 -1,-0.25 -1,-0.84375 0,-0.875 0.828125,-0.875 1.609375,-0.875 h 0.734375 z m 0,0"
             transform="translate(190.75417,134.765)"
             id="path135136" />
          <path
             inkscape:connector-curvature="0"
             style="fill:#000000;fill-opacity:1;stroke:none;stroke-width:0;stroke-linecap:butt;stroke-linejoin:round"
             d="m 4.140625,-0.15625 v -0.734375 c -0.484375,0.25 -0.6875,0.375 -1.3125,0.375 -1.09375,-0.015625 -1.625,-0.65625 -1.625,-1.734375 0,-1.046875 0.546875,-1.71875 1.625,-1.71875 0.59375,0.03125 0.8125,0.125 1.3125,0.375 v -0.75 c -0.40625,-0.125 -0.84375,-0.265625 -1.359375,-0.265625 -1.46875,0 -2.328125,0.9375 -2.328125,2.359375 0.03125,1.40625 0.828125,2.375 2.28125,2.375 0.5,0 1.03125,-0.140625 1.40625,-0.28125 z m 0,0"
             transform="translate(195.52626,134.765)"
             id="path135138" />
          <path
             inkscape:connector-curvature="0"
             style="fill:#000000;fill-opacity:1;stroke:none;stroke-width:0;stroke-linecap:butt;stroke-linejoin:round"
             d="m 1.4375,0 v -4.5 h -0.75 V 0 Z m -0.375,-6.890625 c -0.234375,0 -0.4375,0.21875 -0.4375,0.453125 0,0.25 0.203125,0.46875 0.4375,0.46875 0.25,0 0.4375,-0.21875 0.4375,-0.46875 0,-0.234375 -0.1875,-0.453125 -0.4375,-0.453125 z m 0,0"
             transform="translate(200.02935,134.765)"
             id="path135140" />
          <path
             inkscape:connector-curvature="0"
             style="fill:#000000;fill-opacity:1;stroke:none;stroke-width:0;stroke-linecap:butt;stroke-linejoin:round"
             d="M 3.203125,0 V -0.640625 H 2.421875 C 1.71875,-0.640625 1.59375,-0.8125 1.59375,-1.46875 v -2.4375 H 2.921875 V -4.5 H 1.59375 V -5.78125 H 1.28125 L 0.859375,-4.5 h -0.53125 v 0.59375 h 0.53125 v 2.4375 C 0.859375,-0.34375 1.3125,0 2.421875,0 Z m 0,0"
             transform="translate(202.15139,134.765)"
             id="path135142" />
          <path
             inkscape:connector-curvature="0"
             style="fill:#000000;fill-opacity:1;stroke:none;stroke-width:0;stroke-linecap:butt;stroke-linejoin:round"
             d="M 4.5625,-4.5 H 3.875 L 2.484375,-1.203125 0.859375,-4.5 H 0.15625 l 1.953125,4.03125 -0.765625,1.8125 c -0.125,0.3125 -0.546875,0.546875 -0.75,0.546875 l 0.25,0.515625 C 1.21875,2.375 1.609375,2.109375 1.859375,1.71875 Z m 0,0"
             transform="translate(205.58848,134.765)"
             id="path135144" />
        </g>
      </g>
    </g>
    <path
       style="fill:none;stroke:#808080;stroke-width:0.3;stroke-linecap:butt;stroke-linejoin:miter;stroke-miterlimit:4;stroke-dasharray:none;stroke-opacity:1"
       d="m 37.534058,170.06924 v 0.89261"
       id="path319890"
       inkscape:connector-curvature="0"
       sodipodi:nodetypes="cc" />
    <path
       sodipodi:nodetypes="cc"
       inkscape:connector-curvature="0"
       id="path319892"
       d="m 57.855841,170.06924 v 0.89261"
       style="fill:none;stroke:#808080;stroke-width:0.3;stroke-linecap:butt;stroke-linejoin:miter;stroke-miterlimit:4;stroke-dasharray:none;stroke-opacity:1" />
    <path
       style="fill:none;stroke:#808080;stroke-width:0.3;stroke-linecap:butt;stroke-linejoin:miter;stroke-miterlimit:4;stroke-dasharray:none;stroke-opacity:1"
       d="m 93.523915,170.06924 v 0.89261"
       id="path319894"
       inkscape:connector-curvature="0"
       sodipodi:nodetypes="cc" />
    <path
       sodipodi:nodetypes="cc"
       inkscape:connector-curvature="0"
       id="path326281"
       d="m 42.569525,170.67816 v -0.60892"
       style="fill:none;stroke:#808080;stroke-width:0.3;stroke-linecap:butt;stroke-linejoin:miter;stroke-miterlimit:4;stroke-dasharray:none;stroke-opacity:1" />
    <path
       style="fill:none;stroke:#808080;stroke-width:0.3;stroke-linecap:butt;stroke-linejoin:miter;stroke-miterlimit:4;stroke-dasharray:none;stroke-opacity:1"
       d="m 47.664964,170.67816 v -0.60892"
       id="path326283"
       inkscape:connector-curvature="0"
       sodipodi:nodetypes="cc" />
    <path
       sodipodi:nodetypes="cc"
       inkscape:connector-curvature="0"
       id="path326285"
       d="m 52.760403,170.67816 v -0.60892"
       style="fill:none;stroke:#808080;stroke-width:0.3;stroke-linecap:butt;stroke-linejoin:miter;stroke-miterlimit:4;stroke-dasharray:none;stroke-opacity:1" />
    <path
       style="fill:none;stroke:#808080;stroke-width:0.3;stroke-linecap:butt;stroke-linejoin:miter;stroke-miterlimit:4;stroke-dasharray:none;stroke-opacity:1"
       d="m 62.951283,170.67816 v -0.60892"
       id="path326287"
       inkscape:connector-curvature="0"
       sodipodi:nodetypes="cc" />
    <path
       sodipodi:nodetypes="cc"
       inkscape:connector-curvature="0"
       id="path326289"
       d="m 68.04672,170.67816 v -0.60892"
       style="fill:none;stroke:#808080;stroke-width:0.3;stroke-linecap:butt;stroke-linejoin:miter;stroke-miterlimit:4;stroke-dasharray:none;stroke-opacity:1" />
    <path
       style="fill:none;stroke:#808080;stroke-width:0.3;stroke-linecap:butt;stroke-linejoin:miter;stroke-miterlimit:4;stroke-dasharray:none;stroke-opacity:1"
       d="m 73.142161,170.67816 v -0.60892"
       id="path326291"
       inkscape:connector-curvature="0"
       sodipodi:nodetypes="cc" />
    <path
       sodipodi:nodetypes="cc"
       inkscape:connector-curvature="0"
       id="path326293"
       d="m 78.237597,170.67816 v -0.60892"
       style="fill:none;stroke:#808080;stroke-width:0.3;stroke-linecap:butt;stroke-linejoin:miter;stroke-miterlimit:4;stroke-dasharray:none;stroke-opacity:1" />
    <path
       style="fill:none;stroke:#808080;stroke-width:0.3;stroke-linecap:butt;stroke-linejoin:miter;stroke-miterlimit:4;stroke-dasharray:none;stroke-opacity:1"
       d="m 88.428476,170.67816 v -0.60892"
       id="path326295"
       inkscape:connector-curvature="0"
       sodipodi:nodetypes="cc" />
    <path
       style="fill:none;stroke:#808080;stroke-width:0.3;stroke-linecap:butt;stroke-linejoin:miter;stroke-miterlimit:4;stroke-dasharray:none;stroke-opacity:1"
       d="m 37.729947,124.9227 h -0.89118"
       id="path272529"
       inkscape:connector-curvature="0"
       sodipodi:nodetypes="cc" />
    <path
       style="fill:none;stroke:#808080;stroke-width:0.3;stroke-linecap:butt;stroke-linejoin:miter;stroke-miterlimit:4;stroke-dasharray:none;stroke-opacity:1"
       d="m 37.729942,170.14068 h -0.89117"
       id="path272533"
       inkscape:connector-curvature="0"
       sodipodi:nodetypes="cc" />
    <path
       style="fill:none;stroke:#808080;stroke-width:0.3;stroke-linecap:butt;stroke-linejoin:miter;stroke-miterlimit:4;stroke-dasharray:none;stroke-opacity:1"
       d="m 37.588327,133.9663 h -0.60794"
       id="path272541"
       inkscape:connector-curvature="0"
       sodipodi:nodetypes="cc" />
    <path
       sodipodi:nodetypes="cc"
       inkscape:connector-curvature="0"
       id="path272543"
       d="m 37.588327,143.00989 h -0.60794"
       style="fill:none;stroke:#808080;stroke-width:0.3;stroke-linecap:butt;stroke-linejoin:miter;stroke-miterlimit:4;stroke-dasharray:none;stroke-opacity:1" />
    <path
       style="fill:none;stroke:#808080;stroke-width:0.3;stroke-linecap:butt;stroke-linejoin:miter;stroke-miterlimit:4;stroke-dasharray:none;stroke-opacity:1"
       d="m 37.588327,152.05349 h -0.60794"
       id="path272545"
       inkscape:connector-curvature="0"
       sodipodi:nodetypes="cc" />
    <path
       sodipodi:nodetypes="cc"
       inkscape:connector-curvature="0"
       id="path272547"
       d="m 37.588327,161.09708 h -0.60794"
       style="fill:none;stroke:#808080;stroke-width:0.3;stroke-linecap:butt;stroke-linejoin:miter;stroke-miterlimit:4;stroke-dasharray:none;stroke-opacity:1" />
    <g
       transform="matrix(0.13686943,0,0,0.13796233,22.648611,117.80198)"
       style="stroke:#a0d9d3;stroke-width:3.63861847;stroke-linecap:butt;stroke-linejoin:round;stroke-miterlimit:4;stroke-dasharray:none;stroke-opacity:1"
       id="line2d_14">
      <path
         inkscape:connector-curvature="0"
         clip-path="url(#p437b9e4545)"
         d="m 109.2,367.58678 37.2,-5.18741 37.2,-2.11918 37.2,-3.7985 37.2,-5.73054 37.2,-4.63052 37.2,-5.47491 37.2,-9.16638 37.2,-10.95563 37.2,-14.87949 37.2,-33.55903 37.2,-168.2661"
         style="fill:none;stroke:#a0d9d3;stroke-width:3.63861847;stroke-linecap:square;stroke-linejoin:round;stroke-miterlimit:4;stroke-dasharray:none;stroke-opacity:1"
         id="path193804" />
    </g>
    <g
       transform="matrix(0.13652821,0,0,0.13796054,22.825342,117.80248)"
       style="stroke:#d18362;stroke-width:3.64318609;stroke-linecap:butt;stroke-linejoin:round;stroke-miterlimit:4;stroke-dasharray:none;stroke-opacity:1"
       id="line2d_15">
      <path
         inkscape:connector-curvature="0"
         clip-path="url(#p437b9e4545)"
         d="m 109.2,177.25523 37.2,-0.0221 37.2,161.72612 37.2,35.95947 37.2,-3.91044 37.2,3.47194 37.2,2.0203 37.2,0.63738 37.2,0.30082 37.2,0.18391 37.2,-0.0499 37.2,0.15136"
         style="fill:none;stroke:#d18362;stroke-width:3.64318609;stroke-linecap:square;stroke-linejoin:round;stroke-miterlimit:4;stroke-dasharray:none;stroke-opacity:1"
         id="path193807" />
    </g>
    <g
       transform="matrix(0.13650394,0,0,0.13795941,22.837891,117.12414)"
       style="stroke:#424b4f;stroke-width:3.64352489;stroke-linecap:butt;stroke-linejoin:round;stroke-miterlimit:4;stroke-dasharray:7.2870501, 7.2870501;stroke-dashoffset:0;stroke-opacity:1"
       id="line2d_16">
      <path
         inkscape:connector-curvature="0"
         clip-path="url(#p437b9e4545)"
         d="m 109.2,166.84201 37.2,-5.20947 37.2,159.60694 37.2,32.16096 37.2,-9.64097 37.2,-1.15858 37.2,-3.45461 37.2,-8.529 37.2,-10.65481 37.2,-14.69558 37.2,-33.60888 37.2,-168.11474"
         style="fill:none;stroke:#424b4f;stroke-width:3.64352489;stroke-linecap:square;stroke-linejoin:round;stroke-miterlimit:4;stroke-dasharray:7.2870501, 7.2870501;stroke-dashoffset:0;stroke-opacity:1"
         id="path193810" />
    </g>
    <path
       style="fill:none;stroke:#808080;stroke-width:0.3;stroke-linecap:butt;stroke-linejoin:miter;stroke-miterlimit:4;stroke-dasharray:none;stroke-opacity:1"
       d="m 83.333037,170.06924 v 0.89261"
       id="path195382"
       inkscape:connector-curvature="0"
       sodipodi:nodetypes="cc" />
    <rect
       y="124.92693"
       x="37.539719"
       height="45.24202"
       width="55.971798"
       id="rect272557"
       style="fill:none;fill-opacity:1;stroke:#030000;stroke-width:0.3;stroke-linecap:butt;stroke-linejoin:round;stroke-miterlimit:4;stroke-dasharray:none;stroke-dashoffset:0;stroke-opacity:1" />
    <g
       id="g30139"
       style="fill:#773c23;fill-opacity:1;stroke-linecap:butt;stroke-linejoin:round"
       transform="matrix(0.39714199,0,0,0.39714199,-20.034053,110.09229)">
      <g
         style="fill:#773c23;fill-opacity:1;stroke-linecap:butt;stroke-linejoin:round"
         id="g30137">
        <path
           style="fill:#773c23;fill-opacity:1;stroke:none;stroke-width:0;stroke-linecap:butt;stroke-linejoin:round"
           d="M 4.8125,-2.25 C 4.8125,-3.59375 4,-4.5 2.546875,-4.5 H 1.4375 v -2.390625 h -0.75 V 0 H 2.609375 C 3.9375,0 4.8125,-0.921875 4.8125,-2.25 Z m -0.71875,0 c 0,0.96875 -0.578125,1.59375 -1.546875,1.59375 H 1.4375 v -3.1875 h 1.109375 c 0.984375,0 1.546875,0.71875 1.546875,1.59375 z m 0,0"
           transform="translate(148.712,134.765)"
           id="path30129"
           inkscape:connector-curvature="0" />
        <path
           style="fill:#773c23;fill-opacity:1;stroke:none;stroke-width:0;stroke-linecap:butt;stroke-linejoin:round"
           d="m 1.4375,0 v -4.5 h -0.75 V 0 Z m -0.375,-6.890625 c -0.234375,0 -0.4375,0.21875 -0.4375,0.453125 0,0.25 0.203125,0.46875 0.4375,0.46875 0.25,0 0.4375,-0.21875 0.4375,-0.46875 0,-0.234375 -0.1875,-0.453125 -0.4375,-0.453125 z m 0,0"
           transform="translate(153.98221,134.765)"
           id="path30131"
           inkscape:connector-curvature="0" />
        <path
           style="fill:#773c23;fill-opacity:1;stroke:none;stroke-width:0;stroke-linecap:butt;stroke-linejoin:round"
           d="m 4.140625,0 v -2.5625 c 0,-1.296875 -0.546875,-2.046875 -1.890625,-2.046875 -0.484375,0 -1.078125,0.15625 -1.515625,0.3125 V -3.5625 C 1.1875,-3.8125 1.5625,-3.96875 2.1875,-3.96875 c 0.71875,0.015625 1.265625,0.375 1.265625,1.125 h -1.03125 c -1.0625,0 -2,0.359375 -2,1.53125 0.03125,0.90625 0.5625,1.4375 1.46875,1.4375 0.640625,0 1.21875,-0.265625 1.5625,-0.71875 V 0 Z m -0.6875,-2.09375 c 0,0.875 -0.40625,1.578125 -1.34375,1.578125 -0.546875,0 -1,-0.25 -1,-0.84375 0,-0.875 0.828125,-0.875 1.609375,-0.875 h 0.734375 z m 0,0"
           transform="translate(156.10425,134.765)"
           id="path30133"
           inkscape:connector-curvature="0" />
        <path
           style="fill:#773c23;fill-opacity:1;stroke:none;stroke-width:0;stroke-linecap:butt;stroke-linejoin:round"
           d="M 3.984375,-1.25 C 3.984375,-2.140625 3.375,-2.421875 2.5625,-2.578125 L 2.25,-2.640625 c -0.4375,-0.09375 -1.078125,-0.1875 -1.078125,-0.671875 0.03125,-0.5625 0.6875,-0.671875 1.1875,-0.671875 0.796875,0.03125 0.734375,0.078125 1.40625,0.359375 v -0.734375 c -0.421875,-0.171875 -0.953125,-0.25 -1.5,-0.25 C 1.375,-4.609375 0.5,-4.28125 0.5,-3.28125 c 0.015625,0.8125 0.5625,1.125 1.3125,1.265625 l 0.28125,0.0625 c 0.546875,0.125 1.171875,0.1875 1.171875,0.765625 C 3.234375,-0.625 2.59375,-0.515625 2.09375,-0.515625 1.265625,-0.53125 1.140625,-0.625 0.421875,-0.96875 v 0.8125 c 0.421875,0.109375 1.15625,0.28125 1.65625,0.28125 0.875,0 1.90625,-0.328125 1.90625,-1.375 z m 0,0"
           transform="translate(160.87633,134.765)"
           id="path30135"
           inkscape:connector-curvature="0" />
      </g>
    </g>
    <g
       id="g41876"
       style="fill:#34837a;fill-opacity:1;stroke-linecap:butt;stroke-linejoin:round"
       transform="matrix(0.39714199,0,0,0.39714199,14.430137,113.12777)">
      <g
         style="fill:#34837a;fill-opacity:1;stroke-linecap:butt;stroke-linejoin:round"
         id="g41856">
        <path
           style="fill:#34837a;fill-opacity:1;stroke:none;stroke-width:0;stroke-linecap:butt;stroke-linejoin:round"
           d="m 4.59375,-4.5 h -0.6875 l -1.5,3.15625 L 0.890625,-4.5 h -0.6875 L 2.40625,0.140625 Z m 0,0"
           transform="translate(148.712,134.765)"
           id="path41854"
           inkscape:connector-curvature="0" />
      </g>
      <g
         style="fill:#34837a;fill-opacity:1;stroke-linecap:butt;stroke-linejoin:round"
         id="g41862">
        <path
           style="fill:#34837a;fill-opacity:1;stroke:none;stroke-width:0;stroke-linecap:butt;stroke-linejoin:round"
           d="m 4.140625,0 v -2.5625 c 0,-1.296875 -0.546875,-2.046875 -1.890625,-2.046875 -0.484375,0 -1.078125,0.15625 -1.515625,0.3125 V -3.5625 C 1.1875,-3.8125 1.5625,-3.96875 2.1875,-3.96875 c 0.71875,0.015625 1.265625,0.375 1.265625,1.125 h -1.03125 c -1.0625,0 -2,0.359375 -2,1.53125 0.03125,0.90625 0.5625,1.4375 1.46875,1.4375 0.640625,0 1.21875,-0.265625 1.5625,-0.71875 V 0 Z m -0.6875,-2.09375 c 0,0.875 -0.40625,1.578125 -1.34375,1.578125 -0.546875,0 -1,-0.25 -1,-0.84375 0,-0.875 0.828125,-0.875 1.609375,-0.875 h 0.734375 z m 0,0"
           transform="translate(153.30476,134.765)"
           id="path41858"
           inkscape:connector-curvature="0" />
        <path
           style="fill:#34837a;fill-opacity:1;stroke:none;stroke-width:0;stroke-linecap:butt;stroke-linejoin:round"
           d="M 3.1875,-3.59375 3.421875,-4.3125 C 3.3125,-4.4375 2.828125,-4.5625 2.5,-4.5625 2.03125,-4.546875 1.640625,-4.3125 1.4375,-3.890625 V -4.5 h -0.75 V 0 h 0.75 v -2.375 c 0,-0.015625 0,-0.03125 0,-0.03125 0,-0.65625 0.34375,-1.515625 1.046875,-1.515625 H 2.53125 c 0.234375,0 0.421875,0.140625 0.65625,0.328125 z m 0,0"
           transform="translate(158.07684,134.765)"
           id="path41860"
           inkscape:connector-curvature="0" />
      </g>
      <g
         style="fill:#34837a;fill-opacity:1;stroke-linecap:butt;stroke-linejoin:round"
         id="g41874">
        <path
           style="fill:#34837a;fill-opacity:1;stroke:none;stroke-width:0;stroke-linecap:butt;stroke-linejoin:round"
           d="m 1.4375,0 v -4.5 h -0.75 V 0 Z m -0.375,-6.890625 c -0.234375,0 -0.4375,0.21875 -0.4375,0.453125 0,0.25 0.203125,0.46875 0.4375,0.46875 0.25,0 0.4375,-0.21875 0.4375,-0.46875 0,-0.234375 -0.1875,-0.453125 -0.4375,-0.453125 z m 0,0"
           transform="translate(161.56375,134.765)"
           id="path41864"
           inkscape:connector-curvature="0" />
        <path
           style="fill:#34837a;fill-opacity:1;stroke:none;stroke-width:0;stroke-linecap:butt;stroke-linejoin:round"
           d="m 4.140625,0 v -2.5625 c 0,-1.296875 -0.546875,-2.046875 -1.890625,-2.046875 -0.484375,0 -1.078125,0.15625 -1.515625,0.3125 V -3.5625 C 1.1875,-3.8125 1.5625,-3.96875 2.1875,-3.96875 c 0.71875,0.015625 1.265625,0.375 1.265625,1.125 h -1.03125 c -1.0625,0 -2,0.359375 -2,1.53125 0.03125,0.90625 0.5625,1.4375 1.46875,1.4375 0.640625,0 1.21875,-0.265625 1.5625,-0.71875 V 0 Z m -0.6875,-2.09375 c 0,0.875 -0.40625,1.578125 -1.34375,1.578125 -0.546875,0 -1,-0.25 -1,-0.84375 0,-0.875 0.828125,-0.875 1.609375,-0.875 h 0.734375 z m 0,0"
           transform="translate(163.68579,134.765)"
           id="path41866"
           inkscape:connector-curvature="0" />
        <path
           style="fill:#34837a;fill-opacity:1;stroke:none;stroke-width:0;stroke-linecap:butt;stroke-linejoin:round"
           d="m 4.5625,0 v -2.71875 c 0,-1.0625 -0.453125,-1.890625 -1.609375,-1.890625 -0.578125,0 -1.171875,0.21875 -1.53125,0.71875 V -4.5 H 0.6875 V 0 h 0.734375 v -2.546875 c 0.03125,-0.859375 0.5625,-1.40625 1.359375,-1.40625 0.78125,0 1.0625,0.46875 1.0625,1.265625 V 0 Z m 0,0"
           transform="translate(168.45787,134.765)"
           id="path41868"
           inkscape:connector-curvature="0" />
        <path
           style="fill:#34837a;fill-opacity:1;stroke:none;stroke-width:0;stroke-linecap:butt;stroke-linejoin:round"
           d="m 4.140625,-0.15625 v -0.734375 c -0.484375,0.25 -0.6875,0.375 -1.3125,0.375 -1.09375,-0.015625 -1.625,-0.65625 -1.625,-1.734375 0,-1.046875 0.546875,-1.71875 1.625,-1.71875 0.59375,0.03125 0.8125,0.125 1.3125,0.375 v -0.75 c -0.40625,-0.125 -0.84375,-0.265625 -1.359375,-0.265625 -1.46875,0 -2.328125,0.9375 -2.328125,2.359375 0.03125,1.40625 0.828125,2.375 2.28125,2.375 0.5,0 1.03125,-0.140625 1.40625,-0.28125 z m 0,0"
           transform="translate(173.64839,134.765)"
           id="path41870"
           inkscape:connector-curvature="0" />
        <path
           style="fill:#34837a;fill-opacity:1;stroke:none;stroke-width:0;stroke-linecap:butt;stroke-linejoin:round"
           d="m 4.546875,-2.25 v -0.078125 c 0,-1.296875 -0.53125,-2.25 -2.015625,-2.28125 -1.328125,0 -2.078125,1.15625 -2.078125,2.40625 0,1.359375 0.828125,2.328125 2.203125,2.328125 0.625,0 1.1875,-0.140625 1.734375,-0.34375 v -0.75 C 3.671875,-0.625 3.5625,-0.546875 2.71875,-0.546875 c -0.9375,0 -1.5,-0.5625 -1.5,-1.625 V -2.25 Z M 3.8125,-2.859375 H 1.25 c 0.09375,-0.59375 0.53125,-1.109375 1.28125,-1.109375 0.78125,0 1.28125,0.484375 1.28125,1.109375 z m 0,0"
           transform="translate(178.15148,134.765)"
           id="path41872"
           inkscape:connector-curvature="0" />
      </g>
    </g>
    <g
       transform="matrix(0.397281,0,0,0.397281,-1.3903631,106.17789)"
       ns1:version="0.11.0"
       ns1:texconverter="pdflatex"
       ns1:pdfconverter="pdf2svg"
       ns1:text="bias+variance"
       ns1:preamble="C:\\Users\\drsjd\\AppData\\Roaming\\inkscape\\extensions\\textext\\default_packages_simon.tex"
       ns1:scale="1.12614776569"
       ns1:alignment="middle center"
       inkscapeversion="0.92.3"
       ns1:jacobian_sqrt="0.397281"
       style="fill:#424b4f;fill-opacity:1;stroke-linecap:butt;stroke-linejoin:round"
       id="g196601">
      <g
         id="g196599"
         style="fill:#424b4f;fill-opacity:1;stroke-linecap:butt;stroke-linejoin:round">
        <g
           style="fill:#424b4f;fill-opacity:1;stroke-linecap:butt;stroke-linejoin:round"
           id="g196579">
          <path
             inkscape:connector-curvature="0"
             style="fill:#424b4f;fill-opacity:1;stroke:none;stroke-width:0;stroke-linecap:butt;stroke-linejoin:round"
             d="M 4.8125,-2.25 C 4.8125,-3.59375 4,-4.5 2.546875,-4.5 H 1.4375 v -2.390625 h -0.75 V 0 H 2.609375 C 3.9375,0 4.8125,-0.921875 4.8125,-2.25 Z m -0.71875,0 c 0,0.96875 -0.578125,1.59375 -1.546875,1.59375 H 1.4375 v -3.1875 h 1.109375 c 0.984375,0 1.546875,0.71875 1.546875,1.59375 z m 0,0"
             transform="translate(148.712,134.765)"
             id="path196567" />
          <path
             inkscape:connector-curvature="0"
             style="fill:#424b4f;fill-opacity:1;stroke:none;stroke-width:0;stroke-linecap:butt;stroke-linejoin:round"
             d="m 1.4375,0 v -4.5 h -0.75 V 0 Z m -0.375,-6.890625 c -0.234375,0 -0.4375,0.21875 -0.4375,0.453125 0,0.25 0.203125,0.46875 0.4375,0.46875 0.25,0 0.4375,-0.21875 0.4375,-0.46875 0,-0.234375 -0.1875,-0.453125 -0.4375,-0.453125 z m 0,0"
             transform="translate(153.98221,134.765)"
             id="path196569" />
          <path
             inkscape:connector-curvature="0"
             style="fill:#424b4f;fill-opacity:1;stroke:none;stroke-width:0;stroke-linecap:butt;stroke-linejoin:round"
             d="m 4.140625,0 v -2.5625 c 0,-1.296875 -0.546875,-2.046875 -1.890625,-2.046875 -0.484375,0 -1.078125,0.15625 -1.515625,0.3125 V -3.5625 C 1.1875,-3.8125 1.5625,-3.96875 2.1875,-3.96875 c 0.71875,0.015625 1.265625,0.375 1.265625,1.125 h -1.03125 c -1.0625,0 -2,0.359375 -2,1.53125 0.03125,0.90625 0.5625,1.4375 1.46875,1.4375 0.640625,0 1.21875,-0.265625 1.5625,-0.71875 V 0 Z m -0.6875,-2.09375 c 0,0.875 -0.40625,1.578125 -1.34375,1.578125 -0.546875,0 -1,-0.25 -1,-0.84375 0,-0.875 0.828125,-0.875 1.609375,-0.875 h 0.734375 z m 0,0"
             transform="translate(156.10425,134.765)"
             id="path196571" />
          <path
             inkscape:connector-curvature="0"
             style="fill:#424b4f;fill-opacity:1;stroke:none;stroke-width:0;stroke-linecap:butt;stroke-linejoin:round"
             d="M 3.984375,-1.25 C 3.984375,-2.140625 3.375,-2.421875 2.5625,-2.578125 L 2.25,-2.640625 c -0.4375,-0.09375 -1.078125,-0.1875 -1.078125,-0.671875 0.03125,-0.5625 0.6875,-0.671875 1.1875,-0.671875 0.796875,0.03125 0.734375,0.078125 1.40625,0.359375 v -0.734375 c -0.421875,-0.171875 -0.953125,-0.25 -1.5,-0.25 C 1.375,-4.609375 0.5,-4.28125 0.5,-3.28125 c 0.015625,0.8125 0.5625,1.125 1.3125,1.265625 l 0.28125,0.0625 c 0.546875,0.125 1.171875,0.1875 1.171875,0.765625 C 3.234375,-0.625 2.59375,-0.515625 2.09375,-0.515625 1.265625,-0.53125 1.140625,-0.625 0.421875,-0.96875 v 0.8125 c 0.421875,0.109375 1.15625,0.28125 1.65625,0.28125 0.875,0 1.90625,-0.328125 1.90625,-1.375 z m 0,0"
             transform="translate(160.87633,134.765)"
             id="path196573" />
          <path
             inkscape:connector-curvature="0"
             style="fill:#424b4f;fill-opacity:1;stroke:none;stroke-width:0;stroke-linecap:butt;stroke-linejoin:round"
             d="m 5.28125,-2.265625 v -0.625 H 2.984375 V -5.15625 H 2.40625 v 2.265625 H 0.109375 v 0.625 H 2.40625 V 0 h 0.578125 v -2.265625 z m 0,0"
             transform="translate(165.26984,134.765)"
             id="path196575" />
          <path
             inkscape:connector-curvature="0"
             style="fill:#424b4f;fill-opacity:1;stroke:none;stroke-width:0;stroke-linecap:butt;stroke-linejoin:round"
             d="m 4.59375,-4.5 h -0.6875 l -1.5,3.15625 L 0.890625,-4.5 h -0.6875 L 2.40625,0.140625 Z m 0,0"
             transform="translate(170.65961,134.765)"
             id="path196577" />
        </g>
        <g
           style="fill:#424b4f;fill-opacity:1;stroke-linecap:butt;stroke-linejoin:round"
           id="g196585">
          <path
             inkscape:connector-curvature="0"
             style="fill:#424b4f;fill-opacity:1;stroke:none;stroke-width:0;stroke-linecap:butt;stroke-linejoin:round"
             d="m 4.140625,0 v -2.5625 c 0,-1.296875 -0.546875,-2.046875 -1.890625,-2.046875 -0.484375,0 -1.078125,0.15625 -1.515625,0.3125 V -3.5625 C 1.1875,-3.8125 1.5625,-3.96875 2.1875,-3.96875 c 0.71875,0.015625 1.265625,0.375 1.265625,1.125 h -1.03125 c -1.0625,0 -2,0.359375 -2,1.53125 0.03125,0.90625 0.5625,1.4375 1.46875,1.4375 0.640625,0 1.21875,-0.265625 1.5625,-0.71875 V 0 Z m -0.6875,-2.09375 c 0,0.875 -0.40625,1.578125 -1.34375,1.578125 -0.546875,0 -1,-0.25 -1,-0.84375 0,-0.875 0.828125,-0.875 1.609375,-0.875 h 0.734375 z m 0,0"
             transform="translate(175.25237,134.765)"
             id="path196581" />
          <path
             inkscape:connector-curvature="0"
             style="fill:#424b4f;fill-opacity:1;stroke:none;stroke-width:0;stroke-linecap:butt;stroke-linejoin:round"
             d="M 3.1875,-3.59375 3.421875,-4.3125 C 3.3125,-4.4375 2.828125,-4.5625 2.5,-4.5625 2.03125,-4.546875 1.640625,-4.3125 1.4375,-3.890625 V -4.5 h -0.75 V 0 h 0.75 v -2.375 c 0,-0.015625 0,-0.03125 0,-0.03125 0,-0.65625 0.34375,-1.515625 1.046875,-1.515625 H 2.53125 c 0.234375,0 0.421875,0.140625 0.65625,0.328125 z m 0,0"
             transform="translate(180.02445,134.765)"
             id="path196583" />
        </g>
        <g
           style="fill:#424b4f;fill-opacity:1;stroke-linecap:butt;stroke-linejoin:round"
           id="g196597">
          <path
             inkscape:connector-curvature="0"
             style="fill:#424b4f;fill-opacity:1;stroke:none;stroke-width:0;stroke-linecap:butt;stroke-linejoin:round"
             d="m 1.4375,0 v -4.5 h -0.75 V 0 Z m -0.375,-6.890625 c -0.234375,0 -0.4375,0.21875 -0.4375,0.453125 0,0.25 0.203125,0.46875 0.4375,0.46875 0.25,0 0.4375,-0.21875 0.4375,-0.46875 0,-0.234375 -0.1875,-0.453125 -0.4375,-0.453125 z m 0,0"
             transform="translate(183.51136,134.765)"
             id="path196587" />
          <path
             inkscape:connector-curvature="0"
             style="fill:#424b4f;fill-opacity:1;stroke:none;stroke-width:0;stroke-linecap:butt;stroke-linejoin:round"
             d="m 4.140625,0 v -2.5625 c 0,-1.296875 -0.546875,-2.046875 -1.890625,-2.046875 -0.484375,0 -1.078125,0.15625 -1.515625,0.3125 V -3.5625 C 1.1875,-3.8125 1.5625,-3.96875 2.1875,-3.96875 c 0.71875,0.015625 1.265625,0.375 1.265625,1.125 h -1.03125 c -1.0625,0 -2,0.359375 -2,1.53125 0.03125,0.90625 0.5625,1.4375 1.46875,1.4375 0.640625,0 1.21875,-0.265625 1.5625,-0.71875 V 0 Z m -0.6875,-2.09375 c 0,0.875 -0.40625,1.578125 -1.34375,1.578125 -0.546875,0 -1,-0.25 -1,-0.84375 0,-0.875 0.828125,-0.875 1.609375,-0.875 h 0.734375 z m 0,0"
             transform="translate(185.6334,134.765)"
             id="path196589" />
          <path
             inkscape:connector-curvature="0"
             style="fill:#424b4f;fill-opacity:1;stroke:none;stroke-width:0;stroke-linecap:butt;stroke-linejoin:round"
             d="m 4.5625,0 v -2.71875 c 0,-1.0625 -0.453125,-1.890625 -1.609375,-1.890625 -0.578125,0 -1.171875,0.21875 -1.53125,0.71875 V -4.5 H 0.6875 V 0 h 0.734375 v -2.546875 c 0.03125,-0.859375 0.5625,-1.40625 1.359375,-1.40625 0.78125,0 1.0625,0.46875 1.0625,1.265625 V 0 Z m 0,0"
             transform="translate(190.40548,134.765)"
             id="path196591" />
          <path
             inkscape:connector-curvature="0"
             style="fill:#424b4f;fill-opacity:1;stroke:none;stroke-width:0;stroke-linecap:butt;stroke-linejoin:round"
             d="m 4.140625,-0.15625 v -0.734375 c -0.484375,0.25 -0.6875,0.375 -1.3125,0.375 -1.09375,-0.015625 -1.625,-0.65625 -1.625,-1.734375 0,-1.046875 0.546875,-1.71875 1.625,-1.71875 0.59375,0.03125 0.8125,0.125 1.3125,0.375 v -0.75 c -0.40625,-0.125 -0.84375,-0.265625 -1.359375,-0.265625 -1.46875,0 -2.328125,0.9375 -2.328125,2.359375 0.03125,1.40625 0.828125,2.375 2.28125,2.375 0.5,0 1.03125,-0.140625 1.40625,-0.28125 z m 0,0"
             transform="translate(195.596,134.765)"
             id="path196593" />
          <path
             inkscape:connector-curvature="0"
             style="fill:#424b4f;fill-opacity:1;stroke:none;stroke-width:0;stroke-linecap:butt;stroke-linejoin:round"
             d="m 4.546875,-2.25 v -0.078125 c 0,-1.296875 -0.53125,-2.25 -2.015625,-2.28125 -1.328125,0 -2.078125,1.15625 -2.078125,2.40625 0,1.359375 0.828125,2.328125 2.203125,2.328125 0.625,0 1.1875,-0.140625 1.734375,-0.34375 v -0.75 C 3.671875,-0.625 3.5625,-0.546875 2.71875,-0.546875 c -0.9375,0 -1.5,-0.5625 -1.5,-1.625 V -2.25 Z M 3.8125,-2.859375 H 1.25 c 0.09375,-0.59375 0.53125,-1.109375 1.28125,-1.109375 0.78125,0 1.28125,0.484375 1.28125,1.109375 z m 0,0"
             transform="translate(200.09909,134.765)"
             id="path196595" />
        </g>
      </g>
    </g>
    <g
       transform="matrix(0.27965299,0,0,0.27965299,-8.9429555,133.32437)"
       ns1:version="0.11.0"
       ns1:texconverter="pdflatex"
       ns1:pdfconverter="pdf2svg"
       ns1:text="0.0"
       ns1:preamble="C:\\Users\\drsjd\\AppData\\Roaming\\inkscape\\extensions\\textext\\default_packages_simon.tex"
       ns1:scale="0.792715367396"
       ns1:alignment="middle center"
       inkscapeversion="0.92.3"
       ns1:jacobian_sqrt="0.279653"
       style="fill:#808080;fill-opacity:1;stroke-linecap:butt;stroke-linejoin:round"
       id="g128929">
      <g
         id="g128927"
         style="fill:#808080;fill-opacity:1;stroke-linecap:butt;stroke-linejoin:round">
        <g
           style="fill:#808080;fill-opacity:1;stroke-linecap:butt;stroke-linejoin:round"
           id="g128925">
          <path
             inkscape:connector-curvature="0"
             style="fill:#808080;fill-opacity:1;stroke:none;stroke-width:0;stroke-linecap:butt;stroke-linejoin:round"
             d="m 4.96875,-3.421875 c -0.015625,-1.46875 -0.34375,-3.59375 -2.203125,-3.59375 -1.859375,0 -2.171875,2.15625 -2.171875,3.59375 0,1.453125 0.328125,3.5625 2.171875,3.5625 1.84375,0 2.203125,-2.109375 2.203125,-3.5625 z m -0.71875,0 c 0,0.953125 -0.078125,2.90625 -1.484375,2.90625 -1.40625,0 -1.453125,-1.984375 -1.453125,-2.90625 0,-0.9375 0.03125,-2.953125 1.453125,-2.953125 1.40625,0 1.484375,2.03125 1.484375,2.953125 z m 0,0"
             transform="translate(148.712,134.765)"
             id="path128919" />
          <path
             inkscape:connector-curvature="0"
             style="fill:#808080;fill-opacity:1;stroke:none;stroke-width:0;stroke-linecap:butt;stroke-linejoin:round"
             d="M 1.640625,0 V -1.015625 H 0.6875 V 0 Z m 0,0"
             transform="translate(154.27113,134.765)"
             id="path128921" />
          <path
             inkscape:connector-curvature="0"
             style="fill:#808080;fill-opacity:1;stroke:none;stroke-width:0;stroke-linecap:butt;stroke-linejoin:round"
             d="m 4.96875,-3.421875 c -0.015625,-1.46875 -0.34375,-3.59375 -2.203125,-3.59375 -1.859375,0 -2.171875,2.15625 -2.171875,3.59375 0,1.453125 0.328125,3.5625 2.171875,3.5625 1.84375,0 2.203125,-2.109375 2.203125,-3.5625 z m -0.71875,0 c 0,0.953125 -0.078125,2.90625 -1.484375,2.90625 -1.40625,0 -1.453125,-1.984375 -1.453125,-2.90625 0,-0.9375 0.03125,-2.953125 1.453125,-2.953125 1.40625,0 1.484375,2.03125 1.484375,2.953125 z m 0,0"
             transform="translate(156.59242,134.765)"
             id="path128923" />
        </g>
      </g>
    </g>
    <g
       id="g133766"
       style="fill:#808080;fill-opacity:1"
       ns1:jacobian_sqrt="0.279653"
       inkscapeversion="0.92.3"
       ns1:alignment="middle center"
       ns1:scale="0.79271533905"
       ns1:preamble="C:\\Users\\drsjd\\AppData\\Roaming\\inkscape\\extensions\\textext\\default_packages_simon.tex"
       ns1:text="0.5"
       ns1:pdfconverter="pdf2svg"
       ns1:texconverter="pdflatex"
       ns1:version="0.11.0"
       transform="matrix(0.279653,0.000000,0.000000,0.279653,-8.824218,88.230498)">
      <g
         style="fill:#808080;fill-opacity:1"
         id="g133764">
        <g
           id="g133762"
           style="fill-opacity:1;fill:#808080">
          <path
             id="path133756"
             transform="translate(148.712,134.765)"
             d="M 4.96875 -3.421875 C 4.953125 -4.890625 4.625 -7.015625 2.765625 -7.015625 C 0.90625 -7.015625 0.59375 -4.859375 0.59375 -3.421875 C 0.59375 -1.96875 0.921875 0.140625 2.765625 0.140625 C 4.609375 0.140625 4.96875 -1.96875 4.96875 -3.421875 Z M 4.25 -3.421875 C 4.25 -2.46875 4.171875 -0.515625 2.765625 -0.515625 C 1.359375 -0.515625 1.3125 -2.5 1.3125 -3.421875 C 1.3125 -4.359375 1.34375 -6.375 2.765625 -6.375 C 4.171875 -6.375 4.25 -4.34375 4.25 -3.421875 Z M 4.25 -3.421875 "
             style="fill-opacity:1;stroke:none;stroke-width:0;fill:#808080" />
          <path
             id="path133758"
             transform="translate(154.271131,134.765)"
             d="M 1.640625 0 L 1.640625 -1.015625 L 0.6875 -1.015625 L 0.6875 0 Z M 1.640625 0 "
             style="fill-opacity:1;stroke:none;stroke-width:0;fill:#808080" />
          <path
             id="path133760"
             transform="translate(156.592417,134.765)"
             d="M 4.46875 -2.1875 C 4.453125 -3.59375 3.578125 -4.515625 2.171875 -4.515625 C 1.984375 -4.5 1.5625 -4.453125 1.3125 -4.359375 L 1.5625 -6.171875 L 4 -6.171875 L 4 -6.890625 L 1.0625 -6.890625 L 0.640625 -3.484375 C 1.1875 -3.75 1.3125 -3.8125 2.015625 -3.8125 C 3.03125 -3.8125 3.75 -3.25 3.75 -2.1875 C 3.75 -1.09375 3.046875 -0.5625 2.015625 -0.5625 C 1.328125 -0.5625 0.875 -0.703125 0.375 -1.015625 L 0.375 -0.15625 C 0.828125 0.015625 1.5 0.140625 2.03125 0.140625 C 3.515625 0.140625 4.46875 -0.671875 4.46875 -2.1875 Z M 4.46875 -2.1875 "
             style="fill-opacity:1;stroke:none;stroke-width:0;fill:#808080" />
        </g>
      </g>
    </g>
    <g
       transform="matrix(0.279653,0.000000,0.000000,0.279653,-4.541750,135.686513)"
       ns1:version="0.11.0"
       ns1:texconverter="pdflatex"
       ns1:pdfconverter="pdf2svg"
       ns1:text="1"
       ns1:preamble="C:\\Users\\drsjd\\AppData\\Roaming\\inkscape\\extensions\\textext\\default_packages_simon.tex"
       ns1:scale="0.79271533905"
       ns1:alignment="middle center"
       inkscapeversion="0.92.3"
       ns1:jacobian_sqrt="0.279653"
       style="fill:#808080;fill-opacity:1"
       id="g134170">
      <g
         id="g134168"
         style="fill:#808080;fill-opacity:1">
        <g
           style="fill-opacity:1;fill:#808080"
           id="g134166">
          <path
             style="fill-opacity:1;stroke:none;stroke-width:0;fill:#808080"
             d="M 2.109375 0 L 2.109375 -6.890625 L 1.28125 -6.890625 L 0.296875 -6.09375 L 0.296875 -5.3125 L 1.328125 -6.15625 L 1.328125 0 Z M 2.109375 0 "
             transform="translate(148.712,134.765)"
             id="path134164" />
        </g>
      </g>
    </g>
    <g
       id="g134580"
       style="fill:#808080;fill-opacity:1"
       ns1:jacobian_sqrt="0.279653"
       inkscapeversion="0.92.3"
       ns1:alignment="middle center"
       ns1:scale="0.79271533905"
       ns1:preamble="C:\\Users\\drsjd\\AppData\\Roaming\\inkscape\\extensions\\textext\\default_packages_simon.tex"
       ns1:text="12"
       ns1:pdfconverter="pdf2svg"
       ns1:texconverter="pdflatex"
       ns1:version="0.11.0"
       transform="matrix(0.279653,0.000000,0.000000,0.279653,50.763763,135.691588)">
      <g
         style="fill:#808080;fill-opacity:1"
         id="g134578">
        <g
           id="g134576"
           style="fill-opacity:1;fill:#808080">
          <path
             id="path134572"
             transform="translate(148.712,134.765)"
             d="M 2.109375 0 L 2.109375 -6.890625 L 1.28125 -6.890625 L 0.296875 -6.09375 L 0.296875 -5.3125 L 1.328125 -6.15625 L 1.328125 0 Z M 2.109375 0 "
             style="fill-opacity:1;stroke:none;stroke-width:0;fill:#808080" />
          <path
             id="path134574"
             transform="translate(151.631042,134.765)"
             d="M 4.390625 0 L 4.390625 -0.71875 L 1.296875 -0.71875 L 3.65625 -3.375 C 4.046875 -3.921875 4.34375 -4.34375 4.34375 -5.0625 C 4.34375 -6.34375 3.40625 -7.015625 2.21875 -7.015625 C 1.546875 -7.015625 0.984375 -6.8125 0.421875 -6.578125 L 0.421875 -5.6875 C 0.984375 -6.046875 1.546875 -6.3125 2.234375 -6.3125 C 3.015625 -6.3125 3.625 -5.828125 3.625 -5.015625 C 3.625 -4.46875 3.1875 -3.796875 2.828125 -3.421875 C 2.71875 -3.265625 0.546875 -0.890625 0.375 -0.71875 L 0.375 0 Z M 4.390625 0 "
             style="fill-opacity:1;stroke:none;stroke-width:0;fill:#808080" />
        </g>
      </g>
    </g>
    <g
       id="g135654"
       style="fill:#000000;fill-opacity:1;stroke-linecap:butt;stroke-linejoin:round"
       ns1:jacobian_sqrt="0.394951"
       inkscapeversion="0.92.3"
       ns1:alignment="middle center"
       ns1:scale="1.11954289487"
       ns1:preamble="C:\\Users\\drsjd\\AppData\\Roaming\\inkscape\\extensions\\textext\\default_packages_simon.tex"
       ns1:text="Mean squared error"
       ns1:pdfconverter="pdf2svg"
       ns1:texconverter="pdflatex"
       ns1:version="0.11.0"
       transform="matrix(0,-0.394951,0.394951,0,-18.836025,222.49397)">
      <g
         style="fill:#000000;fill-opacity:1;stroke-linecap:butt;stroke-linejoin:round"
         id="surface1">
        <g
           id="g135617"
           style="fill:#000000;fill-opacity:1;stroke-linecap:butt;stroke-linejoin:round">
          <path
             id="path135609"
             transform="translate(148.712,134.765)"
             d="m 6.46875,0 v -6.890625 h -0.75 L 3.59375,-2.8125 1.4375,-6.890625 h -0.75 V 0 h 0.75 v -5.515625 l 2.15625,4.171875 2.125,-4.171875 V 0 Z m 0,0"
             style="fill:#000000;fill-opacity:1;stroke:none;stroke-width:0;stroke-linecap:butt;stroke-linejoin:round"
             inkscape:connector-curvature="0" />
          <path
             id="path135611"
             transform="translate(155.86515,134.765)"
             d="m 4.546875,-2.25 v -0.078125 c 0,-1.296875 -0.53125,-2.25 -2.015625,-2.28125 -1.328125,0 -2.078125,1.15625 -2.078125,2.40625 0,1.359375 0.828125,2.328125 2.203125,2.328125 0.625,0 1.1875,-0.140625 1.734375,-0.34375 v -0.75 C 3.671875,-0.625 3.5625,-0.546875 2.71875,-0.546875 c -0.9375,0 -1.5,-0.5625 -1.5,-1.625 V -2.25 Z M 3.8125,-2.859375 H 1.25 c 0.09375,-0.59375 0.53125,-1.109375 1.28125,-1.109375 0.78125,0 1.28125,0.484375 1.28125,1.109375 z m 0,0"
             style="fill:#000000;fill-opacity:1;stroke:none;stroke-width:0;stroke-linecap:butt;stroke-linejoin:round"
             inkscape:connector-curvature="0" />
          <path
             id="path135613"
             transform="translate(160.8066,134.765)"
             d="m 4.140625,0 v -2.5625 c 0,-1.296875 -0.546875,-2.046875 -1.890625,-2.046875 -0.484375,0 -1.078125,0.15625 -1.515625,0.3125 V -3.5625 C 1.1875,-3.8125 1.5625,-3.96875 2.1875,-3.96875 c 0.71875,0.015625 1.265625,0.375 1.265625,1.125 h -1.03125 c -1.0625,0 -2,0.359375 -2,1.53125 0.03125,0.90625 0.5625,1.4375 1.46875,1.4375 0.640625,0 1.21875,-0.265625 1.5625,-0.71875 V 0 Z m -0.6875,-2.09375 c 0,0.875 -0.40625,1.578125 -1.34375,1.578125 -0.546875,0 -1,-0.25 -1,-0.84375 0,-0.875 0.828125,-0.875 1.609375,-0.875 h 0.734375 z m 0,0"
             style="fill:#000000;fill-opacity:1;stroke:none;stroke-width:0;stroke-linecap:butt;stroke-linejoin:round"
             inkscape:connector-curvature="0" />
          <path
             id="path135615"
             transform="translate(165.57868,134.765)"
             d="m 4.5625,0 v -2.71875 c 0,-1.0625 -0.453125,-1.890625 -1.609375,-1.890625 -0.578125,0 -1.171875,0.21875 -1.53125,0.71875 V -4.5 H 0.6875 V 0 h 0.734375 v -2.546875 c 0.03125,-0.859375 0.5625,-1.40625 1.359375,-1.40625 0.78125,0 1.0625,0.46875 1.0625,1.265625 V 0 Z m 0,0"
             style="fill:#000000;fill-opacity:1;stroke:none;stroke-width:0;stroke-linecap:butt;stroke-linejoin:round"
             inkscape:connector-curvature="0" />
        </g>
        <g
           id="g135629"
           style="fill:#000000;fill-opacity:1;stroke-linecap:butt;stroke-linejoin:round">
          <path
             id="path135619"
             transform="translate(173.75798,134.765)"
             d="M 3.984375,-1.25 C 3.984375,-2.140625 3.375,-2.421875 2.5625,-2.578125 L 2.25,-2.640625 c -0.4375,-0.09375 -1.078125,-0.1875 -1.078125,-0.671875 0.03125,-0.5625 0.6875,-0.671875 1.1875,-0.671875 0.796875,0.03125 0.734375,0.078125 1.40625,0.359375 v -0.734375 c -0.421875,-0.171875 -0.953125,-0.25 -1.5,-0.25 C 1.375,-4.609375 0.5,-4.28125 0.5,-3.28125 c 0.015625,0.8125 0.5625,1.125 1.3125,1.265625 l 0.28125,0.0625 c 0.546875,0.125 1.171875,0.1875 1.171875,0.765625 C 3.234375,-0.625 2.59375,-0.515625 2.09375,-0.515625 1.265625,-0.53125 1.140625,-0.625 0.421875,-0.96875 v 0.8125 c 0.421875,0.109375 1.15625,0.28125 1.65625,0.28125 0.875,0 1.90625,-0.328125 1.90625,-1.375 z m 0,0"
             style="fill:#000000;fill-opacity:1;stroke:none;stroke-width:0;stroke-linecap:butt;stroke-linejoin:round"
             inkscape:connector-curvature="0" />
          <path
             id="path135621"
             transform="translate(178.15148,134.765)"
             d="m 0.453125,-2.25 c 0,1.34375 0.8125,2.25 2.265625,2.25 h 1.109375 v 2.40625 h 0.75 V -4.5 H 2.65625 c -1.328125,0 -2.203125,0.9375 -2.203125,2.25 z m 0.71875,0 c 0,-0.953125 0.578125,-1.59375 1.546875,-1.59375 h 1.109375 v 3.1875 H 2.71875 c -1,0 -1.546875,-0.703125 -1.546875,-1.59375 z m 0,0"
             style="fill:#000000;fill-opacity:1;stroke:none;stroke-width:0;stroke-linecap:butt;stroke-linejoin:round"
             inkscape:connector-curvature="0" />
          <path
             id="path135623"
             transform="translate(183.41174,134.765)"
             d="M 4.53125,0 V -4.5 H 3.765625 v 2.546875 c 0,0.84375 -0.421875,1.421875 -1.328125,1.421875 -0.796875,0 -1.078125,-0.5 -1.078125,-1.265625 V -4.5 h -0.71875 v 2.71875 c 0,1.0625 0.5,1.90625 1.625,1.90625 0.578125,0 1.171875,-0.328125 1.5,-0.71875 V 0 Z m 0,0"
             style="fill:#000000;fill-opacity:1;stroke:none;stroke-width:0;stroke-linecap:butt;stroke-linejoin:round"
             inkscape:connector-curvature="0" />
          <path
             id="path135625"
             transform="translate(188.63214,134.765)"
             d="m 4.140625,0 v -2.5625 c 0,-1.296875 -0.546875,-2.046875 -1.890625,-2.046875 -0.484375,0 -1.078125,0.15625 -1.515625,0.3125 V -3.5625 C 1.1875,-3.8125 1.5625,-3.96875 2.1875,-3.96875 c 0.71875,0.015625 1.265625,0.375 1.265625,1.125 h -1.03125 c -1.0625,0 -2,0.359375 -2,1.53125 0.03125,0.90625 0.5625,1.4375 1.46875,1.4375 0.640625,0 1.21875,-0.265625 1.5625,-0.71875 V 0 Z m -0.6875,-2.09375 c 0,0.875 -0.40625,1.578125 -1.34375,1.578125 -0.546875,0 -1,-0.25 -1,-0.84375 0,-0.875 0.828125,-0.875 1.609375,-0.875 h 0.734375 z m 0,0"
             style="fill:#000000;fill-opacity:1;stroke:none;stroke-width:0;stroke-linecap:butt;stroke-linejoin:round"
             inkscape:connector-curvature="0" />
          <path
             id="path135627"
             transform="translate(193.40422,134.765)"
             d="M 3.1875,-3.59375 3.421875,-4.3125 C 3.3125,-4.4375 2.828125,-4.5625 2.5,-4.5625 2.03125,-4.546875 1.640625,-4.3125 1.4375,-3.890625 V -4.5 h -0.75 V 0 h 0.75 v -2.375 c 0,-0.015625 0,-0.03125 0,-0.03125 0,-0.65625 0.34375,-1.515625 1.046875,-1.515625 H 2.53125 c 0.234375,0 0.421875,0.140625 0.65625,0.328125 z m 0,0"
             style="fill:#000000;fill-opacity:1;stroke:none;stroke-width:0;stroke-linecap:butt;stroke-linejoin:round"
             inkscape:connector-curvature="0" />
        </g>
        <g
           id="g135635"
           style="fill:#000000;fill-opacity:1;stroke-linecap:butt;stroke-linejoin:round">
          <path
             id="path135631"
             transform="translate(196.65203,134.765)"
             d="m 4.546875,-2.25 v -0.078125 c 0,-1.296875 -0.53125,-2.25 -2.015625,-2.28125 -1.328125,0 -2.078125,1.15625 -2.078125,2.40625 0,1.359375 0.828125,2.328125 2.203125,2.328125 0.625,0 1.1875,-0.140625 1.734375,-0.34375 v -0.75 C 3.671875,-0.625 3.5625,-0.546875 2.71875,-0.546875 c -0.9375,0 -1.5,-0.5625 -1.5,-1.625 V -2.25 Z M 3.8125,-2.859375 H 1.25 c 0.09375,-0.59375 0.53125,-1.109375 1.28125,-1.109375 0.78125,0 1.28125,0.484375 1.28125,1.109375 z m 0,0"
             style="fill:#000000;fill-opacity:1;stroke:none;stroke-width:0;stroke-linecap:butt;stroke-linejoin:round"
             inkscape:connector-curvature="0" />
          <path
             id="path135633"
             transform="translate(201.59348,134.765)"
             d="m 0.4375,-2.25 c 0,1.328125 0.875,2.25 2.21875,2.25 H 4.5625 v -6.890625 h -0.75 V -4.5 H 2.71875 C 1.25,-4.5 0.4375,-3.59375 0.4375,-2.25 Z m 0.71875,0 c 0,-0.875 0.5625,-1.59375 1.5625,-1.59375 H 3.8125 v 3.1875 H 2.71875 c -0.984375,0 -1.5625,-0.625 -1.5625,-1.59375 z m 0,0"
             style="fill:#000000;fill-opacity:1;stroke:none;stroke-width:0;stroke-linecap:butt;stroke-linejoin:round"
             inkscape:connector-curvature="0" />
        </g>
        <g
           id="g135641"
           style="fill:#000000;fill-opacity:1;stroke-linecap:butt;stroke-linejoin:round">
          <path
             id="path135637"
             transform="translate(209.83255,134.765)"
             d="m 4.546875,-2.25 v -0.078125 c 0,-1.296875 -0.53125,-2.25 -2.015625,-2.28125 -1.328125,0 -2.078125,1.15625 -2.078125,2.40625 0,1.359375 0.828125,2.328125 2.203125,2.328125 0.625,0 1.1875,-0.140625 1.734375,-0.34375 v -0.75 C 3.671875,-0.625 3.5625,-0.546875 2.71875,-0.546875 c -0.9375,0 -1.5,-0.5625 -1.5,-1.625 V -2.25 Z M 3.8125,-2.859375 H 1.25 c 0.09375,-0.59375 0.53125,-1.109375 1.28125,-1.109375 0.78125,0 1.28125,0.484375 1.28125,1.109375 z m 0,0"
             style="fill:#000000;fill-opacity:1;stroke:none;stroke-width:0;stroke-linecap:butt;stroke-linejoin:round"
             inkscape:connector-curvature="0" />
          <path
             id="path135639"
             transform="translate(214.774,134.765)"
             d="M 3.1875,-3.59375 3.421875,-4.3125 C 3.3125,-4.4375 2.828125,-4.5625 2.5,-4.5625 2.03125,-4.546875 1.640625,-4.3125 1.4375,-3.890625 V -4.5 h -0.75 V 0 h 0.75 v -2.375 c 0,-0.015625 0,-0.03125 0,-0.03125 0,-0.65625 0.34375,-1.515625 1.046875,-1.515625 H 2.53125 c 0.234375,0 0.421875,0.140625 0.65625,0.328125 z m 0,0"
             style="fill:#000000;fill-opacity:1;stroke:none;stroke-width:0;stroke-linecap:butt;stroke-linejoin:round"
             inkscape:connector-curvature="0" />
        </g>
        <g
           id="g135645"
           style="fill:#000000;fill-opacity:1;stroke-linecap:butt;stroke-linejoin:round">
          <path
             id="path135643"
             transform="translate(218.26091,134.765)"
             d="M 3.1875,-3.59375 3.421875,-4.3125 C 3.3125,-4.4375 2.828125,-4.5625 2.5,-4.5625 2.03125,-4.546875 1.640625,-4.3125 1.4375,-3.890625 V -4.5 h -0.75 V 0 h 0.75 v -2.375 c 0,-0.015625 0,-0.03125 0,-0.03125 0,-0.65625 0.34375,-1.515625 1.046875,-1.515625 H 2.53125 c 0.234375,0 0.421875,0.140625 0.65625,0.328125 z m 0,0"
             style="fill:#000000;fill-opacity:1;stroke:none;stroke-width:0;stroke-linecap:butt;stroke-linejoin:round"
             inkscape:connector-curvature="0" />
        </g>
        <g
           id="g135651"
           style="fill:#000000;fill-opacity:1;stroke-linecap:butt;stroke-linejoin:round">
          <path
             id="path135647"
             transform="translate(221.52864,134.765)"
             d="m 4.6875,-2.25 c 0,-1.140625 -0.609375,-2.359375 -2.109375,-2.359375 -1.359375,0 -2.125,1.046875 -2.125,2.359375 0,1.234375 0.796875,2.34375 2.125,2.375 C 3.921875,0.09375 4.6875,-0.984375 4.6875,-2.25 Z m -0.734375,0 c 0,0.890625 -0.546875,1.6875 -1.375,1.6875 -1.125,-0.015625 -1.375,-1.015625 -1.375,-1.703125 0,-0.90625 0.4375,-1.65625 1.375,-1.671875 0.875,0.015625 1.375,0.828125 1.375,1.6875 z m 0,0"
             style="fill:#000000;fill-opacity:1;stroke:none;stroke-width:0;stroke-linecap:butt;stroke-linejoin:round"
             inkscape:connector-curvature="0" />
          <path
             id="path135649"
             transform="translate(226.69923,134.765)"
             d="M 3.1875,-3.59375 3.421875,-4.3125 C 3.3125,-4.4375 2.828125,-4.5625 2.5,-4.5625 2.03125,-4.546875 1.640625,-4.3125 1.4375,-3.890625 V -4.5 h -0.75 V 0 h 0.75 v -2.375 c 0,-0.015625 0,-0.03125 0,-0.03125 0,-0.65625 0.34375,-1.515625 1.046875,-1.515625 H 2.53125 c 0.234375,0 0.421875,0.140625 0.65625,0.328125 z m 0,0"
             style="fill:#000000;fill-opacity:1;stroke:none;stroke-width:0;stroke-linecap:butt;stroke-linejoin:round"
             inkscape:connector-curvature="0" />
        </g>
      </g>
    </g>
  </g>
</svg>
