<?xml version="1.0" encoding="UTF-8" standalone="no"?>
<!-- Created with Inkscape (http://www.inkscape.org/) -->

<svg
   xmlns:ns1="http://www.iki.fi/pav/software/textext/"
   xmlns:dc="http://purl.org/dc/elements/1.1/"
   xmlns:cc="http://creativecommons.org/ns#"
   xmlns:rdf="http://www.w3.org/1999/02/22-rdf-syntax-ns#"
   xmlns:svg="http://www.w3.org/2000/svg"
   xmlns="http://www.w3.org/2000/svg"
   xmlns:xlink="http://www.w3.org/1999/xlink"
   xmlns:sodipodi="http://sodipodi.sourceforge.net/DTD/sodipodi-0.dtd"
   xmlns:inkscape="http://www.inkscape.org/namespaces/inkscape"
   sodipodi:docname="LossLogisticSigmoid.svg"
   inkscape:version="0.92.3 (2405546, 2018-03-11)"
   id="svg318594"
   version="1.1"
   viewBox="0 0 64.967955 43.02631"
   height="43.02631mm"
   width="64.967957mm">
  <sodipodi:namedview
     showguides="false"
     inkscape:window-maximized="1"
     inkscape:window-y="-8"
     inkscape:window-x="2552"
     inkscape:window-height="1387"
     inkscape:window-width="2560"
     showgrid="false"
     inkscape:current-layer="layer1"
     inkscape:document-units="mm"
     inkscape:cy="70.079875"
     inkscape:cx="31.168115"
     inkscape:zoom="5.6054944"
     inkscape:pageshadow="2"
     inkscape:pageopacity="0.0"
     borderopacity="1.0"
     bordercolor="#666666"
     pagecolor="#ffffff"
     id="base"
     fit-margin-top="0"
     fit-margin-left="0"
     fit-margin-right="0"
     fit-margin-bottom="0"
     inkscape:snap-global="false" />
  <defs
     id="defs318588"
     style="stroke-linecap:butt;stroke-linejoin:round">
    <linearGradient
       inkscape:collect="always"
       id="linearGradient1846">
      <stop
         style="stop-color:#476779;stop-opacity:1;"
         offset="0"
         id="stop1842" />
      <stop
         style="stop-color:#476779;stop-opacity:0;"
         offset="1"
         id="stop1844" />
    </linearGradient>
    <marker
       inkscape:isstock="true"
       style="overflow:visible"
       id="Arrow1Sstart"
       refX="0"
       refY="0"
       orient="auto"
       inkscape:stockid="Arrow1Sstart">
      <path
         transform="matrix(0.2,0,0,0.2,1.2,0)"
         style="fill:#c6cdcf;fill-opacity:1;fill-rule:evenodd;stroke:#c6cdcf;stroke-width:1.00000003pt;stroke-linecap:butt;stroke-linejoin:round;stroke-opacity:1"
         d="M 0,0 5,-5 -12.5,0 5,5 Z"
         id="path22753"
         inkscape:connector-curvature="0" />
    </marker>
    <marker
       inkscape:isstock="true"
       style="overflow:visible;stroke-linecap:butt;stroke-linejoin:round"
       id="Arrow1Send"
       refX="0"
       refY="0"
       orient="auto"
       inkscape:stockid="Arrow1Send">
      <path
         transform="matrix(-0.2,0,0,-0.2,-1.2,0)"
         style="fill:#c6cdcf;fill-opacity:1;fill-rule:evenodd;stroke:#c6cdcf;stroke-width:1.00000003pt;stroke-linecap:butt;stroke-linejoin:round;stroke-opacity:1"
         d="M 0,0 5,-5 -12.5,0 5,5 Z"
         id="path22756"
         inkscape:connector-curvature="0" />
    </marker>
    <marker
       inkscape:isstock="true"
       style="overflow:visible;stroke-linecap:butt;stroke-linejoin:round"
       id="Arrow1Mend"
       refX="0"
       refY="0"
       orient="auto"
       inkscape:stockid="Arrow1Mend">
      <path
         transform="matrix(-0.4,0,0,-0.4,-4,0)"
         style="fill:#c6cdcf;fill-opacity:1;fill-rule:evenodd;stroke:#c6cdcf;stroke-width:1.00000003pt;stroke-linecap:butt;stroke-linejoin:round;stroke-opacity:1"
         d="M 0,0 5,-5 -12.5,0 5,5 Z"
         id="path22750"
         inkscape:connector-curvature="0" />
    </marker>
    <style
       id="style1863"
       type="text/css">
*{stroke-linecap:butt;stroke-linejoin:round;}
  </style>
    <path
       style="stroke:#000000;stroke-width:0.80000001;stroke-linecap:butt;stroke-linejoin:round"
       id="mb095f91df8"
       d="M 0,0 V 3.5"
       inkscape:connector-curvature="0" />
    <path
       id="DejaVuSans-48"
       d="m 31.78125,66.40625 q -7.609375,0 -11.453125,-7.5 Q 16.5,51.421875 16.5,36.375 q 0,-14.984375 3.828125,-22.484375 3.84375,-7.5 11.453125,-7.5 7.671875,0 11.5,7.5 3.84375,7.5 3.84375,22.484375 0,15.046875 -3.84375,22.53125 -3.828125,7.5 -11.5,7.5 z m 0,7.8125 q 12.265625,0 18.734375,-9.703125 6.46875,-9.6875 6.46875,-28.140625 0,-18.40625 -6.46875,-28.109375 -6.46875,-9.6875 -18.734375,-9.6875 -12.25,0 -18.71875,9.6875 Q 6.59375,17.96875 6.59375,36.375 q 0,18.453125 6.46875,28.140625 6.46875,9.703125 18.71875,9.703125 z"
       inkscape:connector-curvature="0"
       style="stroke-linecap:butt;stroke-linejoin:round" />
    <path
       id="DejaVuSans-50"
       d="M 19.1875,8.296875 H 53.609375 V 0 H 7.328125 v 8.296875 q 5.609375,5.8125 15.296875,15.59375 9.703125,9.796875 12.1875,12.640625 4.734375,5.3125 6.609375,9 1.890625,3.6875 1.890625,7.25 0,5.8125 -4.078125,9.46875 -4.078125,3.671875 -10.625,3.671875 -4.640625,0 -9.796875,-1.609375 -5.140625,-1.609375 -11,-4.890625 v 9.96875 Q 13.765625,71.78125 18.9375,73 q 5.1875,1.21875 9.484375,1.21875 11.328125,0 18.0625,-5.671875 6.734375,-5.65625 6.734375,-15.125 0,-4.5 -1.6875,-8.53125 Q 49.859375,40.875 45.40625,35.40625 44.1875,33.984375 37.640625,27.21875 31.109375,20.453125 19.1875,8.296875 Z"
       inkscape:connector-curvature="0"
       style="stroke-linecap:butt;stroke-linejoin:round" />
    <path
       id="DejaVuSans-52"
       d="M 37.796875,64.3125 12.890625,25.390625 h 24.90625 z m -2.59375,8.59375 h 12.40625 V 25.390625 h 10.40625 V 17.1875 H 47.609375 V 0 h -9.8125 V 17.1875 H 4.890625 v 9.515625 z"
       inkscape:connector-curvature="0"
       style="stroke-linecap:butt;stroke-linejoin:round" />
    <path
       id="DejaVuSans-54"
       d="m 33.015625,40.375 q -6.640625,0 -10.53125,-4.546875 -3.875,-4.53125 -3.875,-12.4375 0,-7.859375 3.875,-12.4375 3.890625,-4.5625 10.53125,-4.5625 6.640625,0 10.515625,4.5625 3.875,4.578125 3.875,12.4375 0,7.90625 -3.875,12.4375 Q 39.65625,40.375 33.015625,40.375 Z M 52.59375,71.296875 V 62.3125 q -3.71875,1.75 -7.5,2.671875 -3.78125,0.9375 -7.5,0.9375 -9.765625,0 -14.921875,-6.59375 -5.140625,-6.59375 -5.875,-19.921875 2.875,4.25 7.21875,6.515625 4.359375,2.265625 9.578125,2.265625 10.984375,0 17.359375,-6.671875 6.375,-6.65625 6.375,-18.125 0,-11.234375 -6.640625,-18.03125 -6.640625,-6.78125 -17.671875,-6.78125 -12.65625,0 -19.34375,9.6875 -6.6875,9.703125 -6.6875,28.109375 0,17.28125 8.203125,27.5625 8.203125,10.28125 22.015625,10.28125 3.71875,0 7.5,-0.734375 3.78125,-0.734375 7.890625,-2.1875 z"
       inkscape:connector-curvature="0"
       style="stroke-linecap:butt;stroke-linejoin:round" />
    <path
       id="DejaVuSans-56"
       d="m 31.78125,34.625 q -7.03125,0 -11.0625,-3.765625 -4.015625,-3.765625 -4.015625,-10.34375 0,-6.59375 4.015625,-10.359375 4.03125,-3.765625 11.0625,-3.765625 7.03125,0 11.078125,3.78125 4.0625,3.796875 4.0625,10.34375 0,6.578125 -4.03125,10.34375 Q 38.875,34.625 31.78125,34.625 Z m -9.859375,4.1875 Q 15.578125,40.375 12.03125,44.71875 8.5,49.078125 8.5,55.328125 q 0,8.734375 6.21875,13.8125 6.234375,5.078125 17.0625,5.078125 10.890625,0 17.09375,-5.078125 6.203125,-5.078125 6.203125,-13.8125 0,-6.25 -3.546875,-10.609375 Q 48,40.375 41.703125,38.8125 q 7.125,-1.65625 11.09375,-6.5 3.984375,-4.828125 3.984375,-11.796875 0,-10.609375 -6.46875,-16.28125 -6.46875,-5.65625 -18.53125,-5.65625 -12.046875,0 -18.53125,5.65625 -6.46875,5.671875 -6.46875,16.28125 0,6.96875 4,11.796875 4.015625,4.84375 11.140625,6.5 z M 18.3125,54.390625 q 0,-5.65625 3.53125,-8.828125 3.546875,-3.171875 9.9375,-3.171875 6.359375,0 9.9375,3.171875 3.59375,3.171875 3.59375,8.828125 0,5.671875 -3.59375,8.84375 -3.578125,3.171875 -9.9375,3.171875 -6.390625,0 -9.9375,-3.171875 Q 18.3125,60.0625 18.3125,54.390625 Z"
       inkscape:connector-curvature="0"
       style="stroke-linecap:butt;stroke-linejoin:round" />
    <path
       id="DejaVuSans-49"
       d="m 12.40625,8.296875 h 16.109375 v 55.625 L 10.984375,60.40625 v 8.984375 l 17.4375,3.515625 H 38.28125 V 8.296875 H 54.390625 V 0 H 12.40625 Z"
       inkscape:connector-curvature="0"
       style="stroke-linecap:butt;stroke-linejoin:round" />
    <path
       style="stroke:#000000;stroke-width:0.80000001;stroke-linecap:butt;stroke-linejoin:round"
       id="m1affec1681"
       d="M 0,0 H -3.5"
       inkscape:connector-curvature="0" />
    <path
       id="DejaVuSans-8722"
       d="M 10.59375,35.5 H 73.1875 V 27.203125 H 10.59375 Z"
       inkscape:connector-curvature="0"
       style="stroke-linecap:butt;stroke-linejoin:round" />
    <path
       id="DejaVuSans-53"
       d="m 10.796875,72.90625 h 38.71875 v -8.3125 h -29.6875 V 46.734375 q 2.140625,0.734375 4.28125,1.09375 2.15625,0.359375 4.3125,0.359375 Q 40.625,48.1875 47.75,41.5 54.890625,34.8125 54.890625,23.390625 54.890625,11.625 47.5625,5.09375 40.234375,-1.421875 26.90625,-1.421875 q -4.59375,0 -9.359375,0.78125 -4.75,0.78125 -9.828125,2.34375 V 11.625 q 4.390625,-2.390625 9.078125,-3.5625 4.6875,-1.171875 9.90625,-1.171875 8.453125,0 13.375,4.4375 4.9375,4.4375 4.9375,12.0625 0,7.609375 -4.9375,12.046875 -4.921875,4.453125 -13.375,4.453125 -3.953125,0 -7.890625,-0.875 -3.921875,-0.875 -8.015625,-2.734375 z"
       inkscape:connector-curvature="0"
       style="stroke-linecap:butt;stroke-linejoin:round" />
    <path
       id="DejaVuSans-51"
       d="M 40.578125,39.3125 Q 47.65625,37.796875 51.625,33 q 3.984375,-4.78125 3.984375,-11.8125 0,-10.78125 -7.421875,-16.703125 -7.421875,-5.90625 -21.09375,-5.90625 -4.578125,0 -9.4375,0.90625 -4.859375,0.90625 -10.03125,2.71875 v 9.515625 q 4.09375,-2.390625 8.96875,-3.609375 4.890625,-1.21875 10.21875,-1.21875 9.265625,0 14.125,3.65625 4.859375,3.65625 4.859375,10.640625 0,6.453125 -4.515625,10.078125 -4.515625,3.640625 -12.5625,3.640625 h -8.5 v 8.109375 h 8.890625 q 7.265625,0 11.125,2.90625 3.859375,2.90625 3.859375,8.375 0,5.609375 -3.984375,8.609375 -3.96875,3.015625 -11.390625,3.015625 -4.0625,0 -8.703125,-0.890625 Q 15.375,64.15625 9.8125,62.3125 v 8.78125 q 5.625,1.5625 10.53125,2.34375 4.90625,0.78125 9.25,0.78125 11.234375,0 17.765625,-5.109375 6.546875,-5.09375 6.546875,-13.78125 0,-6.0625 -3.46875,-10.234375 -3.46875,-4.171875 -9.859375,-5.78125 z"
       inkscape:connector-curvature="0"
       style="stroke-linecap:butt;stroke-linejoin:round" />
    <clipPath
       id="p303a4aa573"
       style="stroke-linecap:butt;stroke-linejoin:round">
      <rect
         id="rect2100"
         y="43.200001"
         x="76.5"
         width="474.29999"
         height="271.79999"
         style="stroke-linecap:butt;stroke-linejoin:round" />
    </clipPath>
    <style
       id="style11126"
       type="text/css">
*{stroke-linecap:butt;stroke-linejoin:round;}
  </style>
    <path
       style="stroke:#000000;stroke-width:0.80000001;stroke-linecap:butt;stroke-linejoin:round"
       id="m23403f16b2"
       d="M 0,0 V 3.5"
       inkscape:connector-curvature="0" />
    <path
       id="DejaVuSans-8722-8"
       d="M 10.59375,35.5 H 73.1875 V 27.203125 H 10.59375 Z"
       inkscape:connector-curvature="0"
       style="stroke-linecap:butt;stroke-linejoin:round" />
    <path
       id="DejaVuSans-51-7"
       d="M 40.578125,39.3125 Q 47.65625,37.796875 51.625,33 q 3.984375,-4.78125 3.984375,-11.8125 0,-10.78125 -7.421875,-16.703125 -7.421875,-5.90625 -21.09375,-5.90625 -4.578125,0 -9.4375,0.90625 -4.859375,0.90625 -10.03125,2.71875 v 9.515625 q 4.09375,-2.390625 8.96875,-3.609375 4.890625,-1.21875 10.21875,-1.21875 9.265625,0 14.125,3.65625 4.859375,3.65625 4.859375,10.640625 0,6.453125 -4.515625,10.078125 -4.515625,3.640625 -12.5625,3.640625 h -8.5 v 8.109375 h 8.890625 q 7.265625,0 11.125,2.90625 3.859375,2.90625 3.859375,8.375 0,5.609375 -3.984375,8.609375 -3.96875,3.015625 -11.390625,3.015625 -4.0625,0 -8.703125,-0.890625 Q 15.375,64.15625 9.8125,62.3125 v 8.78125 q 5.625,1.5625 10.53125,2.34375 4.90625,0.78125 9.25,0.78125 11.234375,0 17.765625,-5.109375 6.546875,-5.09375 6.546875,-13.78125 0,-6.0625 -3.46875,-10.234375 -3.46875,-4.171875 -9.859375,-5.78125 z"
       inkscape:connector-curvature="0"
       style="stroke-linecap:butt;stroke-linejoin:round" />
    <path
       id="DejaVuSans-50-0"
       d="M 19.1875,8.296875 H 53.609375 V 0 H 7.328125 v 8.296875 q 5.609375,5.8125 15.296875,15.59375 9.703125,9.796875 12.1875,12.640625 4.734375,5.3125 6.609375,9 1.890625,3.6875 1.890625,7.25 0,5.8125 -4.078125,9.46875 -4.078125,3.671875 -10.625,3.671875 -4.640625,0 -9.796875,-1.609375 -5.140625,-1.609375 -11,-4.890625 v 9.96875 Q 13.765625,71.78125 18.9375,73 q 5.1875,1.21875 9.484375,1.21875 11.328125,0 18.0625,-5.671875 6.734375,-5.65625 6.734375,-15.125 0,-4.5 -1.6875,-8.53125 Q 49.859375,40.875 45.40625,35.40625 44.1875,33.984375 37.640625,27.21875 31.109375,20.453125 19.1875,8.296875 Z"
       inkscape:connector-curvature="0"
       style="stroke-linecap:butt;stroke-linejoin:round" />
    <path
       id="DejaVuSans-49-5"
       d="m 12.40625,8.296875 h 16.109375 v 55.625 L 10.984375,60.40625 v 8.984375 l 17.4375,3.515625 H 38.28125 V 8.296875 H 54.390625 V 0 H 12.40625 Z"
       inkscape:connector-curvature="0"
       style="stroke-linecap:butt;stroke-linejoin:round" />
    <path
       id="DejaVuSans-48-7"
       d="m 31.78125,66.40625 q -7.609375,0 -11.453125,-7.5 Q 16.5,51.421875 16.5,36.375 q 0,-14.984375 3.828125,-22.484375 3.84375,-7.5 11.453125,-7.5 7.671875,0 11.5,7.5 3.84375,7.5 3.84375,22.484375 0,15.046875 -3.84375,22.53125 -3.828125,7.5 -11.5,7.5 z m 0,7.8125 q 12.265625,0 18.734375,-9.703125 6.46875,-9.6875 6.46875,-28.140625 0,-18.40625 -6.46875,-28.109375 -6.46875,-9.6875 -18.734375,-9.6875 -12.25,0 -18.71875,9.6875 Q 6.59375,17.96875 6.59375,36.375 q 0,18.453125 6.46875,28.140625 6.46875,9.703125 18.71875,9.703125 z"
       inkscape:connector-curvature="0"
       style="stroke-linecap:butt;stroke-linejoin:round" />
    <path
       style="stroke:#000000;stroke-width:0.80000001;stroke-linecap:butt;stroke-linejoin:round"
       id="m47831267f9"
       d="M 0,0 H -3.5"
       inkscape:connector-curvature="0" />
    <path
       id="DejaVuSans-46"
       d="M 10.6875,12.40625 H 21 V 0 H 10.6875 Z"
       inkscape:connector-curvature="0"
       style="stroke-linecap:butt;stroke-linejoin:round" />
    <path
       id="DejaVuSans-52-2"
       d="M 37.796875,64.3125 12.890625,25.390625 h 24.90625 z m -2.59375,8.59375 h 12.40625 V 25.390625 h 10.40625 V 17.1875 H 47.609375 V 0 h -9.8125 V 17.1875 H 4.890625 v 9.515625 z"
       inkscape:connector-curvature="0"
       style="stroke-linecap:butt;stroke-linejoin:round" />
    <path
       id="DejaVuSans-54-7"
       d="m 33.015625,40.375 q -6.640625,0 -10.53125,-4.546875 -3.875,-4.53125 -3.875,-12.4375 0,-7.859375 3.875,-12.4375 3.890625,-4.5625 10.53125,-4.5625 6.640625,0 10.515625,4.5625 3.875,4.578125 3.875,12.4375 0,7.90625 -3.875,12.4375 Q 39.65625,40.375 33.015625,40.375 Z M 52.59375,71.296875 V 62.3125 q -3.71875,1.75 -7.5,2.671875 -3.78125,0.9375 -7.5,0.9375 -9.765625,0 -14.921875,-6.59375 -5.140625,-6.59375 -5.875,-19.921875 2.875,4.25 7.21875,6.515625 4.359375,2.265625 9.578125,2.265625 10.984375,0 17.359375,-6.671875 6.375,-6.65625 6.375,-18.125 0,-11.234375 -6.640625,-18.03125 -6.640625,-6.78125 -17.671875,-6.78125 -12.65625,0 -19.34375,9.6875 -6.6875,9.703125 -6.6875,28.109375 0,17.28125 8.203125,27.5625 8.203125,10.28125 22.015625,10.28125 3.71875,0 7.5,-0.734375 3.78125,-0.734375 7.890625,-2.1875 z"
       inkscape:connector-curvature="0"
       style="stroke-linecap:butt;stroke-linejoin:round" />
    <path
       id="DejaVuSans-56-5"
       d="m 31.78125,34.625 q -7.03125,0 -11.0625,-3.765625 -4.015625,-3.765625 -4.015625,-10.34375 0,-6.59375 4.015625,-10.359375 4.03125,-3.765625 11.0625,-3.765625 7.03125,0 11.078125,3.78125 4.0625,3.796875 4.0625,10.34375 0,6.578125 -4.03125,10.34375 Q 38.875,34.625 31.78125,34.625 Z m -9.859375,4.1875 Q 15.578125,40.375 12.03125,44.71875 8.5,49.078125 8.5,55.328125 q 0,8.734375 6.21875,13.8125 6.234375,5.078125 17.0625,5.078125 10.890625,0 17.09375,-5.078125 6.203125,-5.078125 6.203125,-13.8125 0,-6.25 -3.546875,-10.609375 Q 48,40.375 41.703125,38.8125 q 7.125,-1.65625 11.09375,-6.5 3.984375,-4.828125 3.984375,-11.796875 0,-10.609375 -6.46875,-16.28125 -6.46875,-5.65625 -18.53125,-5.65625 -12.046875,0 -18.53125,5.65625 -6.46875,5.671875 -6.46875,16.28125 0,6.96875 4,11.796875 4.015625,4.84375 11.140625,6.5 z M 18.3125,54.390625 q 0,-5.65625 3.53125,-8.828125 3.546875,-3.171875 9.9375,-3.171875 6.359375,0 9.9375,3.171875 3.59375,3.171875 3.59375,8.828125 0,5.671875 -3.59375,8.84375 -3.578125,3.171875 -9.9375,3.171875 -6.390625,0 -9.9375,-3.171875 Q 18.3125,60.0625 18.3125,54.390625 Z"
       inkscape:connector-curvature="0"
       style="stroke-linecap:butt;stroke-linejoin:round" />
    <clipPath
       id="p016548e7fd"
       style="stroke-linecap:butt;stroke-linejoin:round">
      <rect
         id="rect11380"
         y="43.200001"
         x="63"
         width="390.60001"
         height="271.79999"
         style="stroke-linecap:butt;stroke-linejoin:round" />
    </clipPath>
    <style
       id="style11839"
       type="text/css">
*{stroke-linecap:butt;stroke-linejoin:round;}
  </style>
    <path
       style="stroke:#000000;stroke-width:0.80000001;stroke-linecap:butt;stroke-linejoin:round"
       id="m9453462f7f"
       d="M 0,0 V 3.5"
       inkscape:connector-curvature="0" />
    <path
       id="DejaVuSans-8722-3"
       d="M 10.59375,35.5 H 73.1875 V 27.203125 H 10.59375 Z"
       inkscape:connector-curvature="0"
       style="stroke-linecap:butt;stroke-linejoin:round" />
    <path
       id="DejaVuSans-51-0"
       d="M 40.578125,39.3125 Q 47.65625,37.796875 51.625,33 q 3.984375,-4.78125 3.984375,-11.8125 0,-10.78125 -7.421875,-16.703125 -7.421875,-5.90625 -21.09375,-5.90625 -4.578125,0 -9.4375,0.90625 -4.859375,0.90625 -10.03125,2.71875 v 9.515625 q 4.09375,-2.390625 8.96875,-3.609375 4.890625,-1.21875 10.21875,-1.21875 9.265625,0 14.125,3.65625 4.859375,3.65625 4.859375,10.640625 0,6.453125 -4.515625,10.078125 -4.515625,3.640625 -12.5625,3.640625 h -8.5 v 8.109375 h 8.890625 q 7.265625,0 11.125,2.90625 3.859375,2.90625 3.859375,8.375 0,5.609375 -3.984375,8.609375 -3.96875,3.015625 -11.390625,3.015625 -4.0625,0 -8.703125,-0.890625 Q 15.375,64.15625 9.8125,62.3125 v 8.78125 q 5.625,1.5625 10.53125,2.34375 4.90625,0.78125 9.25,0.78125 11.234375,0 17.765625,-5.109375 6.546875,-5.09375 6.546875,-13.78125 0,-6.0625 -3.46875,-10.234375 -3.46875,-4.171875 -9.859375,-5.78125 z"
       inkscape:connector-curvature="0"
       style="stroke-linecap:butt;stroke-linejoin:round" />
    <path
       id="DejaVuSans-50-9"
       d="M 19.1875,8.296875 H 53.609375 V 0 H 7.328125 v 8.296875 q 5.609375,5.8125 15.296875,15.59375 9.703125,9.796875 12.1875,12.640625 4.734375,5.3125 6.609375,9 1.890625,3.6875 1.890625,7.25 0,5.8125 -4.078125,9.46875 -4.078125,3.671875 -10.625,3.671875 -4.640625,0 -9.796875,-1.609375 -5.140625,-1.609375 -11,-4.890625 v 9.96875 Q 13.765625,71.78125 18.9375,73 q 5.1875,1.21875 9.484375,1.21875 11.328125,0 18.0625,-5.671875 6.734375,-5.65625 6.734375,-15.125 0,-4.5 -1.6875,-8.53125 Q 49.859375,40.875 45.40625,35.40625 44.1875,33.984375 37.640625,27.21875 31.109375,20.453125 19.1875,8.296875 Z"
       inkscape:connector-curvature="0"
       style="stroke-linecap:butt;stroke-linejoin:round" />
    <path
       id="DejaVuSans-49-7"
       d="m 12.40625,8.296875 h 16.109375 v 55.625 L 10.984375,60.40625 v 8.984375 l 17.4375,3.515625 H 38.28125 V 8.296875 H 54.390625 V 0 H 12.40625 Z"
       inkscape:connector-curvature="0"
       style="stroke-linecap:butt;stroke-linejoin:round" />
    <path
       id="DejaVuSans-48-71"
       d="m 31.78125,66.40625 q -7.609375,0 -11.453125,-7.5 Q 16.5,51.421875 16.5,36.375 q 0,-14.984375 3.828125,-22.484375 3.84375,-7.5 11.453125,-7.5 7.671875,0 11.5,7.5 3.84375,7.5 3.84375,22.484375 0,15.046875 -3.84375,22.53125 -3.828125,7.5 -11.5,7.5 z m 0,7.8125 q 12.265625,0 18.734375,-9.703125 6.46875,-9.6875 6.46875,-28.140625 0,-18.40625 -6.46875,-28.109375 -6.46875,-9.6875 -18.734375,-9.6875 -12.25,0 -18.71875,9.6875 Q 6.59375,17.96875 6.59375,36.375 q 0,18.453125 6.46875,28.140625 6.46875,9.703125 18.71875,9.703125 z"
       inkscape:connector-curvature="0"
       style="stroke-linecap:butt;stroke-linejoin:round" />
    <path
       style="stroke:#000000;stroke-width:0.80000001;stroke-linecap:butt;stroke-linejoin:round"
       id="ma81df1a6f5"
       d="M 0,0 H -3.5"
       inkscape:connector-curvature="0" />
    <path
       id="DejaVuSans-46-5"
       d="M 10.6875,12.40625 H 21 V 0 H 10.6875 Z"
       inkscape:connector-curvature="0"
       style="stroke-linecap:butt;stroke-linejoin:round" />
    <path
       id="DejaVuSans-52-6"
       d="M 37.796875,64.3125 12.890625,25.390625 h 24.90625 z m -2.59375,8.59375 h 12.40625 V 25.390625 h 10.40625 V 17.1875 H 47.609375 V 0 h -9.8125 V 17.1875 H 4.890625 v 9.515625 z"
       inkscape:connector-curvature="0"
       style="stroke-linecap:butt;stroke-linejoin:round" />
    <path
       id="DejaVuSans-54-78"
       d="m 33.015625,40.375 q -6.640625,0 -10.53125,-4.546875 -3.875,-4.53125 -3.875,-12.4375 0,-7.859375 3.875,-12.4375 3.890625,-4.5625 10.53125,-4.5625 6.640625,0 10.515625,4.5625 3.875,4.578125 3.875,12.4375 0,7.90625 -3.875,12.4375 Q 39.65625,40.375 33.015625,40.375 Z M 52.59375,71.296875 V 62.3125 q -3.71875,1.75 -7.5,2.671875 -3.78125,0.9375 -7.5,0.9375 -9.765625,0 -14.921875,-6.59375 -5.140625,-6.59375 -5.875,-19.921875 2.875,4.25 7.21875,6.515625 4.359375,2.265625 9.578125,2.265625 10.984375,0 17.359375,-6.671875 6.375,-6.65625 6.375,-18.125 0,-11.234375 -6.640625,-18.03125 -6.640625,-6.78125 -17.671875,-6.78125 -12.65625,0 -19.34375,9.6875 -6.6875,9.703125 -6.6875,28.109375 0,17.28125 8.203125,27.5625 8.203125,10.28125 22.015625,10.28125 3.71875,0 7.5,-0.734375 3.78125,-0.734375 7.890625,-2.1875 z"
       inkscape:connector-curvature="0"
       style="stroke-linecap:butt;stroke-linejoin:round" />
    <path
       id="DejaVuSans-56-6"
       d="m 31.78125,34.625 q -7.03125,0 -11.0625,-3.765625 -4.015625,-3.765625 -4.015625,-10.34375 0,-6.59375 4.015625,-10.359375 4.03125,-3.765625 11.0625,-3.765625 7.03125,0 11.078125,3.78125 4.0625,3.796875 4.0625,10.34375 0,6.578125 -4.03125,10.34375 Q 38.875,34.625 31.78125,34.625 Z m -9.859375,4.1875 Q 15.578125,40.375 12.03125,44.71875 8.5,49.078125 8.5,55.328125 q 0,8.734375 6.21875,13.8125 6.234375,5.078125 17.0625,5.078125 10.890625,0 17.09375,-5.078125 6.203125,-5.078125 6.203125,-13.8125 0,-6.25 -3.546875,-10.609375 Q 48,40.375 41.703125,38.8125 q 7.125,-1.65625 11.09375,-6.5 3.984375,-4.828125 3.984375,-11.796875 0,-10.609375 -6.46875,-16.28125 -6.46875,-5.65625 -18.53125,-5.65625 -12.046875,0 -18.53125,5.65625 -6.46875,5.671875 -6.46875,16.28125 0,6.96875 4,11.796875 4.015625,4.84375 11.140625,6.5 z M 18.3125,54.390625 q 0,-5.65625 3.53125,-8.828125 3.546875,-3.171875 9.9375,-3.171875 6.359375,0 9.9375,3.171875 3.59375,3.171875 3.59375,8.828125 0,5.671875 -3.59375,8.84375 -3.578125,3.171875 -9.9375,3.171875 -6.390625,0 -9.9375,-3.171875 Q 18.3125,60.0625 18.3125,54.390625 Z"
       inkscape:connector-curvature="0"
       style="stroke-linecap:butt;stroke-linejoin:round" />
    <clipPath
       id="pb858245322"
       style="stroke-linecap:butt;stroke-linejoin:round">
      <rect
         id="rect12093"
         y="43.200001"
         x="54"
         width="334.79999"
         height="271.79999"
         style="stroke-linecap:butt;stroke-linejoin:round" />
    </clipPath>
    <style
       type="text/css"
       id="style21965">
*{stroke-linecap:butt;stroke-linejoin:round;}
  </style>
    <path
       d="M 0,0 V 3.5"
       id="me3379a6c9c"
       style="stroke:#000000;stroke-width:0.80000001;stroke-linecap:butt;stroke-linejoin:round"
       inkscape:connector-curvature="0" />
    <path
       d="M 10.59375,35.5 H 73.1875 V 27.203125 H 10.59375 Z"
       id="DejaVuSans-8722-4"
       inkscape:connector-curvature="0"
       style="stroke-linecap:butt;stroke-linejoin:round" />
    <path
       d="M 40.578125,39.3125 Q 47.65625,37.796875 51.625,33 q 3.984375,-4.78125 3.984375,-11.8125 0,-10.78125 -7.421875,-16.703125 -7.421875,-5.90625 -21.09375,-5.90625 -4.578125,0 -9.4375,0.90625 -4.859375,0.90625 -10.03125,2.71875 v 9.515625 q 4.09375,-2.390625 8.96875,-3.609375 4.890625,-1.21875 10.21875,-1.21875 9.265625,0 14.125,3.65625 4.859375,3.65625 4.859375,10.640625 0,6.453125 -4.515625,10.078125 -4.515625,3.640625 -12.5625,3.640625 h -8.5 v 8.109375 h 8.890625 q 7.265625,0 11.125,2.90625 3.859375,2.90625 3.859375,8.375 0,5.609375 -3.984375,8.609375 -3.96875,3.015625 -11.390625,3.015625 -4.0625,0 -8.703125,-0.890625 Q 15.375,64.15625 9.8125,62.3125 v 8.78125 q 5.625,1.5625 10.53125,2.34375 4.90625,0.78125 9.25,0.78125 11.234375,0 17.765625,-5.109375 6.546875,-5.09375 6.546875,-13.78125 0,-6.0625 -3.46875,-10.234375 -3.46875,-4.171875 -9.859375,-5.78125 z"
       id="DejaVuSans-51-2"
       inkscape:connector-curvature="0"
       style="stroke-linecap:butt;stroke-linejoin:round" />
    <path
       d="M 19.1875,8.296875 H 53.609375 V 0 H 7.328125 v 8.296875 q 5.609375,5.8125 15.296875,15.59375 9.703125,9.796875 12.1875,12.640625 4.734375,5.3125 6.609375,9 1.890625,3.6875 1.890625,7.25 0,5.8125 -4.078125,9.46875 -4.078125,3.671875 -10.625,3.671875 -4.640625,0 -9.796875,-1.609375 -5.140625,-1.609375 -11,-4.890625 v 9.96875 Q 13.765625,71.78125 18.9375,73 q 5.1875,1.21875 9.484375,1.21875 11.328125,0 18.0625,-5.671875 6.734375,-5.65625 6.734375,-15.125 0,-4.5 -1.6875,-8.53125 Q 49.859375,40.875 45.40625,35.40625 44.1875,33.984375 37.640625,27.21875 31.109375,20.453125 19.1875,8.296875 Z"
       id="DejaVuSans-50-3"
       inkscape:connector-curvature="0"
       style="stroke-linecap:butt;stroke-linejoin:round" />
    <path
       d="m 12.40625,8.296875 h 16.109375 v 55.625 L 10.984375,60.40625 v 8.984375 l 17.4375,3.515625 H 38.28125 V 8.296875 H 54.390625 V 0 H 12.40625 Z"
       id="DejaVuSans-49-55"
       inkscape:connector-curvature="0"
       style="stroke-linecap:butt;stroke-linejoin:round" />
    <path
       d="m 31.78125,66.40625 q -7.609375,0 -11.453125,-7.5 Q 16.5,51.421875 16.5,36.375 q 0,-14.984375 3.828125,-22.484375 3.84375,-7.5 11.453125,-7.5 7.671875,0 11.5,7.5 3.84375,7.5 3.84375,22.484375 0,15.046875 -3.84375,22.53125 -3.828125,7.5 -11.5,7.5 z m 0,7.8125 q 12.265625,0 18.734375,-9.703125 6.46875,-9.6875 6.46875,-28.140625 0,-18.40625 -6.46875,-28.109375 -6.46875,-9.6875 -18.734375,-9.6875 -12.25,0 -18.71875,9.6875 Q 6.59375,17.96875 6.59375,36.375 q 0,18.453125 6.46875,28.140625 6.46875,9.703125 18.71875,9.703125 z"
       id="DejaVuSans-48-0"
       inkscape:connector-curvature="0"
       style="stroke-linecap:butt;stroke-linejoin:round" />
    <path
       d="M 0,0 H -3.5"
       id="m4000feafc4"
       style="stroke:#000000;stroke-width:0.80000001;stroke-linecap:butt;stroke-linejoin:round"
       inkscape:connector-curvature="0" />
    <path
       d="M 10.6875,12.40625 H 21 V 0 H 10.6875 Z"
       id="DejaVuSans-46-6"
       inkscape:connector-curvature="0"
       style="stroke-linecap:butt;stroke-linejoin:round" />
    <path
       d="M 37.796875,64.3125 12.890625,25.390625 h 24.90625 z m -2.59375,8.59375 h 12.40625 V 25.390625 h 10.40625 V 17.1875 H 47.609375 V 0 h -9.8125 V 17.1875 H 4.890625 v 9.515625 z"
       id="DejaVuSans-52-23"
       inkscape:connector-curvature="0"
       style="stroke-linecap:butt;stroke-linejoin:round" />
    <path
       d="m 33.015625,40.375 q -6.640625,0 -10.53125,-4.546875 -3.875,-4.53125 -3.875,-12.4375 0,-7.859375 3.875,-12.4375 3.890625,-4.5625 10.53125,-4.5625 6.640625,0 10.515625,4.5625 3.875,4.578125 3.875,12.4375 0,7.90625 -3.875,12.4375 Q 39.65625,40.375 33.015625,40.375 Z M 52.59375,71.296875 V 62.3125 q -3.71875,1.75 -7.5,2.671875 -3.78125,0.9375 -7.5,0.9375 -9.765625,0 -14.921875,-6.59375 -5.140625,-6.59375 -5.875,-19.921875 2.875,4.25 7.21875,6.515625 4.359375,2.265625 9.578125,2.265625 10.984375,0 17.359375,-6.671875 6.375,-6.65625 6.375,-18.125 0,-11.234375 -6.640625,-18.03125 -6.640625,-6.78125 -17.671875,-6.78125 -12.65625,0 -19.34375,9.6875 -6.6875,9.703125 -6.6875,28.109375 0,17.28125 8.203125,27.5625 8.203125,10.28125 22.015625,10.28125 3.71875,0 7.5,-0.734375 3.78125,-0.734375 7.890625,-2.1875 z"
       id="DejaVuSans-54-1"
       inkscape:connector-curvature="0"
       style="stroke-linecap:butt;stroke-linejoin:round" />
    <path
       d="m 31.78125,34.625 q -7.03125,0 -11.0625,-3.765625 -4.015625,-3.765625 -4.015625,-10.34375 0,-6.59375 4.015625,-10.359375 4.03125,-3.765625 11.0625,-3.765625 7.03125,0 11.078125,3.78125 4.0625,3.796875 4.0625,10.34375 0,6.578125 -4.03125,10.34375 Q 38.875,34.625 31.78125,34.625 Z m -9.859375,4.1875 Q 15.578125,40.375 12.03125,44.71875 8.5,49.078125 8.5,55.328125 q 0,8.734375 6.21875,13.8125 6.234375,5.078125 17.0625,5.078125 10.890625,0 17.09375,-5.078125 6.203125,-5.078125 6.203125,-13.8125 0,-6.25 -3.546875,-10.609375 Q 48,40.375 41.703125,38.8125 q 7.125,-1.65625 11.09375,-6.5 3.984375,-4.828125 3.984375,-11.796875 0,-10.609375 -6.46875,-16.28125 -6.46875,-5.65625 -18.53125,-5.65625 -12.046875,0 -18.53125,5.65625 -6.46875,5.671875 -6.46875,16.28125 0,6.96875 4,11.796875 4.015625,4.84375 11.140625,6.5 z M 18.3125,54.390625 q 0,-5.65625 3.53125,-8.828125 3.546875,-3.171875 9.9375,-3.171875 6.359375,0 9.9375,3.171875 3.59375,3.171875 3.59375,8.828125 0,5.671875 -3.59375,8.84375 -3.578125,3.171875 -9.9375,3.171875 -6.390625,0 -9.9375,-3.171875 Q 18.3125,60.0625 18.3125,54.390625 Z"
       id="DejaVuSans-56-3"
       inkscape:connector-curvature="0"
       style="stroke-linecap:butt;stroke-linejoin:round" />
    <clipPath
       id="p574d49910b"
       style="stroke-linecap:butt;stroke-linejoin:round">
      <rect
         height="271.79999"
         width="334.79999"
         x="54"
         y="43.200001"
         id="rect22219"
         style="stroke-linecap:butt;stroke-linejoin:round" />
    </clipPath>
    <style
       id="style56888"
       type="text/css">
*{stroke-linecap:butt;stroke-linejoin:round;}
  </style>
    <path
       style="stroke:#000000;stroke-width:0.80000001;stroke-linecap:butt;stroke-linejoin:round"
       id="md27da7c2ab"
       d="M 0,0 V 3.5"
       inkscape:connector-curvature="0" />
    <path
       id="DejaVuSans-8722-0"
       d="M 10.59375,35.5 H 73.1875 V 27.203125 H 10.59375 Z"
       inkscape:connector-curvature="0"
       style="stroke-linecap:butt;stroke-linejoin:round" />
    <path
       id="DejaVuSans-52-4"
       d="M 37.796875,64.3125 12.890625,25.390625 h 24.90625 z m -2.59375,8.59375 h 12.40625 V 25.390625 h 10.40625 V 17.1875 H 47.609375 V 0 h -9.8125 V 17.1875 H 4.890625 v 9.515625 z"
       inkscape:connector-curvature="0"
       style="stroke-linecap:butt;stroke-linejoin:round" />
    <path
       id="DejaVuSans-50-4"
       d="M 19.1875,8.296875 H 53.609375 V 0 H 7.328125 v 8.296875 q 5.609375,5.8125 15.296875,15.59375 9.703125,9.796875 12.1875,12.640625 4.734375,5.3125 6.609375,9 1.890625,3.6875 1.890625,7.25 0,5.8125 -4.078125,9.46875 -4.078125,3.671875 -10.625,3.671875 -4.640625,0 -9.796875,-1.609375 -5.140625,-1.609375 -11,-4.890625 v 9.96875 Q 13.765625,71.78125 18.9375,73 q 5.1875,1.21875 9.484375,1.21875 11.328125,0 18.0625,-5.671875 6.734375,-5.65625 6.734375,-15.125 0,-4.5 -1.6875,-8.53125 Q 49.859375,40.875 45.40625,35.40625 44.1875,33.984375 37.640625,27.21875 31.109375,20.453125 19.1875,8.296875 Z"
       inkscape:connector-curvature="0"
       style="stroke-linecap:butt;stroke-linejoin:round" />
    <path
       id="DejaVuSans-48-5"
       d="m 31.78125,66.40625 q -7.609375,0 -11.453125,-7.5 Q 16.5,51.421875 16.5,36.375 q 0,-14.984375 3.828125,-22.484375 3.84375,-7.5 11.453125,-7.5 7.671875,0 11.5,7.5 3.84375,7.5 3.84375,22.484375 0,15.046875 -3.84375,22.53125 -3.828125,7.5 -11.5,7.5 z m 0,7.8125 q 12.265625,0 18.734375,-9.703125 6.46875,-9.6875 6.46875,-28.140625 0,-18.40625 -6.46875,-28.109375 -6.46875,-9.6875 -18.734375,-9.6875 -12.25,0 -18.71875,9.6875 Q 6.59375,17.96875 6.59375,36.375 q 0,18.453125 6.46875,28.140625 6.46875,9.703125 18.71875,9.703125 z"
       inkscape:connector-curvature="0"
       style="stroke-linecap:butt;stroke-linejoin:round" />
    <path
       style="stroke:#000000;stroke-width:0.80000001;stroke-linecap:butt;stroke-linejoin:round"
       id="m556faa432f"
       d="M 0,0 H -3.5"
       inkscape:connector-curvature="0" />
    <path
       id="DejaVuSans-46-0"
       d="M 10.6875,12.40625 H 21 V 0 H 10.6875 Z"
       inkscape:connector-curvature="0"
       style="stroke-linecap:butt;stroke-linejoin:round" />
    <path
       id="DejaVuSans-54-5"
       d="m 33.015625,40.375 q -6.640625,0 -10.53125,-4.546875 -3.875,-4.53125 -3.875,-12.4375 0,-7.859375 3.875,-12.4375 3.890625,-4.5625 10.53125,-4.5625 6.640625,0 10.515625,4.5625 3.875,4.578125 3.875,12.4375 0,7.90625 -3.875,12.4375 Q 39.65625,40.375 33.015625,40.375 Z M 52.59375,71.296875 V 62.3125 q -3.71875,1.75 -7.5,2.671875 -3.78125,0.9375 -7.5,0.9375 -9.765625,0 -14.921875,-6.59375 -5.140625,-6.59375 -5.875,-19.921875 2.875,4.25 7.21875,6.515625 4.359375,2.265625 9.578125,2.265625 10.984375,0 17.359375,-6.671875 6.375,-6.65625 6.375,-18.125 0,-11.234375 -6.640625,-18.03125 -6.640625,-6.78125 -17.671875,-6.78125 -12.65625,0 -19.34375,9.6875 -6.6875,9.703125 -6.6875,28.109375 0,17.28125 8.203125,27.5625 8.203125,10.28125 22.015625,10.28125 3.71875,0 7.5,-0.734375 3.78125,-0.734375 7.890625,-2.1875 z"
       inkscape:connector-curvature="0"
       style="stroke-linecap:butt;stroke-linejoin:round" />
    <path
       id="DejaVuSans-56-4"
       d="m 31.78125,34.625 q -7.03125,0 -11.0625,-3.765625 -4.015625,-3.765625 -4.015625,-10.34375 0,-6.59375 4.015625,-10.359375 4.03125,-3.765625 11.0625,-3.765625 7.03125,0 11.078125,3.78125 4.0625,3.796875 4.0625,10.34375 0,6.578125 -4.03125,10.34375 Q 38.875,34.625 31.78125,34.625 Z m -9.859375,4.1875 Q 15.578125,40.375 12.03125,44.71875 8.5,49.078125 8.5,55.328125 q 0,8.734375 6.21875,13.8125 6.234375,5.078125 17.0625,5.078125 10.890625,0 17.09375,-5.078125 6.203125,-5.078125 6.203125,-13.8125 0,-6.25 -3.546875,-10.609375 Q 48,40.375 41.703125,38.8125 q 7.125,-1.65625 11.09375,-6.5 3.984375,-4.828125 3.984375,-11.796875 0,-10.609375 -6.46875,-16.28125 -6.46875,-5.65625 -18.53125,-5.65625 -12.046875,0 -18.53125,5.65625 -6.46875,5.671875 -6.46875,16.28125 0,6.96875 4,11.796875 4.015625,4.84375 11.140625,6.5 z M 18.3125,54.390625 q 0,-5.65625 3.53125,-8.828125 3.546875,-3.171875 9.9375,-3.171875 6.359375,0 9.9375,3.171875 3.59375,3.171875 3.59375,8.828125 0,5.671875 -3.59375,8.84375 -3.578125,3.171875 -9.9375,3.171875 -6.390625,0 -9.9375,-3.171875 Q 18.3125,60.0625 18.3125,54.390625 Z"
       inkscape:connector-curvature="0"
       style="stroke-linecap:butt;stroke-linejoin:round" />
    <path
       id="DejaVuSans-49-50"
       d="m 12.40625,8.296875 h 16.109375 v 55.625 L 10.984375,60.40625 v 8.984375 l 17.4375,3.515625 H 38.28125 V 8.296875 H 54.390625 V 0 H 12.40625 Z"
       inkscape:connector-curvature="0"
       style="stroke-linecap:butt;stroke-linejoin:round" />
    <clipPath
       id="p05a45c92a5"
       style="stroke-linecap:butt;stroke-linejoin:round">
      <rect
         id="rect57094"
         y="43.200001"
         x="54"
         width="334.79999"
         height="271.79999"
         style="stroke-linecap:butt;stroke-linejoin:round" />
    </clipPath>
    <linearGradient
       inkscape:collect="always"
       xlink:href="#linearGradient1846"
       id="linearGradient1850"
       gradientUnits="userSpaceOnUse"
       x1="149.13387"
       y1="133.07568"
       x2="221.98047"
       y2="133.07568" />
    <linearGradient
       inkscape:collect="always"
       xlink:href="#linearGradient1846"
       id="linearGradient1852"
       gradientUnits="userSpaceOnUse"
       x1="149.13387"
       y1="133.07568"
       x2="221.98047"
       y2="133.07568" />
    <linearGradient
       inkscape:collect="always"
       xlink:href="#linearGradient1846"
       id="linearGradient1854"
       gradientUnits="userSpaceOnUse"
       x1="149.13387"
       y1="133.07568"
       x2="221.98047"
       y2="133.07568" />
    <linearGradient
       inkscape:collect="always"
       xlink:href="#linearGradient1846"
       id="linearGradient1856"
       gradientUnits="userSpaceOnUse"
       x1="149.13387"
       y1="133.07568"
       x2="221.98047"
       y2="133.07568" />
    <linearGradient
       inkscape:collect="always"
       xlink:href="#linearGradient1846"
       id="linearGradient1858"
       gradientUnits="userSpaceOnUse"
       x1="149.13387"
       y1="133.07568"
       x2="221.98047"
       y2="133.07568" />
    <linearGradient
       inkscape:collect="always"
       xlink:href="#linearGradient1846"
       id="linearGradient1860"
       gradientUnits="userSpaceOnUse"
       x1="149.13387"
       y1="133.07568"
       x2="221.98047"
       y2="133.07568" />
    <linearGradient
       inkscape:collect="always"
       xlink:href="#linearGradient1846"
       id="linearGradient1862"
       gradientUnits="userSpaceOnUse"
       x1="149.13387"
       y1="133.07568"
       x2="221.98047"
       y2="133.07568" />
    <linearGradient
       inkscape:collect="always"
       xlink:href="#linearGradient1846"
       id="linearGradient1864"
       gradientUnits="userSpaceOnUse"
       x1="149.13387"
       y1="133.07568"
       x2="221.98047"
       y2="133.07568" />
    <linearGradient
       inkscape:collect="always"
       xlink:href="#linearGradient1846"
       id="linearGradient1866"
       gradientUnits="userSpaceOnUse"
       x1="149.13387"
       y1="133.07568"
       x2="221.98047"
       y2="133.07568" />
    <linearGradient
       inkscape:collect="always"
       xlink:href="#linearGradient1846"
       id="linearGradient1868"
       gradientUnits="userSpaceOnUse"
       x1="149.13387"
       y1="133.07568"
       x2="221.98047"
       y2="133.07568" />
    <linearGradient
       inkscape:collect="always"
       xlink:href="#linearGradient1846"
       id="linearGradient1870"
       gradientUnits="userSpaceOnUse"
       x1="149.13387"
       y1="133.07568"
       x2="221.98047"
       y2="133.07568" />
    <linearGradient
       inkscape:collect="always"
       xlink:href="#linearGradient1846"
       id="linearGradient1872"
       gradientUnits="userSpaceOnUse"
       x1="149.13387"
       y1="133.07568"
       x2="221.98047"
       y2="133.07568" />
    <linearGradient
       inkscape:collect="always"
       xlink:href="#linearGradient1846"
       id="linearGradient1874"
       gradientUnits="userSpaceOnUse"
       x1="149.13387"
       y1="133.07568"
       x2="221.98047"
       y2="133.07568" />
    <linearGradient
       inkscape:collect="always"
       xlink:href="#linearGradient1846"
       id="linearGradient1876"
       gradientUnits="userSpaceOnUse"
       x1="149.13387"
       y1="133.07568"
       x2="221.98047"
       y2="133.07568" />
    <linearGradient
       inkscape:collect="always"
       xlink:href="#linearGradient1846"
       id="linearGradient1878"
       gradientUnits="userSpaceOnUse"
       x1="149.13387"
       y1="133.07568"
       x2="221.98047"
       y2="133.07568" />
    <linearGradient
       inkscape:collect="always"
       xlink:href="#linearGradient1846"
       id="linearGradient1880"
       gradientUnits="userSpaceOnUse"
       x1="149.13387"
       y1="133.07568"
       x2="221.98047"
       y2="133.07568" />
    <linearGradient
       inkscape:collect="always"
       xlink:href="#linearGradient1846"
       id="linearGradient1882"
       gradientUnits="userSpaceOnUse"
       x1="149.13387"
       y1="133.07568"
       x2="221.98047"
       y2="133.07568" />
    <linearGradient
       inkscape:collect="always"
       xlink:href="#linearGradient1846"
       id="linearGradient1884"
       gradientUnits="userSpaceOnUse"
       x1="149.13387"
       y1="133.07568"
       x2="221.98047"
       y2="133.07568" />
    <linearGradient
       inkscape:collect="always"
       xlink:href="#linearGradient1846"
       id="linearGradient1886"
       gradientUnits="userSpaceOnUse"
       x1="149.13387"
       y1="133.07568"
       x2="221.98047"
       y2="133.07568" />
    <linearGradient
       inkscape:collect="always"
       xlink:href="#linearGradient1846"
       id="linearGradient1888"
       gradientUnits="userSpaceOnUse"
       x1="149.13387"
       y1="133.07568"
       x2="221.98047"
       y2="133.07568" />
    <linearGradient
       inkscape:collect="always"
       xlink:href="#linearGradient1846"
       id="linearGradient1890"
       gradientUnits="userSpaceOnUse"
       x1="149.13387"
       y1="133.07568"
       x2="221.98047"
       y2="133.07568" />
    <linearGradient
       inkscape:collect="always"
       xlink:href="#linearGradient1846"
       id="linearGradient1892"
       gradientUnits="userSpaceOnUse"
       x1="149.13387"
       y1="133.07568"
       x2="221.98047"
       y2="133.07568" />
    <linearGradient
       inkscape:collect="always"
       xlink:href="#linearGradient1846"
       id="linearGradient1894"
       gradientUnits="userSpaceOnUse"
       x1="149.13387"
       y1="133.07568"
       x2="221.98047"
       y2="133.07568" />
    <linearGradient
       inkscape:collect="always"
       xlink:href="#linearGradient1846"
       id="linearGradient1896"
       gradientUnits="userSpaceOnUse"
       x1="149.13387"
       y1="133.07568"
       x2="221.98047"
       y2="133.07568" />
    <linearGradient
       inkscape:collect="always"
       xlink:href="#linearGradient1846"
       id="linearGradient1898"
       gradientUnits="userSpaceOnUse"
       x1="149.13387"
       y1="133.07568"
       x2="221.98047"
       y2="133.07568" />
    <linearGradient
       inkscape:collect="always"
       xlink:href="#linearGradient1846"
       id="linearGradient1900"
       gradientUnits="userSpaceOnUse"
       x1="149.13387"
       y1="133.07568"
       x2="221.98047"
       y2="133.07568" />
    <linearGradient
       inkscape:collect="always"
       xlink:href="#linearGradient1846"
       id="linearGradient1902"
       gradientUnits="userSpaceOnUse"
       x1="149.13387"
       y1="133.07568"
       x2="221.98047"
       y2="133.07568" />
    <linearGradient
       inkscape:collect="always"
       xlink:href="#linearGradient1846"
       id="linearGradient1904"
       gradientUnits="userSpaceOnUse"
       x1="149.13387"
       y1="133.07568"
       x2="221.98047"
       y2="133.07568" />
    <linearGradient
       inkscape:collect="always"
       xlink:href="#linearGradient1846"
       id="linearGradient1906"
       gradientUnits="userSpaceOnUse"
       x1="149.13387"
       y1="133.07568"
       x2="221.98047"
       y2="133.07568" />
    <linearGradient
       inkscape:collect="always"
       xlink:href="#linearGradient1846"
       id="linearGradient112981"
       gradientUnits="userSpaceOnUse"
       x1="149.13387"
       y1="133.07568"
       x2="221.98047"
       y2="133.07568" />
    <linearGradient
       inkscape:collect="always"
       xlink:href="#linearGradient1846"
       id="linearGradient112983"
       gradientUnits="userSpaceOnUse"
       x1="149.13387"
       y1="133.07568"
       x2="221.98047"
       y2="133.07568" />
    <linearGradient
       inkscape:collect="always"
       xlink:href="#linearGradient1846"
       id="linearGradient112985"
       gradientUnits="userSpaceOnUse"
       x1="149.13387"
       y1="133.07568"
       x2="221.98047"
       y2="133.07568" />
    <linearGradient
       inkscape:collect="always"
       xlink:href="#linearGradient1846"
       id="linearGradient112987"
       gradientUnits="userSpaceOnUse"
       x1="149.13387"
       y1="133.07568"
       x2="221.98047"
       y2="133.07568" />
    <linearGradient
       inkscape:collect="always"
       xlink:href="#linearGradient1846"
       id="linearGradient112989"
       gradientUnits="userSpaceOnUse"
       x1="149.13387"
       y1="133.07568"
       x2="221.98047"
       y2="133.07568" />
    <linearGradient
       inkscape:collect="always"
       xlink:href="#linearGradient1846"
       id="linearGradient112991"
       gradientUnits="userSpaceOnUse"
       x1="149.13387"
       y1="133.07568"
       x2="221.98047"
       y2="133.07568" />
    <linearGradient
       inkscape:collect="always"
       xlink:href="#linearGradient1846"
       id="linearGradient112993"
       gradientUnits="userSpaceOnUse"
       x1="149.13387"
       y1="133.07568"
       x2="221.98047"
       y2="133.07568" />
    <linearGradient
       inkscape:collect="always"
       xlink:href="#linearGradient1846"
       id="linearGradient112995"
       gradientUnits="userSpaceOnUse"
       x1="149.13387"
       y1="133.07568"
       x2="221.98047"
       y2="133.07568" />
    <linearGradient
       inkscape:collect="always"
       xlink:href="#linearGradient1846"
       id="linearGradient112997"
       gradientUnits="userSpaceOnUse"
       x1="149.13387"
       y1="133.07568"
       x2="221.98047"
       y2="133.07568" />
    <linearGradient
       inkscape:collect="always"
       xlink:href="#linearGradient1846"
       id="linearGradient112999"
       gradientUnits="userSpaceOnUse"
       x1="149.13387"
       y1="133.07568"
       x2="221.98047"
       y2="133.07568" />
    <linearGradient
       inkscape:collect="always"
       xlink:href="#linearGradient1846"
       id="linearGradient113001"
       gradientUnits="userSpaceOnUse"
       x1="149.13387"
       y1="133.07568"
       x2="221.98047"
       y2="133.07568" />
    <linearGradient
       inkscape:collect="always"
       xlink:href="#linearGradient1846"
       id="linearGradient113003"
       gradientUnits="userSpaceOnUse"
       x1="149.13387"
       y1="133.07568"
       x2="221.98047"
       y2="133.07568" />
    <linearGradient
       inkscape:collect="always"
       xlink:href="#linearGradient1846"
       id="linearGradient113005"
       gradientUnits="userSpaceOnUse"
       x1="149.13387"
       y1="133.07568"
       x2="221.98047"
       y2="133.07568" />
    <linearGradient
       inkscape:collect="always"
       xlink:href="#linearGradient1846"
       id="linearGradient113007"
       gradientUnits="userSpaceOnUse"
       x1="149.13387"
       y1="133.07568"
       x2="221.98047"
       y2="133.07568" />
    <linearGradient
       inkscape:collect="always"
       xlink:href="#linearGradient1846"
       id="linearGradient113009"
       gradientUnits="userSpaceOnUse"
       x1="149.13387"
       y1="133.07568"
       x2="221.98047"
       y2="133.07568" />
    <linearGradient
       inkscape:collect="always"
       xlink:href="#linearGradient1846"
       id="linearGradient113011"
       gradientUnits="userSpaceOnUse"
       x1="149.13387"
       y1="133.07568"
       x2="221.98047"
       y2="133.07568" />
    <linearGradient
       inkscape:collect="always"
       xlink:href="#linearGradient1846"
       id="linearGradient113013"
       gradientUnits="userSpaceOnUse"
       x1="149.13387"
       y1="133.07568"
       x2="221.98047"
       y2="133.07568" />
    <linearGradient
       inkscape:collect="always"
       xlink:href="#linearGradient1846"
       id="linearGradient113015"
       gradientUnits="userSpaceOnUse"
       x1="149.13387"
       y1="133.07568"
       x2="221.98047"
       y2="133.07568" />
    <linearGradient
       inkscape:collect="always"
       xlink:href="#linearGradient1846"
       id="linearGradient113017"
       gradientUnits="userSpaceOnUse"
       x1="149.13387"
       y1="133.07568"
       x2="221.98047"
       y2="133.07568" />
    <linearGradient
       inkscape:collect="always"
       xlink:href="#linearGradient1846"
       id="linearGradient113019"
       gradientUnits="userSpaceOnUse"
       x1="149.13387"
       y1="133.07568"
       x2="221.98047"
       y2="133.07568" />
    <linearGradient
       inkscape:collect="always"
       xlink:href="#linearGradient1846"
       id="linearGradient113021"
       gradientUnits="userSpaceOnUse"
       x1="149.13387"
       y1="133.07568"
       x2="221.98047"
       y2="133.07568" />
    <linearGradient
       inkscape:collect="always"
       xlink:href="#linearGradient1846"
       id="linearGradient113023"
       gradientUnits="userSpaceOnUse"
       x1="149.13387"
       y1="133.07568"
       x2="221.98047"
       y2="133.07568" />
    <linearGradient
       inkscape:collect="always"
       xlink:href="#linearGradient1846"
       id="linearGradient113025"
       gradientUnits="userSpaceOnUse"
       x1="149.13387"
       y1="133.07568"
       x2="221.98047"
       y2="133.07568" />
    <linearGradient
       inkscape:collect="always"
       xlink:href="#linearGradient1846"
       id="linearGradient113027"
       gradientUnits="userSpaceOnUse"
       x1="149.13387"
       y1="133.07568"
       x2="221.98047"
       y2="133.07568" />
    <linearGradient
       inkscape:collect="always"
       xlink:href="#linearGradient1846"
       id="linearGradient113029"
       gradientUnits="userSpaceOnUse"
       x1="149.13387"
       y1="133.07568"
       x2="221.98047"
       y2="133.07568" />
    <linearGradient
       inkscape:collect="always"
       xlink:href="#linearGradient1846"
       id="linearGradient113031"
       gradientUnits="userSpaceOnUse"
       x1="149.13387"
       y1="133.07568"
       x2="221.98047"
       y2="133.07568" />
    <linearGradient
       inkscape:collect="always"
       xlink:href="#linearGradient1846"
       id="linearGradient113033"
       gradientUnits="userSpaceOnUse"
       x1="149.13387"
       y1="133.07568"
       x2="221.98047"
       y2="133.07568" />
    <linearGradient
       inkscape:collect="always"
       xlink:href="#linearGradient1846"
       id="linearGradient113035"
       gradientUnits="userSpaceOnUse"
       x1="149.13387"
       y1="133.07568"
       x2="221.98047"
       y2="133.07568" />
    <linearGradient
       inkscape:collect="always"
       xlink:href="#linearGradient1846"
       id="linearGradient113037"
       gradientUnits="userSpaceOnUse"
       x1="149.13387"
       y1="133.07568"
       x2="221.98047"
       y2="133.07568" />
  </defs>
  <metadata
     id="metadata318591">
    <rdf:RDF>
      <cc:Work
         rdf:about="">
        <dc:format>image/svg+xml</dc:format>
        <dc:type
           rdf:resource="http://purl.org/dc/dcmitype/StillImage" />
        <dc:title />
      </cc:Work>
    </rdf:RDF>
  </metadata>
  <g
     id="layer1"
     inkscape:groupmode="layer"
     inkscape:label="Layer 1"
     transform="translate(-30.314745,-133.52665)"
     style="stroke-linecap:butt;stroke-linejoin:round">
    <flowRoot
       style="font-style:normal;font-weight:normal;font-size:6.37462139px;line-height:1.25;font-family:sans-serif;letter-spacing:0px;word-spacing:0px;fill:#000000;fill-opacity:1;stroke:none;stroke-linecap:butt;stroke-linejoin:round"
       id="flowRoot320141"
       xml:space="preserve"><flowRegion
         id="flowRegion320143"
         style="stroke-linecap:butt;stroke-linejoin:round"><rect
           y="645.13086"
           x="117.74162"
           height="21.050776"
           width="261.88593"
           id="rect320145"
           style="stroke-linecap:butt;stroke-linejoin:round" /></flowRegion><flowPara
         id="flowPara320147"
         style="stroke-linecap:butt;stroke-linejoin:round" /></flowRoot>    <flowRoot
       style="font-style:normal;font-weight:normal;font-size:6.37462139px;line-height:1.25;font-family:sans-serif;letter-spacing:0px;word-spacing:0px;fill:#000000;fill-opacity:1;stroke:none;stroke-linecap:butt;stroke-linejoin:round"
       id="flowRoot320149"
       xml:space="preserve"><flowRegion
         id="flowRegion320151"
         style="stroke-linecap:butt;stroke-linejoin:round"><rect
           y="414.64273"
           x="105.61067"
           height="237.62401"
           width="31.75456"
           id="rect320153"
           style="stroke-linecap:butt;stroke-linejoin:round" /></flowRegion><flowPara
         id="flowPara320155"
         style="stroke-linecap:butt;stroke-linejoin:round" /></flowRoot>    <flowRoot
       xml:space="preserve"
       id="flowRoot394578"
       style="font-style:normal;font-weight:normal;font-size:6.37462139px;line-height:1.25;font-family:sans-serif;letter-spacing:0px;word-spacing:0px;fill:#000000;fill-opacity:1;stroke:none;stroke-linecap:butt;stroke-linejoin:round"
       transform="matrix(0.26458333,0,0,0.26458333,29.822112,113.17108)"><flowRegion
         id="flowRegion394580"
         style="stroke-linecap:butt;stroke-linejoin:round"><rect
           id="rect394582"
           width="41.400272"
           height="14.551641"
           x="242.67896"
           y="219.40765"
           style="stroke-linecap:butt;stroke-linejoin:round" /></flowRegion><flowPara
         id="flowPara394584"
         style="stroke-linecap:butt;stroke-linejoin:round" /></flowRoot>    <flowRoot
       xml:space="preserve"
       id="flowRoot394586"
       style="font-style:normal;font-weight:normal;font-size:6.37462139px;line-height:1.25;font-family:sans-serif;letter-spacing:0px;word-spacing:0px;fill:#000000;fill-opacity:1;stroke:none;stroke-linecap:butt;stroke-linejoin:round"
       transform="matrix(0.26458333,0,0,0.26458333,29.822112,113.17108)"><flowRegion
         id="flowRegion394588"
         style="stroke-linecap:butt;stroke-linejoin:round"><rect
           id="rect394590"
           width="316.37244"
           height="32.797779"
           x="-3.0274873"
           y="211.25314"
           style="stroke-linecap:butt;stroke-linejoin:round" /></flowRegion><flowPara
         id="flowPara394592"
         style="stroke-linecap:butt;stroke-linejoin:round" /></flowRoot>    <path
       style="fill:none;stroke:#c6cdcf;stroke-width:0.265;stroke-linecap:butt;stroke-linejoin:miter;stroke-miterlimit:4;stroke-dasharray:0.265,0.265;stroke-dashoffset:0;stroke-opacity:1"
       d="M 64.470711,170.59709 V 152.49094"
       id="path273163"
       inkscape:connector-curvature="0"
       sodipodi:nodetypes="cc" />
    <path
       sodipodi:nodetypes="cc"
       inkscape:connector-curvature="0"
       id="path58594"
       d="M 41.895062,152.59467 H 64.540344"
       style="fill:none;stroke:#c6cdcf;stroke-width:0.265;stroke-linecap:butt;stroke-linejoin:miter;stroke-miterlimit:4;stroke-dasharray:0.265,0.265;stroke-dashoffset:0;stroke-opacity:1" />
    <path
       sodipodi:nodetypes="cc"
       inkscape:connector-curvature="0"
       id="path319890"
       d="m 41.8527,170.59709 v 0.89261"
       style="fill:none;stroke:#808080;stroke-width:0.3;stroke-linecap:butt;stroke-linejoin:miter;stroke-miterlimit:4;stroke-dasharray:none;stroke-opacity:1" />
    <path
       style="fill:none;stroke:#808080;stroke-width:0.3;stroke-linecap:butt;stroke-linejoin:miter;stroke-miterlimit:4;stroke-dasharray:none;stroke-opacity:1"
       d="m 64.458412,170.59709 v 0.89261"
       id="path319892"
       inkscape:connector-curvature="0"
       sodipodi:nodetypes="cc" />
    <path
       sodipodi:nodetypes="cc"
       inkscape:connector-curvature="0"
       id="path319894"
       d="m 87.064126,170.59709 v 0.89261"
       style="fill:none;stroke:#808080;stroke-width:0.30000001;stroke-linecap:butt;stroke-linejoin:miter;stroke-miterlimit:4;stroke-dasharray:none;stroke-opacity:1"
       transform="translate(0.06047727)" />
    <path
       style="fill:none;stroke:#808080;stroke-width:0.3;stroke-linecap:butt;stroke-linejoin:miter;stroke-miterlimit:4;stroke-dasharray:none;stroke-opacity:1"
       d="m 49.387938,171.20601 v -0.60892"
       id="path326281"
       inkscape:connector-curvature="0"
       sodipodi:nodetypes="cc" />
    <path
       sodipodi:nodetypes="cc"
       inkscape:connector-curvature="0"
       id="path326287"
       d="m 56.923176,171.20601 v -0.60892"
       style="fill:none;stroke:#808080;stroke-width:0.3;stroke-linecap:butt;stroke-linejoin:miter;stroke-miterlimit:4;stroke-dasharray:none;stroke-opacity:1" />
    <path
       style="fill:none;stroke:#808080;stroke-width:0.3;stroke-linecap:butt;stroke-linejoin:miter;stroke-miterlimit:4;stroke-dasharray:none;stroke-opacity:1"
       d="m 79.52889,171.20601 v -0.60892"
       id="path326289"
       inkscape:connector-curvature="0"
       sodipodi:nodetypes="cc" />
    <path
       sodipodi:nodetypes="cc"
       inkscape:connector-curvature="0"
       id="path326295"
       d="m 71.993651,171.20601 v -0.60892"
       style="fill:none;stroke:#808080;stroke-width:0.3;stroke-linecap:butt;stroke-linejoin:miter;stroke-miterlimit:4;stroke-dasharray:none;stroke-opacity:1" />
    <path
       style="fill:none;stroke:#808080;stroke-width:0.3;stroke-linecap:butt;stroke-linejoin:miter;stroke-miterlimit:4;stroke-dasharray:none;stroke-opacity:1"
       d="M 41.895062,134.70279 H 41.002445"
       id="path319901"
       inkscape:connector-curvature="0"
       sodipodi:nodetypes="cc" />
    <path
       style="fill:none;stroke:#808080;stroke-width:0.3;stroke-linecap:butt;stroke-linejoin:miter;stroke-miterlimit:4;stroke-dasharray:none;stroke-opacity:1"
       d="M 41.853342,170.59707 H 40.960725"
       id="path319905"
       inkscape:connector-curvature="0"
       sodipodi:nodetypes="cc" />
    <path
       style="fill:none;stroke:#808080;stroke-width:0.3;stroke-linecap:butt;stroke-linejoin:miter;stroke-miterlimit:4;stroke-dasharray:none;stroke-opacity:1"
       d="M 41.895062,149.0605 H 41.286141"
       id="path326223"
       inkscape:connector-curvature="0"
       sodipodi:nodetypes="cc" />
    <path
       sodipodi:nodetypes="cc"
       inkscape:connector-curvature="0"
       id="path326225"
       d="M 41.895062,145.47107 H 41.286141"
       style="fill:none;stroke:#808080;stroke-width:0.3;stroke-linecap:butt;stroke-linejoin:miter;stroke-miterlimit:4;stroke-dasharray:none;stroke-opacity:1" />
    <path
       style="fill:none;stroke:#808080;stroke-width:0.3;stroke-linecap:butt;stroke-linejoin:miter;stroke-miterlimit:4;stroke-dasharray:none;stroke-opacity:1"
       d="M 41.895062,156.23936 H 41.286141"
       id="path326227"
       inkscape:connector-curvature="0"
       sodipodi:nodetypes="cc" />
    <path
       sodipodi:nodetypes="cc"
       inkscape:connector-curvature="0"
       id="path326229"
       d="M 41.895062,163.41821 H 41.286141"
       style="fill:none;stroke:#808080;stroke-width:0.3;stroke-linecap:butt;stroke-linejoin:miter;stroke-miterlimit:4;stroke-dasharray:none;stroke-opacity:1" />
    <g
       transform="matrix(0.397281,0,0,0.397281,4.3815372,122.83643)"
       ns1:version="0.11.0"
       ns1:texconverter="pdflatex"
       ns1:pdfconverter="pdf2svg"
       ns1:text="$z$"
       ns1:preamble="C:\\Users\\drsjd\\AppData\\Roaming\\inkscape\\extensions\\textext\\default_packages_simon.tex"
       ns1:scale="1.12614776569"
       ns1:alignment="middle center"
       inkscapeversion="0.92.3"
       ns1:jacobian_sqrt="0.397281"
       style="fill:#000000;fill-opacity:1;stroke-linecap:butt;stroke-linejoin:round"
       id="g2843">
      <g
         id="g2841"
         style="fill:#000000;fill-opacity:1;stroke-linecap:butt;stroke-linejoin:round">
        <g
           style="fill:#000000;fill-opacity:1;stroke-linecap:butt;stroke-linejoin:round"
           id="g2839">
          <path
             style="fill:#000000;fill-opacity:1;stroke:none;stroke-width:0;stroke-linecap:butt;stroke-linejoin:round"
             d="m 1.328125,-0.828125 c 0.53125,-0.578125 0.828125,-0.828125 1.1875,-1.140625 0,0 0.609375,-0.53125 0.96875,-0.890625 C 4.4375,-3.78125 4.65625,-4.265625 4.65625,-4.3125 c 0,-0.09375 -0.09375,-0.09375 -0.109375,-0.09375 -0.078125,0 -0.09375,0.015625 -0.15625,0.109375 -0.296875,0.484375 -0.5,0.640625 -0.734375,0.640625 -0.25,0 -0.359375,-0.15625 -0.515625,-0.328125 -0.1875,-0.21875 -0.359375,-0.421875 -0.6875,-0.421875 -0.75,0 -1.203125,0.921875 -1.203125,1.140625 0,0.046875 0.03125,0.109375 0.109375,0.109375 0.09375,0 0.109375,-0.046875 0.140625,-0.109375 0.1875,-0.46875 0.765625,-0.46875 0.84375,-0.46875 0.203125,0 0.390625,0.0625 0.625,0.140625 0.40625,0.15625 0.515625,0.15625 0.765625,0.15625 -0.359375,0.421875 -1.1875,1.140625 -1.375,1.296875 l -0.90625,0.84375 C 0.78125,-0.625 0.421875,-0.0625 0.421875,0.015625 c 0,0.09375 0.109375,0.09375 0.125,0.09375 0.078125,0 0.09375,-0.015625 0.15625,-0.125 0.234375,-0.359375 0.53125,-0.625 0.859375,-0.625 0.21875,0 0.328125,0.09375 0.578125,0.375 0.15625,0.21875 0.34375,0.375 0.625,0.375 1,0 1.578125,-1.265625 1.578125,-1.53125 0,-0.046875 -0.046875,-0.109375 -0.125,-0.109375 -0.09375,0 -0.109375,0.0625 -0.140625,0.140625 C 3.84375,-0.75 3.203125,-0.5625 2.875,-0.5625 c -0.1875,0 -0.375,-0.0625 -0.578125,-0.125 -0.34375,-0.125 -0.5,-0.171875 -0.703125,-0.171875 -0.015625,0 -0.171875,0 -0.265625,0.03125 z m 0,0"
             transform="translate(148.712,134.765)"
             id="path2837"
             inkscape:connector-curvature="0" />
        </g>
      </g>
    </g>
    <g
       id="line2d_12-6"
       style="stroke:#d18362;stroke-width:5.22562551;stroke-linecap:butt;stroke-linejoin:round;stroke-miterlimit:4;stroke-dasharray:none;stroke-opacity:1"
       transform="matrix(0.13575605,0,0,0.13217835,34.495325,129.00317)">
      <path
         id="path57077"
         style="fill:none;stroke:#d18362;stroke-width:5.22562551;stroke-linecap:square;stroke-linejoin:round;stroke-miterlimit:4;stroke-dasharray:none;stroke-opacity:1"
         d="m 54,313.18088 11.0484,-0.70461 9.7092,-0.83855 8.37,-0.93986 7.7004,-1.09045 6.696,-1.16513 6.3612,-1.33237 5.6916,-1.41204 5.3568,-1.54958 5.022,-1.67523 4.6872,-1.78336 4.6872,-2.02125 4.3524,-2.11342 4.3524,-2.36463 4.0176,-2.42635 4.0176,-2.68003 4.0176,-2.95326 4.0176,-3.24583 4.0176,-3.55718 3.6828,-3.54934 3.6828,-3.8381 3.6828,-4.13747 4.0176,-4.86487 4.0176,-5.23838 4.0176,-5.61455 4.0176,-5.98798 4.3524,-6.89796 4.3524,-7.30566 4.6872,-8.28926 5.3568,-9.94542 6.0264,-11.67578 8.0352,-16.09364 16.0704,-32.30405 6.3612,-12.20112 5.3568,-9.79624 4.6872,-8.13781 4.6872,-7.685 4.3524,-6.70245 4.0176,-5.80197 4.0176,-5.426454 4.0176,-5.050989 4.0176,-4.680573 4.0176,-4.319428 4.0176,-3.970966 4.0176,-3.63783 4.0176,-3.321944 4.0176,-3.024595 4.0176,-2.746509 4.0176,-2.487942 4.3524,-2.425966 4.3524,-2.169322 4.6872,-2.075673 4.6872,-1.832157 5.022,-1.721743 5.3568,-1.593171 5.6916,-1.452238 6.0264,-1.304564 6.696,-1.210506 7.0308,-1.044432 8.0352,-0.960858 9.0396,-0.843852 10.044,-0.709688 3.6828,-0.212024 v 0"
         clip-path="url(#p05a45c92a5)"
         inkscape:connector-curvature="0" />
    </g>
    <g
       transform="matrix(0,-0.397281,0.397281,0,-15.850652,215.90878)"
       ns1:version="0.11.0"
       ns1:texconverter="pdflatex"
       ns1:pdfconverter="pdf2svg"
       ns1:text="$\\mbox{sig}[z]$"
       ns1:preamble="C:\\Users\\drsjd\\AppData\\Roaming\\inkscape\\extensions\\textext\\default_packages_simon.tex"
       ns1:scale="1.12614776569"
       ns1:alignment="middle center"
       inkscapeversion="0.92.3"
       ns1:jacobian_sqrt="0.397281"
       style="fill:#000000;fill-opacity:1;stroke-linecap:butt;stroke-linejoin:round"
       id="g58052">
      <g
         id="g58050"
         style="fill:#000000;fill-opacity:1;stroke-linecap:butt;stroke-linejoin:round">
        <g
           style="fill:#000000;fill-opacity:1;stroke-linecap:butt;stroke-linejoin:round"
           id="g58036">
          <path
             inkscape:connector-curvature="0"
             style="fill:#000000;fill-opacity:1;stroke:none;stroke-width:0;stroke-linecap:butt;stroke-linejoin:round"
             d="M 3.984375,-1.25 C 3.984375,-2.140625 3.375,-2.421875 2.5625,-2.578125 L 2.25,-2.640625 c -0.4375,-0.09375 -1.078125,-0.1875 -1.078125,-0.671875 0.03125,-0.5625 0.6875,-0.671875 1.1875,-0.671875 0.796875,0.03125 0.734375,0.078125 1.40625,0.359375 v -0.734375 c -0.421875,-0.171875 -0.953125,-0.25 -1.5,-0.25 C 1.375,-4.609375 0.5,-4.28125 0.5,-3.28125 c 0.015625,0.8125 0.5625,1.125 1.3125,1.265625 l 0.28125,0.0625 c 0.546875,0.125 1.171875,0.1875 1.171875,0.765625 C 3.234375,-0.625 2.59375,-0.515625 2.09375,-0.515625 1.265625,-0.53125 1.140625,-0.625 0.421875,-0.96875 v 0.8125 c 0.421875,0.109375 1.15625,0.28125 1.65625,0.28125 0.875,0 1.90625,-0.328125 1.90625,-1.375 z m 0,0"
             transform="translate(148.712,134.765)"
             id="path58030" />
          <path
             inkscape:connector-curvature="0"
             style="fill:#000000;fill-opacity:1;stroke:none;stroke-width:0;stroke-linecap:butt;stroke-linejoin:round"
             d="m 1.4375,0 v -4.5 h -0.75 V 0 Z m -0.375,-6.890625 c -0.234375,0 -0.4375,0.21875 -0.4375,0.453125 0,0.25 0.203125,0.46875 0.4375,0.46875 0.25,0 0.4375,-0.21875 0.4375,-0.46875 0,-0.234375 -0.1875,-0.453125 -0.4375,-0.453125 z m 0,0"
             transform="translate(153.10551,134.765)"
             id="path58032" />
          <path
             inkscape:connector-curvature="0"
             style="fill:#000000;fill-opacity:1;stroke:none;stroke-width:0;stroke-linecap:butt;stroke-linejoin:round"
             d="m 2.046875,-0.109375 c 0.84375,0 1.421875,0.40625 1.421875,0.953125 0,0.546875 -0.578125,0.9375 -1.421875,0.9375 -0.84375,0 -1.3125,-0.390625 -1.3125,-0.9375 0,-0.546875 0.46875,-0.953125 1.3125,-0.953125 z m 0,-0.640625 c -0.078125,0 -0.15625,0 -0.25,0.015625 -0.46875,0 -0.875,-0.28125 -0.875,-0.46875 0,-0.21875 0.25,-0.296875 0.4375,-0.296875 h 0.0625 c 0.15625,0.140625 0.625,0.1875 0.765625,0.1875 0.859375,0 1.546875,-0.734375 1.546875,-1.640625 0,-0.359375 -0.125,-0.703125 -0.328125,-0.96875 h 0.734375 v -0.5625 H 2.875 c -0.203125,-0.0625 -0.484375,-0.09375 -0.640625,-0.09375 -0.859375,0 -1.578125,0.734375 -1.609375,1.625 0,0.4375 0.15625,0.828125 0.4375,1.109375 -0.328125,0.0625 -0.6875,0.28125 -0.6875,0.703125 0,0.265625 0.171875,0.515625 0.53125,0.671875 -0.578125,0.296875 -0.921875,0.78125 -0.921875,1.296875 0,0.8125 0.828125,1.5625 2.0625,1.5625 1.25,0 2.265625,-0.75 2.265625,-1.546875 C 4.3125,-0.203125 3.09375,-0.75 2.046875,-0.75 Z M 2.1875,-3.953125 c 0.53125,0 0.96875,0.4375 0.96875,0.984375 C 3.15625,-2.4375 2.71875,-2 2.1875,-2 1.640625,-2 1.21875,-2.4375 1.21875,-2.96875 c 0,-0.546875 0.421875,-0.984375 0.96875,-0.984375 z m 0,0"
             transform="translate(155.22754,134.765)"
             id="path58034" />
        </g>
        <g
           style="fill:#000000;fill-opacity:1;stroke-linecap:butt;stroke-linejoin:round"
           id="g58040">
          <path
             inkscape:connector-curvature="0"
             style="fill:#000000;fill-opacity:1;stroke:none;stroke-width:0;stroke-linecap:butt;stroke-linejoin:round"
             d="M 2.546875,2.5 V 2.09375 h -0.96875 v -9.171875 h 0.96875 v -0.40625 h -1.375 V 2.5 Z m 0,0"
             transform="translate(159.85,134.765)"
             id="path58038" />
        </g>
        <g
           style="fill:#000000;fill-opacity:1;stroke-linecap:butt;stroke-linejoin:round"
           id="g58044">
          <path
             inkscape:connector-curvature="0"
             style="fill:#000000;fill-opacity:1;stroke:none;stroke-width:0;stroke-linecap:butt;stroke-linejoin:round"
             d="m 1.328125,-0.828125 c 0.53125,-0.578125 0.828125,-0.828125 1.1875,-1.140625 0,0 0.609375,-0.53125 0.96875,-0.890625 C 4.4375,-3.78125 4.65625,-4.265625 4.65625,-4.3125 c 0,-0.09375 -0.09375,-0.09375 -0.109375,-0.09375 -0.078125,0 -0.09375,0.015625 -0.15625,0.109375 -0.296875,0.484375 -0.5,0.640625 -0.734375,0.640625 -0.25,0 -0.359375,-0.15625 -0.515625,-0.328125 -0.1875,-0.21875 -0.359375,-0.421875 -0.6875,-0.421875 -0.75,0 -1.203125,0.921875 -1.203125,1.140625 0,0.046875 0.03125,0.109375 0.109375,0.109375 0.09375,0 0.109375,-0.046875 0.140625,-0.109375 0.1875,-0.46875 0.765625,-0.46875 0.84375,-0.46875 0.203125,0 0.390625,0.0625 0.625,0.140625 0.40625,0.15625 0.515625,0.15625 0.765625,0.15625 -0.359375,0.421875 -1.1875,1.140625 -1.375,1.296875 l -0.90625,0.84375 C 0.78125,-0.625 0.421875,-0.0625 0.421875,0.015625 c 0,0.09375 0.109375,0.09375 0.125,0.09375 0.078125,0 0.09375,-0.015625 0.15625,-0.125 0.234375,-0.359375 0.53125,-0.625 0.859375,-0.625 0.21875,0 0.328125,0.09375 0.578125,0.375 0.15625,0.21875 0.34375,0.375 0.625,0.375 1,0 1.578125,-1.265625 1.578125,-1.53125 0,-0.046875 -0.046875,-0.109375 -0.125,-0.109375 -0.09375,0 -0.109375,0.0625 -0.140625,0.140625 C 3.84375,-0.75 3.203125,-0.5625 2.875,-0.5625 c -0.1875,0 -0.375,-0.0625 -0.578125,-0.125 -0.34375,-0.125 -0.5,-0.171875 -0.703125,-0.171875 -0.015625,0 -0.171875,0 -0.265625,0.03125 z m 0,0"
             transform="translate(162.618,134.765)"
             id="path58042" />
        </g>
        <g
           style="fill:#000000;fill-opacity:1;stroke-linecap:butt;stroke-linejoin:round"
           id="g58048">
          <path
             inkscape:connector-curvature="0"
             style="fill:#000000;fill-opacity:1;stroke:none;stroke-width:0;stroke-linecap:butt;stroke-linejoin:round"
             d="M 1.578125,-7.484375 H 0.21875 v 0.40625 H 1.1875 V 2.09375 H 0.21875 V 2.5 h 1.359375 z m 0,0"
             transform="translate(167.689,134.765)"
             id="path58046" />
        </g>
      </g>
    </g>
    <path
       sodipodi:nodetypes="cc"
       inkscape:connector-curvature="0"
       id="path58584"
       d="M 41.895062,141.88164 H 41.286141"
       style="fill:none;stroke:#808080;stroke-width:0.3;stroke-linecap:butt;stroke-linejoin:miter;stroke-miterlimit:4;stroke-dasharray:none;stroke-opacity:1" />
    <path
       style="fill:none;stroke:#808080;stroke-width:0.3;stroke-linecap:butt;stroke-linejoin:miter;stroke-miterlimit:4;stroke-dasharray:none;stroke-opacity:1"
       d="M 41.895062,138.29221 H 41.286141"
       id="path58586"
       inkscape:connector-curvature="0"
       sodipodi:nodetypes="cc" />
    <path
       sodipodi:nodetypes="cc"
       inkscape:connector-curvature="0"
       id="path58588"
       d="M 41.895062,159.82879 H 41.286141"
       style="fill:none;stroke:#808080;stroke-width:0.3;stroke-linecap:butt;stroke-linejoin:miter;stroke-miterlimit:4;stroke-dasharray:none;stroke-opacity:1" />
    <path
       style="fill:none;stroke:#808080;stroke-width:0.3;stroke-linecap:butt;stroke-linejoin:miter;stroke-miterlimit:4;stroke-dasharray:none;stroke-opacity:1"
       d="M 41.895062,167.00764 H 41.286141"
       id="path58590"
       inkscape:connector-curvature="0"
       sodipodi:nodetypes="cc" />
    <path
       sodipodi:nodetypes="cc"
       inkscape:connector-curvature="0"
       id="path58592"
       d="M 41.895062,152.64993 H 41.002445"
       style="fill:none;stroke:#808080;stroke-width:0.3;stroke-linecap:butt;stroke-linejoin:miter;stroke-miterlimit:4;stroke-dasharray:none;stroke-opacity:1" />
    <rect
       y="134.70279"
       x="41.82473"
       height="35.917328"
       width="45.299873"
       id="rect319742"
       style="fill:none;fill-opacity:1;stroke:#030000;stroke-width:0.3;stroke-linecap:butt;stroke-linejoin:round;stroke-miterlimit:4;stroke-dasharray:none;stroke-dashoffset:0;stroke-opacity:1" />
    <g
       id="g15947"
       transform="translate(0,8.0769786)"
       style="stroke-linecap:butt;stroke-linejoin:round;fill:#000000;fill-opacity:1;stroke:#000000;stroke-opacity:1">
      <g
         transform="matrix(0.5015468,0,0,0.5015468,-30.325464,65.096607)"
         id="g113599"
         style="fill:#000000;fill-opacity:1;stroke:#000000;stroke-linecap:butt;stroke-linejoin:round;stroke-opacity:1">
        <path
           inkscape:connector-curvature="0"
           id="path113597"
           transform="translate(176.961,130.842)"
           d="m 2.328125,-4.4375 c 0,-0.1875 0,-0.1875 -0.203125,-0.1875 -0.453125,0.4375 -1.078125,0.4375 -1.359375,0.4375 v 0.25 c 0.15625,0 0.625,0 1,-0.1875 v 3.546875 c 0,0.234375 0,0.328125 -0.6875,0.328125 H 0.8125 V 0 c 0.125,0 0.984375,-0.03125 1.234375,-0.03125 0.21875,0 1.09375,0.03125 1.25,0.03125 V -0.25 H 3.03125 c -0.703125,0 -0.703125,-0.09375 -0.703125,-0.328125 z m 0,0"
           style="fill:#000000;fill-opacity:1;stroke:#000000;stroke-width:0;stroke-linecap:butt;stroke-linejoin:round;stroke-opacity:1" />
      </g>
      <path
         inkscape:connector-curvature="0"
         id="path113601"
         d="M 50.135574,131.43793 H 68.714356"
         style="fill:#000000;fill-opacity:1;stroke:#000000;stroke-width:0.19961563;stroke-linecap:butt;stroke-linejoin:miter;stroke-miterlimit:10;stroke-opacity:1" />
      <g
         transform="matrix(0.5015468,0,0,0.5015468,-30.325464,65.096607)"
         id="g113615"
         style="fill:#000000;fill-opacity:1;stroke:#000000;stroke-linecap:butt;stroke-linejoin:round;stroke-opacity:1">
        <path
           inkscape:connector-curvature="0"
           id="path113603"
           transform="translate(160.424,138.2)"
           d="m 2.328125,-4.4375 c 0,-0.1875 0,-0.1875 -0.203125,-0.1875 -0.453125,0.4375 -1.078125,0.4375 -1.359375,0.4375 v 0.25 c 0.15625,0 0.625,0 1,-0.1875 v 3.546875 c 0,0.234375 0,0.328125 -0.6875,0.328125 H 0.8125 V 0 c 0.125,0 0.984375,-0.03125 1.234375,-0.03125 0.21875,0 1.09375,0.03125 1.25,0.03125 V -0.25 H 3.03125 c -0.703125,0 -0.703125,-0.09375 -0.703125,-0.328125 z m 0,0"
           style="fill:#000000;fill-opacity:1;stroke:#000000;stroke-width:0;stroke-linecap:butt;stroke-linejoin:round;stroke-opacity:1" />
        <path
           inkscape:connector-curvature="0"
           id="path113605"
           transform="translate(164.39558,138.2)"
           d="m 3.21875,-1.578125 h 2.140625 c 0.09375,0 0.25,0 0.25,-0.15625 0,-0.1875 -0.15625,-0.1875 -0.25,-0.1875 H 3.21875 V -4.0625 c 0,-0.078125 0,-0.25 -0.15625,-0.25 -0.171875,0 -0.171875,0.15625 -0.171875,0.25 v 2.140625 H 0.75 c -0.09375,0 -0.265625,0 -0.265625,0.171875 0,0.171875 0.15625,0.171875 0.265625,0.171875 H 2.890625 V 0.5625 c 0,0.09375 0,0.265625 0.15625,0.265625 0.171875,0 0.171875,-0.171875 0.171875,-0.265625 z m 0,0"
           style="fill:#000000;fill-opacity:1;stroke:#000000;stroke-width:0;stroke-linecap:butt;stroke-linejoin:round;stroke-opacity:1" />
        <path
           inkscape:connector-curvature="0"
           id="path113607"
           transform="translate(170.5116,138.2)"
           d="m 3.0625,-1.59375 c 0.15625,0 0.203125,0 0.203125,-0.140625 0,-0.625 -0.34375,-1.375 -1.390625,-1.375 -0.90625,0 -1.609375,0.71875 -1.609375,1.578125 0,0.890625 0.78125,1.59375 1.703125,1.59375 0.9375,0 1.296875,-0.75 1.296875,-0.90625 0,-0.015625 -0.015625,-0.09375 -0.125,-0.09375 -0.09375,0 -0.109375,0.046875 -0.125,0.109375 -0.21875,0.5625 -0.75,0.671875 -1,0.671875 C 1.6875,-0.15625 1.375,-0.296875 1.171875,-0.5625 0.90625,-0.890625 0.90625,-1.3125 0.90625,-1.59375 Z M 0.90625,-1.765625 C 0.984375,-2.75 1.609375,-2.90625 1.875,-2.90625 c 0.859375,0 0.890625,0.96875 0.90625,1.140625 z m 0,0"
           style="fill:#000000;fill-opacity:1;stroke:#000000;stroke-width:0;stroke-linecap:butt;stroke-linejoin:round;stroke-opacity:1" />
        <path
           inkscape:connector-curvature="0"
           id="path113609"
           transform="translate(174.05359,138.2)"
           d="m 2.359375,-1.5625 c 0,0 -0.046875,-0.0625 -0.046875,-0.0625 0,-0.03125 0.453125,-0.515625 0.515625,-0.578125 C 3.078125,-2.484375 3.3125,-2.75 3.875,-2.75 V -3 C 3.671875,-2.984375 3.46875,-2.96875 3.28125,-2.96875 3.078125,-2.96875 2.796875,-2.984375 2.59375,-3 v 0.25 c 0.109375,0.015625 0.140625,0.09375 0.140625,0.15625 0,0.015625 0,0.125 -0.109375,0.234375 L 2.140625,-1.8125 1.5625,-2.46875 C 1.484375,-2.546875 1.484375,-2.578125 1.484375,-2.609375 c 0,-0.09375 0.09375,-0.140625 0.1875,-0.140625 V -3 c -0.25,0.015625 -0.515625,0.03125 -0.78125,0.03125 C 0.6875,-2.96875 0.421875,-2.984375 0.21875,-3 v 0.25 c 0.3125,0 0.5,0 0.6875,0.203125 l 0.859375,1 c 0.015625,0.015625 0.0625,0.0625 0.0625,0.078125 0,0.015625 -0.53125,0.59375 -0.59375,0.671875 -0.265625,0.28125 -0.5,0.53125 -1.046875,0.546875 V 0 C 0.390625,-0.015625 0.546875,-0.03125 0.765625,-0.03125 0.96875,-0.03125 1.25,-0.015625 1.453125,0 V -0.25 C 1.375,-0.265625 1.3125,-0.3125 1.3125,-0.40625 1.3125,-0.546875 1.390625,-0.640625 1.5,-0.75 L 2,-1.296875 2.59375,-0.59375 c 0.140625,0.140625 0.140625,0.15625 0.140625,0.203125 0,0.125 -0.15625,0.140625 -0.1875,0.140625 V 0 c 0.0625,0 0.5625,-0.03125 0.78125,-0.03125 C 3.546875,-0.03125 3.78125,-0.015625 4,0 v -0.25 c -0.46875,0 -0.515625,-0.046875 -0.6875,-0.21875 z m 0,0"
           style="fill:#000000;fill-opacity:1;stroke:#000000;stroke-width:0;stroke-linecap:butt;stroke-linejoin:round;stroke-opacity:1" />
        <path
           inkscape:connector-curvature="0"
           id="path113611"
           transform="translate(178.23927,138.2)"
           d="m 1.9375,1.09375 c -0.453125,0 -0.515625,0 -0.515625,-0.296875 v -1.125 C 1.453125,-0.296875 1.78125,0.0625 2.359375,0.0625 3.28125,0.0625 4.0625,-0.625 4.0625,-1.5 c 0,-0.859375 -0.703125,-1.578125 -1.59375,-1.578125 -0.390625,0 -0.796875,0.15625 -1.078125,0.4375 v -0.4375 L 0.34375,-3 v 0.25 c 0.484375,0 0.515625,0.046875 0.515625,0.328125 v 3.21875 c 0,0.296875 -0.0625,0.296875 -0.515625,0.296875 v 0.265625 c 0.015625,0 0.5,-0.03125 0.796875,-0.03125 0.25,0 0.734375,0.015625 0.796875,0.03125 z M 1.421875,-2.328125 C 1.625,-2.671875 2.03125,-2.84375 2.390625,-2.84375 c 0.59375,0 1.046875,0.609375 1.046875,1.34375 0,0.796875 -0.53125,1.375 -1.109375,1.375 -0.625,0 -0.890625,-0.53125 -0.90625,-0.578125 z m 0,0"
           style="fill:#000000;fill-opacity:1;stroke:#000000;stroke-width:0;stroke-linecap:butt;stroke-linejoin:round;stroke-opacity:1" />
        <path
           inkscape:connector-curvature="0"
           id="path113613"
           transform="translate(182.63974,138.2)"
           d="M 2.015625,1.734375 V 1.40625 h -0.71875 v -6.296875 h 0.71875 V -5.21875 h -1.0625 v 6.953125 z m 0,0"
           style="fill:#000000;fill-opacity:1;stroke:#000000;stroke-width:0;stroke-linecap:butt;stroke-linejoin:round;stroke-opacity:1" />
      </g>
      <g
         transform="matrix(0.5015468,0,0,0.5015468,-30.325464,65.096607)"
         id="g113619"
         style="fill:#000000;fill-opacity:1;stroke:#000000;stroke-linecap:butt;stroke-linejoin:round;stroke-opacity:1">
        <path
           inkscape:connector-curvature="0"
           id="path113617"
           transform="translate(184.895,138.2)"
           d="m 5.1875,-1.578125 c 0.109375,0 0.28125,0 0.28125,-0.15625 0,-0.1875 -0.171875,-0.1875 -0.28125,-0.1875 H 1.03125 c -0.109375,0 -0.28125,0 -0.28125,0.171875 0,0.171875 0.15625,0.171875 0.28125,0.171875 z m 0,0"
           style="fill:#000000;fill-opacity:1;stroke:#000000;stroke-width:0;stroke-linecap:butt;stroke-linejoin:round;stroke-opacity:1" />
      </g>
      <g
         transform="matrix(0.5015468,0,0,0.5015468,-30.325464,65.096607)"
         id="g113623"
         style="fill:#000000;fill-opacity:1;stroke:#000000;stroke-linecap:butt;stroke-linejoin:round;stroke-opacity:1">
        <path
           inkscape:connector-curvature="0"
           id="path113621"
           transform="translate(191.121,138.2)"
           d="m 1.171875,-0.609375 c 0.1875,-0.1875 0.3125,-0.3125 0.890625,-0.796875 0.15625,-0.109375 0.671875,-0.53125 0.875,-0.71875 0.421875,-0.421875 0.6875,-0.78125 0.6875,-0.859375 0,-0.09375 -0.078125,-0.09375 -0.109375,-0.09375 -0.0625,0 -0.09375,0.015625 -0.125,0.078125 -0.21875,0.3125 -0.359375,0.421875 -0.53125,0.421875 -0.078125,0 -0.1875,0 -0.390625,-0.203125 -0.234375,-0.25 -0.390625,-0.296875 -0.546875,-0.296875 -0.5625,0 -0.9375,0.609375 -0.9375,0.8125 0,0.078125 0.0625,0.09375 0.109375,0.09375 0.09375,0 0.109375,-0.015625 0.125,-0.09375 0.109375,-0.25 0.5,-0.265625 0.609375,-0.265625 0.171875,0 0.34375,0.046875 0.4375,0.0625 0.390625,0.078125 0.4375,0.078125 0.609375,0.078125 -0.171875,0.203125 -0.296875,0.328125 -0.96875,0.84375 -0.546875,0.4375 -0.734375,0.609375 -0.859375,0.75 -0.421875,0.40625 -0.625,0.71875 -0.625,0.78125 0,0.078125 0.09375,0.078125 0.125,0.078125 0.0625,0 0.078125,0 0.109375,-0.0625 0.1875,-0.265625 0.40625,-0.421875 0.640625,-0.421875 0.09375,0 0.1875,0 0.375,0.171875 0.21875,0.21875 0.359375,0.3125 0.59375,0.3125 C 3,0.0625 3.46875,-0.78125 3.46875,-1.015625 3.46875,-1.09375 3.390625,-1.09375 3.359375,-1.09375 3.265625,-1.09375 3.25,-1.0625 3.21875,-0.984375 3.09375,-0.640625 2.6875,-0.46875 2.34375,-0.46875 2.1875,-0.46875 2,-0.515625 1.828125,-0.546875 1.515625,-0.625 1.453125,-0.625 1.328125,-0.625 c -0.015625,0 -0.109375,0 -0.15625,0.015625 z m 0,0"
           style="fill:#000000;fill-opacity:1;stroke:#000000;stroke-width:0;stroke-linecap:butt;stroke-linejoin:round;stroke-opacity:1" />
      </g>
      <g
         transform="matrix(0.5015468,0,0,0.5015468,-30.325464,65.096607)"
         id="g113627"
         style="fill:#000000;fill-opacity:1;stroke:#000000;stroke-linecap:butt;stroke-linejoin:round;stroke-opacity:1">
        <path
           inkscape:connector-curvature="0"
           id="path113625"
           transform="translate(195.214,138.2)"
           d="M 1.296875,-5.21875 H 0.21875 v 0.328125 H 0.953125 V 1.40625 H 0.21875 v 0.328125 h 1.078125 z m 0,0"
           style="fill:#000000;fill-opacity:1;stroke:#000000;stroke-width:0;stroke-linecap:butt;stroke-linejoin:round;stroke-opacity:1" />
      </g>
    </g>
    <g
       transform="matrix(0.279653,0,0,0.279653,-3.9279508,97.976666)"
       ns1:version="0.11.0"
       ns1:texconverter="pdflatex"
       ns1:pdfconverter="pdf2svg"
       ns1:text="1.0"
       ns1:preamble="C:\\Users\\drsjd\\AppData\\Roaming\\inkscape\\extensions\\textext\\default_packages_simon.tex"
       ns1:scale="0.792715254012"
       ns1:alignment="middle center"
       inkscapeversion="0.92.3"
       ns1:jacobian_sqrt="0.279653"
       style="fill:#808080;fill-opacity:1;stroke-linecap:butt;stroke-linejoin:round"
       id="g436386">
      <g
         id="surface1"
         style="fill:#808080;fill-opacity:1;stroke-linecap:butt;stroke-linejoin:round">
        <g
           style="fill:#808080;fill-opacity:1;stroke-linecap:butt;stroke-linejoin:round"
           id="g436383">
          <path
             inkscape:connector-curvature="0"
             style="fill:#808080;fill-opacity:1;stroke:none;stroke-width:0;stroke-linecap:butt;stroke-linejoin:round"
             d="M 2.109375,0 V -6.890625 H 1.28125 L 0.296875,-6.09375 v 0.78125 l 1.03125,-0.84375 V 0 Z m 0,0"
             transform="translate(148.712,134.765)"
             id="path436377" />
          <path
             inkscape:connector-curvature="0"
             style="fill:#808080;fill-opacity:1;stroke:none;stroke-width:0;stroke-linecap:butt;stroke-linejoin:round"
             d="M 1.640625,0 V -1.015625 H 0.6875 V 0 Z m 0,0"
             transform="translate(151.63104,134.765)"
             id="path436379" />
          <path
             inkscape:connector-curvature="0"
             style="fill:#808080;fill-opacity:1;stroke:none;stroke-width:0;stroke-linecap:butt;stroke-linejoin:round"
             d="m 4.96875,-3.421875 c -0.015625,-1.46875 -0.34375,-3.59375 -2.203125,-3.59375 -1.859375,0 -2.171875,2.15625 -2.171875,3.59375 0,1.453125 0.328125,3.5625 2.171875,3.5625 1.84375,0 2.203125,-2.109375 2.203125,-3.5625 z m -0.71875,0 c 0,0.953125 -0.078125,2.90625 -1.484375,2.90625 -1.40625,0 -1.453125,-1.984375 -1.453125,-2.90625 0,-0.9375 0.03125,-2.953125 1.453125,-2.953125 1.40625,0 1.484375,2.03125 1.484375,2.953125 z m 0,0"
             transform="translate(153.95233,134.765)"
             id="path436381" />
        </g>
      </g>
    </g>
    <g
       id="g436866"
       style="fill:#808080;fill-opacity:1;stroke-linecap:butt;stroke-linejoin:round"
       ns1:jacobian_sqrt="0.279653"
       inkscapeversion="0.92.3"
       ns1:alignment="middle center"
       ns1:scale="0.792715254012"
       ns1:preamble="C:\\Users\\drsjd\\AppData\\Roaming\\inkscape\\extensions\\textext\\default_packages_simon.tex"
       ns1:text="0.0"
       ns1:pdfconverter="pdf2svg"
       ns1:texconverter="pdflatex"
       ns1:version="0.11.0"
       transform="matrix(0.279653,0,0,0.279653,-4.5367552,133.79317)">
      <g
         style="fill:#808080;fill-opacity:1;stroke-linecap:butt;stroke-linejoin:round"
         id="g436864">
        <g
           id="g436862"
           style="fill:#808080;fill-opacity:1;stroke-linecap:butt;stroke-linejoin:round">
          <path
             id="path436856"
             transform="translate(148.712,134.765)"
             d="m 4.96875,-3.421875 c -0.015625,-1.46875 -0.34375,-3.59375 -2.203125,-3.59375 -1.859375,0 -2.171875,2.15625 -2.171875,3.59375 0,1.453125 0.328125,3.5625 2.171875,3.5625 1.84375,0 2.203125,-2.109375 2.203125,-3.5625 z m -0.71875,0 c 0,0.953125 -0.078125,2.90625 -1.484375,2.90625 -1.40625,0 -1.453125,-1.984375 -1.453125,-2.90625 0,-0.9375 0.03125,-2.953125 1.453125,-2.953125 1.40625,0 1.484375,2.03125 1.484375,2.953125 z m 0,0"
             style="fill:#808080;fill-opacity:1;stroke:none;stroke-width:0;stroke-linecap:butt;stroke-linejoin:round"
             inkscape:connector-curvature="0" />
          <path
             id="path436858"
             transform="translate(154.27113,134.765)"
             d="M 1.640625,0 V -1.015625 H 0.6875 V 0 Z m 0,0"
             style="fill:#808080;fill-opacity:1;stroke:none;stroke-width:0;stroke-linecap:butt;stroke-linejoin:round"
             inkscape:connector-curvature="0" />
          <path
             id="path436860"
             transform="translate(156.59242,134.765)"
             d="m 4.96875,-3.421875 c -0.015625,-1.46875 -0.34375,-3.59375 -2.203125,-3.59375 -1.859375,0 -2.171875,2.15625 -2.171875,3.59375 0,1.453125 0.328125,3.5625 2.171875,3.5625 1.84375,0 2.203125,-2.109375 2.203125,-3.5625 z m -0.71875,0 c 0,0.953125 -0.078125,2.90625 -1.484375,2.90625 -1.40625,0 -1.453125,-1.984375 -1.453125,-2.90625 0,-0.9375 0.03125,-2.953125 1.453125,-2.953125 1.40625,0 1.484375,2.03125 1.484375,2.953125 z m 0,0"
             style="fill:#808080;fill-opacity:1;stroke:none;stroke-width:0;stroke-linecap:butt;stroke-linejoin:round"
             inkscape:connector-curvature="0" />
        </g>
      </g>
    </g>
    <g
       transform="matrix(0.279653,0,0,0.279653,-2.5719976,135.96099)"
       ns1:version="0.11.0"
       ns1:texconverter="pdflatex"
       ns1:pdfconverter="pdf2svg"
       ns1:text="-5.0"
       ns1:preamble="C:\\Users\\drsjd\\AppData\\Roaming\\inkscape\\extensions\\textext\\default_packages_simon.tex"
       ns1:scale="0.792715254012"
       ns1:alignment="middle center"
       inkscapeversion="0.92.3"
       ns1:jacobian_sqrt="0.279653"
       style="fill:#808080;fill-opacity:1;stroke-linecap:butt;stroke-linejoin:round"
       id="g437360">
      <g
         id="g437358"
         style="fill:#808080;fill-opacity:1;stroke-linecap:butt;stroke-linejoin:round">
        <g
           style="fill:#808080;fill-opacity:1;stroke-linecap:butt;stroke-linejoin:round"
           id="g437356">
          <path
             style="fill:#808080;fill-opacity:1;stroke:none;stroke-width:0;stroke-linecap:butt;stroke-linejoin:round"
             d="m 2.953125,-1.921875 v -0.65625 H 0.6875 v 0.65625 z m 0,0"
             transform="translate(148.712,134.765)"
             id="path437348"
             inkscape:connector-curvature="0" />
          <path
             style="fill:#808080;fill-opacity:1;stroke:none;stroke-width:0;stroke-linecap:butt;stroke-linejoin:round"
             d="M 4.46875,-2.1875 C 4.453125,-3.59375 3.578125,-4.515625 2.171875,-4.515625 1.984375,-4.5 1.5625,-4.453125 1.3125,-4.359375 l 0.25,-1.8125 H 4 v -0.71875 H 1.0625 l -0.421875,3.40625 C 1.1875,-3.75 1.3125,-3.8125 2.015625,-3.8125 3.03125,-3.8125 3.75,-3.25 3.75,-2.1875 c 0,1.09375 -0.703125,1.625 -1.734375,1.625 -0.6875,0 -1.140625,-0.140625 -1.640625,-0.453125 v 0.859375 c 0.453125,0.171875 1.125,0.296875 1.65625,0.296875 1.484375,0 2.4375,-0.8125 2.4375,-2.328125 z m 0,0"
             transform="translate(152.35831,134.765)"
             id="path437350"
             inkscape:connector-curvature="0" />
          <path
             style="fill:#808080;fill-opacity:1;stroke:none;stroke-width:0;stroke-linecap:butt;stroke-linejoin:round"
             d="M 1.640625,0 V -1.015625 H 0.6875 V 0 Z m 0,0"
             transform="translate(157.26987,134.765)"
             id="path437352"
             inkscape:connector-curvature="0" />
          <path
             style="fill:#808080;fill-opacity:1;stroke:none;stroke-width:0;stroke-linecap:butt;stroke-linejoin:round"
             d="m 4.96875,-3.421875 c -0.015625,-1.46875 -0.34375,-3.59375 -2.203125,-3.59375 -1.859375,0 -2.171875,2.15625 -2.171875,3.59375 0,1.453125 0.328125,3.5625 2.171875,3.5625 1.84375,0 2.203125,-2.109375 2.203125,-3.5625 z m -0.71875,0 c 0,0.953125 -0.078125,2.90625 -1.484375,2.90625 -1.40625,0 -1.453125,-1.984375 -1.453125,-2.90625 0,-0.9375 0.03125,-2.953125 1.453125,-2.953125 1.40625,0 1.484375,2.03125 1.484375,2.953125 z m 0,0"
             transform="translate(159.59116,134.765)"
             id="path437354"
             inkscape:connector-curvature="0" />
        </g>
      </g>
    </g>
    <g
       id="g437868"
       style="fill:#808080;fill-opacity:1"
       ns1:jacobian_sqrt="0.279653"
       inkscapeversion="0.92.3"
       ns1:alignment="middle center"
       ns1:scale="0.792715254012"
       ns1:preamble="C:\\Users\\drsjd\\AppData\\Roaming\\inkscape\\extensions\\textext\\default_packages_simon.tex"
       ns1:text="5.0"
       ns1:pdfconverter="pdf2svg"
       ns1:texconverter="pdflatex"
       ns1:version="0.11.0"
       transform="matrix(0.279653,0.000000,0.000000,0.279653,43.717833,135.960990)">
      <g
         style="fill:#808080;fill-opacity:1"
         id="g437866">
        <g
           id="g437864"
           style="fill-opacity:1;fill:#808080">
          <path
             id="path437858"
             transform="translate(148.712,134.765)"
             d="M 4.46875 -2.1875 C 4.453125 -3.59375 3.578125 -4.515625 2.171875 -4.515625 C 1.984375 -4.5 1.5625 -4.453125 1.3125 -4.359375 L 1.5625 -6.171875 L 4 -6.171875 L 4 -6.890625 L 1.0625 -6.890625 L 0.640625 -3.484375 C 1.1875 -3.75 1.3125 -3.8125 2.015625 -3.8125 C 3.03125 -3.8125 3.75 -3.25 3.75 -2.1875 C 3.75 -1.09375 3.046875 -0.5625 2.015625 -0.5625 C 1.328125 -0.5625 0.875 -0.703125 0.375 -1.015625 L 0.375 -0.15625 C 0.828125 0.015625 1.5 0.140625 2.03125 0.140625 C 3.515625 0.140625 4.46875 -0.671875 4.46875 -2.1875 Z M 4.46875 -2.1875 "
             style="fill-opacity:1;stroke:none;stroke-width:0;fill:#808080" />
          <path
             id="path437860"
             transform="translate(153.623562,134.765)"
             d="M 1.640625 0 L 1.640625 -1.015625 L 0.6875 -1.015625 L 0.6875 0 Z M 1.640625 0 "
             style="fill-opacity:1;stroke:none;stroke-width:0;fill:#808080" />
          <path
             id="path437862"
             transform="translate(155.944848,134.765)"
             d="M 4.96875 -3.421875 C 4.953125 -4.890625 4.625 -7.015625 2.765625 -7.015625 C 0.90625 -7.015625 0.59375 -4.859375 0.59375 -3.421875 C 0.59375 -1.96875 0.921875 0.140625 2.765625 0.140625 C 4.609375 0.140625 4.96875 -1.96875 4.96875 -3.421875 Z M 4.25 -3.421875 C 4.25 -2.46875 4.171875 -0.515625 2.765625 -0.515625 C 1.359375 -0.515625 1.3125 -2.5 1.3125 -3.421875 C 1.3125 -4.359375 1.34375 -6.375 2.765625 -6.375 C 4.171875 -6.375 4.25 -4.34375 4.25 -3.421875 Z M 4.25 -3.421875 "
             style="fill-opacity:1;stroke:none;stroke-width:0;fill:#808080" />
        </g>
      </g>
    </g>
    <g
       transform="matrix(0.279653,0,0,0.279653,21.003275,135.94858)"
       ns1:version="0.11.0"
       ns1:texconverter="pdflatex"
       ns1:pdfconverter="pdf2svg"
       ns1:text="0.0"
       ns1:preamble="C:\\Users\\drsjd\\AppData\\Roaming\\inkscape\\extensions\\textext\\default_packages_simon.tex"
       ns1:scale="0.792715254012"
       ns1:alignment="middle center"
       inkscapeversion="0.92.3"
       ns1:jacobian_sqrt="0.279653"
       style="fill:#808080;fill-opacity:1;stroke-linecap:butt;stroke-linejoin:round"
       id="g438128">
      <g
         id="g438126"
         style="fill:#808080;fill-opacity:1;stroke-linecap:butt;stroke-linejoin:round">
        <g
           style="fill:#808080;fill-opacity:1;stroke-linecap:butt;stroke-linejoin:round"
           id="g438124">
          <path
             style="fill:#808080;fill-opacity:1;stroke:none;stroke-width:0;stroke-linecap:butt;stroke-linejoin:round"
             d="m 4.96875,-3.421875 c -0.015625,-1.46875 -0.34375,-3.59375 -2.203125,-3.59375 -1.859375,0 -2.171875,2.15625 -2.171875,3.59375 0,1.453125 0.328125,3.5625 2.171875,3.5625 1.84375,0 2.203125,-2.109375 2.203125,-3.5625 z m -0.71875,0 c 0,0.953125 -0.078125,2.90625 -1.484375,2.90625 -1.40625,0 -1.453125,-1.984375 -1.453125,-2.90625 0,-0.9375 0.03125,-2.953125 1.453125,-2.953125 1.40625,0 1.484375,2.03125 1.484375,2.953125 z m 0,0"
             transform="translate(148.712,134.765)"
             id="path438118"
             inkscape:connector-curvature="0" />
          <path
             style="fill:#808080;fill-opacity:1;stroke:none;stroke-width:0;stroke-linecap:butt;stroke-linejoin:round"
             d="M 1.640625,0 V -1.015625 H 0.6875 V 0 Z m 0,0"
             transform="translate(154.27113,134.765)"
             id="path438120"
             inkscape:connector-curvature="0" />
          <path
             style="fill:#808080;fill-opacity:1;stroke:none;stroke-width:0;stroke-linecap:butt;stroke-linejoin:round"
             d="m 4.96875,-3.421875 c -0.015625,-1.46875 -0.34375,-3.59375 -2.203125,-3.59375 -1.859375,0 -2.171875,2.15625 -2.171875,3.59375 0,1.453125 0.328125,3.5625 2.171875,3.5625 1.84375,0 2.203125,-2.109375 2.203125,-3.5625 z m -0.71875,0 c 0,0.953125 -0.078125,2.90625 -1.484375,2.90625 -1.40625,0 -1.453125,-1.984375 -1.453125,-2.90625 0,-0.9375 0.03125,-2.953125 1.453125,-2.953125 1.40625,0 1.484375,2.03125 1.484375,2.953125 z m 0,0"
             transform="translate(156.59242,134.765)"
             id="path438122"
             inkscape:connector-curvature="0" />
        </g>
      </g>
    </g>
  </g>
</svg>
