<?xml version="1.0" encoding="UTF-8" standalone="no"?>
<!-- Created with Inkscape (http://www.inkscape.org/) -->

<svg
   sodipodi:docname="LossCategorical.svg"
   inkscape:version="1.1.2 (b8e25be8, 2022-02-05)"
   id="svg318594"
   version="1.1"
   viewBox="0 0 73.967955 52.026306"
   height="52.026306mm"
   width="73.967957mm"
   xmlns:inkscape="http://www.inkscape.org/namespaces/inkscape"
   xmlns:sodipodi="http://sodipodi.sourceforge.net/DTD/sodipodi-0.dtd"
   xmlns="http://www.w3.org/2000/svg"
   xmlns:svg="http://www.w3.org/2000/svg"
   xmlns:rdf="http://www.w3.org/1999/02/22-rdf-syntax-ns#"
   xmlns:cc="http://creativecommons.org/ns#"
   xmlns:dc="http://purl.org/dc/elements/1.1/"
   xmlns:ns1="http://www.iki.fi/pav/software/textext/">
  <sodipodi:namedview
     showguides="false"
     inkscape:window-maximized="1"
     inkscape:window-y="38"
     inkscape:window-x="0"
     inkscape:window-height="1004"
     inkscape:window-width="1728"
     showgrid="false"
     inkscape:current-layer="layer1"
     inkscape:document-units="mm"
     inkscape:cy="123.37703"
     inkscape:cx="117.12665"
     inkscape:zoom="1.8398887"
     inkscape:pageshadow="2"
     inkscape:pageopacity="0.0"
     borderopacity="1.0"
     bordercolor="#666666"
     pagecolor="#ffffff"
     id="base"
     fit-margin-top="0"
     fit-margin-left="0"
     fit-margin-right="0"
     fit-margin-bottom="0"
     inkscape:pagecheckerboard="0"
     width="64.96796mm" />
  <defs
     style="stroke-linecap:butt;stroke-linejoin:round"
     id="defs318588">
    <marker
       inkscape:stockid="Arrow1Sstart"
       orient="auto"
       refY="0"
       refX="0"
       id="Arrow1Sstart"
       style="overflow:visible"
       inkscape:isstock="true">
      <path
         id="path22753"
         d="M 0,0 5,-5 -12.5,0 5,5 Z"
         style="fill:#c6cdcf;fill-opacity:1;fill-rule:evenodd;stroke:#c6cdcf;stroke-width:1pt;stroke-opacity:1"
         transform="matrix(0.2,0,0,0.2,1.2,0)" />
    </marker>
    <marker
       inkscape:stockid="Arrow1Send"
       orient="auto"
       refY="0"
       refX="0"
       id="Arrow1Send"
       style="overflow:visible"
       inkscape:isstock="true">
      <path
         id="path22756"
         d="M 0,0 5,-5 -12.5,0 5,5 Z"
         style="fill:#c6cdcf;fill-opacity:1;fill-rule:evenodd;stroke:#c6cdcf;stroke-width:1pt;stroke-opacity:1"
         transform="matrix(-0.2,0,0,-0.2,-1.2,0)" />
    </marker>
    <marker
       inkscape:stockid="Arrow1Mend"
       orient="auto"
       refY="0"
       refX="0"
       id="Arrow1Mend"
       style="overflow:visible"
       inkscape:isstock="true">
      <path
         id="path22750"
         d="M 0,0 5,-5 -12.5,0 5,5 Z"
         style="fill:#c6cdcf;fill-opacity:1;fill-rule:evenodd;stroke:#c6cdcf;stroke-width:1pt;stroke-opacity:1"
         transform="matrix(-0.4,0,0,-0.4,-4,0)" />
    </marker>
    <style
       type="text/css"
       id="style1863">
*{stroke-linecap:butt;stroke-linejoin:round;}
  </style>
    <path
       inkscape:connector-curvature="0"
       d="M 0,0 V 3.5"
       id="mb095f91df8"
       style="stroke:#000000;stroke-width:0.8;stroke-linecap:butt;stroke-linejoin:round" />
    <path
       style="stroke-linecap:butt;stroke-linejoin:round"
       inkscape:connector-curvature="0"
       d="m 31.78125,66.40625 q -7.609375,0 -11.453125,-7.5 Q 16.5,51.421875 16.5,36.375 q 0,-14.984375 3.828125,-22.484375 3.84375,-7.5 11.453125,-7.5 7.671875,0 11.5,7.5 3.84375,7.5 3.84375,22.484375 0,15.046875 -3.84375,22.53125 -3.828125,7.5 -11.5,7.5 z m 0,7.8125 q 12.265625,0 18.734375,-9.703125 6.46875,-9.6875 6.46875,-28.140625 0,-18.40625 -6.46875,-28.109375 -6.46875,-9.6875 -18.734375,-9.6875 -12.25,0 -18.71875,9.6875 Q 6.59375,17.96875 6.59375,36.375 q 0,18.453125 6.46875,28.140625 6.46875,9.703125 18.71875,9.703125 z"
       id="DejaVuSans-48" />
    <path
       style="stroke-linecap:butt;stroke-linejoin:round"
       inkscape:connector-curvature="0"
       d="M 19.1875,8.296875 H 53.609375 V 0 H 7.328125 v 8.296875 q 5.609375,5.8125 15.296875,15.59375 9.703125,9.796875 12.1875,12.640625 4.734375,5.3125 6.609375,9 1.890625,3.6875 1.890625,7.25 0,5.8125 -4.078125,9.46875 -4.078125,3.671875 -10.625,3.671875 -4.640625,0 -9.796875,-1.609375 -5.140625,-1.609375 -11,-4.890625 v 9.96875 Q 13.765625,71.78125 18.9375,73 q 5.1875,1.21875 9.484375,1.21875 11.328125,0 18.0625,-5.671875 6.734375,-5.65625 6.734375,-15.125 0,-4.5 -1.6875,-8.53125 Q 49.859375,40.875 45.40625,35.40625 44.1875,33.984375 37.640625,27.21875 31.109375,20.453125 19.1875,8.296875 Z"
       id="DejaVuSans-50" />
    <path
       style="stroke-linecap:butt;stroke-linejoin:round"
       inkscape:connector-curvature="0"
       d="M 37.796875,64.3125 12.890625,25.390625 h 24.90625 z m -2.59375,8.59375 h 12.40625 V 25.390625 h 10.40625 V 17.1875 H 47.609375 V 0 h -9.8125 V 17.1875 H 4.890625 v 9.515625 z"
       id="DejaVuSans-52" />
    <path
       style="stroke-linecap:butt;stroke-linejoin:round"
       inkscape:connector-curvature="0"
       d="m 33.015625,40.375 q -6.640625,0 -10.53125,-4.546875 -3.875,-4.53125 -3.875,-12.4375 0,-7.859375 3.875,-12.4375 3.890625,-4.5625 10.53125,-4.5625 6.640625,0 10.515625,4.5625 3.875,4.578125 3.875,12.4375 0,7.90625 -3.875,12.4375 Q 39.65625,40.375 33.015625,40.375 Z M 52.59375,71.296875 V 62.3125 q -3.71875,1.75 -7.5,2.671875 -3.78125,0.9375 -7.5,0.9375 -9.765625,0 -14.921875,-6.59375 -5.140625,-6.59375 -5.875,-19.921875 2.875,4.25 7.21875,6.515625 4.359375,2.265625 9.578125,2.265625 10.984375,0 17.359375,-6.671875 6.375,-6.65625 6.375,-18.125 0,-11.234375 -6.640625,-18.03125 -6.640625,-6.78125 -17.671875,-6.78125 -12.65625,0 -19.34375,9.6875 -6.6875,9.703125 -6.6875,28.109375 0,17.28125 8.203125,27.5625 8.203125,10.28125 22.015625,10.28125 3.71875,0 7.5,-0.734375 3.78125,-0.734375 7.890625,-2.1875 z"
       id="DejaVuSans-54" />
    <path
       style="stroke-linecap:butt;stroke-linejoin:round"
       inkscape:connector-curvature="0"
       d="m 31.78125,34.625 q -7.03125,0 -11.0625,-3.765625 -4.015625,-3.765625 -4.015625,-10.34375 0,-6.59375 4.015625,-10.359375 4.03125,-3.765625 11.0625,-3.765625 7.03125,0 11.078125,3.78125 4.0625,3.796875 4.0625,10.34375 0,6.578125 -4.03125,10.34375 Q 38.875,34.625 31.78125,34.625 Z m -9.859375,4.1875 Q 15.578125,40.375 12.03125,44.71875 8.5,49.078125 8.5,55.328125 q 0,8.734375 6.21875,13.8125 6.234375,5.078125 17.0625,5.078125 10.890625,0 17.09375,-5.078125 6.203125,-5.078125 6.203125,-13.8125 0,-6.25 -3.546875,-10.609375 Q 48,40.375 41.703125,38.8125 q 7.125,-1.65625 11.09375,-6.5 3.984375,-4.828125 3.984375,-11.796875 0,-10.609375 -6.46875,-16.28125 -6.46875,-5.65625 -18.53125,-5.65625 -12.046875,0 -18.53125,5.65625 -6.46875,5.671875 -6.46875,16.28125 0,6.96875 4,11.796875 4.015625,4.84375 11.140625,6.5 z M 18.3125,54.390625 q 0,-5.65625 3.53125,-8.828125 3.546875,-3.171875 9.9375,-3.171875 6.359375,0 9.9375,3.171875 3.59375,3.171875 3.59375,8.828125 0,5.671875 -3.59375,8.84375 -3.578125,3.171875 -9.9375,3.171875 -6.390625,0 -9.9375,-3.171875 Q 18.3125,60.0625 18.3125,54.390625 Z"
       id="DejaVuSans-56" />
    <path
       style="stroke-linecap:butt;stroke-linejoin:round"
       inkscape:connector-curvature="0"
       d="m 12.40625,8.296875 h 16.109375 v 55.625 L 10.984375,60.40625 v 8.984375 l 17.4375,3.515625 H 38.28125 V 8.296875 H 54.390625 V 0 H 12.40625 Z"
       id="DejaVuSans-49" />
    <path
       inkscape:connector-curvature="0"
       d="M 0,0 H -3.5"
       id="m1affec1681"
       style="stroke:#000000;stroke-width:0.8;stroke-linecap:butt;stroke-linejoin:round" />
    <path
       style="stroke-linecap:butt;stroke-linejoin:round"
       inkscape:connector-curvature="0"
       d="M 10.59375,35.5 H 73.1875 V 27.203125 H 10.59375 Z"
       id="DejaVuSans-8722" />
    <path
       style="stroke-linecap:butt;stroke-linejoin:round"
       inkscape:connector-curvature="0"
       d="m 10.796875,72.90625 h 38.71875 v -8.3125 h -29.6875 V 46.734375 q 2.140625,0.734375 4.28125,1.09375 2.15625,0.359375 4.3125,0.359375 Q 40.625,48.1875 47.75,41.5 54.890625,34.8125 54.890625,23.390625 54.890625,11.625 47.5625,5.09375 40.234375,-1.421875 26.90625,-1.421875 q -4.59375,0 -9.359375,0.78125 -4.75,0.78125 -9.828125,2.34375 V 11.625 q 4.390625,-2.390625 9.078125,-3.5625 4.6875,-1.171875 9.90625,-1.171875 8.453125,0 13.375,4.4375 4.9375,4.4375 4.9375,12.0625 0,7.609375 -4.9375,12.046875 -4.921875,4.453125 -13.375,4.453125 -3.953125,0 -7.890625,-0.875 -3.921875,-0.875 -8.015625,-2.734375 z"
       id="DejaVuSans-53" />
    <path
       style="stroke-linecap:butt;stroke-linejoin:round"
       inkscape:connector-curvature="0"
       d="M 40.578125,39.3125 Q 47.65625,37.796875 51.625,33 q 3.984375,-4.78125 3.984375,-11.8125 0,-10.78125 -7.421875,-16.703125 -7.421875,-5.90625 -21.09375,-5.90625 -4.578125,0 -9.4375,0.90625 -4.859375,0.90625 -10.03125,2.71875 v 9.515625 q 4.09375,-2.390625 8.96875,-3.609375 4.890625,-1.21875 10.21875,-1.21875 9.265625,0 14.125,3.65625 4.859375,3.65625 4.859375,10.640625 0,6.453125 -4.515625,10.078125 -4.515625,3.640625 -12.5625,3.640625 h -8.5 v 8.109375 h 8.890625 q 7.265625,0 11.125,2.90625 3.859375,2.90625 3.859375,8.375 0,5.609375 -3.984375,8.609375 -3.96875,3.015625 -11.390625,3.015625 -4.0625,0 -8.703125,-0.890625 Q 15.375,64.15625 9.8125,62.3125 v 8.78125 q 5.625,1.5625 10.53125,2.34375 4.90625,0.78125 9.25,0.78125 11.234375,0 17.765625,-5.109375 6.546875,-5.09375 6.546875,-13.78125 0,-6.0625 -3.46875,-10.234375 -3.46875,-4.171875 -9.859375,-5.78125 z"
       id="DejaVuSans-51" />
    <clipPath
       style="stroke-linecap:butt;stroke-linejoin:round"
       id="p303a4aa573">
      <rect
         style="stroke-linecap:butt;stroke-linejoin:round"
         height="271.79999"
         width="474.29999"
         x="76.5"
         y="43.200001"
         id="rect2100" />
    </clipPath>
    <style
       type="text/css"
       id="style11126">
*{stroke-linecap:butt;stroke-linejoin:round;}
  </style>
    <path
       d="M 0,0 V 3.5"
       id="m23403f16b2"
       style="stroke:#000000;stroke-width:0.8" />
    <path
       d="M 10.59375,35.5 H 73.1875 V 27.203125 H 10.59375 Z"
       id="DejaVuSans-8722-8" />
    <path
       d="M 40.578125,39.3125 Q 47.65625,37.796875 51.625,33 q 3.984375,-4.78125 3.984375,-11.8125 0,-10.78125 -7.421875,-16.703125 -7.421875,-5.90625 -21.09375,-5.90625 -4.578125,0 -9.4375,0.90625 -4.859375,0.90625 -10.03125,2.71875 v 9.515625 q 4.09375,-2.390625 8.96875,-3.609375 4.890625,-1.21875 10.21875,-1.21875 9.265625,0 14.125,3.65625 4.859375,3.65625 4.859375,10.640625 0,6.453125 -4.515625,10.078125 -4.515625,3.640625 -12.5625,3.640625 h -8.5 v 8.109375 h 8.890625 q 7.265625,0 11.125,2.90625 3.859375,2.90625 3.859375,8.375 0,5.609375 -3.984375,8.609375 -3.96875,3.015625 -11.390625,3.015625 -4.0625,0 -8.703125,-0.890625 Q 15.375,64.15625 9.8125,62.3125 v 8.78125 q 5.625,1.5625 10.53125,2.34375 4.90625,0.78125 9.25,0.78125 11.234375,0 17.765625,-5.109375 6.546875,-5.09375 6.546875,-13.78125 0,-6.0625 -3.46875,-10.234375 -3.46875,-4.171875 -9.859375,-5.78125 z"
       id="DejaVuSans-51-7" />
    <path
       d="M 19.1875,8.296875 H 53.609375 V 0 H 7.328125 v 8.296875 q 5.609375,5.8125 15.296875,15.59375 9.703125,9.796875 12.1875,12.640625 4.734375,5.3125 6.609375,9 1.890625,3.6875 1.890625,7.25 0,5.8125 -4.078125,9.46875 -4.078125,3.671875 -10.625,3.671875 -4.640625,0 -9.796875,-1.609375 -5.140625,-1.609375 -11,-4.890625 v 9.96875 Q 13.765625,71.78125 18.9375,73 q 5.1875,1.21875 9.484375,1.21875 11.328125,0 18.0625,-5.671875 6.734375,-5.65625 6.734375,-15.125 0,-4.5 -1.6875,-8.53125 Q 49.859375,40.875 45.40625,35.40625 44.1875,33.984375 37.640625,27.21875 31.109375,20.453125 19.1875,8.296875 Z"
       id="DejaVuSans-50-0" />
    <path
       d="m 12.40625,8.296875 h 16.109375 v 55.625 L 10.984375,60.40625 v 8.984375 l 17.4375,3.515625 H 38.28125 V 8.296875 H 54.390625 V 0 H 12.40625 Z"
       id="DejaVuSans-49-5" />
    <path
       d="m 31.78125,66.40625 q -7.609375,0 -11.453125,-7.5 Q 16.5,51.421875 16.5,36.375 q 0,-14.984375 3.828125,-22.484375 3.84375,-7.5 11.453125,-7.5 7.671875,0 11.5,7.5 3.84375,7.5 3.84375,22.484375 0,15.046875 -3.84375,22.53125 -3.828125,7.5 -11.5,7.5 z m 0,7.8125 q 12.265625,0 18.734375,-9.703125 6.46875,-9.6875 6.46875,-28.140625 0,-18.40625 -6.46875,-28.109375 -6.46875,-9.6875 -18.734375,-9.6875 -12.25,0 -18.71875,9.6875 Q 6.59375,17.96875 6.59375,36.375 q 0,18.453125 6.46875,28.140625 6.46875,9.703125 18.71875,9.703125 z"
       id="DejaVuSans-48-7" />
    <path
       d="M 0,0 H -3.5"
       id="m47831267f9"
       style="stroke:#000000;stroke-width:0.8" />
    <path
       d="M 10.6875,12.40625 H 21 V 0 H 10.6875 Z"
       id="DejaVuSans-46" />
    <path
       d="M 37.796875,64.3125 12.890625,25.390625 h 24.90625 z m -2.59375,8.59375 h 12.40625 V 25.390625 h 10.40625 V 17.1875 H 47.609375 V 0 h -9.8125 V 17.1875 H 4.890625 v 9.515625 z"
       id="DejaVuSans-52-2" />
    <path
       d="m 33.015625,40.375 q -6.640625,0 -10.53125,-4.546875 -3.875,-4.53125 -3.875,-12.4375 0,-7.859375 3.875,-12.4375 3.890625,-4.5625 10.53125,-4.5625 6.640625,0 10.515625,4.5625 3.875,4.578125 3.875,12.4375 0,7.90625 -3.875,12.4375 Q 39.65625,40.375 33.015625,40.375 Z M 52.59375,71.296875 V 62.3125 q -3.71875,1.75 -7.5,2.671875 -3.78125,0.9375 -7.5,0.9375 -9.765625,0 -14.921875,-6.59375 -5.140625,-6.59375 -5.875,-19.921875 2.875,4.25 7.21875,6.515625 4.359375,2.265625 9.578125,2.265625 10.984375,0 17.359375,-6.671875 6.375,-6.65625 6.375,-18.125 0,-11.234375 -6.640625,-18.03125 -6.640625,-6.78125 -17.671875,-6.78125 -12.65625,0 -19.34375,9.6875 -6.6875,9.703125 -6.6875,28.109375 0,17.28125 8.203125,27.5625 8.203125,10.28125 22.015625,10.28125 3.71875,0 7.5,-0.734375 3.78125,-0.734375 7.890625,-2.1875 z"
       id="DejaVuSans-54-7" />
    <path
       d="m 31.78125,34.625 q -7.03125,0 -11.0625,-3.765625 -4.015625,-3.765625 -4.015625,-10.34375 0,-6.59375 4.015625,-10.359375 4.03125,-3.765625 11.0625,-3.765625 7.03125,0 11.078125,3.78125 4.0625,3.796875 4.0625,10.34375 0,6.578125 -4.03125,10.34375 Q 38.875,34.625 31.78125,34.625 Z m -9.859375,4.1875 Q 15.578125,40.375 12.03125,44.71875 8.5,49.078125 8.5,55.328125 q 0,8.734375 6.21875,13.8125 6.234375,5.078125 17.0625,5.078125 10.890625,0 17.09375,-5.078125 6.203125,-5.078125 6.203125,-13.8125 0,-6.25 -3.546875,-10.609375 Q 48,40.375 41.703125,38.8125 q 7.125,-1.65625 11.09375,-6.5 3.984375,-4.828125 3.984375,-11.796875 0,-10.609375 -6.46875,-16.28125 -6.46875,-5.65625 -18.53125,-5.65625 -12.046875,0 -18.53125,5.65625 -6.46875,5.671875 -6.46875,16.28125 0,6.96875 4,11.796875 4.015625,4.84375 11.140625,6.5 z M 18.3125,54.390625 q 0,-5.65625 3.53125,-8.828125 3.546875,-3.171875 9.9375,-3.171875 6.359375,0 9.9375,3.171875 3.59375,3.171875 3.59375,8.828125 0,5.671875 -3.59375,8.84375 -3.578125,3.171875 -9.9375,3.171875 -6.390625,0 -9.9375,-3.171875 Q 18.3125,60.0625 18.3125,54.390625 Z"
       id="DejaVuSans-56-5" />
    <clipPath
       id="p016548e7fd">
      <rect
         height="271.79999"
         width="390.60001"
         x="63"
         y="43.200001"
         id="rect11380" />
    </clipPath>
    <style
       type="text/css"
       id="style11839">
*{stroke-linecap:butt;stroke-linejoin:round;}
  </style>
    <path
       d="M 0,0 V 3.5"
       id="m9453462f7f"
       style="stroke:#000000;stroke-width:0.8" />
    <path
       d="M 10.59375,35.5 H 73.1875 V 27.203125 H 10.59375 Z"
       id="DejaVuSans-8722-3" />
    <path
       d="M 40.578125,39.3125 Q 47.65625,37.796875 51.625,33 q 3.984375,-4.78125 3.984375,-11.8125 0,-10.78125 -7.421875,-16.703125 -7.421875,-5.90625 -21.09375,-5.90625 -4.578125,0 -9.4375,0.90625 -4.859375,0.90625 -10.03125,2.71875 v 9.515625 q 4.09375,-2.390625 8.96875,-3.609375 4.890625,-1.21875 10.21875,-1.21875 9.265625,0 14.125,3.65625 4.859375,3.65625 4.859375,10.640625 0,6.453125 -4.515625,10.078125 -4.515625,3.640625 -12.5625,3.640625 h -8.5 v 8.109375 h 8.890625 q 7.265625,0 11.125,2.90625 3.859375,2.90625 3.859375,8.375 0,5.609375 -3.984375,8.609375 -3.96875,3.015625 -11.390625,3.015625 -4.0625,0 -8.703125,-0.890625 Q 15.375,64.15625 9.8125,62.3125 v 8.78125 q 5.625,1.5625 10.53125,2.34375 4.90625,0.78125 9.25,0.78125 11.234375,0 17.765625,-5.109375 6.546875,-5.09375 6.546875,-13.78125 0,-6.0625 -3.46875,-10.234375 -3.46875,-4.171875 -9.859375,-5.78125 z"
       id="DejaVuSans-51-0" />
    <path
       d="M 19.1875,8.296875 H 53.609375 V 0 H 7.328125 v 8.296875 q 5.609375,5.8125 15.296875,15.59375 9.703125,9.796875 12.1875,12.640625 4.734375,5.3125 6.609375,9 1.890625,3.6875 1.890625,7.25 0,5.8125 -4.078125,9.46875 -4.078125,3.671875 -10.625,3.671875 -4.640625,0 -9.796875,-1.609375 -5.140625,-1.609375 -11,-4.890625 v 9.96875 Q 13.765625,71.78125 18.9375,73 q 5.1875,1.21875 9.484375,1.21875 11.328125,0 18.0625,-5.671875 6.734375,-5.65625 6.734375,-15.125 0,-4.5 -1.6875,-8.53125 Q 49.859375,40.875 45.40625,35.40625 44.1875,33.984375 37.640625,27.21875 31.109375,20.453125 19.1875,8.296875 Z"
       id="DejaVuSans-50-9" />
    <path
       d="m 12.40625,8.296875 h 16.109375 v 55.625 L 10.984375,60.40625 v 8.984375 l 17.4375,3.515625 H 38.28125 V 8.296875 H 54.390625 V 0 H 12.40625 Z"
       id="DejaVuSans-49-7" />
    <path
       d="m 31.78125,66.40625 q -7.609375,0 -11.453125,-7.5 Q 16.5,51.421875 16.5,36.375 q 0,-14.984375 3.828125,-22.484375 3.84375,-7.5 11.453125,-7.5 7.671875,0 11.5,7.5 3.84375,7.5 3.84375,22.484375 0,15.046875 -3.84375,22.53125 -3.828125,7.5 -11.5,7.5 z m 0,7.8125 q 12.265625,0 18.734375,-9.703125 6.46875,-9.6875 6.46875,-28.140625 0,-18.40625 -6.46875,-28.109375 -6.46875,-9.6875 -18.734375,-9.6875 -12.25,0 -18.71875,9.6875 Q 6.59375,17.96875 6.59375,36.375 q 0,18.453125 6.46875,28.140625 6.46875,9.703125 18.71875,9.703125 z"
       id="DejaVuSans-48-71" />
    <path
       d="M 0,0 H -3.5"
       id="ma81df1a6f5"
       style="stroke:#000000;stroke-width:0.8" />
    <path
       d="M 10.6875,12.40625 H 21 V 0 H 10.6875 Z"
       id="DejaVuSans-46-5" />
    <path
       d="M 37.796875,64.3125 12.890625,25.390625 h 24.90625 z m -2.59375,8.59375 h 12.40625 V 25.390625 h 10.40625 V 17.1875 H 47.609375 V 0 h -9.8125 V 17.1875 H 4.890625 v 9.515625 z"
       id="DejaVuSans-52-6" />
    <path
       d="m 33.015625,40.375 q -6.640625,0 -10.53125,-4.546875 -3.875,-4.53125 -3.875,-12.4375 0,-7.859375 3.875,-12.4375 3.890625,-4.5625 10.53125,-4.5625 6.640625,0 10.515625,4.5625 3.875,4.578125 3.875,12.4375 0,7.90625 -3.875,12.4375 Q 39.65625,40.375 33.015625,40.375 Z M 52.59375,71.296875 V 62.3125 q -3.71875,1.75 -7.5,2.671875 -3.78125,0.9375 -7.5,0.9375 -9.765625,0 -14.921875,-6.59375 -5.140625,-6.59375 -5.875,-19.921875 2.875,4.25 7.21875,6.515625 4.359375,2.265625 9.578125,2.265625 10.984375,0 17.359375,-6.671875 6.375,-6.65625 6.375,-18.125 0,-11.234375 -6.640625,-18.03125 -6.640625,-6.78125 -17.671875,-6.78125 -12.65625,0 -19.34375,9.6875 -6.6875,9.703125 -6.6875,28.109375 0,17.28125 8.203125,27.5625 8.203125,10.28125 22.015625,10.28125 3.71875,0 7.5,-0.734375 3.78125,-0.734375 7.890625,-2.1875 z"
       id="DejaVuSans-54-78" />
    <path
       d="m 31.78125,34.625 q -7.03125,0 -11.0625,-3.765625 -4.015625,-3.765625 -4.015625,-10.34375 0,-6.59375 4.015625,-10.359375 4.03125,-3.765625 11.0625,-3.765625 7.03125,0 11.078125,3.78125 4.0625,3.796875 4.0625,10.34375 0,6.578125 -4.03125,10.34375 Q 38.875,34.625 31.78125,34.625 Z m -9.859375,4.1875 Q 15.578125,40.375 12.03125,44.71875 8.5,49.078125 8.5,55.328125 q 0,8.734375 6.21875,13.8125 6.234375,5.078125 17.0625,5.078125 10.890625,0 17.09375,-5.078125 6.203125,-5.078125 6.203125,-13.8125 0,-6.25 -3.546875,-10.609375 Q 48,40.375 41.703125,38.8125 q 7.125,-1.65625 11.09375,-6.5 3.984375,-4.828125 3.984375,-11.796875 0,-10.609375 -6.46875,-16.28125 -6.46875,-5.65625 -18.53125,-5.65625 -12.046875,0 -18.53125,5.65625 -6.46875,5.671875 -6.46875,16.28125 0,6.96875 4,11.796875 4.015625,4.84375 11.140625,6.5 z M 18.3125,54.390625 q 0,-5.65625 3.53125,-8.828125 3.546875,-3.171875 9.9375,-3.171875 6.359375,0 9.9375,3.171875 3.59375,3.171875 3.59375,8.828125 0,5.671875 -3.59375,8.84375 -3.578125,3.171875 -9.9375,3.171875 -6.390625,0 -9.9375,-3.171875 Q 18.3125,60.0625 18.3125,54.390625 Z"
       id="DejaVuSans-56-6" />
    <clipPath
       id="pb858245322">
      <rect
         height="271.79999"
         width="334.79999"
         x="54"
         y="43.200001"
         id="rect12093" />
    </clipPath>
    <style
       id="style21965"
       type="text/css">
*{stroke-linecap:butt;stroke-linejoin:round;}
  </style>
    <path
       style="stroke:#000000;stroke-width:0.8"
       id="me3379a6c9c"
       d="M 0,0 V 3.5" />
    <path
       id="DejaVuSans-8722-4"
       d="M 10.59375,35.5 H 73.1875 V 27.203125 H 10.59375 Z" />
    <path
       id="DejaVuSans-51-2"
       d="M 40.578125,39.3125 Q 47.65625,37.796875 51.625,33 q 3.984375,-4.78125 3.984375,-11.8125 0,-10.78125 -7.421875,-16.703125 -7.421875,-5.90625 -21.09375,-5.90625 -4.578125,0 -9.4375,0.90625 -4.859375,0.90625 -10.03125,2.71875 v 9.515625 q 4.09375,-2.390625 8.96875,-3.609375 4.890625,-1.21875 10.21875,-1.21875 9.265625,0 14.125,3.65625 4.859375,3.65625 4.859375,10.640625 0,6.453125 -4.515625,10.078125 -4.515625,3.640625 -12.5625,3.640625 h -8.5 v 8.109375 h 8.890625 q 7.265625,0 11.125,2.90625 3.859375,2.90625 3.859375,8.375 0,5.609375 -3.984375,8.609375 -3.96875,3.015625 -11.390625,3.015625 -4.0625,0 -8.703125,-0.890625 Q 15.375,64.15625 9.8125,62.3125 v 8.78125 q 5.625,1.5625 10.53125,2.34375 4.90625,0.78125 9.25,0.78125 11.234375,0 17.765625,-5.109375 6.546875,-5.09375 6.546875,-13.78125 0,-6.0625 -3.46875,-10.234375 -3.46875,-4.171875 -9.859375,-5.78125 z" />
    <path
       id="DejaVuSans-50-3"
       d="M 19.1875,8.296875 H 53.609375 V 0 H 7.328125 v 8.296875 q 5.609375,5.8125 15.296875,15.59375 9.703125,9.796875 12.1875,12.640625 4.734375,5.3125 6.609375,9 1.890625,3.6875 1.890625,7.25 0,5.8125 -4.078125,9.46875 -4.078125,3.671875 -10.625,3.671875 -4.640625,0 -9.796875,-1.609375 -5.140625,-1.609375 -11,-4.890625 v 9.96875 Q 13.765625,71.78125 18.9375,73 q 5.1875,1.21875 9.484375,1.21875 11.328125,0 18.0625,-5.671875 6.734375,-5.65625 6.734375,-15.125 0,-4.5 -1.6875,-8.53125 Q 49.859375,40.875 45.40625,35.40625 44.1875,33.984375 37.640625,27.21875 31.109375,20.453125 19.1875,8.296875 Z" />
    <path
       id="DejaVuSans-49-55"
       d="m 12.40625,8.296875 h 16.109375 v 55.625 L 10.984375,60.40625 v 8.984375 l 17.4375,3.515625 H 38.28125 V 8.296875 H 54.390625 V 0 H 12.40625 Z" />
    <path
       id="DejaVuSans-48-0"
       d="m 31.78125,66.40625 q -7.609375,0 -11.453125,-7.5 Q 16.5,51.421875 16.5,36.375 q 0,-14.984375 3.828125,-22.484375 3.84375,-7.5 11.453125,-7.5 7.671875,0 11.5,7.5 3.84375,7.5 3.84375,22.484375 0,15.046875 -3.84375,22.53125 -3.828125,7.5 -11.5,7.5 z m 0,7.8125 q 12.265625,0 18.734375,-9.703125 6.46875,-9.6875 6.46875,-28.140625 0,-18.40625 -6.46875,-28.109375 -6.46875,-9.6875 -18.734375,-9.6875 -12.25,0 -18.71875,9.6875 Q 6.59375,17.96875 6.59375,36.375 q 0,18.453125 6.46875,28.140625 6.46875,9.703125 18.71875,9.703125 z" />
    <path
       style="stroke:#000000;stroke-width:0.8"
       id="m4000feafc4"
       d="M 0,0 H -3.5" />
    <path
       id="DejaVuSans-46-6"
       d="M 10.6875,12.40625 H 21 V 0 H 10.6875 Z" />
    <path
       id="DejaVuSans-52-23"
       d="M 37.796875,64.3125 12.890625,25.390625 h 24.90625 z m -2.59375,8.59375 h 12.40625 V 25.390625 h 10.40625 V 17.1875 H 47.609375 V 0 h -9.8125 V 17.1875 H 4.890625 v 9.515625 z" />
    <path
       id="DejaVuSans-54-1"
       d="m 33.015625,40.375 q -6.640625,0 -10.53125,-4.546875 -3.875,-4.53125 -3.875,-12.4375 0,-7.859375 3.875,-12.4375 3.890625,-4.5625 10.53125,-4.5625 6.640625,0 10.515625,4.5625 3.875,4.578125 3.875,12.4375 0,7.90625 -3.875,12.4375 Q 39.65625,40.375 33.015625,40.375 Z M 52.59375,71.296875 V 62.3125 q -3.71875,1.75 -7.5,2.671875 -3.78125,0.9375 -7.5,0.9375 -9.765625,0 -14.921875,-6.59375 -5.140625,-6.59375 -5.875,-19.921875 2.875,4.25 7.21875,6.515625 4.359375,2.265625 9.578125,2.265625 10.984375,0 17.359375,-6.671875 6.375,-6.65625 6.375,-18.125 0,-11.234375 -6.640625,-18.03125 -6.640625,-6.78125 -17.671875,-6.78125 -12.65625,0 -19.34375,9.6875 -6.6875,9.703125 -6.6875,28.109375 0,17.28125 8.203125,27.5625 8.203125,10.28125 22.015625,10.28125 3.71875,0 7.5,-0.734375 3.78125,-0.734375 7.890625,-2.1875 z" />
    <path
       id="DejaVuSans-56-3"
       d="m 31.78125,34.625 q -7.03125,0 -11.0625,-3.765625 -4.015625,-3.765625 -4.015625,-10.34375 0,-6.59375 4.015625,-10.359375 4.03125,-3.765625 11.0625,-3.765625 7.03125,0 11.078125,3.78125 4.0625,3.796875 4.0625,10.34375 0,6.578125 -4.03125,10.34375 Q 38.875,34.625 31.78125,34.625 Z m -9.859375,4.1875 Q 15.578125,40.375 12.03125,44.71875 8.5,49.078125 8.5,55.328125 q 0,8.734375 6.21875,13.8125 6.234375,5.078125 17.0625,5.078125 10.890625,0 17.09375,-5.078125 6.203125,-5.078125 6.203125,-13.8125 0,-6.25 -3.546875,-10.609375 Q 48,40.375 41.703125,38.8125 q 7.125,-1.65625 11.09375,-6.5 3.984375,-4.828125 3.984375,-11.796875 0,-10.609375 -6.46875,-16.28125 -6.46875,-5.65625 -18.53125,-5.65625 -12.046875,0 -18.53125,5.65625 -6.46875,5.671875 -6.46875,16.28125 0,6.96875 4,11.796875 4.015625,4.84375 11.140625,6.5 z M 18.3125,54.390625 q 0,-5.65625 3.53125,-8.828125 3.546875,-3.171875 9.9375,-3.171875 6.359375,0 9.9375,3.171875 3.59375,3.171875 3.59375,8.828125 0,5.671875 -3.59375,8.84375 -3.578125,3.171875 -9.9375,3.171875 -6.390625,0 -9.9375,-3.171875 Q 18.3125,60.0625 18.3125,54.390625 Z" />
    <clipPath
       id="p574d49910b">
      <rect
         id="rect22219"
         y="43.200001"
         x="54"
         width="334.79999"
         height="271.79999" />
    </clipPath>
  </defs>
  <metadata
     id="metadata318591">
    <rdf:RDF>
      <cc:Work
         rdf:about="">
        <dc:format>image/svg+xml</dc:format>
        <dc:type
           rdf:resource="http://purl.org/dc/dcmitype/StillImage" />
      </cc:Work>
    </rdf:RDF>
  </metadata>
  <g
     style="stroke-linecap:butt;stroke-linejoin:round"
     transform="translate(-30.314745,-124.52665)"
     inkscape:label="Layer 1"
     inkscape:groupmode="layer"
     id="layer1">
    <path
       sodipodi:nodetypes="cc"
       inkscape:connector-curvature="0"
       id="path55569"
       d="m 87.582519,146.86954 h -4.95603"
       style="fill:#424b4f;fill-opacity:1;stroke:#424b4f;stroke-width:0.265;stroke-linecap:butt;stroke-linejoin:miter;stroke-miterlimit:4;stroke-dasharray:0.265, 0.265;stroke-dashoffset:0;stroke-opacity:1" />
    <g
       id="g63242"
       style="fill:#424b4f;fill-opacity:1;stroke:#424b4f;stroke-linecap:butt;stroke-linejoin:round;stroke-opacity:1"
       ns1:jacobian_sqrt="0.397281"
       inkscapeversion="0.92.3"
       ns1:alignment="middle center"
       ns1:scale="1.12614776569"
       ns1:preamble="C:\\Users\\drsjd\\AppData\\Roaming\\inkscape\\extensions\\textext\\default_packages_simon.tex"
       ns1:text="$\\lambda_4$"
       ns1:pdfconverter="pdf2svg"
       ns1:texconverter="pdflatex"
       ns1:version="0.11.0"
       transform="matrix(0.397281,0,0,0.397281,28.380059,94.458162)">
      <g
         style="fill:#424b4f;fill-opacity:1;stroke:#424b4f;stroke-linecap:butt;stroke-linejoin:round;stroke-opacity:1"
         id="g63240">
        <g
           id="g63234"
           style="fill:#424b4f;fill-opacity:1;stroke:#424b4f;stroke-linecap:butt;stroke-linejoin:round;stroke-opacity:1">
          <path
             id="path63232"
             transform="translate(148.712,134.765)"
             d="m 3.5625,-2.90625 c 0.40625,1.046875 0.890625,2.5625 1.046875,2.796875 0.15625,0.21875 0.25,0.21875 0.53125,0.21875 h 0.21875 c 0.09375,-0.015625 0.109375,-0.0625 0.109375,-0.09375 0,-0.03125 -0.03125,-0.0625 -0.0625,-0.09375 C 5.3125,-0.1875 5.25,-0.34375 5.1875,-0.53125 L 3.15625,-6.203125 c -0.21875,-0.578125 -0.75,-0.71875 -1.21875,-0.71875 -0.046875,0 -0.1875,0 -0.1875,0.109375 0,0.078125 0.078125,0.109375 0.09375,0.109375 C 2.171875,-6.65625 2.25,-6.59375 2.5,-5.90625 l 0.953125,2.703125 -2.75,2.734375 c -0.109375,0.125 -0.171875,0.171875 -0.171875,0.3125 0,0.171875 0.140625,0.28125 0.296875,0.28125 0.15625,0 0.25,-0.109375 0.328125,-0.203125 z m 0,0"
             style="fill:#424b4f;fill-opacity:1;stroke:#424b4f;stroke-width:0;stroke-linecap:butt;stroke-linejoin:round;stroke-opacity:1"
             inkscape:connector-curvature="0" />
        </g>
        <g
           id="g63238"
           style="fill:#424b4f;fill-opacity:1;stroke:#424b4f;stroke-linecap:butt;stroke-linejoin:round;stroke-opacity:1">
          <path
             id="path63236"
             transform="translate(154.524,136.259)"
             d="m 3.6875,-1.140625 v -0.25 H 2.90625 V -4.5 c 0,-0.140625 0,-0.203125 -0.140625,-0.203125 -0.09375,0 -0.125,0 -0.1875,0.109375 l -2.3125,3.203125 v 0.25 h 2.0625 v 0.5625 c 0,0.25 0,0.328125 -0.578125,0.328125 H 1.5625 V 0 C 1.921875,-0.015625 2.359375,-0.03125 2.609375,-0.03125 2.875,-0.03125 3.3125,-0.015625 3.671875,0 v -0.25 h -0.1875 C 2.90625,-0.25 2.90625,-0.328125 2.90625,-0.578125 v -0.5625 z M 2.375,-3.9375 v 2.546875 H 0.53125 Z m 0,0"
             style="fill:#424b4f;fill-opacity:1;stroke:#424b4f;stroke-width:0;stroke-linecap:butt;stroke-linejoin:round;stroke-opacity:1"
             inkscape:connector-curvature="0" />
        </g>
      </g>
    </g>
    <path
       style="fill:#424b4f;fill-opacity:1;stroke:#424b4f;stroke-width:0.265;stroke-linecap:butt;stroke-linejoin:miter;stroke-miterlimit:4;stroke-dasharray:0.265, 0.265;stroke-dashoffset:0;stroke-opacity:1"
       d="m 65.934439,134.63256 h -4.95604"
       id="path22739"
       inkscape:connector-curvature="0"
       sodipodi:nodetypes="cc" />
    <g
       transform="matrix(0.397281,0,0,0.397281,6.8320329,82.266175)"
       ns1:version="0.11.0"
       ns1:texconverter="pdflatex"
       ns1:pdfconverter="pdf2svg"
       ns1:text="$\\lambda_{2}$"
       ns1:preamble="C:\\Users\\drsjd\\AppData\\Roaming\\inkscape\\extensions\\textext\\default_packages_simon.tex"
       ns1:scale="1.12614776569"
       ns1:alignment="middle center"
       inkscapeversion="0.92.3"
       ns1:jacobian_sqrt="0.397281"
       style="fill:#424b4f;fill-opacity:1;stroke:#424b4f;stroke-linecap:butt;stroke-linejoin:round;stroke-opacity:1"
       id="g62294">
      <g
         id="g62292"
         style="fill:#424b4f;fill-opacity:1;stroke:#424b4f;stroke-linecap:butt;stroke-linejoin:round;stroke-opacity:1">
        <g
           style="fill:#424b4f;fill-opacity:1;stroke:#424b4f;stroke-linecap:butt;stroke-linejoin:round;stroke-opacity:1"
           id="g62286">
          <path
             style="fill:#424b4f;fill-opacity:1;stroke:#424b4f;stroke-width:0;stroke-linecap:butt;stroke-linejoin:round;stroke-opacity:1"
             d="m 3.5625,-2.90625 c 0.40625,1.046875 0.890625,2.5625 1.046875,2.796875 0.15625,0.21875 0.25,0.21875 0.53125,0.21875 h 0.21875 c 0.09375,-0.015625 0.109375,-0.0625 0.109375,-0.09375 0,-0.03125 -0.03125,-0.0625 -0.0625,-0.09375 C 5.3125,-0.1875 5.25,-0.34375 5.1875,-0.53125 L 3.15625,-6.203125 c -0.21875,-0.578125 -0.75,-0.71875 -1.21875,-0.71875 -0.046875,0 -0.1875,0 -0.1875,0.109375 0,0.078125 0.078125,0.109375 0.09375,0.109375 C 2.171875,-6.65625 2.25,-6.59375 2.5,-5.90625 l 0.953125,2.703125 -2.75,2.734375 c -0.109375,0.125 -0.171875,0.171875 -0.171875,0.3125 0,0.171875 0.140625,0.28125 0.296875,0.28125 0.15625,0 0.25,-0.109375 0.328125,-0.203125 z m 0,0"
             transform="translate(148.712,134.765)"
             id="path62284"
             inkscape:connector-curvature="0" />
        </g>
        <g
           style="fill:#424b4f;fill-opacity:1;stroke:#424b4f;stroke-linecap:butt;stroke-linejoin:round;stroke-opacity:1"
           id="g62290">
          <path
             style="fill:#424b4f;fill-opacity:1;stroke:#424b4f;stroke-width:0;stroke-linecap:butt;stroke-linejoin:round;stroke-opacity:1"
             d="M 3.515625,-1.265625 H 3.28125 c -0.015625,0.15625 -0.09375,0.5625 -0.1875,0.625 C 3.046875,-0.59375 2.515625,-0.59375 2.40625,-0.59375 H 1.125 c 0.734375,-0.640625 0.984375,-0.84375 1.390625,-1.171875 0.515625,-0.40625 1,-0.84375 1,-1.5 0,-0.84375 -0.734375,-1.359375 -1.625,-1.359375 -0.859375,0 -1.453125,0.609375 -1.453125,1.25 0,0.34375 0.296875,0.390625 0.375,0.390625 0.15625,0 0.359375,-0.125 0.359375,-0.375 0,-0.125 -0.046875,-0.375 -0.40625,-0.375 C 0.984375,-4.21875 1.453125,-4.375 1.78125,-4.375 c 0.703125,0 1.0625,0.546875 1.0625,1.109375 0,0.609375 -0.4375,1.078125 -0.65625,1.328125 L 0.515625,-0.265625 C 0.4375,-0.203125 0.4375,-0.1875 0.4375,0 h 2.875 z m 0,0"
             transform="translate(154.524,136.259)"
             id="path62288"
             inkscape:connector-curvature="0" />
        </g>
      </g>
    </g>
    <g
       transform="translate(-7.3421868,0.04677216)"
       style="stroke-linecap:butt;stroke-linejoin:round"
       id="g55573">
      <rect
         y="165.65819"
         x="50.600739"
         height="4.5533285"
         width="9.6188507"
         id="rect53397"
         style="fill:#d18362;fill-opacity:1;stroke:none;stroke-width:0.265;stroke-linecap:butt;stroke-linejoin:round;stroke-miterlimit:4;stroke-dasharray:0.265, 0.265;stroke-dashoffset:0;stroke-opacity:1" />
      <path
         sodipodi:nodetypes="cccc"
         style="fill:none;stroke:#773c23;stroke-width:0.365;stroke-linecap:butt;stroke-linejoin:miter;stroke-miterlimit:4;stroke-dasharray:none;stroke-opacity:1"
         d="m 50.534593,170.21152 v -4.55333 h 9.684995 v 4.55333"
         id="path53649"
         inkscape:connector-curvature="0" />
    </g>
    <g
       transform="translate(35.851044,0.04677216)"
       style="stroke-linecap:butt;stroke-linejoin:round"
       id="g60837">
      <rect
         y="161.68944"
         x="50.600739"
         height="8.5220785"
         width="9.6188507"
         id="rect60833"
         style="fill:#d18362;fill-opacity:1;stroke:none;stroke-width:0.265;stroke-linecap:butt;stroke-linejoin:round;stroke-miterlimit:4;stroke-dasharray:0.265, 0.265;stroke-dashoffset:0;stroke-opacity:1" />
      <path
         sodipodi:nodetypes="cccc"
         style="fill:none;stroke:#773c23;stroke-width:0.365;stroke-linecap:butt;stroke-linejoin:miter;stroke-miterlimit:4;stroke-dasharray:none;stroke-opacity:1"
         d="m 50.534593,170.21152 v -8.52208 h 9.684995 v 8.52208"
         id="path60835"
         inkscape:connector-curvature="0" />
    </g>
    <g
       id="g60843"
       style="stroke-linecap:butt;stroke-linejoin:round"
       transform="translate(14.254432,0.04677216)">
      <rect
         style="fill:#d18362;fill-opacity:1;stroke:none;stroke-width:0.265;stroke-linecap:butt;stroke-linejoin:round;stroke-miterlimit:4;stroke-dasharray:0.265, 0.265;stroke-dashoffset:0;stroke-opacity:1"
         id="rect60839"
         width="9.6188507"
         height="17.980932"
         x="50.600739"
         y="152.23059" />
      <path
         inkscape:connector-curvature="0"
         id="path60841"
         d="m 50.534593,170.21152 v -17.91479 h 9.684995 v 17.91479"
         style="fill:none;stroke:#773c23;stroke-width:0.365;stroke-linecap:butt;stroke-linejoin:miter;stroke-miterlimit:4;stroke-dasharray:none;stroke-opacity:1"
         sodipodi:nodetypes="cccc" />
    </g>
    <g
       id="g60849"
       style="stroke-linecap:butt;stroke-linejoin:round"
       transform="translate(25.052738,0.04677216)">
      <rect
         style="fill:#d18362;fill-opacity:1;stroke:none;stroke-width:0.265;stroke-linecap:butt;stroke-linejoin:round;stroke-miterlimit:4;stroke-dasharray:0.265, 0.265;stroke-dashoffset:0;stroke-opacity:1"
         id="rect60845"
         width="9.6188507"
         height="23.40489"
         x="50.600739"
         y="146.80663" />
      <path
         inkscape:connector-curvature="0"
         id="path60847"
         d="m 50.534593,170.21152 v -23.33875 h 9.684995 v 23.33875"
         style="fill:none;stroke:#773c23;stroke-width:0.365;stroke-linecap:butt;stroke-linejoin:miter;stroke-miterlimit:4;stroke-dasharray:none;stroke-opacity:1"
         sodipodi:nodetypes="cccc" />
    </g>
    <g
       transform="translate(3.4561221,0.04677216)"
       style="stroke-linecap:butt;stroke-linejoin:round"
       id="g60855">
      <rect
         y="134.5188"
         x="50.47855"
         height="35.692719"
         width="9.7410412"
         id="rect60851"
         style="fill:#d18362;fill-opacity:1;stroke:none;stroke-width:0.265;stroke-linecap:butt;stroke-linejoin:round;stroke-miterlimit:4;stroke-dasharray:0.265, 0.265;stroke-dashoffset:0;stroke-opacity:1" />
      <path
         sodipodi:nodetypes="cccc"
         style="fill:none;stroke:#773c23;stroke-width:0.365;stroke-linecap:butt;stroke-linejoin:miter;stroke-miterlimit:4;stroke-dasharray:none;stroke-opacity:1"
         d="m 50.534593,170.21152 v -35.57573 h 9.684995 v 35.57573"
         id="path60853"
         inkscape:connector-curvature="0" />
    </g>
    <path
       sodipodi:nodetypes="cc"
       inkscape:connector-curvature="0"
       id="path319901"
       d="M 41.61069,125.51402 H 40.718073"
       style="fill:none;stroke:#808080;stroke-width:0.3;stroke-linecap:butt;stroke-linejoin:miter;stroke-miterlimit:4;stroke-dasharray:none;stroke-opacity:1" />
    <path
       sodipodi:nodetypes="cc"
       inkscape:connector-curvature="0"
       id="path319905"
       d="M 41.56897,170.33006 H 40.676353"
       style="fill:none;stroke:#808080;stroke-width:0.3;stroke-linecap:butt;stroke-linejoin:miter;stroke-miterlimit:4;stroke-dasharray:none;stroke-opacity:1" />
    <path
       sodipodi:nodetypes="cc"
       inkscape:connector-curvature="0"
       id="path326219"
       d="M 41.61069,143.44044 H 41.001769"
       style="fill:none;stroke:#808080;stroke-width:0.3;stroke-linecap:butt;stroke-linejoin:miter;stroke-miterlimit:4;stroke-dasharray:none;stroke-opacity:1" />
    <path
       sodipodi:nodetypes="cc"
       inkscape:connector-curvature="0"
       id="path326223"
       d="M 41.61069,152.40365 H 41.001769"
       style="fill:none;stroke:#808080;stroke-width:0.3;stroke-linecap:butt;stroke-linejoin:miter;stroke-miterlimit:4;stroke-dasharray:none;stroke-opacity:1" />
    <path
       sodipodi:nodetypes="cc"
       inkscape:connector-curvature="0"
       id="path326227"
       d="M 41.61069,161.36685 H 41.001769"
       style="fill:none;stroke:#808080;stroke-width:0.3;stroke-linecap:butt;stroke-linejoin:miter;stroke-miterlimit:4;stroke-dasharray:none;stroke-opacity:1" />
    <flowRoot
       xml:space="preserve"
       id="flowRoot320141"
       style="font-style:normal;font-weight:normal;font-size:6.37462px;line-height:1.25;font-family:sans-serif;letter-spacing:0px;word-spacing:0px;fill:#000000;fill-opacity:1;stroke:none;stroke-linecap:butt;stroke-linejoin:round"><flowRegion
         style="stroke-linecap:butt;stroke-linejoin:round"
         id="flowRegion320143"><rect
           style="stroke-linecap:butt;stroke-linejoin:round"
           id="rect320145"
           width="261.88593"
           height="21.050776"
           x="117.74162"
           y="645.13086" /></flowRegion><flowPara
         style="stroke-linecap:butt;stroke-linejoin:round"
         id="flowPara320147" /></flowRoot>
    <flowRoot
       xml:space="preserve"
       id="flowRoot320149"
       style="font-style:normal;font-weight:normal;font-size:6.37462px;line-height:1.25;font-family:sans-serif;letter-spacing:0px;word-spacing:0px;fill:#000000;fill-opacity:1;stroke:none;stroke-linecap:butt;stroke-linejoin:round"><flowRegion
         style="stroke-linecap:butt;stroke-linejoin:round"
         id="flowRegion320151"><rect
           style="stroke-linecap:butt;stroke-linejoin:round"
           id="rect320153"
           width="31.75456"
           height="237.62401"
           x="105.61067"
           y="414.64273" /></flowRegion><flowPara
         style="stroke-linecap:butt;stroke-linejoin:round"
         id="flowPara320155" /></flowRoot>
    <flowRoot
       transform="matrix(0.26458333,0,0,0.26458333,29.822112,113.17108)"
       style="font-style:normal;font-weight:normal;font-size:6.37462px;line-height:1.25;font-family:sans-serif;letter-spacing:0px;word-spacing:0px;fill:#000000;fill-opacity:1;stroke:none;stroke-linecap:butt;stroke-linejoin:round"
       id="flowRoot394578"
       xml:space="preserve"><flowRegion
         style="stroke-linecap:butt;stroke-linejoin:round"
         id="flowRegion394580"><rect
           style="stroke-linecap:butt;stroke-linejoin:round"
           y="219.40765"
           x="242.67896"
           height="14.551641"
           width="41.400272"
           id="rect394582" /></flowRegion><flowPara
         style="stroke-linecap:butt;stroke-linejoin:round"
         id="flowPara394584" /></flowRoot>
    <flowRoot
       transform="matrix(0.26458333,0,0,0.26458333,29.822112,113.17108)"
       style="font-style:normal;font-weight:normal;font-size:6.37462px;line-height:1.25;font-family:sans-serif;letter-spacing:0px;word-spacing:0px;fill:#000000;fill-opacity:1;stroke:none;stroke-linecap:butt;stroke-linejoin:round"
       id="flowRoot394586"
       xml:space="preserve"><flowRegion
         style="stroke-linecap:butt;stroke-linejoin:round"
         id="flowRegion394588"><rect
           style="stroke-linecap:butt;stroke-linejoin:round"
           y="211.25314"
           x="-3.0274873"
           height="32.797779"
           width="316.37244"
           id="rect394590" /></flowRegion><flowPara
         style="stroke-linecap:butt;stroke-linejoin:round"
         id="flowPara394592" /></flowRoot>
    <g
       transform="matrix(0,-0.397281,0.397281,0,-16.018093,211.92447)"
       ns1:version="0.11.0"
       ns1:texconverter="pdflatex"
       ns1:pdfconverter="pdf2svg"
       ns1:text="$Pr(z)$"
       ns1:preamble="C:\\Users\\drsjd\\AppData\\Roaming\\inkscape\\extensions\\textext\\default_packages_simon.tex"
       ns1:scale="1.12614776569"
       ns1:alignment="middle center"
       inkscapeversion="0.92.3"
       ns1:jacobian_sqrt="0.397281"
       style="fill:#000000;fill-opacity:1;stroke-linecap:butt;stroke-linejoin:round"
       id="g16394">
      <g
         id="g16392"
         style="fill:#000000;fill-opacity:1;stroke-linecap:butt;stroke-linejoin:round">
        <g
           style="fill:#000000;fill-opacity:1;stroke-linecap:butt;stroke-linejoin:round"
           id="g16374">
          <path
             inkscape:connector-curvature="0"
             style="fill:#000000;fill-opacity:1;stroke:none;stroke-width:0;stroke-linecap:butt;stroke-linejoin:round"
             d="M 3.015625,-3.15625 H 4.71875 c 1.40625,0 2.796875,-1.03125 2.796875,-2.140625 0,-0.78125 -0.65625,-1.515625 -1.96875,-1.515625 h -3.21875 c -0.1875,0 -0.296875,0 -0.296875,0.1875 0,0.125 0.078125,0.125 0.28125,0.125 0.125,0 0.3125,0.015625 0.421875,0.015625 0.171875,0.03125 0.21875,0.046875 0.21875,0.171875 0,0.03125 0,0.0625 -0.03125,0.1875 l -1.34375,5.34375 c -0.09375,0.390625 -0.109375,0.46875 -0.90625,0.46875 -0.15625,0 -0.265625,0 -0.265625,0.1875 C 0.40625,0 0.515625,0 0.546875,0 0.828125,0 1.53125,-0.03125 1.8125,-0.03125 c 0.21875,0 0.4375,0.015625 0.640625,0.015625 0.21875,0 0.4375,0.015625 0.640625,0.015625 0.078125,0 0.203125,0 0.203125,-0.203125 0,-0.109375 -0.09375,-0.109375 -0.28125,-0.109375 -0.359375,0 -0.640625,0 -0.640625,-0.171875 0,-0.0625 0.015625,-0.109375 0.03125,-0.171875 z M 3.734375,-6.125 C 3.828125,-6.46875 3.84375,-6.5 4.28125,-6.5 h 0.953125 c 0.828125,0 1.359375,0.265625 1.359375,0.953125 0,0.390625 -0.203125,1.25 -0.59375,1.609375 -0.5,0.453125 -1.09375,0.53125 -1.53125,0.53125 H 3.0625 Z m 0,0"
             transform="translate(148.712,134.765)"
             id="path16372" />
        </g>
        <g
           style="fill:#000000;fill-opacity:1;stroke-linecap:butt;stroke-linejoin:round"
           id="g16378">
          <path
             inkscape:connector-curvature="0"
             style="fill:#000000;fill-opacity:1;stroke:none;stroke-width:0;stroke-linecap:butt;stroke-linejoin:round"
             d="m 0.875,-0.59375 c -0.03125,0.15625 -0.09375,0.390625 -0.09375,0.4375 0,0.171875 0.140625,0.265625 0.296875,0.265625 0.125,0 0.296875,-0.078125 0.375,-0.28125 C 1.46875,-0.203125 1.796875,-1.5625 1.84375,-1.75 c 0.078125,-0.328125 0.265625,-1.015625 0.3125,-1.296875 0.046875,-0.125 0.328125,-0.59375 0.5625,-0.8125 0.078125,-0.0625 0.375,-0.328125 0.796875,-0.328125 0.265625,0 0.40625,0.125 0.421875,0.125 -0.296875,0.046875 -0.515625,0.28125 -0.515625,0.546875 0,0.15625 0.109375,0.34375 0.375,0.34375 0.265625,0 0.546875,-0.234375 0.546875,-0.59375 0,-0.34375 -0.3125,-0.640625 -0.828125,-0.640625 C 2.875,-4.40625 2.4375,-3.921875 2.25,-3.640625 2.15625,-4.09375 1.796875,-4.40625 1.328125,-4.40625 0.875,-4.40625 0.6875,-4.015625 0.59375,-3.84375 0.421875,-3.5 0.296875,-2.90625 0.296875,-2.875 c 0,0.109375 0.09375,0.109375 0.109375,0.109375 0.109375,0 0.109375,-0.015625 0.171875,-0.234375 0.171875,-0.703125 0.375,-1.1875 0.734375,-1.1875 0.15625,0 0.296875,0.078125 0.296875,0.453125 0,0.21875 -0.03125,0.328125 -0.15625,0.84375 z m 0,0"
             transform="translate(156.49279,134.765)"
             id="path16376" />
        </g>
        <g
           style="fill:#000000;fill-opacity:1;stroke-linecap:butt;stroke-linejoin:round"
           id="g16382">
          <path
             inkscape:connector-curvature="0"
             style="fill:#000000;fill-opacity:1;stroke:none;stroke-width:0;stroke-linecap:butt;stroke-linejoin:round"
             d="m 3.296875,2.390625 c 0,-0.03125 0,-0.046875 -0.171875,-0.21875 C 1.890625,0.921875 1.5625,-0.96875 1.5625,-2.5 c 0,-1.734375 0.375,-3.46875 1.609375,-4.703125 0.125,-0.125 0.125,-0.140625 0.125,-0.171875 0,-0.078125 -0.03125,-0.109375 -0.09375,-0.109375 -0.109375,0 -1,0.6875 -1.59375,1.953125 -0.5,1.09375 -0.625,2.203125 -0.625,3.03125 0,0.78125 0.109375,1.984375 0.65625,3.125 C 2.25,1.84375 3.09375,2.5 3.203125,2.5 c 0.0625,0 0.09375,-0.03125 0.09375,-0.109375 z m 0,0"
             transform="translate(161.264,134.765)"
             id="path16380" />
        </g>
        <g
           style="fill:#000000;fill-opacity:1;stroke-linecap:butt;stroke-linejoin:round"
           id="g16386">
          <path
             inkscape:connector-curvature="0"
             style="fill:#000000;fill-opacity:1;stroke:none;stroke-width:0;stroke-linecap:butt;stroke-linejoin:round"
             d="m 1.328125,-0.828125 c 0.53125,-0.578125 0.828125,-0.828125 1.1875,-1.140625 0,0 0.609375,-0.53125 0.96875,-0.890625 C 4.4375,-3.78125 4.65625,-4.265625 4.65625,-4.3125 c 0,-0.09375 -0.09375,-0.09375 -0.109375,-0.09375 -0.078125,0 -0.09375,0.015625 -0.15625,0.109375 -0.296875,0.484375 -0.5,0.640625 -0.734375,0.640625 -0.25,0 -0.359375,-0.15625 -0.515625,-0.328125 -0.1875,-0.21875 -0.359375,-0.421875 -0.6875,-0.421875 -0.75,0 -1.203125,0.921875 -1.203125,1.140625 0,0.046875 0.03125,0.109375 0.109375,0.109375 0.09375,0 0.109375,-0.046875 0.140625,-0.109375 0.1875,-0.46875 0.765625,-0.46875 0.84375,-0.46875 0.203125,0 0.390625,0.0625 0.625,0.140625 0.40625,0.15625 0.515625,0.15625 0.765625,0.15625 -0.359375,0.421875 -1.1875,1.140625 -1.375,1.296875 l -0.90625,0.84375 C 0.78125,-0.625 0.421875,-0.0625 0.421875,0.015625 c 0,0.09375 0.109375,0.09375 0.125,0.09375 0.078125,0 0.09375,-0.015625 0.15625,-0.125 0.234375,-0.359375 0.53125,-0.625 0.859375,-0.625 0.21875,0 0.328125,0.09375 0.578125,0.375 0.15625,0.21875 0.34375,0.375 0.625,0.375 1,0 1.578125,-1.265625 1.578125,-1.53125 0,-0.046875 -0.046875,-0.109375 -0.125,-0.109375 -0.09375,0 -0.109375,0.0625 -0.140625,0.140625 C 3.84375,-0.75 3.203125,-0.5625 2.875,-0.5625 c -0.1875,0 -0.375,-0.0625 -0.578125,-0.125 -0.34375,-0.125 -0.5,-0.171875 -0.703125,-0.171875 -0.015625,0 -0.171875,0 -0.265625,0.03125 z m 0,0"
             transform="translate(165.138,134.765)"
             id="path16384" />
        </g>
        <g
           style="fill:#000000;fill-opacity:1;stroke-linecap:butt;stroke-linejoin:round"
           id="g16390">
          <path
             inkscape:connector-curvature="0"
             style="fill:#000000;fill-opacity:1;stroke:none;stroke-width:0;stroke-linecap:butt;stroke-linejoin:round"
             d="m 2.875,-2.5 c 0,-0.765625 -0.109375,-1.96875 -0.65625,-3.109375 -0.59375,-1.21875 -1.453125,-1.875 -1.546875,-1.875 -0.0625,0 -0.109375,0.046875 -0.109375,0.109375 0,0.03125 0,0.046875 0.1875,0.234375 0.984375,0.984375 1.546875,2.5625 1.546875,4.640625 0,1.71875 -0.359375,3.46875 -1.59375,4.71875 C 0.5625,2.34375 0.5625,2.359375 0.5625,2.390625 0.5625,2.453125 0.609375,2.5 0.671875,2.5 0.765625,2.5 1.671875,1.8125 2.25,0.546875 2.765625,-0.546875 2.875,-1.65625 2.875,-2.5 Z m 0,0"
             transform="translate(170.209,134.765)"
             id="path16388" />
        </g>
      </g>
    </g>
    <path
       sodipodi:nodetypes="cc"
       inkscape:connector-curvature="0"
       id="path51245"
       d="M 41.61069,134.47723 H 41.001769"
       style="fill:none;stroke:#808080;stroke-width:0.3;stroke-linecap:butt;stroke-linejoin:miter;stroke-miterlimit:4;stroke-dasharray:none;stroke-opacity:1" />
    <g
       id="g61328"
       style="fill:#000000;fill-opacity:1;stroke-linecap:butt;stroke-linejoin:round"
       ns1:jacobian_sqrt="0.397281"
       inkscapeversion="0.92.3"
       ns1:alignment="middle center"
       ns1:scale="1.12614776569"
       ns1:preamble="C:\\Users\\drsjd\\AppData\\Roaming\\inkscape\\extensions\\textext\\default_packages_simon.tex"
       ns1:text="$z$"
       ns1:pdfconverter="pdf2svg"
       ns1:texconverter="pdflatex"
       ns1:version="0.11.0"
       transform="matrix(0.397281,0,0,0.397281,9.6210017,119.64203)">
      <g
         style="fill:#000000;fill-opacity:1;stroke-linecap:butt;stroke-linejoin:round"
         id="g61326">
        <g
           id="g61324"
           style="fill:#000000;fill-opacity:1;stroke-linecap:butt;stroke-linejoin:round">
          <path
             id="path61322"
             d="m 150.04012,141.26271 c 0.53125,-0.57812 0.82813,-0.82812 1.1875,-1.14062 0,0 0.60938,-0.53125 0.96875,-0.89063 0.95313,-0.92187 1.17188,-1.40625 1.17188,-1.45312 0,-0.0937 -0.0937,-0.0937 -0.10938,-0.0937 -0.0781,0 -0.0937,0.0156 -0.15625,0.10937 -0.29687,0.48438 -0.5,0.64063 -0.73437,0.64063 -0.25,0 -0.35938,-0.15625 -0.51563,-0.32813 -0.1875,-0.21875 -0.35937,-0.42187 -0.6875,-0.42187 -0.75,0 -1.20312,0.92187 -1.20312,1.14062 0,0.0469 0.0312,0.10938 0.10937,0.10938 0.0937,0 0.10938,-0.0469 0.14063,-0.10938 0.1875,-0.46875 0.76562,-0.46875 0.84375,-0.46875 0.20312,0 0.39062,0.0625 0.625,0.14063 0.40625,0.15625 0.51562,0.15625 0.76562,0.15625 -0.35937,0.42187 -1.1875,1.14062 -1.375,1.29687 l -0.90625,0.84375 c -0.67187,0.67188 -1.03125,1.23438 -1.03125,1.3125 0,0.0937 0.10938,0.0937 0.125,0.0937 0.0781,0 0.0937,-0.0156 0.15625,-0.125 0.23438,-0.35937 0.53125,-0.625 0.85938,-0.625 0.21875,0 0.32812,0.0937 0.57812,0.375 0.15625,0.21875 0.34375,0.375 0.625,0.375 1,0 1.57813,-1.26562 1.57813,-1.53125 0,-0.0469 -0.0469,-0.10937 -0.125,-0.10937 -0.0937,0 -0.10938,0.0625 -0.14063,0.14062 -0.23437,0.64063 -0.875,0.82813 -1.20312,0.82813 -0.1875,0 -0.375,-0.0625 -0.57813,-0.125 -0.34375,-0.125 -0.5,-0.17188 -0.70312,-0.17188 -0.0156,0 -0.17188,0 -0.26563,0.0312 z m 0,0"
             style="fill:#000000;fill-opacity:1;stroke:none;stroke-width:0;stroke-linecap:butt;stroke-linejoin:round"
             inkscape:connector-curvature="0" />
        </g>
      </g>
    </g>
    <g
       id="g439889"
       style="fill:#808080;fill-opacity:1;stroke-linecap:butt;stroke-linejoin:round"
       ns1:jacobian_sqrt="0.279653"
       inkscapeversion="0.92.3"
       ns1:alignment="middle center"
       ns1:scale="0.792715254012"
       ns1:preamble="C:\\Users\\drsjd\\AppData\\Roaming\\inkscape\\extensions\\textext\\default_packages_simon.tex"
       ns1:text="0.0"
       ns1:pdfconverter="pdf2svg"
       ns1:texconverter="pdflatex"
       ns1:version="0.11.0"
       transform="matrix(0.27965299,0,0,0.27965299,-4.9630218,133.59153)">
      <g
         style="fill:#808080;fill-opacity:1;stroke-linecap:butt;stroke-linejoin:round"
         id="g439887">
        <g
           id="g439885"
           style="fill:#808080;fill-opacity:1;stroke-linecap:butt;stroke-linejoin:round">
          <path
             inkscape:connector-curvature="0"
             id="path439879"
             transform="translate(148.712,134.765)"
             d="m 4.96875,-3.421875 c -0.015625,-1.46875 -0.34375,-3.59375 -2.203125,-3.59375 -1.859375,0 -2.171875,2.15625 -2.171875,3.59375 0,1.453125 0.328125,3.5625 2.171875,3.5625 1.84375,0 2.203125,-2.109375 2.203125,-3.5625 z m -0.71875,0 c 0,0.953125 -0.078125,2.90625 -1.484375,2.90625 -1.40625,0 -1.453125,-1.984375 -1.453125,-2.90625 0,-0.9375 0.03125,-2.953125 1.453125,-2.953125 1.40625,0 1.484375,2.03125 1.484375,2.953125 z m 0,0"
             style="fill:#808080;fill-opacity:1;stroke:none;stroke-width:0;stroke-linecap:butt;stroke-linejoin:round" />
          <path
             inkscape:connector-curvature="0"
             id="path439881"
             transform="translate(154.27113,134.765)"
             d="M 1.640625,0 V -1.015625 H 0.6875 V 0 Z m 0,0"
             style="fill:#808080;fill-opacity:1;stroke:none;stroke-width:0;stroke-linecap:butt;stroke-linejoin:round" />
          <path
             inkscape:connector-curvature="0"
             id="path439883"
             transform="translate(156.59242,134.765)"
             d="m 4.96875,-3.421875 c -0.015625,-1.46875 -0.34375,-3.59375 -2.203125,-3.59375 -1.859375,0 -2.171875,2.15625 -2.171875,3.59375 0,1.453125 0.328125,3.5625 2.171875,3.5625 1.84375,0 2.203125,-2.109375 2.203125,-3.5625 z m -0.71875,0 c 0,0.953125 -0.078125,2.90625 -1.484375,2.90625 -1.40625,0 -1.453125,-1.984375 -1.453125,-2.90625 0,-0.9375 0.03125,-2.953125 1.453125,-2.953125 1.40625,0 1.484375,2.03125 1.484375,2.953125 z m 0,0"
             style="fill:#808080;fill-opacity:1;stroke:none;stroke-width:0;stroke-linecap:butt;stroke-linejoin:round" />
        </g>
      </g>
    </g>
    <g
       transform="matrix(0.279653,0,0,0.279653,-4.8931091,88.786511)"
       ns1:version="0.11.0"
       ns1:texconverter="pdflatex"
       ns1:pdfconverter="pdf2svg"
       ns1:text="0.5"
       ns1:preamble="C:\\Users\\drsjd\\AppData\\Roaming\\inkscape\\extensions\\textext\\default_packages_simon.tex"
       ns1:scale="0.792715225666"
       ns1:alignment="middle center"
       inkscapeversion="0.92.3"
       ns1:jacobian_sqrt="0.279653"
       style="fill:#808080;fill-opacity:1"
       id="g444666">
      <g
         id="surface1"
         style="fill:#808080;fill-opacity:1">
        <g
           style="fill:#808080;fill-opacity:1"
           id="g444663">
          <path
             style="fill:#808080;fill-opacity:1;stroke:none;stroke-width:0"
             d="m 4.96875,-3.421875 c -0.015625,-1.46875 -0.34375,-3.59375 -2.203125,-3.59375 -1.859375,0 -2.171875,2.15625 -2.171875,3.59375 0,1.453125 0.328125,3.5625 2.171875,3.5625 1.84375,0 2.203125,-2.109375 2.203125,-3.5625 z m -0.71875,0 c 0,0.953125 -0.078125,2.90625 -1.484375,2.90625 -1.40625,0 -1.453125,-1.984375 -1.453125,-2.90625 0,-0.9375 0.03125,-2.953125 1.453125,-2.953125 1.40625,0 1.484375,2.03125 1.484375,2.953125 z m 0,0"
             transform="translate(148.712,134.765)"
             id="path444657" />
          <path
             style="fill:#808080;fill-opacity:1;stroke:none;stroke-width:0"
             d="M 1.640625,0 V -1.015625 H 0.6875 V 0 Z m 0,0"
             transform="translate(154.27113,134.765)"
             id="path444659" />
          <path
             style="fill:#808080;fill-opacity:1;stroke:none;stroke-width:0"
             d="M 4.46875,-2.1875 C 4.453125,-3.59375 3.578125,-4.515625 2.171875,-4.515625 1.984375,-4.5 1.5625,-4.453125 1.3125,-4.359375 l 0.25,-1.8125 H 4 v -0.71875 H 1.0625 l -0.421875,3.40625 C 1.1875,-3.75 1.3125,-3.8125 2.015625,-3.8125 3.03125,-3.8125 3.75,-3.25 3.75,-2.1875 c 0,1.09375 -0.703125,1.625 -1.734375,1.625 -0.6875,0 -1.140625,-0.140625 -1.640625,-0.453125 v 0.859375 c 0.453125,0.171875 1.125,0.296875 1.65625,0.296875 1.484375,0 2.4375,-0.8125 2.4375,-2.328125 z m 0,0"
             transform="translate(156.59242,134.765)"
             id="path444661" />
        </g>
      </g>
    </g>
    <g
       id="g445010"
       style="fill:#808080;fill-opacity:1"
       ns1:jacobian_sqrt="0.279653"
       inkscapeversion="0.92.3"
       ns1:alignment="middle center"
       ns1:scale="0.792715225666"
       ns1:preamble="C:\\Users\\drsjd\\AppData\\Roaming\\inkscape\\extensions\\textext\\default_packages_simon.tex"
       ns1:text="1"
       ns1:pdfconverter="pdf2svg"
       ns1:texconverter="pdflatex"
       ns1:version="0.11.0"
       transform="matrix(0.279653,0,0,0.279653,6.1120659,135.3824)">
      <g
         style="fill:#808080;fill-opacity:1"
         id="g445008">
        <g
           id="g445006"
           style="fill:#808080;fill-opacity:1">
          <path
             id="path445004"
             transform="translate(148.712,134.765)"
             d="M 2.109375,0 V -6.890625 H 1.28125 L 0.296875,-6.09375 v 0.78125 l 1.03125,-0.84375 V 0 Z m 0,0"
             style="fill:#808080;fill-opacity:1;stroke:none;stroke-width:0" />
        </g>
      </g>
    </g>
    <g
       transform="matrix(0.279653,0,0,0.279653,16.577715,135.39988)"
       ns1:version="0.11.0"
       ns1:texconverter="pdflatex"
       ns1:pdfconverter="pdf2svg"
       ns1:text="2"
       ns1:preamble="C:\\Users\\drsjd\\AppData\\Roaming\\inkscape\\extensions\\textext\\default_packages_simon.tex"
       ns1:scale="0.792715225666"
       ns1:alignment="middle center"
       inkscapeversion="0.92.3"
       ns1:jacobian_sqrt="0.279653"
       style="fill:#808080;fill-opacity:1"
       id="g445358">
      <g
         id="g445356"
         style="fill:#808080;fill-opacity:1">
        <g
           style="fill:#808080;fill-opacity:1"
           id="g445354">
          <path
             style="fill:#808080;fill-opacity:1;stroke:none;stroke-width:0"
             d="M 4.390625,0 V -0.71875 H 1.296875 L 3.65625,-3.375 c 0.390625,-0.546875 0.6875,-0.96875 0.6875,-1.6875 0,-1.28125 -0.9375,-1.953125 -2.125,-1.953125 -0.671875,0 -1.234375,0.203125 -1.796875,0.4375 V -5.6875 c 0.5625,-0.359375 1.125,-0.625 1.8125,-0.625 0.78125,0 1.390625,0.484375 1.390625,1.296875 0,0.546875 -0.4375,1.21875 -0.796875,1.59375 C 2.71875,-3.265625 0.546875,-0.890625 0.375,-0.71875 V 0 Z m 0,0"
             transform="translate(148.712,134.765)"
             id="path445352" />
        </g>
      </g>
    </g>
    <g
       id="g445714"
       style="fill:#808080;fill-opacity:1"
       ns1:jacobian_sqrt="0.279653"
       inkscapeversion="0.92.3"
       ns1:alignment="middle center"
       ns1:scale="0.792715225666"
       ns1:preamble="C:\\Users\\drsjd\\AppData\\Roaming\\inkscape\\extensions\\textext\\default_packages_simon.tex"
       ns1:text="3"
       ns1:pdfconverter="pdf2svg"
       ns1:texconverter="pdflatex"
       ns1:version="0.11.0"
       transform="matrix(0.279653,0,0,0.279653,27.35661,135.38022)">
      <g
         style="fill:#808080;fill-opacity:1"
         id="g445712">
        <g
           id="g445710"
           style="fill:#808080;fill-opacity:1">
          <path
             id="path445708"
             transform="translate(148.712,134.765)"
             d="M 4.46875,-2 C 4.46875,-2.765625 4,-3.46875 3.125,-3.71875 3.875,-4 4.3125,-4.546875 4.3125,-5.265625 c 0,-1.203125 -1,-1.75 -2.09375,-1.75 -0.546875,0 -1.21875,0.125 -1.703125,0.28125 v 0.765625 c 0.53125,-0.1875 0.984375,-0.34375 1.625,-0.34375 0.8125,0 1.46875,0.296875 1.46875,1.171875 -0.015625,0.796875 -0.65625,1.125 -1.4375,1.125 H 1.4375 v 0.671875 h 0.703125 c 0.90625,0 1.625,0.390625 1.625,1.34375 0,1.125 -0.78125,1.4375 -1.796875,1.4375 -0.71875,0 -1.15625,-0.125 -1.65625,-0.46875 v 0.84375 c 0.5,0.171875 1.078125,0.328125 1.671875,0.328125 1.390625,0 2.484375,-0.625 2.484375,-2.140625 z m 0,0"
             style="fill:#808080;fill-opacity:1;stroke:none;stroke-width:0" />
        </g>
      </g>
    </g>
    <g
       transform="matrix(0.279653,0,0,0.279653,38.09709,135.3824)"
       ns1:version="0.11.0"
       ns1:texconverter="pdflatex"
       ns1:pdfconverter="pdf2svg"
       ns1:text="4"
       ns1:preamble="C:\\Users\\drsjd\\AppData\\Roaming\\inkscape\\extensions\\textext\\default_packages_simon.tex"
       ns1:scale="0.792715225666"
       ns1:alignment="middle center"
       inkscapeversion="0.92.3"
       ns1:jacobian_sqrt="0.279653"
       style="fill:#808080;fill-opacity:1"
       id="g446078">
      <g
         id="g446076"
         style="fill:#808080;fill-opacity:1">
        <g
           style="fill:#808080;fill-opacity:1"
           id="g446074">
          <path
             style="fill:#808080;fill-opacity:1;stroke:none;stroke-width:0"
             d="m 4.875,-1.640625 v -0.71875 H 3.9375 v -4.53125 h -1 l -2.671875,4.375 v 0.875 H 3.1875 V 0 h 0.75 V -1.640625 Z M 3.1875,-2.359375 H 0.828125 L 3.1875,-6.15625 Z m 0,0"
             transform="translate(148.712,134.765)"
             id="path446072" />
        </g>
      </g>
    </g>
    <g
       id="g446450"
       style="fill:#808080;fill-opacity:1"
       ns1:jacobian_sqrt="0.279653"
       inkscapeversion="0.92.3"
       ns1:alignment="middle center"
       ns1:scale="0.792715225666"
       ns1:preamble="C:\\Users\\drsjd\\AppData\\Roaming\\inkscape\\extensions\\textext\\default_packages_simon.tex"
       ns1:text="5"
       ns1:pdfconverter="pdf2svg"
       ns1:texconverter="pdflatex"
       ns1:version="0.11.0"
       transform="matrix(0.279653,0,0,0.279653,48.944482,135.36274)">
      <g
         style="fill:#808080;fill-opacity:1"
         id="g446448">
        <g
           id="g446446"
           style="fill:#808080;fill-opacity:1">
          <path
             id="path446444"
             transform="translate(148.712,134.765)"
             d="M 4.46875,-2.1875 C 4.453125,-3.59375 3.578125,-4.515625 2.171875,-4.515625 1.984375,-4.5 1.5625,-4.453125 1.3125,-4.359375 l 0.25,-1.8125 H 4 v -0.71875 H 1.0625 l -0.421875,3.40625 C 1.1875,-3.75 1.3125,-3.8125 2.015625,-3.8125 3.03125,-3.8125 3.75,-3.25 3.75,-2.1875 c 0,1.09375 -0.703125,1.625 -1.734375,1.625 -0.6875,0 -1.140625,-0.140625 -1.640625,-0.453125 v 0.859375 c 0.453125,0.171875 1.125,0.296875 1.65625,0.296875 1.484375,0 2.4375,-0.8125 2.4375,-2.328125 z m 0,0"
             style="fill:#808080;fill-opacity:1;stroke:none;stroke-width:0" />
        </g>
      </g>
    </g>
    <rect
       style="fill:none;fill-opacity:1;stroke:#030000;stroke-width:0.3;stroke-linecap:butt;stroke-linejoin:round;stroke-miterlimit:4;stroke-dasharray:none;stroke-dashoffset:0;stroke-opacity:1"
       id="rect319742"
       width="56.049828"
       height="44.816059"
       x="41.685265"
       y="125.51402" />
  </g>
</svg>
