<?xml version="1.0" encoding="UTF-8" standalone="no"?>
<!-- Created with Inkscape (http://www.inkscape.org/) -->

<svg
   xmlns:ns1="http://www.iki.fi/pav/software/textext/"
   xmlns:dc="http://purl.org/dc/elements/1.1/"
   xmlns:cc="http://creativecommons.org/ns#"
   xmlns:rdf="http://www.w3.org/1999/02/22-rdf-syntax-ns#"
   xmlns:svg="http://www.w3.org/2000/svg"
   xmlns="http://www.w3.org/2000/svg"
   xmlns:sodipodi="http://sodipodi.sourceforge.net/DTD/sodipodi-0.dtd"
   xmlns:inkscape="http://www.inkscape.org/namespaces/inkscape"
   sodipodi:docname="SupervisedLinear.svg"
   inkscape:version="0.92.3 (2405546, 2018-03-11)"
   id="svg318594"
   version="1.1"
   viewBox="0 0 66.929443 64.331626"
   height="64.331627mm"
   width="66.929443mm">
  <sodipodi:namedview
     showguides="false"
     inkscape:window-maximized="1"
     inkscape:window-y="-8"
     inkscape:window-x="2552"
     inkscape:window-height="1387"
     inkscape:window-width="2560"
     showgrid="false"
     inkscape:current-layer="layer1"
     inkscape:document-units="mm"
     inkscape:cy="90.313627"
     inkscape:cx="51.164798"
     inkscape:zoom="2.5798986"
     inkscape:pageshadow="2"
     inkscape:pageopacity="0.0"
     borderopacity="1.0"
     bordercolor="#666666"
     pagecolor="#ffffff"
     id="base"
     fit-margin-top="0"
     fit-margin-left="0"
     fit-margin-right="0"
     fit-margin-bottom="0"
     inkscape:snap-global="false"
     inkscape:pagecheckerboard="0" />
  <defs
     id="defs318588" />
  <metadata
     id="metadata318591">
    <rdf:RDF>
      <cc:Work
         rdf:about="">
        <dc:format>image/svg+xml</dc:format>
        <dc:type
           rdf:resource="http://purl.org/dc/dcmitype/StillImage" />
        <dc:title></dc:title>
      </cc:Work>
    </rdf:RDF>
  </metadata>
  <g
     id="layer1"
     inkscape:groupmode="layer"
     inkscape:label="Layer 1"
     transform="translate(-28.838978,-113.17108)">
    <g
       transform="matrix(0.279653,0,0,0.279653,33.376041,169.08503)"
       ns1:version="1.8.1"
       ns1:texconverter="pdflatex"
       ns1:pdfconverter="inkscape"
       ns1:text="0.0"
       ns1:preamble="/Users/simonprince/Library/Application Support/org.inkscape.Inkscape/config/inkscape/extensions/textext/default_packages_simon.tex"
       ns1:scale="0.792715424088"
       ns1:alignment="middle center"
       ns1:stroke-to-path="0"
       ns1:inkscapeversion="1.1.2"
       ns1:jacobian_sqrt="0.279653"
       style="fill:#808080;fill-opacity:1;stroke-width:0"
       id="g2752">
      <defs
         id="id-396ff7cf-2700-4f8d-aee3-5b8df46a5591"
         style="fill:#808080;fill-opacity:1;stroke-width:0">
        <g
           id="id-786858a8-eaf2-4561-b647-e342e0125e63"
           style="fill:#808080;fill-opacity:1;stroke-width:0">
          <symbol
             overflow="visible"
             id="id-f0a66394-5d8d-4015-b20a-820537b579cf"
             style="fill:#808080;fill-opacity:1;stroke-width:0">
            <path
               style="fill:#808080;fill-opacity:1;stroke:#808080;stroke-width:0"
               d=""
               id="id-e76d932e-5ea5-4504-9530-a1e1cd0036d3" />
          </symbol>
          <symbol
             overflow="visible"
             id="id-f9cd2b75-1af4-48d0-9bbd-bc18eba52c6c"
             style="fill:#808080;fill-opacity:1;stroke-width:0">
            <path
               style="fill:#808080;fill-opacity:1;stroke:#808080;stroke-width:0"
               d="m 4.5625,-3.25 c 0,-0.78125 -0.046875,-1.71875 -0.46875,-2.515625 -0.40625,-0.75 -1.09375,-1 -1.59375,-1 -0.59375,0 -1.296875,0.28125 -1.703125,1.15625 -0.328125,0.734375 -0.375,1.5625 -0.375,2.359375 0,0.78125 0.03125,1.515625 0.328125,2.25 0.40625,0.953125 1.15625,1.21875 1.734375,1.21875 0.71875,0 1.359375,-0.40625 1.671875,-1.09375 C 4.453125,-1.53125 4.5625,-2.1875 4.5625,-3.25 Z M 2.5,-0.390625 c -0.53125,0 -0.9375,-0.375 -1.140625,-1.09375 -0.15625,-0.5625 -0.15625,-1.109375 -0.15625,-1.890625 0,-0.625 0,-1.21875 0.15625,-1.765625 0.0625,-0.1875 0.3125,-1.015625 1.125,-1.015625 0.78125,0 1.03125,0.765625 1.109375,0.9375 0.1875,0.5625 0.1875,1.234375 0.1875,1.84375 0,0.65625 0,1.296875 -0.1875,1.921875 -0.25,0.90625 -0.78125,1.0625 -1.09375,1.0625 z m 0,0"
               id="id-ded4b7d3-2d48-4ec1-98ca-ea0df16096ad" />
          </symbol>
          <symbol
             overflow="visible"
             id="id-dbf157ef-a654-4d17-a30e-bdca6c1bcdfe"
             style="fill:#808080;fill-opacity:1;stroke-width:0">
            <path
               style="fill:#808080;fill-opacity:1;stroke:#808080;stroke-width:0"
               d="M 1.796875,-0.828125 H 0.96875 V 0 h 0.828125 z m 0,0"
               id="id-d941075a-bc74-49ae-8f73-c2b208c50285" />
          </symbol>
        </g>
      </defs>
      <g
         id="id-811a7a69-d9d2-4400-894c-0e5a4c4b6b37"
         transform="translate(-149.134,-127.999)"
         style="fill:#808080;fill-opacity:1;stroke-width:0">
        <g
           style="fill:#808080;fill-opacity:1;stroke-width:0"
           id="id-4ece506b-cc0f-4228-9c15-59d02b7cb61a">
          <g
             transform="translate(148.712,134.765)"
             style="fill:#808080;fill-opacity:1;stroke-width:0"
             id="g3606">
            <path
               style="fill:#808080;fill-opacity:1;stroke:#808080;stroke-width:0"
               d="m 4.5625,-3.25 c 0,-0.78125 -0.046875,-1.71875 -0.46875,-2.515625 -0.40625,-0.75 -1.09375,-1 -1.59375,-1 -0.59375,0 -1.296875,0.28125 -1.703125,1.15625 -0.328125,0.734375 -0.375,1.5625 -0.375,2.359375 0,0.78125 0.03125,1.515625 0.328125,2.25 0.40625,0.953125 1.15625,1.21875 1.734375,1.21875 0.71875,0 1.359375,-0.40625 1.671875,-1.09375 C 4.453125,-1.53125 4.5625,-2.1875 4.5625,-3.25 Z M 2.5,-0.390625 c -0.53125,0 -0.9375,-0.375 -1.140625,-1.09375 -0.15625,-0.5625 -0.15625,-1.109375 -0.15625,-1.890625 0,-0.625 0,-1.21875 0.15625,-1.765625 0.0625,-0.1875 0.3125,-1.015625 1.125,-1.015625 0.78125,0 1.03125,0.765625 1.109375,0.9375 0.1875,0.5625 0.1875,1.234375 0.1875,1.84375 0,0.65625 0,1.296875 -0.1875,1.921875 -0.25,0.90625 -0.78125,1.0625 -1.09375,1.0625 z m 0,0"
               id="id-c9884a62-6bdc-4514-ace4-af72fb3f2b60" />
          </g>
          <g
             transform="translate(153.693,134.765)"
             style="fill:#808080;fill-opacity:1;stroke-width:0"
             id="g3609">
            <path
               style="fill:#808080;fill-opacity:1;stroke:#808080;stroke-width:0"
               d="M 1.796875,-0.828125 H 0.96875 V 0 h 0.828125 z m 0,0"
               id="id-b34dcbf0-5593-4011-afb6-4638e78a39f1" />
          </g>
          <g
             transform="translate(156.461,134.765)"
             style="fill:#808080;fill-opacity:1;stroke-width:0"
             id="g3612">
            <path
               style="fill:#808080;fill-opacity:1;stroke:#808080;stroke-width:0"
               d="m 4.5625,-3.25 c 0,-0.78125 -0.046875,-1.71875 -0.46875,-2.515625 -0.40625,-0.75 -1.09375,-1 -1.59375,-1 -0.59375,0 -1.296875,0.28125 -1.703125,1.15625 -0.328125,0.734375 -0.375,1.5625 -0.375,2.359375 0,0.78125 0.03125,1.515625 0.328125,2.25 0.40625,0.953125 1.15625,1.21875 1.734375,1.21875 0.71875,0 1.359375,-0.40625 1.671875,-1.09375 C 4.453125,-1.53125 4.5625,-2.1875 4.5625,-3.25 Z M 2.5,-0.390625 c -0.53125,0 -0.9375,-0.375 -1.140625,-1.09375 -0.15625,-0.5625 -0.15625,-1.109375 -0.15625,-1.890625 0,-0.625 0,-1.21875 0.15625,-1.765625 0.0625,-0.1875 0.3125,-1.015625 1.125,-1.015625 0.78125,0 1.03125,0.765625 1.109375,0.9375 0.1875,0.5625 0.1875,1.234375 0.1875,1.84375 0,0.65625 0,1.296875 -0.1875,1.921875 -0.25,0.90625 -0.78125,1.0625 -1.09375,1.0625 z m 0,0"
               id="id-9a322170-e9de-4003-9400-183b614df337" />
          </g>
        </g>
      </g>
    </g>
    <g
       transform="matrix(0.279653,0,0,0.279653,33.376041,113.44296)"
       ns1:version="1.8.1"
       ns1:texconverter="pdflatex"
       ns1:pdfconverter="inkscape"
       ns1:text="2.0"
       ns1:preamble="/Users/simonprince/Library/Application Support/org.inkscape.Inkscape/config/inkscape/extensions/textext/default_packages_simon.tex"
       ns1:scale="0.792715424088"
       ns1:alignment="middle center"
       ns1:stroke-to-path="0"
       ns1:inkscapeversion="1.1.2"
       ns1:jacobian_sqrt="0.279653"
       style="fill:#808080;fill-opacity:1;stroke-width:0"
       id="g2764">
      <defs
         id="id-0b7b2586-9e3a-428b-bb56-610f002f7ac8"
         style="fill:#808080;fill-opacity:1;stroke-width:0">
        <g
           id="id-d76dabd2-8e02-47e2-a91b-40d5dfb851b8"
           style="fill:#808080;fill-opacity:1;stroke-width:0">
          <symbol
             overflow="visible"
             id="id-a0fa3d59-489f-468a-8ab3-76fcdac1d8c4"
             style="fill:#808080;fill-opacity:1;stroke-width:0">
            <path
               style="fill:#808080;fill-opacity:1;stroke:#808080;stroke-width:0"
               d=""
               id="id-59bd2c22-be6e-4f6a-967c-2473f3ab09a6" />
          </symbol>
          <symbol
             overflow="visible"
             id="id-32c7c9af-7b8d-4bfe-b838-724097aa03aa"
             style="fill:#808080;fill-opacity:1;stroke-width:0">
            <path
               style="fill:#808080;fill-opacity:1;stroke:#808080;stroke-width:0"
               d="M 1.734375,-1.875 0.5,-0.640625 V 0 h 3.96875 v -0.703125 h -1.8125 c -0.109375,0 -0.234375,0 -0.359375,0 H 1.21875 c 0.3125,-0.28125 1.078125,-1.015625 1.390625,-1.3125 0.1875,-0.171875 0.6875,-0.59375 0.875,-0.78125 0.453125,-0.4375 0.984375,-0.96875 0.984375,-1.8125 0,-1.15625 -0.796875,-2.15625 -2.109375,-2.15625 -1.140625,0 -1.703125,0.78125 -1.9375,1.640625 0.109375,0.171875 0.171875,0.234375 0.1875,0.265625 0.015625,0.015625 0.125,0.140625 0.21875,0.28125 C 1.03125,-5.34375 1.3125,-6.125 2.21875,-6.125 c 0.9375,0 1.4375,0.75 1.4375,1.53125 0,0.84375 -0.5625,1.40625 -1.15625,2.015625 z m 0,0"
               id="id-5d3f971a-fc21-4ee8-8358-b342fddc2329" />
          </symbol>
          <symbol
             overflow="visible"
             id="id-fc2e4a4a-51b5-4688-b3db-ccf475e54c4f"
             style="fill:#808080;fill-opacity:1;stroke-width:0">
            <path
               style="fill:#808080;fill-opacity:1;stroke:#808080;stroke-width:0"
               d="M 1.796875,-0.828125 H 0.96875 V 0 h 0.828125 z m 0,0"
               id="id-d27badc2-f4f1-4a2a-aef0-f61fa08f9ff6" />
          </symbol>
          <symbol
             overflow="visible"
             id="id-453fc526-79de-414c-81be-666d157bb7c6"
             style="fill:#808080;fill-opacity:1;stroke-width:0">
            <path
               style="fill:#808080;fill-opacity:1;stroke:#808080;stroke-width:0"
               d="m 4.5625,-3.25 c 0,-0.78125 -0.046875,-1.71875 -0.46875,-2.515625 -0.40625,-0.75 -1.09375,-1 -1.59375,-1 -0.59375,0 -1.296875,0.28125 -1.703125,1.15625 -0.328125,0.734375 -0.375,1.5625 -0.375,2.359375 0,0.78125 0.03125,1.515625 0.328125,2.25 0.40625,0.953125 1.15625,1.21875 1.734375,1.21875 0.71875,0 1.359375,-0.40625 1.671875,-1.09375 C 4.453125,-1.53125 4.5625,-2.1875 4.5625,-3.25 Z M 2.5,-0.390625 c -0.53125,0 -0.9375,-0.375 -1.140625,-1.09375 -0.15625,-0.5625 -0.15625,-1.109375 -0.15625,-1.890625 0,-0.625 0,-1.21875 0.15625,-1.765625 0.0625,-0.1875 0.3125,-1.015625 1.125,-1.015625 0.78125,0 1.03125,0.765625 1.109375,0.9375 0.1875,0.5625 0.1875,1.234375 0.1875,1.84375 0,0.65625 0,1.296875 -0.1875,1.921875 -0.25,0.90625 -0.78125,1.0625 -1.09375,1.0625 z m 0,0"
               id="id-97b60605-802c-498c-817c-1d55ed7092d5" />
          </symbol>
        </g>
      </defs>
      <g
         id="id-4a8e7f08-99c1-472f-9f47-af54826ef568"
         transform="translate(-149.134,-127.999)"
         style="fill:#808080;fill-opacity:1;stroke-width:0">
        <g
           style="fill:#808080;fill-opacity:1;stroke-width:0"
           id="id-6659eca6-26b2-4122-84dd-5a03505545c7">
          <g
             transform="translate(148.712,134.765)"
             style="fill:#808080;fill-opacity:1;stroke-width:0"
             id="g3149">
            <path
               style="fill:#808080;fill-opacity:1;stroke:#808080;stroke-width:0"
               d="M 1.734375,-1.875 0.5,-0.640625 V 0 h 3.96875 v -0.703125 h -1.8125 c -0.109375,0 -0.234375,0 -0.359375,0 H 1.21875 c 0.3125,-0.28125 1.078125,-1.015625 1.390625,-1.3125 0.1875,-0.171875 0.6875,-0.59375 0.875,-0.78125 0.453125,-0.4375 0.984375,-0.96875 0.984375,-1.8125 0,-1.15625 -0.796875,-2.15625 -2.109375,-2.15625 -1.140625,0 -1.703125,0.78125 -1.9375,1.640625 0.109375,0.171875 0.171875,0.234375 0.1875,0.265625 0.015625,0.015625 0.125,0.140625 0.21875,0.28125 C 1.03125,-5.34375 1.3125,-6.125 2.21875,-6.125 c 0.9375,0 1.4375,0.75 1.4375,1.53125 0,0.84375 -0.5625,1.40625 -1.15625,2.015625 z m 0,0"
               id="id-f99db5c1-07f9-4279-b776-b7ac16d4a24b" />
          </g>
          <g
             transform="translate(153.693,134.765)"
             style="fill:#808080;fill-opacity:1;stroke-width:0"
             id="g3152">
            <path
               style="fill:#808080;fill-opacity:1;stroke:#808080;stroke-width:0"
               d="M 1.796875,-0.828125 H 0.96875 V 0 h 0.828125 z m 0,0"
               id="id-41f057f7-e456-46e2-9271-4e67cd96de8c" />
          </g>
          <g
             transform="translate(156.461,134.765)"
             style="fill:#808080;fill-opacity:1;stroke-width:0"
             id="g3155">
            <path
               style="fill:#808080;fill-opacity:1;stroke:#808080;stroke-width:0"
               d="m 4.5625,-3.25 c 0,-0.78125 -0.046875,-1.71875 -0.46875,-2.515625 -0.40625,-0.75 -1.09375,-1 -1.59375,-1 -0.59375,0 -1.296875,0.28125 -1.703125,1.15625 -0.328125,0.734375 -0.375,1.5625 -0.375,2.359375 0,0.78125 0.03125,1.515625 0.328125,2.25 0.40625,0.953125 1.15625,1.21875 1.734375,1.21875 0.71875,0 1.359375,-0.40625 1.671875,-1.09375 C 4.453125,-1.53125 4.5625,-2.1875 4.5625,-3.25 Z M 2.5,-0.390625 c -0.53125,0 -0.9375,-0.375 -1.140625,-1.09375 -0.15625,-0.5625 -0.15625,-1.109375 -0.15625,-1.890625 0,-0.625 0,-1.21875 0.15625,-1.765625 0.0625,-0.1875 0.3125,-1.015625 1.125,-1.015625 0.78125,0 1.03125,0.765625 1.109375,0.9375 0.1875,0.5625 0.1875,1.234375 0.1875,1.84375 0,0.65625 0,1.296875 -0.1875,1.921875 -0.25,0.90625 -0.78125,1.0625 -1.09375,1.0625 z m 0,0"
               id="id-ab6f1941-4123-46b8-b03b-2aff585c3f20" />
          </g>
        </g>
      </g>
    </g>
    <g
       id="g326308"
       style="stroke-width:0.3;stroke-miterlimit:4;stroke-dasharray:none">
      <path
         style="fill:none;stroke:#808080;stroke-width:0.3;stroke-linecap:butt;stroke-linejoin:miter;stroke-miterlimit:4;stroke-dasharray:none;stroke-opacity:1"
         d="m 37.98109,170.33008 v 0.89261"
         id="path319890"
         inkscape:connector-curvature="0"
         sodipodi:nodetypes="cc" />
      <path
         sodipodi:nodetypes="cc"
         inkscape:connector-curvature="0"
         id="path319892"
         d="m 66.006008,170.33008 v 0.89261"
         style="fill:none;stroke:#808080;stroke-width:0.3;stroke-linecap:butt;stroke-linejoin:miter;stroke-miterlimit:4;stroke-dasharray:none;stroke-opacity:1" />
      <path
         style="fill:none;stroke:#808080;stroke-width:0.3;stroke-linecap:butt;stroke-linejoin:miter;stroke-miterlimit:4;stroke-dasharray:none;stroke-opacity:1"
         d="m 94.030919,170.33008 v 0.89261"
         id="path319894"
         inkscape:connector-curvature="0"
         sodipodi:nodetypes="cc" />
      <path
         sodipodi:nodetypes="cc"
         inkscape:connector-curvature="0"
         id="path326281"
         d="m 43.586076,170.939 v -0.60892"
         style="fill:none;stroke:#808080;stroke-width:0.3;stroke-linecap:butt;stroke-linejoin:miter;stroke-miterlimit:4;stroke-dasharray:none;stroke-opacity:1" />
      <path
         style="fill:none;stroke:#808080;stroke-width:0.3;stroke-linecap:butt;stroke-linejoin:miter;stroke-miterlimit:4;stroke-dasharray:none;stroke-opacity:1"
         d="m 49.191058,170.939 v -0.60892"
         id="path326283"
         inkscape:connector-curvature="0"
         sodipodi:nodetypes="cc" />
      <path
         sodipodi:nodetypes="cc"
         inkscape:connector-curvature="0"
         id="path326285"
         d="m 54.79604,170.939 v -0.60892"
         style="fill:none;stroke:#808080;stroke-width:0.3;stroke-linecap:butt;stroke-linejoin:miter;stroke-miterlimit:4;stroke-dasharray:none;stroke-opacity:1" />
      <path
         style="fill:none;stroke:#808080;stroke-width:0.3;stroke-linecap:butt;stroke-linejoin:miter;stroke-miterlimit:4;stroke-dasharray:none;stroke-opacity:1"
         d="m 60.401022,170.939 v -0.60892"
         id="path326287"
         inkscape:connector-curvature="0"
         sodipodi:nodetypes="cc" />
      <path
         sodipodi:nodetypes="cc"
         inkscape:connector-curvature="0"
         id="path326289"
         d="m 71.610991,170.939 v -0.60892"
         style="fill:none;stroke:#808080;stroke-width:0.3;stroke-linecap:butt;stroke-linejoin:miter;stroke-miterlimit:4;stroke-dasharray:none;stroke-opacity:1" />
      <path
         style="fill:none;stroke:#808080;stroke-width:0.3;stroke-linecap:butt;stroke-linejoin:miter;stroke-miterlimit:4;stroke-dasharray:none;stroke-opacity:1"
         d="m 77.215973,170.939 v -0.60892"
         id="path326291"
         inkscape:connector-curvature="0"
         sodipodi:nodetypes="cc" />
      <path
         sodipodi:nodetypes="cc"
         inkscape:connector-curvature="0"
         id="path326293"
         d="m 82.820955,170.939 v -0.60892"
         style="fill:none;stroke:#808080;stroke-width:0.3;stroke-linecap:butt;stroke-linejoin:miter;stroke-miterlimit:4;stroke-dasharray:none;stroke-opacity:1" />
      <path
         style="fill:none;stroke:#808080;stroke-width:0.3;stroke-linecap:butt;stroke-linejoin:miter;stroke-miterlimit:4;stroke-dasharray:none;stroke-opacity:1"
         d="m 88.42593,170.939 v -0.60892"
         id="path326295"
         inkscape:connector-curvature="0"
         sodipodi:nodetypes="cc" />
    </g>
    <path
       style="fill:none;stroke:#808080;stroke-width:0.3;stroke-linecap:butt;stroke-linejoin:miter;stroke-miterlimit:4;stroke-dasharray:none;stroke-opacity:1"
       d="M 38.023452,114.28023 H 37.130835"
       id="path319901"
       inkscape:connector-curvature="0"
       sodipodi:nodetypes="cc" />
    <path
       sodipodi:nodetypes="cc"
       inkscape:connector-curvature="0"
       id="path319903"
       d="M 38.023452,142.30514 H 37.130835"
       style="fill:none;stroke:#808080;stroke-width:0.3;stroke-linecap:butt;stroke-linejoin:miter;stroke-miterlimit:4;stroke-dasharray:none;stroke-opacity:1" />
    <path
       style="fill:none;stroke:#808080;stroke-width:0.3;stroke-linecap:butt;stroke-linejoin:miter;stroke-miterlimit:4;stroke-dasharray:none;stroke-opacity:1"
       d="M 37.981732,170.33006 H 37.089115"
       id="path319905"
       inkscape:connector-curvature="0"
       sodipodi:nodetypes="cc" />
    <path
       sodipodi:nodetypes="cc"
       inkscape:connector-curvature="0"
       id="path326197"
       d="M 38.023452,119.88521 H 37.414531"
       style="fill:none;stroke:#808080;stroke-width:0.3;stroke-linecap:butt;stroke-linejoin:miter;stroke-miterlimit:4;stroke-dasharray:none;stroke-opacity:1" />
    <path
       style="fill:none;stroke:#808080;stroke-width:0.3;stroke-linecap:butt;stroke-linejoin:miter;stroke-miterlimit:4;stroke-dasharray:none;stroke-opacity:1"
       d="M 38.023452,125.49018 H 37.414531"
       id="path326215"
       inkscape:connector-curvature="0"
       sodipodi:nodetypes="cc" />
    <path
       sodipodi:nodetypes="cc"
       inkscape:connector-curvature="0"
       id="path326217"
       d="M 38.023452,131.09518 H 37.414531"
       style="fill:none;stroke:#808080;stroke-width:0.3;stroke-linecap:butt;stroke-linejoin:miter;stroke-miterlimit:4;stroke-dasharray:none;stroke-opacity:1" />
    <path
       style="fill:none;stroke:#808080;stroke-width:0.3;stroke-linecap:butt;stroke-linejoin:miter;stroke-miterlimit:4;stroke-dasharray:none;stroke-opacity:1"
       d="M 38.023452,136.70016 H 37.414531"
       id="path326219"
       inkscape:connector-curvature="0"
       sodipodi:nodetypes="cc" />
    <path
       style="fill:none;stroke:#808080;stroke-width:0.3;stroke-linecap:butt;stroke-linejoin:miter;stroke-miterlimit:4;stroke-dasharray:none;stroke-opacity:1"
       d="M 38.023452,147.91013 H 37.414531"
       id="path326223"
       inkscape:connector-curvature="0"
       sodipodi:nodetypes="cc" />
    <path
       sodipodi:nodetypes="cc"
       inkscape:connector-curvature="0"
       id="path326225"
       d="M 38.023452,153.51511 H 37.414531"
       style="fill:none;stroke:#808080;stroke-width:0.3;stroke-linecap:butt;stroke-linejoin:miter;stroke-miterlimit:4;stroke-dasharray:none;stroke-opacity:1" />
    <path
       style="fill:none;stroke:#808080;stroke-width:0.3;stroke-linecap:butt;stroke-linejoin:miter;stroke-miterlimit:4;stroke-dasharray:none;stroke-opacity:1"
       d="M 38.023452,159.12009 H 37.414531"
       id="path326227"
       inkscape:connector-curvature="0"
       sodipodi:nodetypes="cc" />
    <path
       sodipodi:nodetypes="cc"
       inkscape:connector-curvature="0"
       id="path326229"
       d="M 38.023452,164.72508 H 37.414531"
       style="fill:none;stroke:#808080;stroke-width:0.3;stroke-linecap:butt;stroke-linejoin:miter;stroke-miterlimit:4;stroke-dasharray:none;stroke-opacity:1" />
    <rect
       style="fill:#f47a60;fill-opacity:0;stroke:#ffffff;stroke-width:0.178777;stroke-miterlimit:4;stroke-dasharray:none;stroke-dashoffset:0;stroke-opacity:1"
       id="rect319177"
       width="65.665092"
       height="63.59201"
       x="29.911501"
       y="113.26047" />
    <flowRoot
       style="font-style:normal;font-weight:normal;font-size:6.37462px;line-height:1.25;font-family:sans-serif;letter-spacing:0px;word-spacing:0px;fill:#000000;fill-opacity:1;stroke:none"
       id="flowRoot320141"
       xml:space="preserve"><flowRegion
         id="flowRegion320143"><rect
           y="645.13086"
           x="117.74162"
           height="21.050776"
           width="261.88593"
           id="rect320145" /></flowRegion><flowPara
         id="flowPara320147" /></flowRoot>    <flowRoot
       style="font-style:normal;font-weight:normal;font-size:6.37462px;line-height:1.25;font-family:sans-serif;letter-spacing:0px;word-spacing:0px;fill:#000000;fill-opacity:1;stroke:none"
       id="flowRoot320149"
       xml:space="preserve"><flowRegion
         id="flowRegion320151"><rect
           y="414.64273"
           x="105.61067"
           height="237.62401"
           width="31.75456"
           id="rect320153" /></flowRegion><flowPara
         id="flowPara320155" /></flowRoot>    <path
       sodipodi:nodetypes="cc"
       style="fill:none;stroke:#a0d9d3;stroke-width:0.7;stroke-linecap:butt;stroke-linejoin:miter;stroke-miterlimit:4;stroke-dasharray:none;stroke-opacity:1"
       d="M 93.92942,142.18638 38.023452,136.70016"
       id="path321103"
       inkscape:connector-curvature="0" />
    <path
       sodipodi:nodetypes="cc"
       style="fill:none;stroke:#424b4f;stroke-width:0.7;stroke-linecap:butt;stroke-linejoin:miter;stroke-miterlimit:4;stroke-dasharray:none;stroke-opacity:1"
       d="m 38.124954,142.25217 55.905968,22.28704"
       id="path321420"
       inkscape:connector-curvature="0" />
    <path
       inkscape:connector-curvature="0"
       id="path321422"
       d="M 38.124954,170.14126 94.030922,114.40373"
       style="fill:#d18362;fill-opacity:1;stroke:#d18362;stroke-width:0.7;stroke-linecap:butt;stroke-linejoin:miter;stroke-miterlimit:4;stroke-dasharray:none;stroke-opacity:1"
       sodipodi:nodetypes="cc" />
    <g
       transform="matrix(0.24606538,-0.24606538,0.24606538,0.24606538,2.5018509,137.6213)"
       ns1:version="0.11.0"
       ns1:texconverter="pdflatex"
       ns1:pdfconverter="pdf2svg"
       ns1:text="$\\phi_{0}\\!=\\!0.0, \\phi_{1}\\!=\\!1.0$"
       ns1:preamble="C:\\Users\\drsjd\\AppData\\Roaming\\inkscape\\extensions\\textext\\default_packages_simon.tex"
       ns1:scale="0.986421358601"
       ns1:alignment="middle center"
       inkscapeversion="0.92.3"
       ns1:jacobian_sqrt="0.347989"
       style="fill:#a95532;fill-opacity:1"
       id="g325431">
      <g
         id="g325429"
         style="fill:#a95532;fill-opacity:1">
        <g
           style="fill:#a95532;fill-opacity:1"
           id="g325379">
          <path
             inkscape:connector-curvature="0"
             style="fill:#a95532;fill-opacity:1;stroke:none;stroke-width:0"
             d="m 4.359375,-6.671875 c 0,-0.03125 0.03125,-0.140625 0.03125,-0.140625 0,-0.015625 0,-0.109375 -0.125,-0.109375 -0.09375,0 -0.109375,0.03125 -0.15625,0.203125 L 3.53125,-4.421875 c -1.578125,0.0625 -3.046875,1.375 -3.046875,2.734375 0,0.953125 0.703125,1.734375 1.921875,1.8125 C 2.328125,0.421875 2.25,0.75 2.171875,1.0625 c -0.125,0.46875 -0.21875,0.84375 -0.21875,0.875 0,0.09375 0.078125,0.109375 0.125,0.109375 C 2.125,2.046875 2.140625,2.03125 2.171875,2 2.1875,1.984375 2.25,1.75 2.28125,1.609375 L 2.65625,0.125 c 1.609375,-0.0625 3.0625,-1.40625 3.0625,-2.734375 0,-0.796875 -0.53125,-1.703125 -1.921875,-1.8125 z m -1.90625,6.578125 c -0.59375,-0.03125 -1.3125,-0.390625 -1.3125,-1.375 0,-1.203125 0.859375,-2.59375 2.34375,-2.734375 z m 1.28125,-4.109375 c 0.765625,0.046875 1.328125,0.5 1.328125,1.375 0,1.1875 -0.859375,2.609375 -2.34375,2.734375 z m 0,0"
             transform="translate(148.712,134.765)"
             id="path325377" />
        </g>
        <g
           style="fill:#a95532;fill-opacity:1"
           id="g325383">
          <path
             inkscape:connector-curvature="0"
             style="fill:#a95532;fill-opacity:1;stroke:none;stroke-width:0"
             d="M 3.59375,-2.21875 C 3.59375,-2.984375 3.5,-3.546875 3.1875,-4.03125 2.96875,-4.34375 2.53125,-4.625 1.984375,-4.625 c -1.625,0 -1.625,1.90625 -1.625,2.40625 0,0.5 0,2.359375 1.625,2.359375 1.609375,0 1.609375,-1.859375 1.609375,-2.359375 z M 1.984375,-0.0625 c -0.328125,0 -0.75,-0.1875 -0.890625,-0.75 C 1,-1.21875 1,-1.796875 1,-2.3125 1,-2.828125 1,-3.359375 1.09375,-3.734375 1.25,-4.28125 1.6875,-4.4375 1.984375,-4.4375 c 0.375,0 0.734375,0.234375 0.859375,0.640625 0.109375,0.375 0.125,0.875 0.125,1.484375 0,0.515625 0,1.03125 -0.09375,1.46875 -0.140625,0.640625 -0.609375,0.78125 -0.890625,0.78125 z m 0,0"
             transform="translate(154.648,136.259)"
             id="path325381" />
        </g>
        <g
           style="fill:#a95532;fill-opacity:1"
           id="g325387">
          <path
             inkscape:connector-curvature="0"
             style="fill:#a95532;fill-opacity:1;stroke:none;stroke-width:0"
             d="m 6.84375,-3.265625 c 0.15625,0 0.34375,0 0.34375,-0.1875 C 7.1875,-3.65625 7,-3.65625 6.859375,-3.65625 h -5.96875 c -0.140625,0 -0.328125,0 -0.328125,0.203125 0,0.1875 0.1875,0.1875 0.328125,0.1875 z m 0.015625,1.9375 c 0.140625,0 0.328125,0 0.328125,-0.203125 0,-0.1875 -0.1875,-0.1875 -0.34375,-0.1875 H 0.890625 c -0.140625,0 -0.328125,0 -0.328125,0.1875 0,0.203125 0.1875,0.203125 0.328125,0.203125 z m 0,0"
             transform="translate(160.225,134.765)"
             id="path325385" />
        </g>
        <g
           style="fill:#a95532;fill-opacity:1"
           id="g325391">
          <path
             inkscape:connector-curvature="0"
             style="fill:#a95532;fill-opacity:1;stroke:none;stroke-width:0"
             d="m 4.578125,-3.1875 c 0,-0.796875 -0.046875,-1.59375 -0.390625,-2.328125 -0.453125,-0.96875 -1.28125,-1.125 -1.6875,-1.125 -0.609375,0 -1.328125,0.265625 -1.75,1.1875 -0.3125,0.6875 -0.359375,1.46875 -0.359375,2.265625 0,0.75 0.03125,1.640625 0.453125,2.40625 0.421875,0.796875 1.15625,1 1.640625,1 0.53125,0 1.296875,-0.203125 1.734375,-1.15625 0.3125,-0.6875 0.359375,-1.46875 0.359375,-2.25 z M 2.484375,0 C 2.09375,0 1.5,-0.25 1.328125,-1.203125 1.21875,-1.796875 1.21875,-2.71875 1.21875,-3.3125 c 0,-0.640625 0,-1.296875 0.078125,-1.828125 0.1875,-1.1875 0.9375,-1.28125 1.1875,-1.28125 0.328125,0 0.984375,0.1875 1.171875,1.171875 0.109375,0.5625 0.109375,1.3125 0.109375,1.9375 0,0.75 0,1.421875 -0.109375,2.0625 C 3.5,-0.296875 2.9375,0 2.484375,0 Z m 0,0"
             transform="translate(169.07976,134.765)"
             id="path325389" />
        </g>
        <g
           style="fill:#a95532;fill-opacity:1"
           id="g325395">
          <path
             inkscape:connector-curvature="0"
             style="fill:#a95532;fill-opacity:1;stroke:none;stroke-width:0"
             d="m 1.90625,-0.53125 c 0,-0.28125 -0.234375,-0.53125 -0.515625,-0.53125 -0.296875,0 -0.53125,0.25 -0.53125,0.53125 C 0.859375,-0.234375 1.09375,0 1.390625,0 1.671875,0 1.90625,-0.234375 1.90625,-0.53125 Z m 0,0"
             transform="translate(174.062,134.765)"
             id="path325393" />
        </g>
        <g
           style="fill:#a95532;fill-opacity:1"
           id="g325399">
          <path
             inkscape:connector-curvature="0"
             style="fill:#a95532;fill-opacity:1;stroke:none;stroke-width:0"
             d="m 4.578125,-3.1875 c 0,-0.796875 -0.046875,-1.59375 -0.390625,-2.328125 -0.453125,-0.96875 -1.28125,-1.125 -1.6875,-1.125 -0.609375,0 -1.328125,0.265625 -1.75,1.1875 -0.3125,0.6875 -0.359375,1.46875 -0.359375,2.265625 0,0.75 0.03125,1.640625 0.453125,2.40625 0.421875,0.796875 1.15625,1 1.640625,1 0.53125,0 1.296875,-0.203125 1.734375,-1.15625 0.3125,-0.6875 0.359375,-1.46875 0.359375,-2.25 z M 2.484375,0 C 2.09375,0 1.5,-0.25 1.328125,-1.203125 1.21875,-1.796875 1.21875,-2.71875 1.21875,-3.3125 c 0,-0.640625 0,-1.296875 0.078125,-1.828125 0.1875,-1.1875 0.9375,-1.28125 1.1875,-1.28125 0.328125,0 0.984375,0.1875 1.171875,1.171875 0.109375,0.5625 0.109375,1.3125 0.109375,1.9375 0,0.75 0,1.421875 -0.109375,2.0625 C 3.5,-0.296875 2.9375,0 2.484375,0 Z m 0,0"
             transform="translate(176.829,134.765)"
             id="path325397" />
        </g>
        <g
           style="fill:#a95532;fill-opacity:1"
           id="g325403">
          <path
             inkscape:connector-curvature="0"
             style="fill:#a95532;fill-opacity:1;stroke:none;stroke-width:0"
             d="m 2.03125,-0.015625 c 0,-0.65625 -0.25,-1.046875 -0.640625,-1.046875 -0.328125,0 -0.53125,0.25 -0.53125,0.53125 C 0.859375,-0.265625 1.0625,0 1.390625,0 1.5,0 1.640625,-0.046875 1.734375,-0.125 1.765625,-0.15625 1.78125,-0.15625 1.78125,-0.15625 c 0.015625,0 0.015625,0 0.015625,0.140625 0,0.75 -0.34375,1.34375 -0.671875,1.671875 -0.109375,0.109375 -0.109375,0.125 -0.109375,0.15625 0,0.078125 0.046875,0.109375 0.09375,0.109375 0.109375,0 0.921875,-0.765625 0.921875,-1.9375 z m 0,0"
             transform="translate(181.81,134.765)"
             id="path325401" />
        </g>
        <g
           style="fill:#a95532;fill-opacity:1"
           id="g325407">
          <path
             inkscape:connector-curvature="0"
             style="fill:#a95532;fill-opacity:1;stroke:none;stroke-width:0"
             d="m 4.359375,-6.671875 c 0,-0.03125 0.03125,-0.140625 0.03125,-0.140625 0,-0.015625 0,-0.109375 -0.125,-0.109375 -0.09375,0 -0.109375,0.03125 -0.15625,0.203125 L 3.53125,-4.421875 c -1.578125,0.0625 -3.046875,1.375 -3.046875,2.734375 0,0.953125 0.703125,1.734375 1.921875,1.8125 C 2.328125,0.421875 2.25,0.75 2.171875,1.0625 c -0.125,0.46875 -0.21875,0.84375 -0.21875,0.875 0,0.09375 0.078125,0.109375 0.125,0.109375 C 2.125,2.046875 2.140625,2.03125 2.171875,2 2.1875,1.984375 2.25,1.75 2.28125,1.609375 L 2.65625,0.125 c 1.609375,-0.0625 3.0625,-1.40625 3.0625,-2.734375 0,-0.796875 -0.53125,-1.703125 -1.921875,-1.8125 z m -1.90625,6.578125 c -0.59375,-0.03125 -1.3125,-0.390625 -1.3125,-1.375 0,-1.203125 0.859375,-2.59375 2.34375,-2.734375 z m 1.28125,-4.109375 c 0.765625,0.046875 1.328125,0.5 1.328125,1.375 0,1.1875 -0.859375,2.609375 -2.34375,2.734375 z m 0,0"
             transform="translate(186.24136,134.765)"
             id="path325405" />
        </g>
        <g
           style="fill:#a95532;fill-opacity:1"
           id="g325411">
          <path
             inkscape:connector-curvature="0"
             style="fill:#a95532;fill-opacity:1;stroke:none;stroke-width:0"
             d="m 2.328125,-4.4375 c 0,-0.1875 0,-0.1875 -0.203125,-0.1875 -0.453125,0.4375 -1.078125,0.4375 -1.359375,0.4375 v 0.25 c 0.15625,0 0.625,0 1,-0.1875 v 3.546875 c 0,0.234375 0,0.328125 -0.6875,0.328125 H 0.8125 V 0 c 0.125,0 0.984375,-0.03125 1.234375,-0.03125 0.21875,0 1.09375,0.03125 1.25,0.03125 V -0.25 H 3.03125 c -0.703125,0 -0.703125,-0.09375 -0.703125,-0.328125 z m 0,0"
             transform="translate(192.174,136.259)"
             id="path325409" />
        </g>
        <g
           style="fill:#a95532;fill-opacity:1"
           id="g325415">
          <path
             inkscape:connector-curvature="0"
             style="fill:#a95532;fill-opacity:1;stroke:none;stroke-width:0"
             d="m 6.84375,-3.265625 c 0.15625,0 0.34375,0 0.34375,-0.1875 C 7.1875,-3.65625 7,-3.65625 6.859375,-3.65625 h -5.96875 c -0.140625,0 -0.328125,0 -0.328125,0.203125 0,0.1875 0.1875,0.1875 0.328125,0.1875 z m 0.015625,1.9375 c 0.140625,0 0.328125,0 0.328125,-0.203125 0,-0.1875 -0.1875,-0.1875 -0.34375,-0.1875 H 0.890625 c -0.140625,0 -0.328125,0 -0.328125,0.1875 0,0.203125 0.1875,0.203125 0.328125,0.203125 z m 0,0"
             transform="translate(197.751,134.765)"
             id="path325413" />
        </g>
        <g
           style="fill:#a95532;fill-opacity:1"
           id="g325419">
          <path
             inkscape:connector-curvature="0"
             style="fill:#a95532;fill-opacity:1;stroke:none;stroke-width:0"
             d="m 2.9375,-6.375 c 0,-0.25 0,-0.265625 -0.234375,-0.265625 C 2.078125,-6 1.203125,-6 0.890625,-6 v 0.3125 c 0.203125,0 0.78125,0 1.296875,-0.265625 v 5.171875 c 0,0.359375 -0.03125,0.46875 -0.921875,0.46875 h -0.3125 V 0 c 0.34375,-0.03125 1.203125,-0.03125 1.609375,-0.03125 0.390625,0 1.265625,0 1.609375,0.03125 v -0.3125 h -0.3125 c -0.90625,0 -0.921875,-0.109375 -0.921875,-0.46875 z m 0,0"
             transform="translate(206.60576,134.765)"
             id="path325417" />
        </g>
        <g
           style="fill:#a95532;fill-opacity:1"
           id="g325423">
          <path
             inkscape:connector-curvature="0"
             style="fill:#a95532;fill-opacity:1;stroke:none;stroke-width:0"
             d="m 1.90625,-0.53125 c 0,-0.28125 -0.234375,-0.53125 -0.515625,-0.53125 -0.296875,0 -0.53125,0.25 -0.53125,0.53125 C 0.859375,-0.234375 1.09375,0 1.390625,0 1.671875,0 1.90625,-0.234375 1.90625,-0.53125 Z m 0,0"
             transform="translate(211.588,134.765)"
             id="path325421" />
        </g>
        <g
           style="fill:#a95532;fill-opacity:1"
           id="g325427">
          <path
             inkscape:connector-curvature="0"
             style="fill:#a95532;fill-opacity:1;stroke:none;stroke-width:0"
             d="m 4.578125,-3.1875 c 0,-0.796875 -0.046875,-1.59375 -0.390625,-2.328125 -0.453125,-0.96875 -1.28125,-1.125 -1.6875,-1.125 -0.609375,0 -1.328125,0.265625 -1.75,1.1875 -0.3125,0.6875 -0.359375,1.46875 -0.359375,2.265625 0,0.75 0.03125,1.640625 0.453125,2.40625 0.421875,0.796875 1.15625,1 1.640625,1 0.53125,0 1.296875,-0.203125 1.734375,-1.15625 0.3125,-0.6875 0.359375,-1.46875 0.359375,-2.25 z M 2.484375,0 C 2.09375,0 1.5,-0.25 1.328125,-1.203125 1.21875,-1.796875 1.21875,-2.71875 1.21875,-3.3125 c 0,-0.640625 0,-1.296875 0.078125,-1.828125 0.1875,-1.1875 0.9375,-1.28125 1.1875,-1.28125 0.328125,0 0.984375,0.1875 1.171875,1.171875 0.109375,0.5625 0.109375,1.3125 0.109375,1.9375 0,0.75 0,1.421875 -0.109375,2.0625 C 3.5,-0.296875 2.9375,0 2.484375,0 Z m 0,0"
             transform="translate(214.355,134.765)"
             id="path325425" />
        </g>
      </g>
    </g>
    <g
       transform="matrix(0.323975,0.127028,-0.127028,0.323975,32.461622,88.45174)"
       ns1:version="0.11.0"
       ns1:texconverter="pdflatex"
       ns1:pdfconverter="pdf2svg"
       ns1:text="$\\phi_{0}\\!=\\!1.0, \\phi_{1}\\!=\\!-0.4$"
       ns1:preamble="C:\\Users\\drsjd\\AppData\\Roaming\\inkscape\\extensions\\textext\\default_packages_simon.tex"
       ns1:scale="0.986421338255"
       ns1:alignment="middle center"
       inkscapeversion="0.92.3"
       ns1:jacobian_sqrt="0.347988381141"
       style="fill:#424b4f;fill-opacity:1"
       id="g326598">
      <g
         id="g326596"
         style="fill:#424b4f;fill-opacity:1">
        <g
           style="fill:#424b4f;fill-opacity:1"
           id="g326542">
          <path
             style="fill:#424b4f;fill-opacity:1;stroke:none;stroke-width:0"
             d="m 4.359375,-6.671875 c 0,-0.03125 0.03125,-0.140625 0.03125,-0.140625 0,-0.015625 0,-0.109375 -0.125,-0.109375 -0.09375,0 -0.109375,0.03125 -0.15625,0.203125 L 3.53125,-4.421875 c -1.578125,0.0625 -3.046875,1.375 -3.046875,2.734375 0,0.953125 0.703125,1.734375 1.921875,1.8125 C 2.328125,0.421875 2.25,0.75 2.171875,1.0625 c -0.125,0.46875 -0.21875,0.84375 -0.21875,0.875 0,0.09375 0.078125,0.109375 0.125,0.109375 C 2.125,2.046875 2.140625,2.03125 2.171875,2 2.1875,1.984375 2.25,1.75 2.28125,1.609375 L 2.65625,0.125 c 1.609375,-0.0625 3.0625,-1.40625 3.0625,-2.734375 0,-0.796875 -0.53125,-1.703125 -1.921875,-1.8125 z m -1.90625,6.578125 c -0.59375,-0.03125 -1.3125,-0.390625 -1.3125,-1.375 0,-1.203125 0.859375,-2.59375 2.34375,-2.734375 z m 1.28125,-4.109375 c 0.765625,0.046875 1.328125,0.5 1.328125,1.375 0,1.1875 -0.859375,2.609375 -2.34375,2.734375 z m 0,0"
             transform="translate(148.712,134.765)"
             id="path326540"
             inkscape:connector-curvature="0" />
        </g>
        <g
           style="fill:#424b4f;fill-opacity:1"
           id="g326546">
          <path
             style="fill:#424b4f;fill-opacity:1;stroke:none;stroke-width:0"
             d="M 3.59375,-2.21875 C 3.59375,-2.984375 3.5,-3.546875 3.1875,-4.03125 2.96875,-4.34375 2.53125,-4.625 1.984375,-4.625 c -1.625,0 -1.625,1.90625 -1.625,2.40625 0,0.5 0,2.359375 1.625,2.359375 1.609375,0 1.609375,-1.859375 1.609375,-2.359375 z M 1.984375,-0.0625 c -0.328125,0 -0.75,-0.1875 -0.890625,-0.75 C 1,-1.21875 1,-1.796875 1,-2.3125 1,-2.828125 1,-3.359375 1.09375,-3.734375 1.25,-4.28125 1.6875,-4.4375 1.984375,-4.4375 c 0.375,0 0.734375,0.234375 0.859375,0.640625 0.109375,0.375 0.125,0.875 0.125,1.484375 0,0.515625 0,1.03125 -0.09375,1.46875 -0.140625,0.640625 -0.609375,0.78125 -0.890625,0.78125 z m 0,0"
             transform="translate(154.648,136.259)"
             id="path326544"
             inkscape:connector-curvature="0" />
        </g>
        <g
           style="fill:#424b4f;fill-opacity:1"
           id="g326550">
          <path
             style="fill:#424b4f;fill-opacity:1;stroke:none;stroke-width:0"
             d="m 6.84375,-3.265625 c 0.15625,0 0.34375,0 0.34375,-0.1875 C 7.1875,-3.65625 7,-3.65625 6.859375,-3.65625 h -5.96875 c -0.140625,0 -0.328125,0 -0.328125,0.203125 0,0.1875 0.1875,0.1875 0.328125,0.1875 z m 0.015625,1.9375 c 0.140625,0 0.328125,0 0.328125,-0.203125 0,-0.1875 -0.1875,-0.1875 -0.34375,-0.1875 H 0.890625 c -0.140625,0 -0.328125,0 -0.328125,0.1875 0,0.203125 0.1875,0.203125 0.328125,0.203125 z m 0,0"
             transform="translate(160.225,134.765)"
             id="path326548"
             inkscape:connector-curvature="0" />
        </g>
        <g
           style="fill:#424b4f;fill-opacity:1"
           id="g326554">
          <path
             style="fill:#424b4f;fill-opacity:1;stroke:none;stroke-width:0"
             d="m 2.9375,-6.375 c 0,-0.25 0,-0.265625 -0.234375,-0.265625 C 2.078125,-6 1.203125,-6 0.890625,-6 v 0.3125 c 0.203125,0 0.78125,0 1.296875,-0.265625 v 5.171875 c 0,0.359375 -0.03125,0.46875 -0.921875,0.46875 h -0.3125 V 0 c 0.34375,-0.03125 1.203125,-0.03125 1.609375,-0.03125 0.390625,0 1.265625,0 1.609375,0.03125 v -0.3125 h -0.3125 c -0.90625,0 -0.921875,-0.109375 -0.921875,-0.46875 z m 0,0"
             transform="translate(169.07976,134.765)"
             id="path326552"
             inkscape:connector-curvature="0" />
        </g>
        <g
           style="fill:#424b4f;fill-opacity:1"
           id="g326558">
          <path
             style="fill:#424b4f;fill-opacity:1;stroke:none;stroke-width:0"
             d="m 1.90625,-0.53125 c 0,-0.28125 -0.234375,-0.53125 -0.515625,-0.53125 -0.296875,0 -0.53125,0.25 -0.53125,0.53125 C 0.859375,-0.234375 1.09375,0 1.390625,0 1.671875,0 1.90625,-0.234375 1.90625,-0.53125 Z m 0,0"
             transform="translate(174.062,134.765)"
             id="path326556"
             inkscape:connector-curvature="0" />
        </g>
        <g
           style="fill:#424b4f;fill-opacity:1"
           id="g326562">
          <path
             style="fill:#424b4f;fill-opacity:1;stroke:none;stroke-width:0"
             d="m 4.578125,-3.1875 c 0,-0.796875 -0.046875,-1.59375 -0.390625,-2.328125 -0.453125,-0.96875 -1.28125,-1.125 -1.6875,-1.125 -0.609375,0 -1.328125,0.265625 -1.75,1.1875 -0.3125,0.6875 -0.359375,1.46875 -0.359375,2.265625 0,0.75 0.03125,1.640625 0.453125,2.40625 0.421875,0.796875 1.15625,1 1.640625,1 0.53125,0 1.296875,-0.203125 1.734375,-1.15625 0.3125,-0.6875 0.359375,-1.46875 0.359375,-2.25 z M 2.484375,0 C 2.09375,0 1.5,-0.25 1.328125,-1.203125 1.21875,-1.796875 1.21875,-2.71875 1.21875,-3.3125 c 0,-0.640625 0,-1.296875 0.078125,-1.828125 0.1875,-1.1875 0.9375,-1.28125 1.1875,-1.28125 0.328125,0 0.984375,0.1875 1.171875,1.171875 0.109375,0.5625 0.109375,1.3125 0.109375,1.9375 0,0.75 0,1.421875 -0.109375,2.0625 C 3.5,-0.296875 2.9375,0 2.484375,0 Z m 0,0"
             transform="translate(176.829,134.765)"
             id="path326560"
             inkscape:connector-curvature="0" />
        </g>
        <g
           style="fill:#424b4f;fill-opacity:1"
           id="g326566">
          <path
             style="fill:#424b4f;fill-opacity:1;stroke:none;stroke-width:0"
             d="m 2.03125,-0.015625 c 0,-0.65625 -0.25,-1.046875 -0.640625,-1.046875 -0.328125,0 -0.53125,0.25 -0.53125,0.53125 C 0.859375,-0.265625 1.0625,0 1.390625,0 1.5,0 1.640625,-0.046875 1.734375,-0.125 1.765625,-0.15625 1.78125,-0.15625 1.78125,-0.15625 c 0.015625,0 0.015625,0 0.015625,0.140625 0,0.75 -0.34375,1.34375 -0.671875,1.671875 -0.109375,0.109375 -0.109375,0.125 -0.109375,0.15625 0,0.078125 0.046875,0.109375 0.09375,0.109375 0.109375,0 0.921875,-0.765625 0.921875,-1.9375 z m 0,0"
             transform="translate(181.81,134.765)"
             id="path326564"
             inkscape:connector-curvature="0" />
        </g>
        <g
           style="fill:#424b4f;fill-opacity:1"
           id="g326570">
          <path
             style="fill:#424b4f;fill-opacity:1;stroke:none;stroke-width:0"
             d="m 4.359375,-6.671875 c 0,-0.03125 0.03125,-0.140625 0.03125,-0.140625 0,-0.015625 0,-0.109375 -0.125,-0.109375 -0.09375,0 -0.109375,0.03125 -0.15625,0.203125 L 3.53125,-4.421875 c -1.578125,0.0625 -3.046875,1.375 -3.046875,2.734375 0,0.953125 0.703125,1.734375 1.921875,1.8125 C 2.328125,0.421875 2.25,0.75 2.171875,1.0625 c -0.125,0.46875 -0.21875,0.84375 -0.21875,0.875 0,0.09375 0.078125,0.109375 0.125,0.109375 C 2.125,2.046875 2.140625,2.03125 2.171875,2 2.1875,1.984375 2.25,1.75 2.28125,1.609375 L 2.65625,0.125 c 1.609375,-0.0625 3.0625,-1.40625 3.0625,-2.734375 0,-0.796875 -0.53125,-1.703125 -1.921875,-1.8125 z m -1.90625,6.578125 c -0.59375,-0.03125 -1.3125,-0.390625 -1.3125,-1.375 0,-1.203125 0.859375,-2.59375 2.34375,-2.734375 z m 1.28125,-4.109375 c 0.765625,0.046875 1.328125,0.5 1.328125,1.375 0,1.1875 -0.859375,2.609375 -2.34375,2.734375 z m 0,0"
             transform="translate(186.24136,134.765)"
             id="path326568"
             inkscape:connector-curvature="0" />
        </g>
        <g
           style="fill:#424b4f;fill-opacity:1"
           id="g326574">
          <path
             style="fill:#424b4f;fill-opacity:1;stroke:none;stroke-width:0"
             d="m 2.328125,-4.4375 c 0,-0.1875 0,-0.1875 -0.203125,-0.1875 -0.453125,0.4375 -1.078125,0.4375 -1.359375,0.4375 v 0.25 c 0.15625,0 0.625,0 1,-0.1875 v 3.546875 c 0,0.234375 0,0.328125 -0.6875,0.328125 H 0.8125 V 0 c 0.125,0 0.984375,-0.03125 1.234375,-0.03125 0.21875,0 1.09375,0.03125 1.25,0.03125 V -0.25 H 3.03125 c -0.703125,0 -0.703125,-0.09375 -0.703125,-0.328125 z m 0,0"
             transform="translate(192.174,136.259)"
             id="path326572"
             inkscape:connector-curvature="0" />
        </g>
        <g
           style="fill:#424b4f;fill-opacity:1"
           id="g326578">
          <path
             style="fill:#424b4f;fill-opacity:1;stroke:none;stroke-width:0"
             d="m 6.84375,-3.265625 c 0.15625,0 0.34375,0 0.34375,-0.1875 C 7.1875,-3.65625 7,-3.65625 6.859375,-3.65625 h -5.96875 c -0.140625,0 -0.328125,0 -0.328125,0.203125 0,0.1875 0.1875,0.1875 0.328125,0.1875 z m 0.015625,1.9375 c 0.140625,0 0.328125,0 0.328125,-0.203125 0,-0.1875 -0.1875,-0.1875 -0.34375,-0.1875 H 0.890625 c -0.140625,0 -0.328125,0 -0.328125,0.1875 0,0.203125 0.1875,0.203125 0.328125,0.203125 z m 0,0"
             transform="translate(197.751,134.765)"
             id="path326576"
             inkscape:connector-curvature="0" />
        </g>
        <g
           style="fill:#424b4f;fill-opacity:1"
           id="g326582">
          <path
             style="fill:#424b4f;fill-opacity:1;stroke:none;stroke-width:0"
             d="m 6.5625,-2.296875 c 0.171875,0 0.359375,0 0.359375,-0.203125 0,-0.1875 -0.1875,-0.1875 -0.359375,-0.1875 H 1.171875 c -0.171875,0 -0.34375,0 -0.34375,0.1875 0,0.203125 0.171875,0.203125 0.34375,0.203125 z m 0,0"
             transform="translate(206.606,134.765)"
             id="path326580"
             inkscape:connector-curvature="0" />
        </g>
        <g
           style="fill:#424b4f;fill-opacity:1"
           id="g326586">
          <path
             style="fill:#424b4f;fill-opacity:1;stroke:none;stroke-width:0"
             d="m 4.578125,-3.1875 c 0,-0.796875 -0.046875,-1.59375 -0.390625,-2.328125 -0.453125,-0.96875 -1.28125,-1.125 -1.6875,-1.125 -0.609375,0 -1.328125,0.265625 -1.75,1.1875 -0.3125,0.6875 -0.359375,1.46875 -0.359375,2.265625 0,0.75 0.03125,1.640625 0.453125,2.40625 0.421875,0.796875 1.15625,1 1.640625,1 0.53125,0 1.296875,-0.203125 1.734375,-1.15625 0.3125,-0.6875 0.359375,-1.46875 0.359375,-2.25 z M 2.484375,0 C 2.09375,0 1.5,-0.25 1.328125,-1.203125 1.21875,-1.796875 1.21875,-2.71875 1.21875,-3.3125 c 0,-0.640625 0,-1.296875 0.078125,-1.828125 0.1875,-1.1875 0.9375,-1.28125 1.1875,-1.28125 0.328125,0 0.984375,0.1875 1.171875,1.171875 0.109375,0.5625 0.109375,1.3125 0.109375,1.9375 0,0.75 0,1.421875 -0.109375,2.0625 C 3.5,-0.296875 2.9375,0 2.484375,0 Z m 0,0"
             transform="translate(214.355,134.765)"
             id="path326584"
             inkscape:connector-curvature="0" />
        </g>
        <g
           style="fill:#424b4f;fill-opacity:1"
           id="g326590">
          <path
             style="fill:#424b4f;fill-opacity:1;stroke:none;stroke-width:0"
             d="m 1.90625,-0.53125 c 0,-0.28125 -0.234375,-0.53125 -0.515625,-0.53125 -0.296875,0 -0.53125,0.25 -0.53125,0.53125 C 0.859375,-0.234375 1.09375,0 1.390625,0 1.671875,0 1.90625,-0.234375 1.90625,-0.53125 Z m 0,0"
             transform="translate(219.336,134.765)"
             id="path326588"
             inkscape:connector-curvature="0" />
        </g>
        <g
           style="fill:#424b4f;fill-opacity:1"
           id="g326594">
          <path
             style="fill:#424b4f;fill-opacity:1;stroke:none;stroke-width:0"
             d="m 2.9375,-1.640625 v 0.859375 c 0,0.359375 -0.03125,0.46875 -0.765625,0.46875 H 1.96875 V 0 C 2.375,-0.03125 2.890625,-0.03125 3.3125,-0.03125 c 0.421875,0 0.9375,0 1.359375,0.03125 v -0.3125 h -0.21875 c -0.734375,0 -0.75,-0.109375 -0.75,-0.46875 V -1.640625 H 4.6875 v -0.3125 H 3.703125 v -4.53125 c 0,-0.203125 0,-0.265625 -0.171875,-0.265625 -0.078125,0 -0.109375,0 -0.1875,0.125 l -3.0625,4.671875 v 0.3125 z m 0.046875,-0.3125 H 0.5625 l 2.421875,-3.71875 z m 0,0"
             transform="translate(222.104,134.765)"
             id="path326592"
             inkscape:connector-curvature="0" />
        </g>
      </g>
    </g>
    <g
       id="g327152"
       style="fill:#34837a;fill-opacity:1"
       ns1:jacobian_sqrt="0.347988911583"
       inkscapeversion="0.92.3"
       ns1:alignment="middle center"
       ns1:scale="0.986421343555"
       ns1:preamble="C:\\Users\\drsjd\\AppData\\Roaming\\inkscape\\extensions\\textext\\default_packages_simon.tex"
       ns1:text="$\\phi_{0}\\!=\\!1.2, \\phi_{1}\\!=\\!-0.1$"
       ns1:pdfconverter="pdf2svg"
       ns1:texconverter="pdflatex"
       ns1:version="0.11.0"
       transform="matrix(0.346309,0.034152,-0.034152,0.346309,-7.0852187,83.815946)">
      <g
         style="fill:#34837a;fill-opacity:1"
         id="g327150">
        <g
           id="g327096"
           style="fill:#34837a;fill-opacity:1">
          <path
             id="path327094"
             transform="translate(148.712,134.765)"
             d="m 4.359375,-6.671875 c 0,-0.03125 0.03125,-0.140625 0.03125,-0.140625 0,-0.015625 0,-0.109375 -0.125,-0.109375 -0.09375,0 -0.109375,0.03125 -0.15625,0.203125 L 3.53125,-4.421875 c -1.578125,0.0625 -3.046875,1.375 -3.046875,2.734375 0,0.953125 0.703125,1.734375 1.921875,1.8125 C 2.328125,0.421875 2.25,0.75 2.171875,1.0625 c -0.125,0.46875 -0.21875,0.84375 -0.21875,0.875 0,0.09375 0.078125,0.109375 0.125,0.109375 C 2.125,2.046875 2.140625,2.03125 2.171875,2 2.1875,1.984375 2.25,1.75 2.28125,1.609375 L 2.65625,0.125 c 1.609375,-0.0625 3.0625,-1.40625 3.0625,-2.734375 0,-0.796875 -0.53125,-1.703125 -1.921875,-1.8125 z m -1.90625,6.578125 c -0.59375,-0.03125 -1.3125,-0.390625 -1.3125,-1.375 0,-1.203125 0.859375,-2.59375 2.34375,-2.734375 z m 1.28125,-4.109375 c 0.765625,0.046875 1.328125,0.5 1.328125,1.375 0,1.1875 -0.859375,2.609375 -2.34375,2.734375 z m 0,0"
             style="fill:#34837a;fill-opacity:1;stroke:none;stroke-width:0"
             inkscape:connector-curvature="0" />
        </g>
        <g
           id="g327100"
           style="fill:#34837a;fill-opacity:1">
          <path
             id="path327098"
             transform="translate(154.648,136.259)"
             d="M 3.59375,-2.21875 C 3.59375,-2.984375 3.5,-3.546875 3.1875,-4.03125 2.96875,-4.34375 2.53125,-4.625 1.984375,-4.625 c -1.625,0 -1.625,1.90625 -1.625,2.40625 0,0.5 0,2.359375 1.625,2.359375 1.609375,0 1.609375,-1.859375 1.609375,-2.359375 z M 1.984375,-0.0625 c -0.328125,0 -0.75,-0.1875 -0.890625,-0.75 C 1,-1.21875 1,-1.796875 1,-2.3125 1,-2.828125 1,-3.359375 1.09375,-3.734375 1.25,-4.28125 1.6875,-4.4375 1.984375,-4.4375 c 0.375,0 0.734375,0.234375 0.859375,0.640625 0.109375,0.375 0.125,0.875 0.125,1.484375 0,0.515625 0,1.03125 -0.09375,1.46875 -0.140625,0.640625 -0.609375,0.78125 -0.890625,0.78125 z m 0,0"
             style="fill:#34837a;fill-opacity:1;stroke:none;stroke-width:0"
             inkscape:connector-curvature="0" />
        </g>
        <g
           id="g327104"
           style="fill:#34837a;fill-opacity:1">
          <path
             id="path327102"
             transform="translate(160.225,134.765)"
             d="m 6.84375,-3.265625 c 0.15625,0 0.34375,0 0.34375,-0.1875 C 7.1875,-3.65625 7,-3.65625 6.859375,-3.65625 h -5.96875 c -0.140625,0 -0.328125,0 -0.328125,0.203125 0,0.1875 0.1875,0.1875 0.328125,0.1875 z m 0.015625,1.9375 c 0.140625,0 0.328125,0 0.328125,-0.203125 0,-0.1875 -0.1875,-0.1875 -0.34375,-0.1875 H 0.890625 c -0.140625,0 -0.328125,0 -0.328125,0.1875 0,0.203125 0.1875,0.203125 0.328125,0.203125 z m 0,0"
             style="fill:#34837a;fill-opacity:1;stroke:none;stroke-width:0"
             inkscape:connector-curvature="0" />
        </g>
        <g
           id="g327108"
           style="fill:#34837a;fill-opacity:1">
          <path
             id="path327106"
             transform="translate(169.07976,134.765)"
             d="m 2.9375,-6.375 c 0,-0.25 0,-0.265625 -0.234375,-0.265625 C 2.078125,-6 1.203125,-6 0.890625,-6 v 0.3125 c 0.203125,0 0.78125,0 1.296875,-0.265625 v 5.171875 c 0,0.359375 -0.03125,0.46875 -0.921875,0.46875 h -0.3125 V 0 c 0.34375,-0.03125 1.203125,-0.03125 1.609375,-0.03125 0.390625,0 1.265625,0 1.609375,0.03125 v -0.3125 h -0.3125 c -0.90625,0 -0.921875,-0.109375 -0.921875,-0.46875 z m 0,0"
             style="fill:#34837a;fill-opacity:1;stroke:none;stroke-width:0"
             inkscape:connector-curvature="0" />
        </g>
        <g
           id="g327112"
           style="fill:#34837a;fill-opacity:1">
          <path
             id="path327110"
             transform="translate(174.062,134.765)"
             d="m 1.90625,-0.53125 c 0,-0.28125 -0.234375,-0.53125 -0.515625,-0.53125 -0.296875,0 -0.53125,0.25 -0.53125,0.53125 C 0.859375,-0.234375 1.09375,0 1.390625,0 1.671875,0 1.90625,-0.234375 1.90625,-0.53125 Z m 0,0"
             style="fill:#34837a;fill-opacity:1;stroke:none;stroke-width:0"
             inkscape:connector-curvature="0" />
        </g>
        <g
           id="g327116"
           style="fill:#34837a;fill-opacity:1">
          <path
             id="path327114"
             transform="translate(176.829,134.765)"
             d="m 1.265625,-0.765625 1.0625,-1.03125 c 1.546875,-1.375 2.140625,-1.90625 2.140625,-2.90625 0,-1.140625 -0.890625,-1.9375 -2.109375,-1.9375 -1.125,0 -1.859375,0.921875 -1.859375,1.8125 0,0.546875 0.5,0.546875 0.53125,0.546875 0.171875,0 0.515625,-0.109375 0.515625,-0.53125 0,-0.25 -0.1875,-0.515625 -0.53125,-0.515625 -0.078125,0 -0.09375,0 -0.125,0.015625 0.21875,-0.65625 0.765625,-1.015625 1.34375,-1.015625 0.90625,0 1.328125,0.8125 1.328125,1.625 C 3.5625,-3.90625 3.078125,-3.125 2.515625,-2.5 l -1.90625,2.125 C 0.5,-0.265625 0.5,-0.234375 0.5,0 H 4.203125 L 4.46875,-1.734375 H 4.234375 C 4.171875,-1.4375 4.109375,-1 4,-0.84375 3.9375,-0.765625 3.28125,-0.765625 3.0625,-0.765625 Z m 0,0"
             style="fill:#34837a;fill-opacity:1;stroke:none;stroke-width:0"
             inkscape:connector-curvature="0" />
        </g>
        <g
           id="g327120"
           style="fill:#34837a;fill-opacity:1">
          <path
             id="path327118"
             transform="translate(181.81,134.765)"
             d="m 2.03125,-0.015625 c 0,-0.65625 -0.25,-1.046875 -0.640625,-1.046875 -0.328125,0 -0.53125,0.25 -0.53125,0.53125 C 0.859375,-0.265625 1.0625,0 1.390625,0 1.5,0 1.640625,-0.046875 1.734375,-0.125 1.765625,-0.15625 1.78125,-0.15625 1.78125,-0.15625 c 0.015625,0 0.015625,0 0.015625,0.140625 0,0.75 -0.34375,1.34375 -0.671875,1.671875 -0.109375,0.109375 -0.109375,0.125 -0.109375,0.15625 0,0.078125 0.046875,0.109375 0.09375,0.109375 0.109375,0 0.921875,-0.765625 0.921875,-1.9375 z m 0,0"
             style="fill:#34837a;fill-opacity:1;stroke:none;stroke-width:0"
             inkscape:connector-curvature="0" />
        </g>
        <g
           id="g327124"
           style="fill:#34837a;fill-opacity:1">
          <path
             id="path327122"
             transform="translate(186.24136,134.765)"
             d="m 4.359375,-6.671875 c 0,-0.03125 0.03125,-0.140625 0.03125,-0.140625 0,-0.015625 0,-0.109375 -0.125,-0.109375 -0.09375,0 -0.109375,0.03125 -0.15625,0.203125 L 3.53125,-4.421875 c -1.578125,0.0625 -3.046875,1.375 -3.046875,2.734375 0,0.953125 0.703125,1.734375 1.921875,1.8125 C 2.328125,0.421875 2.25,0.75 2.171875,1.0625 c -0.125,0.46875 -0.21875,0.84375 -0.21875,0.875 0,0.09375 0.078125,0.109375 0.125,0.109375 C 2.125,2.046875 2.140625,2.03125 2.171875,2 2.1875,1.984375 2.25,1.75 2.28125,1.609375 L 2.65625,0.125 c 1.609375,-0.0625 3.0625,-1.40625 3.0625,-2.734375 0,-0.796875 -0.53125,-1.703125 -1.921875,-1.8125 z m -1.90625,6.578125 c -0.59375,-0.03125 -1.3125,-0.390625 -1.3125,-1.375 0,-1.203125 0.859375,-2.59375 2.34375,-2.734375 z m 1.28125,-4.109375 c 0.765625,0.046875 1.328125,0.5 1.328125,1.375 0,1.1875 -0.859375,2.609375 -2.34375,2.734375 z m 0,0"
             style="fill:#34837a;fill-opacity:1;stroke:none;stroke-width:0"
             inkscape:connector-curvature="0" />
        </g>
        <g
           id="g327128"
           style="fill:#34837a;fill-opacity:1">
          <path
             id="path327126"
             transform="translate(192.174,136.259)"
             d="m 2.328125,-4.4375 c 0,-0.1875 0,-0.1875 -0.203125,-0.1875 -0.453125,0.4375 -1.078125,0.4375 -1.359375,0.4375 v 0.25 c 0.15625,0 0.625,0 1,-0.1875 v 3.546875 c 0,0.234375 0,0.328125 -0.6875,0.328125 H 0.8125 V 0 c 0.125,0 0.984375,-0.03125 1.234375,-0.03125 0.21875,0 1.09375,0.03125 1.25,0.03125 V -0.25 H 3.03125 c -0.703125,0 -0.703125,-0.09375 -0.703125,-0.328125 z m 0,0"
             style="fill:#34837a;fill-opacity:1;stroke:none;stroke-width:0"
             inkscape:connector-curvature="0" />
        </g>
        <g
           id="g327132"
           style="fill:#34837a;fill-opacity:1">
          <path
             id="path327130"
             transform="translate(197.751,134.765)"
             d="m 6.84375,-3.265625 c 0.15625,0 0.34375,0 0.34375,-0.1875 C 7.1875,-3.65625 7,-3.65625 6.859375,-3.65625 h -5.96875 c -0.140625,0 -0.328125,0 -0.328125,0.203125 0,0.1875 0.1875,0.1875 0.328125,0.1875 z m 0.015625,1.9375 c 0.140625,0 0.328125,0 0.328125,-0.203125 0,-0.1875 -0.1875,-0.1875 -0.34375,-0.1875 H 0.890625 c -0.140625,0 -0.328125,0 -0.328125,0.1875 0,0.203125 0.1875,0.203125 0.328125,0.203125 z m 0,0"
             style="fill:#34837a;fill-opacity:1;stroke:none;stroke-width:0"
             inkscape:connector-curvature="0" />
        </g>
        <g
           id="g327136"
           style="fill:#34837a;fill-opacity:1">
          <path
             id="path327134"
             transform="translate(206.606,134.765)"
             d="m 6.5625,-2.296875 c 0.171875,0 0.359375,0 0.359375,-0.203125 0,-0.1875 -0.1875,-0.1875 -0.359375,-0.1875 H 1.171875 c -0.171875,0 -0.34375,0 -0.34375,0.1875 0,0.203125 0.171875,0.203125 0.34375,0.203125 z m 0,0"
             style="fill:#34837a;fill-opacity:1;stroke:none;stroke-width:0"
             inkscape:connector-curvature="0" />
        </g>
        <g
           id="g327140"
           style="fill:#34837a;fill-opacity:1">
          <path
             id="path327138"
             transform="translate(214.355,134.765)"
             d="m 4.578125,-3.1875 c 0,-0.796875 -0.046875,-1.59375 -0.390625,-2.328125 -0.453125,-0.96875 -1.28125,-1.125 -1.6875,-1.125 -0.609375,0 -1.328125,0.265625 -1.75,1.1875 -0.3125,0.6875 -0.359375,1.46875 -0.359375,2.265625 0,0.75 0.03125,1.640625 0.453125,2.40625 0.421875,0.796875 1.15625,1 1.640625,1 0.53125,0 1.296875,-0.203125 1.734375,-1.15625 0.3125,-0.6875 0.359375,-1.46875 0.359375,-2.25 z M 2.484375,0 C 2.09375,0 1.5,-0.25 1.328125,-1.203125 1.21875,-1.796875 1.21875,-2.71875 1.21875,-3.3125 c 0,-0.640625 0,-1.296875 0.078125,-1.828125 0.1875,-1.1875 0.9375,-1.28125 1.1875,-1.28125 0.328125,0 0.984375,0.1875 1.171875,1.171875 0.109375,0.5625 0.109375,1.3125 0.109375,1.9375 0,0.75 0,1.421875 -0.109375,2.0625 C 3.5,-0.296875 2.9375,0 2.484375,0 Z m 0,0"
             style="fill:#34837a;fill-opacity:1;stroke:none;stroke-width:0"
             inkscape:connector-curvature="0" />
        </g>
        <g
           id="g327144"
           style="fill:#34837a;fill-opacity:1">
          <path
             id="path327142"
             transform="translate(219.336,134.765)"
             d="m 1.90625,-0.53125 c 0,-0.28125 -0.234375,-0.53125 -0.515625,-0.53125 -0.296875,0 -0.53125,0.25 -0.53125,0.53125 C 0.859375,-0.234375 1.09375,0 1.390625,0 1.671875,0 1.90625,-0.234375 1.90625,-0.53125 Z m 0,0"
             style="fill:#34837a;fill-opacity:1;stroke:none;stroke-width:0"
             inkscape:connector-curvature="0" />
        </g>
        <g
           id="g327148"
           style="fill:#34837a;fill-opacity:1">
          <path
             id="path327146"
             transform="translate(222.104,134.765)"
             d="m 2.9375,-6.375 c 0,-0.25 0,-0.265625 -0.234375,-0.265625 C 2.078125,-6 1.203125,-6 0.890625,-6 v 0.3125 c 0.203125,0 0.78125,0 1.296875,-0.265625 v 5.171875 c 0,0.359375 -0.03125,0.46875 -0.921875,0.46875 h -0.3125 V 0 c 0.34375,-0.03125 1.203125,-0.03125 1.609375,-0.03125 0.390625,0 1.265625,0 1.609375,0.03125 v -0.3125 h -0.3125 c -0.90625,0 -0.921875,-0.109375 -0.921875,-0.46875 z m 0,0"
             style="fill:#34837a;fill-opacity:1;stroke:none;stroke-width:0"
             inkscape:connector-curvature="0" />
        </g>
      </g>
    </g>
    <g
       transform="matrix(0.39728133,0,0,0.39728133,0.49183382,123.00713)"
       ns1:version="0.11.0"
       ns1:texconverter="pdflatex"
       ns1:pdfconverter="pdf2svg"
       ns1:text="Input, $x$"
       ns1:preamble="C:\\Users\\drsjd\\AppData\\Roaming\\inkscape\\extensions\\textext\\default_packages_simon.tex"
       ns1:scale="1.26671923986"
       ns1:alignment="middle center"
       inkscapeversion="0.92.3"
       ns1:jacobian_sqrt="0.446872"
       style="fill:#000000;fill-opacity:1"
       id="g393388">
      <g
         id="g393386"
         style="fill:#000000;fill-opacity:1">
        <g
           style="fill:#000000;fill-opacity:1"
           id="g393380">
          <path
             inkscape:connector-curvature="0"
             style="fill:#000000;fill-opacity:1;stroke:none;stroke-width:0"
             d="m 1.4375,0 v -6.890625 h -0.75 V 0 Z m 0,0"
             transform="translate(148.712,134.765)"
             id="path393368" />
          <path
             inkscape:connector-curvature="0"
             style="fill:#000000;fill-opacity:1;stroke:none;stroke-width:0"
             d="m 4.5625,0 v -2.71875 c 0,-1.0625 -0.453125,-1.890625 -1.609375,-1.890625 -0.578125,0 -1.171875,0.21875 -1.53125,0.71875 V -4.5 H 0.6875 V 0 h 0.734375 v -2.546875 c 0.03125,-0.859375 0.5625,-1.40625 1.359375,-1.40625 0.78125,0 1.0625,0.46875 1.0625,1.265625 V 0 Z m 0,0"
             transform="translate(150.83403,134.765)"
             id="path393370" />
          <path
             inkscape:connector-curvature="0"
             style="fill:#000000;fill-opacity:1;stroke:none;stroke-width:0"
             d="m 4.8125,-2.25 c 0,-1.3125 -0.875,-2.25 -2.203125,-2.25 H 0.6875 v 6.90625 h 0.75 V 0 H 2.546875 C 4,0 4.8125,-0.90625 4.8125,-2.25 Z m -0.71875,0 c 0,0.890625 -0.5625,1.59375 -1.546875,1.59375 H 1.4375 v -3.1875 h 1.109375 c 0.96875,0 1.546875,0.640625 1.546875,1.59375 z m 0,0"
             transform="translate(156.02455,134.765)"
             id="path393372" />
          <path
             inkscape:connector-curvature="0"
             style="fill:#000000;fill-opacity:1;stroke:none;stroke-width:0"
             d="M 4.53125,0 V -4.5 H 3.765625 v 2.546875 c 0,0.84375 -0.421875,1.421875 -1.328125,1.421875 -0.796875,0 -1.078125,-0.5 -1.078125,-1.265625 V -4.5 h -0.71875 v 2.71875 c 0,1.0625 0.5,1.90625 1.625,1.90625 0.578125,0 1.171875,-0.328125 1.5,-0.71875 V 0 Z m 0,0"
             transform="translate(161.29476,134.765)"
             id="path393374" />
          <path
             inkscape:connector-curvature="0"
             style="fill:#000000;fill-opacity:1;stroke:none;stroke-width:0"
             d="M 3.203125,0 V -0.640625 H 2.421875 C 1.71875,-0.640625 1.59375,-0.8125 1.59375,-1.46875 v -2.4375 H 2.921875 V -4.5 H 1.59375 V -5.78125 H 1.28125 L 0.859375,-4.5 h -0.53125 v 0.59375 h 0.53125 v 2.4375 C 0.859375,-0.34375 1.3125,0 2.421875,0 Z m 0,0"
             transform="translate(166.51517,134.765)"
             id="path393376" />
          <path
             inkscape:connector-curvature="0"
             style="fill:#000000;fill-opacity:1;stroke:none;stroke-width:0"
             d="M 1.65625,-1.015625 H 0.75 v 0.6875 c 0.0625,0.125 0.078125,0.25 0.078125,0.375 0,0.359375 -0.1875,0.734375 -0.453125,0.90625 C 0.890625,0.9375 1.640625,0.171875 1.65625,-0.3125 Z m 0,0"
             transform="translate(169.95226,134.765)"
             id="path393378" />
        </g>
        <g
           style="fill:#000000;fill-opacity:1"
           id="g393384">
          <path
             inkscape:connector-curvature="0"
             style="fill:#000000;fill-opacity:1;stroke:none;stroke-width:0"
             d="M 3.328125,-3.015625 C 3.390625,-3.265625 3.625,-4.1875 4.3125,-4.1875 c 0.046875,0 0.296875,0 0.5,0.125 C 4.53125,-4 4.34375,-3.765625 4.34375,-3.515625 c 0,0.15625 0.109375,0.34375 0.375,0.34375 0.21875,0 0.53125,-0.171875 0.53125,-0.578125 0,-0.515625 -0.578125,-0.65625 -0.921875,-0.65625 -0.578125,0 -0.921875,0.53125 -1.046875,0.75 -0.25,-0.65625 -0.78125,-0.75 -1.078125,-0.75 -1.03125,0 -1.609375,1.28125 -1.609375,1.53125 0,0.109375 0.109375,0.109375 0.125,0.109375 0.078125,0 0.109375,-0.03125 0.125,-0.109375 0.34375,-1.0625 1,-1.3125 1.34375,-1.3125 0.1875,0 0.53125,0.09375 0.53125,0.671875 0,0.3125 -0.171875,0.96875 -0.53125,2.375 -0.15625,0.609375 -0.515625,1.03125 -0.953125,1.03125 -0.0625,0 -0.28125,0 -0.5,-0.125 0.25,-0.0625 0.46875,-0.265625 0.46875,-0.546875 0,-0.265625 -0.21875,-0.34375 -0.359375,-0.34375 -0.3125,0 -0.546875,0.25 -0.546875,0.578125 0,0.453125 0.484375,0.65625 0.921875,0.65625 0.671875,0 1.03125,-0.703125 1.046875,-0.75 0.125,0.359375 0.484375,0.75 1.078125,0.75 1.03125,0 1.59375,-1.28125 1.59375,-1.53125 0,-0.109375 -0.078125,-0.109375 -0.109375,-0.109375 -0.09375,0 -0.109375,0.046875 -0.140625,0.109375 -0.328125,1.078125 -1,1.3125 -1.3125,1.3125 -0.390625,0 -0.546875,-0.3125 -0.546875,-0.65625 0,-0.21875 0.046875,-0.4375 0.15625,-0.875 z m 0,0"
             transform="translate(175.163,134.765)"
             id="path393382" />
        </g>
      </g>
    </g>
    <g
       id="g394183"
       style="fill:#000000;fill-opacity:1"
       ns1:jacobian_sqrt="0.446872"
       inkscapeversion="0.92.3"
       ns1:alignment="middle center"
       ns1:scale="1.26671923986"
       ns1:preamble="C:\\Users\\drsjd\\AppData\\Roaming\\inkscape\\extensions\\textext\\default_packages_simon.tex"
       ns1:text="Output, $y$"
       ns1:pdfconverter="pdf2svg"
       ns1:texconverter="pdflatex"
       ns1:version="0.11.0"
       transform="matrix(0,-0.39728133,0.39728133,0,-21.913464,209.02704)">
      <g
         style="fill:#000000;fill-opacity:1"
         id="g394181">
        <g
           id="g394175"
           style="fill:#000000;fill-opacity:1">
          <path
             id="path394161"
             transform="translate(148.712,134.765)"
             d="m 6.25,-3.421875 c 0,-1.890625 -0.875,-3.59375 -2.9375,-3.59375 -2.015625,0 -2.90625,1.75 -2.90625,3.59375 0,1.84375 0.90625,3.5625 2.90625,3.5625 2.046875,0 2.9375,-1.671875 2.9375,-3.5625 z m -0.734375,0 c 0,1.390625 -0.609375,2.890625 -2.203125,2.890625 -1.5625,0 -2.171875,-1.515625 -2.171875,-2.890625 0,-1.421875 0.578125,-2.921875 2.171875,-2.921875 1.625,0 2.203125,1.484375 2.203125,2.921875 z m 0,0"
             style="fill:#000000;fill-opacity:1;stroke:none;stroke-width:0"
             inkscape:connector-curvature="0" />
          <path
             id="path394163"
             transform="translate(155.3969,134.765)"
             d="M 4.53125,0 V -4.5 H 3.765625 v 2.546875 c 0,0.84375 -0.421875,1.421875 -1.328125,1.421875 -0.796875,0 -1.078125,-0.5 -1.078125,-1.265625 V -4.5 h -0.71875 v 2.71875 c 0,1.0625 0.5,1.90625 1.625,1.90625 0.578125,0 1.171875,-0.328125 1.5,-0.71875 V 0 Z m 0,0"
             style="fill:#000000;fill-opacity:1;stroke:none;stroke-width:0"
             inkscape:connector-curvature="0" />
          <path
             id="path394165"
             transform="translate(160.61731,134.765)"
             d="M 3.203125,0 V -0.640625 H 2.421875 C 1.71875,-0.640625 1.59375,-0.8125 1.59375,-1.46875 v -2.4375 H 2.921875 V -4.5 H 1.59375 V -5.78125 H 1.28125 L 0.859375,-4.5 h -0.53125 v 0.59375 h 0.53125 v 2.4375 C 0.859375,-0.34375 1.3125,0 2.421875,0 Z m 0,0"
             style="fill:#000000;fill-opacity:1;stroke:none;stroke-width:0"
             inkscape:connector-curvature="0" />
          <path
             id="path394167"
             transform="translate(164.0544,134.765)"
             d="m 4.8125,-2.25 c 0,-1.3125 -0.875,-2.25 -2.203125,-2.25 H 0.6875 v 6.90625 h 0.75 V 0 H 2.546875 C 4,0 4.8125,-0.90625 4.8125,-2.25 Z m -0.71875,0 c 0,0.890625 -0.5625,1.59375 -1.546875,1.59375 H 1.4375 v -3.1875 h 1.109375 c 0.96875,0 1.546875,0.640625 1.546875,1.59375 z m 0,0"
             style="fill:#000000;fill-opacity:1;stroke:none;stroke-width:0"
             inkscape:connector-curvature="0" />
          <path
             id="path394169"
             transform="translate(169.32462,134.765)"
             d="M 4.53125,0 V -4.5 H 3.765625 v 2.546875 c 0,0.84375 -0.421875,1.421875 -1.328125,1.421875 -0.796875,0 -1.078125,-0.5 -1.078125,-1.265625 V -4.5 h -0.71875 v 2.71875 c 0,1.0625 0.5,1.90625 1.625,1.90625 0.578125,0 1.171875,-0.328125 1.5,-0.71875 V 0 Z m 0,0"
             style="fill:#000000;fill-opacity:1;stroke:none;stroke-width:0"
             inkscape:connector-curvature="0" />
          <path
             id="path394171"
             transform="translate(174.54502,134.765)"
             d="M 3.203125,0 V -0.640625 H 2.421875 C 1.71875,-0.640625 1.59375,-0.8125 1.59375,-1.46875 v -2.4375 H 2.921875 V -4.5 H 1.59375 V -5.78125 H 1.28125 L 0.859375,-4.5 h -0.53125 v 0.59375 h 0.53125 v 2.4375 C 0.859375,-0.34375 1.3125,0 2.421875,0 Z m 0,0"
             style="fill:#000000;fill-opacity:1;stroke:none;stroke-width:0"
             inkscape:connector-curvature="0" />
          <path
             id="path394173"
             transform="translate(177.98212,134.765)"
             d="M 1.65625,-1.015625 H 0.75 v 0.6875 c 0.0625,0.125 0.078125,0.25 0.078125,0.375 0,0.359375 -0.1875,0.734375 -0.453125,0.90625 C 0.890625,0.9375 1.640625,0.171875 1.65625,-0.3125 Z m 0,0"
             style="fill:#000000;fill-opacity:1;stroke:none;stroke-width:0"
             inkscape:connector-curvature="0" />
        </g>
        <g
           id="g394179"
           style="fill:#000000;fill-opacity:1">
          <path
             id="path394177"
             transform="translate(183.193,134.765)"
             d="m 4.84375,-3.796875 c 0.046875,-0.140625 0.046875,-0.15625 0.046875,-0.234375 0,-0.171875 -0.140625,-0.265625 -0.296875,-0.265625 -0.09375,0 -0.25,0.0625 -0.34375,0.203125 -0.015625,0.0625 -0.109375,0.359375 -0.140625,0.546875 -0.078125,0.25 -0.140625,0.53125 -0.203125,0.796875 l -0.453125,1.796875 c -0.03125,0.140625 -0.46875,0.84375 -1.125,0.84375 -0.5,0 -0.609375,-0.4375 -0.609375,-0.8125 C 1.71875,-1.375 1.890625,-2 2.21875,-2.875 2.375,-3.28125 2.421875,-3.390625 2.421875,-3.59375 c 0,-0.4375 -0.3125,-0.8125 -0.8125,-0.8125 -0.953125,0 -1.3125,1.453125 -1.3125,1.53125 0,0.109375 0.09375,0.109375 0.109375,0.109375 0.109375,0 0.109375,-0.03125 0.15625,-0.1875 0.28125,-0.9375 0.671875,-1.234375 1.015625,-1.234375 0.078125,0 0.25,0 0.25,0.3125 0,0.25 -0.109375,0.515625 -0.171875,0.703125 -0.40625,1.0625 -0.578125,1.625 -0.578125,2.09375 0,0.890625 0.625,1.1875 1.21875,1.1875 0.390625,0 0.71875,-0.171875 1,-0.453125 -0.125,0.515625 -0.25,1.015625 -0.640625,1.546875 -0.265625,0.328125 -0.640625,0.625 -1.09375,0.625 -0.140625,0 -0.59375,-0.03125 -0.765625,-0.421875 0.15625,0 0.296875,0 0.421875,-0.125 C 1.328125,1.203125 1.421875,1.0625 1.421875,0.875 1.421875,0.5625 1.15625,0.53125 1.0625,0.53125 0.828125,0.53125 0.5,0.6875 0.5,1.171875 c 0,0.5 0.4375,0.875 1.0625,0.875 1.015625,0 2.046875,-0.90625 2.328125,-2.03125 z m 0,0"
             style="fill:#000000;fill-opacity:1;stroke:none;stroke-width:0"
             inkscape:connector-curvature="0" />
        </g>
      </g>
    </g>
    <flowRoot
       xml:space="preserve"
       id="flowRoot394578"
       style="font-style:normal;font-weight:normal;font-size:6.37462px;line-height:1.25;font-family:sans-serif;letter-spacing:0px;word-spacing:0px;fill:#000000;fill-opacity:1;stroke:none"
       transform="matrix(0.26458333,0,0,0.26458333,29.822112,113.17108)"><flowRegion
         id="flowRegion394580"><rect
           id="rect394582"
           width="41.400272"
           height="14.551641"
           x="242.67896"
           y="219.40765" /></flowRegion><flowPara
         id="flowPara394584" /></flowRoot>    <flowRoot
       xml:space="preserve"
       id="flowRoot394586"
       style="font-style:normal;font-weight:normal;font-size:6.37462px;line-height:1.25;font-family:sans-serif;letter-spacing:0px;word-spacing:0px;fill:#000000;fill-opacity:1;stroke:none"
       transform="matrix(0.26458333,0,0,0.26458333,29.822112,113.17108)"><flowRegion
         id="flowRegion394588"><rect
           id="rect394590"
           width="316.37244"
           height="32.797779"
           x="-3.0274873"
           y="211.25314" /></flowRegion><flowPara
         id="flowPara394592" /></flowRoot>    <rect
       y="114.28025"
       x="37.981091"
       height="56.049828"
       width="56.049828"
       id="rect319742"
       style="fill:none;fill-opacity:1;stroke:#030000;stroke-width:0.3;stroke-miterlimit:4;stroke-dasharray:none;stroke-dashoffset:0;stroke-opacity:1" />
    <g
       transform="matrix(0.279653,0,0,0.279653,-7.7417813,105.57502)"
       ns1:version="0.11.0"
       ns1:texconverter="pdflatex"
       ns1:pdfconverter="pdf2svg"
       ns1:text="1.0"
       ns1:preamble="C:\\Users\\drsjd\\AppData\\Roaming\\inkscape\\extensions\\textext\\default_packages_simon.tex"
       ns1:scale="0.792715424088"
       ns1:alignment="middle center"
       inkscapeversion="0.92.3"
       ns1:jacobian_sqrt="0.279653"
       style="fill:#808080;fill-opacity:1;stroke-linecap:butt;stroke-linejoin:round"
       id="g7252">
      <g
         id="g7250"
         style="fill:#808080;fill-opacity:1;stroke-linecap:butt;stroke-linejoin:round">
        <g
           style="fill:#808080;fill-opacity:1;stroke-linecap:butt;stroke-linejoin:round"
           id="g7248">
          <path
             style="fill:#808080;fill-opacity:1;stroke:none;stroke-width:0;stroke-linecap:butt;stroke-linejoin:round"
             d="M 2.109375,0 V -6.890625 H 1.28125 L 0.296875,-6.09375 v 0.78125 l 1.03125,-0.84375 V 0 Z m 0,0"
             transform="translate(148.712,134.765)"
             id="path7242"
             inkscape:connector-curvature="0" />
          <path
             style="fill:#808080;fill-opacity:1;stroke:none;stroke-width:0;stroke-linecap:butt;stroke-linejoin:round"
             d="M 1.640625,0 V -1.015625 H 0.6875 V 0 Z m 0,0"
             transform="translate(151.63104,134.765)"
             id="path7244"
             inkscape:connector-curvature="0" />
          <path
             style="fill:#808080;fill-opacity:1;stroke:none;stroke-width:0;stroke-linecap:butt;stroke-linejoin:round"
             d="m 4.96875,-3.421875 c -0.015625,-1.46875 -0.34375,-3.59375 -2.203125,-3.59375 -1.859375,0 -2.171875,2.15625 -2.171875,3.59375 0,1.453125 0.328125,3.5625 2.171875,3.5625 1.84375,0 2.203125,-2.109375 2.203125,-3.5625 z m -0.71875,0 c 0,0.953125 -0.078125,2.90625 -1.484375,2.90625 -1.40625,0 -1.453125,-1.984375 -1.453125,-2.90625 0,-0.9375 0.03125,-2.953125 1.453125,-2.953125 1.40625,0 1.484375,2.03125 1.484375,2.953125 z m 0,0"
             transform="translate(153.95233,134.765)"
             id="path7246"
             inkscape:connector-curvature="0" />
        </g>
      </g>
    </g>
    <g
       transform="matrix(0.279653,0,0,0.279653,36.432099,171.50938)"
       ns1:version="1.8.1"
       ns1:texconverter="pdflatex"
       ns1:pdfconverter="inkscape"
       ns1:text="0.0"
       ns1:preamble="/Users/simonprince/Library/Application Support/org.inkscape.Inkscape/config/inkscape/extensions/textext/default_packages_simon.tex"
       ns1:scale="0.792715424088"
       ns1:alignment="middle center"
       ns1:stroke-to-path="0"
       ns1:inkscapeversion="1.1.2"
       ns1:jacobian_sqrt="0.279653"
       style="fill:#808080;fill-opacity:1;stroke-width:0"
       id="g4298">
      <defs
         id="defs4280"
         style="fill:#808080;fill-opacity:1;stroke-width:0">
        <g
           id="g4278"
           style="fill:#808080;fill-opacity:1;stroke-width:0">
          <symbol
             overflow="visible"
             id="symbol4268"
             style="fill:#808080;fill-opacity:1;stroke-width:0">
            <path
               style="fill:#808080;fill-opacity:1;stroke:#808080;stroke-width:0"
               d=""
               id="path4266" />
          </symbol>
          <symbol
             overflow="visible"
             id="symbol4272"
             style="fill:#808080;fill-opacity:1;stroke-width:0">
            <path
               style="fill:#808080;fill-opacity:1;stroke:#808080;stroke-width:0"
               d="m 4.5625,-3.25 c 0,-0.78125 -0.046875,-1.71875 -0.46875,-2.515625 -0.40625,-0.75 -1.09375,-1 -1.59375,-1 -0.59375,0 -1.296875,0.28125 -1.703125,1.15625 -0.328125,0.734375 -0.375,1.5625 -0.375,2.359375 0,0.78125 0.03125,1.515625 0.328125,2.25 0.40625,0.953125 1.15625,1.21875 1.734375,1.21875 0.71875,0 1.359375,-0.40625 1.671875,-1.09375 C 4.453125,-1.53125 4.5625,-2.1875 4.5625,-3.25 Z M 2.5,-0.390625 c -0.53125,0 -0.9375,-0.375 -1.140625,-1.09375 -0.15625,-0.5625 -0.15625,-1.109375 -0.15625,-1.890625 0,-0.625 0,-1.21875 0.15625,-1.765625 0.0625,-0.1875 0.3125,-1.015625 1.125,-1.015625 0.78125,0 1.03125,0.765625 1.109375,0.9375 0.1875,0.5625 0.1875,1.234375 0.1875,1.84375 0,0.65625 0,1.296875 -0.1875,1.921875 -0.25,0.90625 -0.78125,1.0625 -1.09375,1.0625 z m 0,0"
               id="path4270" />
          </symbol>
          <symbol
             overflow="visible"
             id="symbol4276"
             style="fill:#808080;fill-opacity:1;stroke-width:0">
            <path
               style="fill:#808080;fill-opacity:1;stroke:#808080;stroke-width:0"
               d="M 1.796875,-0.828125 H 0.96875 V 0 h 0.828125 z m 0,0"
               id="path4274" />
          </symbol>
        </g>
      </defs>
      <g
         id="g4296"
         transform="translate(-149.134,-127.999)"
         style="fill:#808080;fill-opacity:1;stroke-width:0">
        <g
           style="fill:#808080;fill-opacity:1;stroke-width:0"
           id="g4294">
          <g
             transform="translate(148.712,134.765)"
             style="fill:#808080;fill-opacity:1;stroke-width:0"
             id="g4284">
            <path
               style="fill:#808080;fill-opacity:1;stroke:#808080;stroke-width:0"
               d="m 4.5625,-3.25 c 0,-0.78125 -0.046875,-1.71875 -0.46875,-2.515625 -0.40625,-0.75 -1.09375,-1 -1.59375,-1 -0.59375,0 -1.296875,0.28125 -1.703125,1.15625 -0.328125,0.734375 -0.375,1.5625 -0.375,2.359375 0,0.78125 0.03125,1.515625 0.328125,2.25 0.40625,0.953125 1.15625,1.21875 1.734375,1.21875 0.71875,0 1.359375,-0.40625 1.671875,-1.09375 C 4.453125,-1.53125 4.5625,-2.1875 4.5625,-3.25 Z M 2.5,-0.390625 c -0.53125,0 -0.9375,-0.375 -1.140625,-1.09375 -0.15625,-0.5625 -0.15625,-1.109375 -0.15625,-1.890625 0,-0.625 0,-1.21875 0.15625,-1.765625 0.0625,-0.1875 0.3125,-1.015625 1.125,-1.015625 0.78125,0 1.03125,0.765625 1.109375,0.9375 0.1875,0.5625 0.1875,1.234375 0.1875,1.84375 0,0.65625 0,1.296875 -0.1875,1.921875 -0.25,0.90625 -0.78125,1.0625 -1.09375,1.0625 z m 0,0"
               id="path4282" />
          </g>
          <g
             transform="translate(153.693,134.765)"
             style="fill:#808080;fill-opacity:1;stroke-width:0"
             id="g4288">
            <path
               style="fill:#808080;fill-opacity:1;stroke:#808080;stroke-width:0"
               d="M 1.796875,-0.828125 H 0.96875 V 0 h 0.828125 z m 0,0"
               id="path4286" />
          </g>
          <g
             transform="translate(156.461,134.765)"
             style="fill:#808080;fill-opacity:1;stroke-width:0"
             id="g4292">
            <path
               style="fill:#808080;fill-opacity:1;stroke:#808080;stroke-width:0"
               d="m 4.5625,-3.25 c 0,-0.78125 -0.046875,-1.71875 -0.46875,-2.515625 -0.40625,-0.75 -1.09375,-1 -1.59375,-1 -0.59375,0 -1.296875,0.28125 -1.703125,1.15625 -0.328125,0.734375 -0.375,1.5625 -0.375,2.359375 0,0.78125 0.03125,1.515625 0.328125,2.25 0.40625,0.953125 1.15625,1.21875 1.734375,1.21875 0.71875,0 1.359375,-0.40625 1.671875,-1.09375 C 4.453125,-1.53125 4.5625,-2.1875 4.5625,-3.25 Z M 2.5,-0.390625 c -0.53125,0 -0.9375,-0.375 -1.140625,-1.09375 -0.15625,-0.5625 -0.15625,-1.109375 -0.15625,-1.890625 0,-0.625 0,-1.21875 0.15625,-1.765625 0.0625,-0.1875 0.3125,-1.015625 1.125,-1.015625 0.78125,0 1.03125,0.765625 1.109375,0.9375 0.1875,0.5625 0.1875,1.234375 0.1875,1.84375 0,0.65625 0,1.296875 -0.1875,1.921875 -0.25,0.90625 -0.78125,1.0625 -1.09375,1.0625 z m 0,0"
               id="path4290" />
          </g>
        </g>
      </g>
    </g>
    <g
       transform="matrix(0.279653,0,0,0.279653,92.443486,171.50938)"
       ns1:version="1.8.1"
       ns1:texconverter="pdflatex"
       ns1:pdfconverter="inkscape"
       ns1:text="2.0"
       ns1:preamble="/Users/simonprince/Library/Application Support/org.inkscape.Inkscape/config/inkscape/extensions/textext/default_packages_simon.tex"
       ns1:scale="0.792715424088"
       ns1:alignment="middle center"
       ns1:stroke-to-path="0"
       ns1:inkscapeversion="1.1.2"
       ns1:jacobian_sqrt="0.279653"
       style="fill:#808080;fill-opacity:1;stroke-width:0"
       id="g4450">
      <defs
         id="defs4432"
         style="fill:#808080;fill-opacity:1;stroke-width:0">
        <g
           id="g4430"
           style="fill:#808080;fill-opacity:1;stroke-width:0">
          <symbol
             overflow="visible"
             id="symbol4416"
             style="fill:#808080;fill-opacity:1;stroke-width:0">
            <path
               style="fill:#808080;fill-opacity:1;stroke:#808080;stroke-width:0"
               d=""
               id="path4414" />
          </symbol>
          <symbol
             overflow="visible"
             id="symbol4420"
             style="fill:#808080;fill-opacity:1;stroke-width:0">
            <path
               style="fill:#808080;fill-opacity:1;stroke:#808080;stroke-width:0"
               d="M 1.734375,-1.875 0.5,-0.640625 V 0 h 3.96875 v -0.703125 h -1.8125 c -0.109375,0 -0.234375,0 -0.359375,0 H 1.21875 c 0.3125,-0.28125 1.078125,-1.015625 1.390625,-1.3125 0.1875,-0.171875 0.6875,-0.59375 0.875,-0.78125 0.453125,-0.4375 0.984375,-0.96875 0.984375,-1.8125 0,-1.15625 -0.796875,-2.15625 -2.109375,-2.15625 -1.140625,0 -1.703125,0.78125 -1.9375,1.640625 0.109375,0.171875 0.171875,0.234375 0.1875,0.265625 0.015625,0.015625 0.125,0.140625 0.21875,0.28125 C 1.03125,-5.34375 1.3125,-6.125 2.21875,-6.125 c 0.9375,0 1.4375,0.75 1.4375,1.53125 0,0.84375 -0.5625,1.40625 -1.15625,2.015625 z m 0,0"
               id="path4418" />
          </symbol>
          <symbol
             overflow="visible"
             id="symbol4424"
             style="fill:#808080;fill-opacity:1;stroke-width:0">
            <path
               style="fill:#808080;fill-opacity:1;stroke:#808080;stroke-width:0"
               d="M 1.796875,-0.828125 H 0.96875 V 0 h 0.828125 z m 0,0"
               id="path4422" />
          </symbol>
          <symbol
             overflow="visible"
             id="symbol4428"
             style="fill:#808080;fill-opacity:1;stroke-width:0">
            <path
               style="fill:#808080;fill-opacity:1;stroke:#808080;stroke-width:0"
               d="m 4.5625,-3.25 c 0,-0.78125 -0.046875,-1.71875 -0.46875,-2.515625 -0.40625,-0.75 -1.09375,-1 -1.59375,-1 -0.59375,0 -1.296875,0.28125 -1.703125,1.15625 -0.328125,0.734375 -0.375,1.5625 -0.375,2.359375 0,0.78125 0.03125,1.515625 0.328125,2.25 0.40625,0.953125 1.15625,1.21875 1.734375,1.21875 0.71875,0 1.359375,-0.40625 1.671875,-1.09375 C 4.453125,-1.53125 4.5625,-2.1875 4.5625,-3.25 Z M 2.5,-0.390625 c -0.53125,0 -0.9375,-0.375 -1.140625,-1.09375 -0.15625,-0.5625 -0.15625,-1.109375 -0.15625,-1.890625 0,-0.625 0,-1.21875 0.15625,-1.765625 0.0625,-0.1875 0.3125,-1.015625 1.125,-1.015625 0.78125,0 1.03125,0.765625 1.109375,0.9375 0.1875,0.5625 0.1875,1.234375 0.1875,1.84375 0,0.65625 0,1.296875 -0.1875,1.921875 -0.25,0.90625 -0.78125,1.0625 -1.09375,1.0625 z m 0,0"
               id="path4426" />
          </symbol>
        </g>
      </defs>
      <g
         id="g4448"
         transform="translate(-149.134,-127.999)"
         style="fill:#808080;fill-opacity:1;stroke-width:0">
        <g
           style="fill:#808080;fill-opacity:1;stroke-width:0"
           id="g4446">
          <g
             transform="translate(148.712,134.765)"
             style="fill:#808080;fill-opacity:1;stroke-width:0"
             id="g4436">
            <path
               style="fill:#808080;fill-opacity:1;stroke:#808080;stroke-width:0"
               d="M 1.734375,-1.875 0.5,-0.640625 V 0 h 3.96875 v -0.703125 h -1.8125 c -0.109375,0 -0.234375,0 -0.359375,0 H 1.21875 c 0.3125,-0.28125 1.078125,-1.015625 1.390625,-1.3125 0.1875,-0.171875 0.6875,-0.59375 0.875,-0.78125 0.453125,-0.4375 0.984375,-0.96875 0.984375,-1.8125 0,-1.15625 -0.796875,-2.15625 -2.109375,-2.15625 -1.140625,0 -1.703125,0.78125 -1.9375,1.640625 0.109375,0.171875 0.171875,0.234375 0.1875,0.265625 0.015625,0.015625 0.125,0.140625 0.21875,0.28125 C 1.03125,-5.34375 1.3125,-6.125 2.21875,-6.125 c 0.9375,0 1.4375,0.75 1.4375,1.53125 0,0.84375 -0.5625,1.40625 -1.15625,2.015625 z m 0,0"
               id="path4434" />
          </g>
          <g
             transform="translate(153.693,134.765)"
             style="fill:#808080;fill-opacity:1;stroke-width:0"
             id="g4440">
            <path
               style="fill:#808080;fill-opacity:1;stroke:#808080;stroke-width:0"
               d="M 1.796875,-0.828125 H 0.96875 V 0 h 0.828125 z m 0,0"
               id="path4438" />
          </g>
          <g
             transform="translate(156.461,134.765)"
             style="fill:#808080;fill-opacity:1;stroke-width:0"
             id="g4444">
            <path
               style="fill:#808080;fill-opacity:1;stroke:#808080;stroke-width:0"
               d="m 4.5625,-3.25 c 0,-0.78125 -0.046875,-1.71875 -0.46875,-2.515625 -0.40625,-0.75 -1.09375,-1 -1.59375,-1 -0.59375,0 -1.296875,0.28125 -1.703125,1.15625 -0.328125,0.734375 -0.375,1.5625 -0.375,2.359375 0,0.78125 0.03125,1.515625 0.328125,2.25 0.40625,0.953125 1.15625,1.21875 1.734375,1.21875 0.71875,0 1.359375,-0.40625 1.671875,-1.09375 C 4.453125,-1.53125 4.5625,-2.1875 4.5625,-3.25 Z M 2.5,-0.390625 c -0.53125,0 -0.9375,-0.375 -1.140625,-1.09375 -0.15625,-0.5625 -0.15625,-1.109375 -0.15625,-1.890625 0,-0.625 0,-1.21875 0.15625,-1.765625 0.0625,-0.1875 0.3125,-1.015625 1.125,-1.015625 0.78125,0 1.03125,0.765625 1.109375,0.9375 0.1875,0.5625 0.1875,1.234375 0.1875,1.84375 0,0.65625 0,1.296875 -0.1875,1.921875 -0.25,0.90625 -0.78125,1.0625 -1.09375,1.0625 z m 0,0"
               id="path4442" />
          </g>
        </g>
      </g>
    </g>
    <g
       transform="matrix(0.279653,0,0,0.279653,22.794978,135.73592)"
       ns1:version="0.11.0"
       ns1:texconverter="pdflatex"
       ns1:pdfconverter="pdf2svg"
       ns1:text="1.0"
       ns1:preamble="C:\\Users\\drsjd\\AppData\\Roaming\\inkscape\\extensions\\textext\\default_packages_simon.tex"
       ns1:scale="0.792715424088"
       ns1:alignment="middle center"
       inkscapeversion="0.92.3"
       ns1:jacobian_sqrt="0.279653"
       style="fill:#808080;fill-opacity:1;stroke-linecap:butt;stroke-linejoin:round"
       id="g4462">
      <g
         id="g4460"
         style="fill:#808080;fill-opacity:1;stroke-linecap:butt;stroke-linejoin:round">
        <g
           style="fill:#808080;fill-opacity:1;stroke-linecap:butt;stroke-linejoin:round"
           id="g4458">
          <path
             style="fill:#808080;fill-opacity:1;stroke:none;stroke-width:0;stroke-linecap:butt;stroke-linejoin:round"
             d="M 2.109375,0 V -6.890625 H 1.28125 L 0.296875,-6.09375 v 0.78125 l 1.03125,-0.84375 V 0 Z m 0,0"
             transform="translate(148.712,134.765)"
             id="path4452"
             inkscape:connector-curvature="0" />
          <path
             style="fill:#808080;fill-opacity:1;stroke:none;stroke-width:0;stroke-linecap:butt;stroke-linejoin:round"
             d="M 1.640625,0 V -1.015625 H 0.6875 V 0 Z m 0,0"
             transform="translate(151.63104,134.765)"
             id="path4454"
             inkscape:connector-curvature="0" />
          <path
             style="fill:#808080;fill-opacity:1;stroke:none;stroke-width:0;stroke-linecap:butt;stroke-linejoin:round"
             d="m 4.96875,-3.421875 c -0.015625,-1.46875 -0.34375,-3.59375 -2.203125,-3.59375 -1.859375,0 -2.171875,2.15625 -2.171875,3.59375 0,1.453125 0.328125,3.5625 2.171875,3.5625 1.84375,0 2.203125,-2.109375 2.203125,-3.5625 z m -0.71875,0 c 0,0.953125 -0.078125,2.90625 -1.484375,2.90625 -1.40625,0 -1.453125,-1.984375 -1.453125,-2.90625 0,-0.9375 0.03125,-2.953125 1.453125,-2.953125 1.40625,0 1.484375,2.03125 1.484375,2.953125 z m 0,0"
             transform="translate(153.95233,134.765)"
             id="path4456"
             inkscape:connector-curvature="0" />
        </g>
      </g>
    </g>
  </g>
</svg>
