<?xml version="1.0" encoding="UTF-8" standalone="no"?>
<!-- Created with Inkscape (http://www.inkscape.org/) -->

<svg
   xmlns:ns1="http://www.iki.fi/pav/software/textext/"
   xmlns:dc="http://purl.org/dc/elements/1.1/"
   xmlns:cc="http://creativecommons.org/ns#"
   xmlns:rdf="http://www.w3.org/1999/02/22-rdf-syntax-ns#"
   xmlns:svg="http://www.w3.org/2000/svg"
   xmlns="http://www.w3.org/2000/svg"
   xmlns:sodipodi="http://sodipodi.sourceforge.net/DTD/sodipodi-0.dtd"
   xmlns:inkscape="http://www.inkscape.org/namespaces/inkscape"
   sodipodi:docname="ShallowReLU.svg"
   inkscape:version="0.92.3 (2405546, 2018-03-11)"
   id="svg318594"
   version="1.1"
   viewBox="0 0 66.787879 49.169258"
   height="49.169258mm"
   width="66.78788mm">
  <sodipodi:namedview
     showguides="true"
     inkscape:window-maximized="1"
     inkscape:window-y="-8"
     inkscape:window-x="2552"
     inkscape:window-height="1387"
     inkscape:window-width="2560"
     showgrid="false"
     inkscape:current-layer="layer1"
     inkscape:document-units="mm"
     inkscape:cy="-9.2548402"
     inkscape:cx="152.53993"
     inkscape:zoom="7.927366"
     inkscape:pageshadow="2"
     inkscape:pageopacity="0.0"
     borderopacity="1.0"
     bordercolor="#666666"
     pagecolor="#ffffff"
     id="base"
     fit-margin-top="0"
     fit-margin-left="0"
     fit-margin-right="0"
     fit-margin-bottom="0"
     inkscape:guide-bbox="true"
     inkscape:snap-global="false" />
  <defs
     id="defs318588">
    <g
       style="fill:#808080;fill-opacity:1;stroke-width:0;stroke-linecap:butt;stroke-linejoin:round"
       id="g524222">
      <symbol
         style="overflow:visible;fill:#808080;fill-opacity:1;stroke-width:0;stroke-linecap:butt;stroke-linejoin:round"
         id="symbol524212"
         overflow="visible">
        <path
           inkscape:connector-curvature="0"
           id="path524210"
           d=""
           style="fill:#808080;fill-opacity:1;stroke:#808080;stroke-width:0;stroke-linecap:butt;stroke-linejoin:round" />
      </symbol>
      <symbol
         style="overflow:visible;fill:#808080;fill-opacity:1;stroke-width:0;stroke-linecap:butt;stroke-linejoin:round"
         id="symbol524216"
         overflow="visible">
        <path
           inkscape:connector-curvature="0"
           id="path524214"
           d="m 4.5625,-3.25 c 0,-0.78125 -0.046875,-1.71875 -0.46875,-2.515625 -0.40625,-0.75 -1.09375,-1 -1.59375,-1 -0.59375,0 -1.296875,0.28125 -1.703125,1.15625 -0.328125,0.734375 -0.375,1.5625 -0.375,2.359375 0,0.78125 0.03125,1.515625 0.328125,2.25 0.40625,0.953125 1.15625,1.21875 1.734375,1.21875 0.71875,0 1.359375,-0.40625 1.671875,-1.09375 C 4.453125,-1.53125 4.5625,-2.1875 4.5625,-3.25 Z M 2.5,-0.390625 c -0.53125,0 -0.9375,-0.375 -1.140625,-1.09375 -0.15625,-0.5625 -0.15625,-1.109375 -0.15625,-1.890625 0,-0.625 0,-1.21875 0.15625,-1.765625 0.0625,-0.1875 0.3125,-1.015625 1.125,-1.015625 0.78125,0 1.03125,0.765625 1.109375,0.9375 0.1875,0.5625 0.1875,1.234375 0.1875,1.84375 0,0.65625 0,1.296875 -0.1875,1.921875 -0.25,0.90625 -0.78125,1.0625 -1.09375,1.0625 z m 0,0"
           style="fill:#808080;fill-opacity:1;stroke:#808080;stroke-width:0;stroke-linecap:butt;stroke-linejoin:round" />
      </symbol>
      <symbol
         style="overflow:visible;fill:#808080;fill-opacity:1;stroke-width:0;stroke-linecap:butt;stroke-linejoin:round"
         id="symbol524220"
         overflow="visible">
        <path
           inkscape:connector-curvature="0"
           id="path524218"
           d="M 1.796875,-0.828125 H 0.96875 V 0 h 0.828125 z m 0,0"
           style="fill:#808080;fill-opacity:1;stroke:#808080;stroke-width:0;stroke-linecap:butt;stroke-linejoin:round" />
      </symbol>
    </g>
  </defs>
  <metadata
     id="metadata318591">
    <rdf:RDF>
      <cc:Work
         rdf:about="">
        <dc:format>image/svg+xml</dc:format>
        <dc:type
           rdf:resource="http://purl.org/dc/dcmitype/StillImage" />
        <dc:title />
      </cc:Work>
    </rdf:RDF>
  </metadata>
  <g
     id="layer1"
     inkscape:groupmode="layer"
     inkscape:label="Layer 1"
     transform="translate(-28.878098,-113.05872)">
    <flowRoot
       style="font-style:normal;font-weight:normal;font-size:6.37462139px;line-height:1.25;font-family:sans-serif;letter-spacing:0px;word-spacing:0px;fill:#000000;fill-opacity:1;stroke:none"
       id="flowRoot320141"
       xml:space="preserve"><flowRegion
         id="flowRegion320143"><rect
           y="645.13086"
           x="117.74162"
           height="21.050776"
           width="261.88593"
           id="rect320145" /></flowRegion><flowPara
         id="flowPara320147" /></flowRoot>    <flowRoot
       style="font-style:normal;font-weight:normal;font-size:6.37462139px;line-height:1.25;font-family:sans-serif;letter-spacing:0px;word-spacing:0px;fill:#000000;fill-opacity:1;stroke:none"
       id="flowRoot320149"
       xml:space="preserve"><flowRegion
         id="flowRegion320151"><rect
           y="414.64273"
           x="105.61067"
           height="237.62401"
           width="31.75456"
           id="rect320153" /></flowRegion><flowPara
         id="flowPara320155" /></flowRoot>    <flowRoot
       xml:space="preserve"
       id="flowRoot394578"
       style="font-style:normal;font-weight:normal;font-size:6.37462139px;line-height:1.25;font-family:sans-serif;letter-spacing:0px;word-spacing:0px;fill:#000000;fill-opacity:1;stroke:none"
       transform="matrix(0.26458333,0,0,0.26458333,29.822112,113.17108)"><flowRegion
         id="flowRegion394580"><rect
           id="rect394582"
           width="41.400272"
           height="14.551641"
           x="242.67896"
           y="219.40765" /></flowRegion><flowPara
         id="flowPara394584" /></flowRoot>    <flowRoot
       xml:space="preserve"
       id="flowRoot394586"
       style="font-style:normal;font-weight:normal;font-size:6.37462139px;line-height:1.25;font-family:sans-serif;letter-spacing:0px;word-spacing:0px;fill:#000000;fill-opacity:1;stroke:none"
       transform="matrix(0.26458333,0,0,0.26458333,29.822112,113.17108)"><flowRegion
         id="flowRegion394588"><rect
           id="rect394590"
           width="316.37244"
           height="32.797779"
           x="-3.0274873"
           y="211.25314" /></flowRegion><flowPara
         id="flowPara394592" /></flowRoot>    <rect
       style="fill:#f47a60;fill-opacity:0;stroke:#ffffff;stroke-width:0.15751573;stroke-miterlimit:4;stroke-dasharray:none;stroke-dashoffset:0;stroke-opacity:1"
       id="rect319177"
       width="66.630363"
       height="48.650646"
       x="28.956856"
       y="113.24984" />
    <path
       inkscape:connector-curvature="0"
       id="path15797"
       d="m 45.614715,134.07948 h 40.30643"
       style="fill:none;stroke:#c6cdcf;stroke-width:0.2;stroke-linecap:butt;stroke-linejoin:miter;stroke-miterlimit:4;stroke-dasharray:none;stroke-dashoffset:0;stroke-opacity:1" />
    <path
       style="fill:none;stroke:#c6cdcf;stroke-width:0.2;stroke-linecap:butt;stroke-linejoin:miter;stroke-miterlimit:4;stroke-dasharray:none;stroke-dashoffset:0;stroke-opacity:1"
       d="m 65.91154,113.92627 v 40.30642"
       id="path15799"
       inkscape:connector-curvature="0" />
    <g
       id="g326308"
       style="stroke-width:0.41833342;stroke-miterlimit:4;stroke-dasharray:none"
       transform="matrix(0.71713132,0,0,0.71713132,18.566688,32.090776)">
      <path
         style="fill:none;stroke:#808080;stroke-width:0.41833342;stroke-linecap:butt;stroke-linejoin:miter;stroke-miterlimit:4;stroke-dasharray:none;stroke-opacity:1"
         d="m 37.98109,170.33008 v 0.89261"
         id="path319890"
         inkscape:connector-curvature="0"
         sodipodi:nodetypes="cc" />
      <path
         sodipodi:nodetypes="cc"
         inkscape:connector-curvature="0"
         id="path319892"
         d="m 66.006008,170.33008 v 0.89261"
         style="fill:none;stroke:#808080;stroke-width:0.41833342;stroke-linecap:butt;stroke-linejoin:miter;stroke-miterlimit:4;stroke-dasharray:none;stroke-opacity:1" />
      <path
         style="fill:none;stroke:#808080;stroke-width:0.41833342;stroke-linecap:butt;stroke-linejoin:miter;stroke-miterlimit:4;stroke-dasharray:none;stroke-opacity:1"
         d="m 94.030919,170.33008 v 0.89261"
         id="path319894"
         inkscape:connector-curvature="0"
         sodipodi:nodetypes="cc" />
      <path
         sodipodi:nodetypes="cc"
         inkscape:connector-curvature="0"
         id="path326281"
         d="m 43.586076,170.939 v -0.60892"
         style="fill:none;stroke:#808080;stroke-width:0.41833342;stroke-linecap:butt;stroke-linejoin:miter;stroke-miterlimit:4;stroke-dasharray:none;stroke-opacity:1" />
      <path
         style="fill:none;stroke:#808080;stroke-width:0.41833342;stroke-linecap:butt;stroke-linejoin:miter;stroke-miterlimit:4;stroke-dasharray:none;stroke-opacity:1"
         d="m 49.191058,170.939 v -0.60892"
         id="path326283"
         inkscape:connector-curvature="0"
         sodipodi:nodetypes="cc" />
      <path
         sodipodi:nodetypes="cc"
         inkscape:connector-curvature="0"
         id="path326285"
         d="m 54.79604,170.939 v -0.60892"
         style="fill:none;stroke:#808080;stroke-width:0.41833342;stroke-linecap:butt;stroke-linejoin:miter;stroke-miterlimit:4;stroke-dasharray:none;stroke-opacity:1" />
      <path
         style="fill:none;stroke:#808080;stroke-width:0.41833342;stroke-linecap:butt;stroke-linejoin:miter;stroke-miterlimit:4;stroke-dasharray:none;stroke-opacity:1"
         d="m 60.401022,170.939 v -0.60892"
         id="path326287"
         inkscape:connector-curvature="0"
         sodipodi:nodetypes="cc" />
      <path
         sodipodi:nodetypes="cc"
         inkscape:connector-curvature="0"
         id="path326289"
         d="m 71.610991,170.939 v -0.60892"
         style="fill:none;stroke:#808080;stroke-width:0.41833342;stroke-linecap:butt;stroke-linejoin:miter;stroke-miterlimit:4;stroke-dasharray:none;stroke-opacity:1" />
      <path
         style="fill:none;stroke:#808080;stroke-width:0.41833342;stroke-linecap:butt;stroke-linejoin:miter;stroke-miterlimit:4;stroke-dasharray:none;stroke-opacity:1"
         d="m 77.215973,170.939 v -0.60892"
         id="path326291"
         inkscape:connector-curvature="0"
         sodipodi:nodetypes="cc" />
      <path
         sodipodi:nodetypes="cc"
         inkscape:connector-curvature="0"
         id="path326293"
         d="m 82.820955,170.939 v -0.60892"
         style="fill:none;stroke:#808080;stroke-width:0.41833342;stroke-linecap:butt;stroke-linejoin:miter;stroke-miterlimit:4;stroke-dasharray:none;stroke-opacity:1" />
      <path
         style="fill:none;stroke:#808080;stroke-width:0.41833342;stroke-linecap:butt;stroke-linejoin:miter;stroke-miterlimit:4;stroke-dasharray:none;stroke-opacity:1"
         d="m 88.42593,170.939 v -0.60892"
         id="path326295"
         inkscape:connector-curvature="0"
         sodipodi:nodetypes="cc" />
    </g>
    <path
       style="fill:none;stroke:#808080;stroke-width:0.3;stroke-linecap:butt;stroke-linejoin:miter;stroke-miterlimit:4;stroke-dasharray:none;stroke-opacity:1"
       d="M 45.834496,114.04471 H 45.194373"
       id="path319901"
       inkscape:connector-curvature="0"
       sodipodi:nodetypes="cc" />
    <path
       sodipodi:nodetypes="cc"
       inkscape:connector-curvature="0"
       id="path319903"
       d="M 45.834496,134.14225 H 45.194373"
       style="fill:none;stroke:#808080;stroke-width:0.3;stroke-linecap:butt;stroke-linejoin:miter;stroke-miterlimit:4;stroke-dasharray:none;stroke-opacity:1" />
    <path
       style="fill:none;stroke:#808080;stroke-width:0.3;stroke-linecap:butt;stroke-linejoin:miter;stroke-miterlimit:4;stroke-dasharray:none;stroke-opacity:1"
       d="M 45.804578,154.2398 H 45.164454"
       id="path319905"
       inkscape:connector-curvature="0"
       sodipodi:nodetypes="cc" />
    <path
       sodipodi:nodetypes="cc"
       inkscape:connector-curvature="0"
       id="path326197"
       d="M 45.834496,118.06422 H 45.39782"
       style="fill:none;stroke:#808080;stroke-width:0.3;stroke-linecap:butt;stroke-linejoin:miter;stroke-miterlimit:4;stroke-dasharray:none;stroke-opacity:1" />
    <path
       style="fill:none;stroke:#808080;stroke-width:0.3;stroke-linecap:butt;stroke-linejoin:miter;stroke-miterlimit:4;stroke-dasharray:none;stroke-opacity:1"
       d="M 45.834496,122.08372 H 45.39782"
       id="path326215"
       inkscape:connector-curvature="0"
       sodipodi:nodetypes="cc" />
    <path
       sodipodi:nodetypes="cc"
       inkscape:connector-curvature="0"
       id="path326217"
       d="M 45.834496,126.10324 H 45.39782"
       style="fill:none;stroke:#808080;stroke-width:0.3;stroke-linecap:butt;stroke-linejoin:miter;stroke-miterlimit:4;stroke-dasharray:none;stroke-opacity:1" />
    <path
       style="fill:none;stroke:#808080;stroke-width:0.3;stroke-linecap:butt;stroke-linejoin:miter;stroke-miterlimit:4;stroke-dasharray:none;stroke-opacity:1"
       d="M 45.834496,130.12275 H 45.39782"
       id="path326219"
       inkscape:connector-curvature="0"
       sodipodi:nodetypes="cc" />
    <path
       style="fill:none;stroke:#808080;stroke-width:0.3;stroke-linecap:butt;stroke-linejoin:miter;stroke-miterlimit:4;stroke-dasharray:none;stroke-opacity:1"
       d="M 45.834496,138.16177 H 45.39782"
       id="path326223"
       inkscape:connector-curvature="0"
       sodipodi:nodetypes="cc" />
    <path
       sodipodi:nodetypes="cc"
       inkscape:connector-curvature="0"
       id="path326225"
       d="M 45.834496,142.18127 H 45.39782"
       style="fill:none;stroke:#808080;stroke-width:0.3;stroke-linecap:butt;stroke-linejoin:miter;stroke-miterlimit:4;stroke-dasharray:none;stroke-opacity:1" />
    <path
       style="fill:none;stroke:#808080;stroke-width:0.3;stroke-linecap:butt;stroke-linejoin:miter;stroke-miterlimit:4;stroke-dasharray:none;stroke-opacity:1"
       d="M 45.834496,146.20078 H 45.39782"
       id="path326227"
       inkscape:connector-curvature="0"
       sodipodi:nodetypes="cc" />
    <path
       sodipodi:nodetypes="cc"
       inkscape:connector-curvature="0"
       id="path326229"
       d="M 45.834496,150.22029 H 45.39782"
       style="fill:none;stroke:#808080;stroke-width:0.3;stroke-linecap:butt;stroke-linejoin:miter;stroke-miterlimit:4;stroke-dasharray:none;stroke-opacity:1" />
    <path
       inkscape:connector-curvature="0"
       id="path321422"
       d="m 45.907287,134.10427 19.854502,0.0592 20.070538,-19.98019"
       style="fill:none;fill-opacity:1;stroke:#d18362;stroke-width:0.69999999;stroke-linecap:butt;stroke-linejoin:miter;stroke-miterlimit:4;stroke-dasharray:none;stroke-opacity:1"
       sodipodi:nodetypes="ccc" />
    <g
       transform="matrix(0.000000,-0.397281,0.397281,0.000000,-13.786333,199.239845)"
       ns1:version="0.11.0"
       ns1:texconverter="pdflatex"
       ns1:pdfconverter="pdf2svg"
       ns1:text="$\\mbox{ReLU}[z]$"
       ns1:preamble="C:\\Users\\drsjd\\AppData\\Roaming\\inkscape\\extensions\\textext\\default_packages_simon.tex"
       ns1:scale="1.12614776569"
       ns1:alignment="middle center"
       inkscapeversion="0.92.3"
       ns1:jacobian_sqrt="0.397281"
       style="fill:#000000;fill-opacity:1"
       id="g8025">
      <g
         id="g8023"
         style="fill:#000000;fill-opacity:1">
        <g
           style="fill-opacity:1;fill:#000000"
           id="g7999">
          <path
             style="fill-opacity:1;stroke:none;stroke-width:0;fill:#000000"
             d="M 5.3125 0 C 4.609375 -0.796875 4.46875 -2.640625 3.453125 -3.265625 C 4.546875 -3.5625 4.734375 -4.125 4.734375 -4.9375 C 4.734375 -6.3125 3.9375 -6.890625 2.625 -6.890625 L 0.6875 -6.890625 L 0.6875 0 L 1.4375 0 L 1.4375 -2.953125 L 2.53125 -2.953125 C 2.984375 -2.953125 3.375 -2.5625 3.75 -1.78125 C 3.984375 -1.171875 4.046875 -0.4375 4.53125 0 Z M 4 -4.9375 C 4 -4.0625 3.46875 -3.640625 2.625 -3.640625 L 1.4375 -3.640625 L 1.4375 -6.203125 L 2.625 -6.203125 C 3.453125 -6.1875 4 -5.859375 4 -4.9375 Z M 4 -4.9375 "
             transform="translate(148.712,134.765)"
             id="path7997" />
        </g>
        <g
           style="fill-opacity:1;fill:#000000"
           id="g8005">
          <path
             style="fill-opacity:1;stroke:none;stroke-width:0;fill:#000000"
             d="M 4.546875 -2.25 L 4.546875 -2.328125 C 4.546875 -3.625 4.015625 -4.578125 2.53125 -4.609375 C 1.203125 -4.609375 0.453125 -3.453125 0.453125 -2.203125 C 0.453125 -0.84375 1.28125 0.125 2.65625 0.125 C 3.28125 0.125 3.84375 -0.015625 4.390625 -0.21875 L 4.390625 -0.96875 C 3.671875 -0.625 3.5625 -0.546875 2.71875 -0.546875 C 1.78125 -0.546875 1.21875 -1.109375 1.21875 -2.171875 L 1.21875 -2.25 Z M 3.8125 -2.859375 L 1.25 -2.859375 C 1.34375 -3.453125 1.78125 -3.96875 2.53125 -3.96875 C 3.3125 -3.96875 3.8125 -3.484375 3.8125 -2.859375 Z M 3.8125 -2.859375 "
             transform="translate(153.992178,134.765)"
             id="path8001" />
          <path
             style="fill-opacity:1;stroke:none;stroke-width:0;fill:#000000"
             d="M 4.640625 0 L 4.640625 -0.71875 L 1.453125 -0.71875 L 1.453125 -6.890625 L 0.6875 -6.890625 L 0.6875 0 Z M 4.640625 0 "
             transform="translate(158.933628,134.765)"
             id="path8003" />
        </g>
        <g
           style="fill-opacity:1;fill:#000000"
           id="g8009">
          <path
             style="fill-opacity:1;stroke:none;stroke-width:0;fill:#000000"
             d="M 5.46875 -2.578125 L 5.46875 -6.890625 L 4.734375 -6.890625 L 4.734375 -2.6875 C 4.734375 -1.421875 4.4375 -0.53125 3.078125 -0.53125 C 1.6875 -0.53125 1.375 -1.390625 1.375 -2.6875 L 1.375 -6.890625 L 0.625 -6.890625 L 0.625 -2.578125 C 0.625 -0.90625 1.359375 0.140625 3.078125 0.140625 C 4.78125 0.140625 5.46875 -0.9375 5.46875 -2.578125 Z M 5.46875 -2.578125 "
             transform="translate(163.11792,134.765)"
             id="path8007" />
        </g>
        <g
           style="fill-opacity:1;fill:#000000"
           id="g8013">
          <path
             style="fill-opacity:1;stroke:none;stroke-width:0;fill:#000000"
             d="M 2.546875 2.5 L 2.546875 2.09375 L 1.578125 2.09375 L 1.578125 -7.078125 L 2.546875 -7.078125 L 2.546875 -7.484375 L 1.171875 -7.484375 L 1.171875 2.5 Z M 2.546875 2.5 "
             transform="translate(169.215,134.765)"
             id="path8011" />
        </g>
        <g
           style="fill-opacity:1;fill:#000000"
           id="g8017">
          <path
             style="fill-opacity:1;stroke:none;stroke-width:0;fill:#000000"
             d="M 1.328125 -0.828125 C 1.859375 -1.40625 2.15625 -1.65625 2.515625 -1.96875 C 2.515625 -1.96875 3.125 -2.5 3.484375 -2.859375 C 4.4375 -3.78125 4.65625 -4.265625 4.65625 -4.3125 C 4.65625 -4.40625 4.5625 -4.40625 4.546875 -4.40625 C 4.46875 -4.40625 4.453125 -4.390625 4.390625 -4.296875 C 4.09375 -3.8125 3.890625 -3.65625 3.65625 -3.65625 C 3.40625 -3.65625 3.296875 -3.8125 3.140625 -3.984375 C 2.953125 -4.203125 2.78125 -4.40625 2.453125 -4.40625 C 1.703125 -4.40625 1.25 -3.484375 1.25 -3.265625 C 1.25 -3.21875 1.28125 -3.15625 1.359375 -3.15625 C 1.453125 -3.15625 1.46875 -3.203125 1.5 -3.265625 C 1.6875 -3.734375 2.265625 -3.734375 2.34375 -3.734375 C 2.546875 -3.734375 2.734375 -3.671875 2.96875 -3.59375 C 3.375 -3.4375 3.484375 -3.4375 3.734375 -3.4375 C 3.375 -3.015625 2.546875 -2.296875 2.359375 -2.140625 L 1.453125 -1.296875 C 0.78125 -0.625 0.421875 -0.0625 0.421875 0.015625 C 0.421875 0.109375 0.53125 0.109375 0.546875 0.109375 C 0.625 0.109375 0.640625 0.09375 0.703125 -0.015625 C 0.9375 -0.375 1.234375 -0.640625 1.5625 -0.640625 C 1.78125 -0.640625 1.890625 -0.546875 2.140625 -0.265625 C 2.296875 -0.046875 2.484375 0.109375 2.765625 0.109375 C 3.765625 0.109375 4.34375 -1.15625 4.34375 -1.421875 C 4.34375 -1.46875 4.296875 -1.53125 4.21875 -1.53125 C 4.125 -1.53125 4.109375 -1.46875 4.078125 -1.390625 C 3.84375 -0.75 3.203125 -0.5625 2.875 -0.5625 C 2.6875 -0.5625 2.5 -0.625 2.296875 -0.6875 C 1.953125 -0.8125 1.796875 -0.859375 1.59375 -0.859375 C 1.578125 -0.859375 1.421875 -0.859375 1.328125 -0.828125 Z M 1.328125 -0.828125 "
             transform="translate(171.983,134.765)"
             id="path8015" />
        </g>
        <g
           style="fill-opacity:1;fill:#000000"
           id="g8021">
          <path
             style="fill-opacity:1;stroke:none;stroke-width:0;fill:#000000"
             d="M 1.578125 -7.484375 L 0.21875 -7.484375 L 0.21875 -7.078125 L 1.1875 -7.078125 L 1.1875 2.09375 L 0.21875 2.09375 L 0.21875 2.5 L 1.578125 2.5 Z M 1.578125 -7.484375 "
             transform="translate(177.054,134.765)"
             id="path8019" />
        </g>
      </g>
    </g>
    <g
       id="g8680"
       style="fill:#000000;fill-opacity:1"
       ns1:jacobian_sqrt="0.397281"
       inkscapeversion="0.92.3"
       ns1:alignment="middle center"
       ns1:scale="1.12614776569"
       ns1:preamble="C:\\Users\\drsjd\\AppData\\Roaming\\inkscape\\extensions\\textext\\default_packages_simon.tex"
       ns1:text="$z$"
       ns1:pdfconverter="pdf2svg"
       ns1:texconverter="pdflatex"
       ns1:version="0.11.0"
       transform="matrix(0.397281,0.000000,0.000000,0.397281,5.822367,107.695205)">
      <g
         style="fill:#000000;fill-opacity:1"
         id="g8678">
        <g
           id="g8676"
           style="fill-opacity:1;fill:#000000">
          <path
             id="path8674"
             transform="translate(148.712,134.765)"
             d="M 1.328125 -0.828125 C 1.859375 -1.40625 2.15625 -1.65625 2.515625 -1.96875 C 2.515625 -1.96875 3.125 -2.5 3.484375 -2.859375 C 4.4375 -3.78125 4.65625 -4.265625 4.65625 -4.3125 C 4.65625 -4.40625 4.5625 -4.40625 4.546875 -4.40625 C 4.46875 -4.40625 4.453125 -4.390625 4.390625 -4.296875 C 4.09375 -3.8125 3.890625 -3.65625 3.65625 -3.65625 C 3.40625 -3.65625 3.296875 -3.8125 3.140625 -3.984375 C 2.953125 -4.203125 2.78125 -4.40625 2.453125 -4.40625 C 1.703125 -4.40625 1.25 -3.484375 1.25 -3.265625 C 1.25 -3.21875 1.28125 -3.15625 1.359375 -3.15625 C 1.453125 -3.15625 1.46875 -3.203125 1.5 -3.265625 C 1.6875 -3.734375 2.265625 -3.734375 2.34375 -3.734375 C 2.546875 -3.734375 2.734375 -3.671875 2.96875 -3.59375 C 3.375 -3.4375 3.484375 -3.4375 3.734375 -3.4375 C 3.375 -3.015625 2.546875 -2.296875 2.359375 -2.140625 L 1.453125 -1.296875 C 0.78125 -0.625 0.421875 -0.0625 0.421875 0.015625 C 0.421875 0.109375 0.53125 0.109375 0.546875 0.109375 C 0.625 0.109375 0.640625 0.09375 0.703125 -0.015625 C 0.9375 -0.375 1.234375 -0.640625 1.5625 -0.640625 C 1.78125 -0.640625 1.890625 -0.546875 2.140625 -0.265625 C 2.296875 -0.046875 2.484375 0.109375 2.765625 0.109375 C 3.765625 0.109375 4.34375 -1.15625 4.34375 -1.421875 C 4.34375 -1.46875 4.296875 -1.53125 4.21875 -1.53125 C 4.125 -1.53125 4.109375 -1.46875 4.078125 -1.390625 C 3.84375 -0.75 3.203125 -0.5625 2.875 -0.5625 C 2.6875 -0.5625 2.5 -0.625 2.296875 -0.6875 C 1.953125 -0.8125 1.796875 -0.859375 1.59375 -0.859375 C 1.578125 -0.859375 1.421875 -0.859375 1.328125 -0.828125 Z M 1.328125 -0.828125 "
             style="fill-opacity:1;stroke:none;stroke-width:0;fill:#000000" />
        </g>
      </g>
    </g>
    <rect
       y="114.04472"
       x="45.804119"
       height="40.195087"
       width="40.195087"
       id="rect319742"
       style="fill:none;fill-opacity:1;stroke:#030000;stroke-width:0.3;stroke-miterlimit:4;stroke-dasharray:none;stroke-dashoffset:0;stroke-opacity:1"
       ry="0" />
    <g
       id="g41816"
       style="fill:#808080;fill-opacity:1;stroke-width:0;stroke-linecap:butt;stroke-linejoin:round"
       ns1:jacobian_sqrt="0.279653"
       ns1:inkscapeversion="1.1.2"
       ns1:stroke-to-path="0"
       ns1:alignment="middle center"
       ns1:scale="0.7927153957416055"
       ns1:preamble="/Users/simonprince/Library/Application Support/org.inkscape.Inkscape/config/inkscape/extensions/textext/default_packages_simon.tex"
       ns1:text="0.0"
       ns1:pdfconverter="inkscape"
       ns1:texconverter="pdflatex"
       ns1:version="1.8.1"
       transform="matrix(0.27965299,0,0,0.27965299,64.30592,155.48528)">
      <defs
         id="id-167c9ea5-e429-4b79-a4af-6d7d31c9e7f3">
        <g
           style="fill:#808080;fill-opacity:1;stroke-width:0;stroke-linecap:butt;stroke-linejoin:round"
           id="g136563">
          <symbol
             style="overflow:visible;fill:#808080;fill-opacity:1;stroke-width:0;stroke-linecap:butt;stroke-linejoin:round"
             id="symbol136553"
             overflow="visible">
            <path
               inkscape:connector-curvature="0"
               id="path136551"
               d=""
               style="fill:#808080;fill-opacity:1;stroke:#808080;stroke-width:0;stroke-linecap:butt;stroke-linejoin:round" />
          </symbol>
          <symbol
             style="overflow:visible;fill:#808080;fill-opacity:1;stroke-width:0;stroke-linecap:butt;stroke-linejoin:round"
             id="symbol136557"
             overflow="visible">
            <path
               inkscape:connector-curvature="0"
               id="path136555"
               d="m 4.5625,-3.25 c 0,-0.78125 -0.046875,-1.71875 -0.46875,-2.515625 -0.40625,-0.75 -1.09375,-1 -1.59375,-1 -0.59375,0 -1.296875,0.28125 -1.703125,1.15625 -0.328125,0.734375 -0.375,1.5625 -0.375,2.359375 0,0.78125 0.03125,1.515625 0.328125,2.25 0.40625,0.953125 1.15625,1.21875 1.734375,1.21875 0.71875,0 1.359375,-0.40625 1.671875,-1.09375 C 4.453125,-1.53125 4.5625,-2.1875 4.5625,-3.25 Z M 2.5,-0.390625 c -0.53125,0 -0.9375,-0.375 -1.140625,-1.09375 -0.15625,-0.5625 -0.15625,-1.109375 -0.15625,-1.890625 0,-0.625 0,-1.21875 0.15625,-1.765625 0.0625,-0.1875 0.3125,-1.015625 1.125,-1.015625 0.78125,0 1.03125,0.765625 1.109375,0.9375 0.1875,0.5625 0.1875,1.234375 0.1875,1.84375 0,0.65625 0,1.296875 -0.1875,1.921875 -0.25,0.90625 -0.78125,1.0625 -1.09375,1.0625 z m 0,0"
               style="fill:#808080;fill-opacity:1;stroke:#808080;stroke-width:0;stroke-linecap:butt;stroke-linejoin:round" />
          </symbol>
          <symbol
             style="overflow:visible;fill:#808080;fill-opacity:1;stroke-width:0;stroke-linecap:butt;stroke-linejoin:round"
             id="symbol136561"
             overflow="visible">
            <path
               inkscape:connector-curvature="0"
               id="path136559"
               d="M 1.796875,-0.828125 H 0.96875 V 0 h 0.828125 z m 0,0"
               style="fill:#808080;fill-opacity:1;stroke:#808080;stroke-width:0;stroke-linecap:butt;stroke-linejoin:round" />
          </symbol>
        </g>
      </defs>
      <g
         style="fill:#808080;fill-opacity:1;stroke-width:0;stroke-linecap:butt;stroke-linejoin:round"
         transform="translate(-149.134,-127.999)"
         id="id-e194dbd4-44b2-45b5-91b7-f1e818177245">
        <g
           id="id-fa215fd4-a335-4255-86da-f0ed82b2283e"
           style="fill:#808080;fill-opacity:1;stroke-width:0;stroke-linecap:butt;stroke-linejoin:round">
          <g
             id="g68423"
             style="fill:#808080;fill-opacity:1;stroke-width:0;stroke-linecap:butt;stroke-linejoin:round"
             transform="translate(148.712,134.765)">
            <path
               inkscape:connector-curvature="0"
               id="id-b8caed26-426c-494f-a381-384e9d4324a0"
               d="m 4.5625,-3.25 c 0,-0.78125 -0.046875,-1.71875 -0.46875,-2.515625 -0.40625,-0.75 -1.09375,-1 -1.59375,-1 -0.59375,0 -1.296875,0.28125 -1.703125,1.15625 -0.328125,0.734375 -0.375,1.5625 -0.375,2.359375 0,0.78125 0.03125,1.515625 0.328125,2.25 0.40625,0.953125 1.15625,1.21875 1.734375,1.21875 0.71875,0 1.359375,-0.40625 1.671875,-1.09375 C 4.453125,-1.53125 4.5625,-2.1875 4.5625,-3.25 Z M 2.5,-0.390625 c -0.53125,0 -0.9375,-0.375 -1.140625,-1.09375 -0.15625,-0.5625 -0.15625,-1.109375 -0.15625,-1.890625 0,-0.625 0,-1.21875 0.15625,-1.765625 0.0625,-0.1875 0.3125,-1.015625 1.125,-1.015625 0.78125,0 1.03125,0.765625 1.109375,0.9375 0.1875,0.5625 0.1875,1.234375 0.1875,1.84375 0,0.65625 0,1.296875 -0.1875,1.921875 -0.25,0.90625 -0.78125,1.0625 -1.09375,1.0625 z m 0,0"
               style="fill:#808080;fill-opacity:1;stroke:#808080;stroke-width:0;stroke-linecap:butt;stroke-linejoin:round" />
          </g>
          <g
             id="g68426"
             style="fill:#808080;fill-opacity:1;stroke-width:0;stroke-linecap:butt;stroke-linejoin:round"
             transform="translate(153.693,134.765)">
            <path
               inkscape:connector-curvature="0"
               id="id-1e2d6a35-9a67-4eec-88ed-90a497312dc6"
               d="M 1.796875,-0.828125 H 0.96875 V 0 h 0.828125 z m 0,0"
               style="fill:#808080;fill-opacity:1;stroke:#808080;stroke-width:0;stroke-linecap:butt;stroke-linejoin:round" />
          </g>
          <g
             id="g68429"
             style="fill:#808080;fill-opacity:1;stroke-width:0;stroke-linecap:butt;stroke-linejoin:round"
             transform="translate(156.461,134.765)">
            <path
               inkscape:connector-curvature="0"
               id="id-a89f13ad-4bd0-4fb7-8d09-cc60fa314893"
               d="m 4.5625,-3.25 c 0,-0.78125 -0.046875,-1.71875 -0.46875,-2.515625 -0.40625,-0.75 -1.09375,-1 -1.59375,-1 -0.59375,0 -1.296875,0.28125 -1.703125,1.15625 -0.328125,0.734375 -0.375,1.5625 -0.375,2.359375 0,0.78125 0.03125,1.515625 0.328125,2.25 0.40625,0.953125 1.15625,1.21875 1.734375,1.21875 0.71875,0 1.359375,-0.40625 1.671875,-1.09375 C 4.453125,-1.53125 4.5625,-2.1875 4.5625,-3.25 Z M 2.5,-0.390625 c -0.53125,0 -0.9375,-0.375 -1.140625,-1.09375 -0.15625,-0.5625 -0.15625,-1.109375 -0.15625,-1.890625 0,-0.625 0,-1.21875 0.15625,-1.765625 0.0625,-0.1875 0.3125,-1.015625 1.125,-1.015625 0.78125,0 1.03125,0.765625 1.109375,0.9375 0.1875,0.5625 0.1875,1.234375 0.1875,1.84375 0,0.65625 0,1.296875 -0.1875,1.921875 -0.25,0.90625 -0.78125,1.0625 -1.09375,1.0625 z m 0,0"
               style="fill:#808080;fill-opacity:1;stroke:#808080;stroke-width:0;stroke-linecap:butt;stroke-linejoin:round" />
          </g>
        </g>
      </g>
    </g>
    <g
       transform="matrix(0.27965299,0,0,0.27965299,41.304155,133.16554)"
       ns1:version="1.8.1"
       ns1:texconverter="pdflatex"
       ns1:pdfconverter="inkscape"
       ns1:text="0.0"
       ns1:preamble="/Users/simonprince/Library/Application Support/org.inkscape.Inkscape/config/inkscape/extensions/textext/default_packages_simon.tex"
       ns1:scale="0.7927153957416055"
       ns1:alignment="middle center"
       ns1:stroke-to-path="0"
       ns1:inkscapeversion="1.1.2"
       ns1:jacobian_sqrt="0.279653"
       style="fill:#808080;fill-opacity:1;stroke-width:0;stroke-linecap:butt;stroke-linejoin:round"
       id="g136709">
      <defs
         id="defs136691">
        <g
           id="g136689"
           style="fill:#808080;fill-opacity:1;stroke-width:0;stroke-linecap:butt;stroke-linejoin:round">
          <symbol
             overflow="visible"
             id="symbol136679"
             style="overflow:visible;fill:#808080;fill-opacity:1;stroke-width:0;stroke-linecap:butt;stroke-linejoin:round">
            <path
               style="fill:#808080;fill-opacity:1;stroke:#808080;stroke-width:0;stroke-linecap:butt;stroke-linejoin:round"
               d=""
               id="path136677"
               inkscape:connector-curvature="0" />
          </symbol>
          <symbol
             overflow="visible"
             id="symbol136683"
             style="overflow:visible;fill:#808080;fill-opacity:1;stroke-width:0;stroke-linecap:butt;stroke-linejoin:round">
            <path
               style="fill:#808080;fill-opacity:1;stroke:#808080;stroke-width:0;stroke-linecap:butt;stroke-linejoin:round"
               d="m 4.5625,-3.25 c 0,-0.78125 -0.046875,-1.71875 -0.46875,-2.515625 -0.40625,-0.75 -1.09375,-1 -1.59375,-1 -0.59375,0 -1.296875,0.28125 -1.703125,1.15625 -0.328125,0.734375 -0.375,1.5625 -0.375,2.359375 0,0.78125 0.03125,1.515625 0.328125,2.25 0.40625,0.953125 1.15625,1.21875 1.734375,1.21875 0.71875,0 1.359375,-0.40625 1.671875,-1.09375 C 4.453125,-1.53125 4.5625,-2.1875 4.5625,-3.25 Z M 2.5,-0.390625 c -0.53125,0 -0.9375,-0.375 -1.140625,-1.09375 -0.15625,-0.5625 -0.15625,-1.109375 -0.15625,-1.890625 0,-0.625 0,-1.21875 0.15625,-1.765625 0.0625,-0.1875 0.3125,-1.015625 1.125,-1.015625 0.78125,0 1.03125,0.765625 1.109375,0.9375 0.1875,0.5625 0.1875,1.234375 0.1875,1.84375 0,0.65625 0,1.296875 -0.1875,1.921875 -0.25,0.90625 -0.78125,1.0625 -1.09375,1.0625 z m 0,0"
               id="path136681"
               inkscape:connector-curvature="0" />
          </symbol>
          <symbol
             overflow="visible"
             id="symbol136687"
             style="overflow:visible;fill:#808080;fill-opacity:1;stroke-width:0;stroke-linecap:butt;stroke-linejoin:round">
            <path
               style="fill:#808080;fill-opacity:1;stroke:#808080;stroke-width:0;stroke-linecap:butt;stroke-linejoin:round"
               d="M 1.796875,-0.828125 H 0.96875 V 0 h 0.828125 z m 0,0"
               id="path136685"
               inkscape:connector-curvature="0" />
          </symbol>
        </g>
      </defs>
      <g
         id="g136707"
         transform="translate(-149.134,-127.999)"
         style="fill:#808080;fill-opacity:1;stroke-width:0;stroke-linecap:butt;stroke-linejoin:round">
        <g
           style="fill:#808080;fill-opacity:1;stroke-width:0;stroke-linecap:butt;stroke-linejoin:round"
           id="g136705">
          <g
             transform="translate(148.712,134.765)"
             style="fill:#808080;fill-opacity:1;stroke-width:0;stroke-linecap:butt;stroke-linejoin:round"
             id="g136695">
            <path
               style="fill:#808080;fill-opacity:1;stroke:#808080;stroke-width:0;stroke-linecap:butt;stroke-linejoin:round"
               d="m 4.5625,-3.25 c 0,-0.78125 -0.046875,-1.71875 -0.46875,-2.515625 -0.40625,-0.75 -1.09375,-1 -1.59375,-1 -0.59375,0 -1.296875,0.28125 -1.703125,1.15625 -0.328125,0.734375 -0.375,1.5625 -0.375,2.359375 0,0.78125 0.03125,1.515625 0.328125,2.25 0.40625,0.953125 1.15625,1.21875 1.734375,1.21875 0.71875,0 1.359375,-0.40625 1.671875,-1.09375 C 4.453125,-1.53125 4.5625,-2.1875 4.5625,-3.25 Z M 2.5,-0.390625 c -0.53125,0 -0.9375,-0.375 -1.140625,-1.09375 -0.15625,-0.5625 -0.15625,-1.109375 -0.15625,-1.890625 0,-0.625 0,-1.21875 0.15625,-1.765625 0.0625,-0.1875 0.3125,-1.015625 1.125,-1.015625 0.78125,0 1.03125,0.765625 1.109375,0.9375 0.1875,0.5625 0.1875,1.234375 0.1875,1.84375 0,0.65625 0,1.296875 -0.1875,1.921875 -0.25,0.90625 -0.78125,1.0625 -1.09375,1.0625 z m 0,0"
               id="path136693"
               inkscape:connector-curvature="0" />
          </g>
          <g
             transform="translate(153.693,134.765)"
             style="fill:#808080;fill-opacity:1;stroke-width:0;stroke-linecap:butt;stroke-linejoin:round"
             id="g136699">
            <path
               style="fill:#808080;fill-opacity:1;stroke:#808080;stroke-width:0;stroke-linecap:butt;stroke-linejoin:round"
               d="M 1.796875,-0.828125 H 0.96875 V 0 h 0.828125 z m 0,0"
               id="path136697"
               inkscape:connector-curvature="0" />
          </g>
          <g
             transform="translate(156.461,134.765)"
             style="fill:#808080;fill-opacity:1;stroke-width:0;stroke-linecap:butt;stroke-linejoin:round"
             id="g136703">
            <path
               style="fill:#808080;fill-opacity:1;stroke:#808080;stroke-width:0;stroke-linecap:butt;stroke-linejoin:round"
               d="m 4.5625,-3.25 c 0,-0.78125 -0.046875,-1.71875 -0.46875,-2.515625 -0.40625,-0.75 -1.09375,-1 -1.59375,-1 -0.59375,0 -1.296875,0.28125 -1.703125,1.15625 -0.328125,0.734375 -0.375,1.5625 -0.375,2.359375 0,0.78125 0.03125,1.515625 0.328125,2.25 0.40625,0.953125 1.15625,1.21875 1.734375,1.21875 0.71875,0 1.359375,-0.40625 1.671875,-1.09375 C 4.453125,-1.53125 4.5625,-2.1875 4.5625,-3.25 Z M 2.5,-0.390625 c -0.53125,0 -0.9375,-0.375 -1.140625,-1.09375 -0.15625,-0.5625 -0.15625,-1.109375 -0.15625,-1.890625 0,-0.625 0,-1.21875 0.15625,-1.765625 0.0625,-0.1875 0.3125,-1.015625 1.125,-1.015625 0.78125,0 1.03125,0.765625 1.109375,0.9375 0.1875,0.5625 0.1875,1.234375 0.1875,1.84375 0,0.65625 0,1.296875 -0.1875,1.921875 -0.25,0.90625 -0.78125,1.0625 -1.09375,1.0625 z m 0,0"
               id="path136701"
               inkscape:connector-curvature="0" />
          </g>
        </g>
      </g>
    </g>
    <g
       transform="matrix(0.279653,0,0,0.279653,42.810457,119.71182)"
       ns1:version="0.11.0"
       ns1:texconverter="pdflatex"
       ns1:pdfconverter="pdf2svg"
       ns1:text="5.0"
       ns1:preamble="C:\\Users\\drsjd\\AppData\\Roaming\\inkscape\\extensions\\textext\\default_packages_simon.tex"
       ns1:scale="0.792715367395"
       ns1:alignment="middle center"
       inkscapeversion="0.92.3"
       ns1:jacobian_sqrt="0.279653"
       style="fill:#808080;fill-opacity:1"
       id="g136912">
      <g
         id="surface1"
         style="fill:#808080;fill-opacity:1">
        <g
           style="fill:#808080;fill-opacity:1"
           id="g136909">
          <path
             inkscape:connector-curvature="0"
             style="fill:#808080;fill-opacity:1;stroke:none;stroke-width:0"
             d="M 4.46875,-2.1875 C 4.453125,-3.59375 3.578125,-4.515625 2.171875,-4.515625 1.984375,-4.5 1.5625,-4.453125 1.3125,-4.359375 l 0.25,-1.8125 H 4 v -0.71875 H 1.0625 l -0.421875,3.40625 C 1.1875,-3.75 1.3125,-3.8125 2.015625,-3.8125 3.03125,-3.8125 3.75,-3.25 3.75,-2.1875 c 0,1.09375 -0.703125,1.625 -1.734375,1.625 -0.6875,0 -1.140625,-0.140625 -1.640625,-0.453125 v 0.859375 c 0.453125,0.171875 1.125,0.296875 1.65625,0.296875 1.484375,0 2.4375,-0.8125 2.4375,-2.328125 z m 0,0"
             transform="translate(148.712,134.765)"
             id="path136903" />
          <path
             inkscape:connector-curvature="0"
             style="fill:#808080;fill-opacity:1;stroke:none;stroke-width:0"
             d="M 1.640625,0 V -1.015625 H 0.6875 V 0 Z m 0,0"
             transform="translate(153.62356,134.765)"
             id="path136905" />
          <path
             inkscape:connector-curvature="0"
             style="fill:#808080;fill-opacity:1;stroke:none;stroke-width:0"
             d="m 4.96875,-3.421875 c -0.015625,-1.46875 -0.34375,-3.59375 -2.203125,-3.59375 -1.859375,0 -2.171875,2.15625 -2.171875,3.59375 0,1.453125 0.328125,3.5625 2.171875,3.5625 1.84375,0 2.203125,-2.109375 2.203125,-3.5625 z m -0.71875,0 c 0,0.953125 -0.078125,2.90625 -1.484375,2.90625 -1.40625,0 -1.453125,-1.984375 -1.453125,-2.90625 0,-0.9375 0.03125,-2.953125 1.453125,-2.953125 1.40625,0 1.484375,2.03125 1.484375,2.953125 z m 0,0"
             transform="translate(155.94485,134.765)"
             id="path136907" />
        </g>
      </g>
    </g>
    <g
       id="g137239"
       style="fill:#808080;fill-opacity:1"
       ns1:jacobian_sqrt="0.279653"
       inkscapeversion="0.92.3"
       ns1:alignment="middle center"
       ns1:scale="0.792715367395"
       ns1:preamble="C:\\Users\\drsjd\\AppData\\Roaming\\inkscape\\extensions\\textext\\default_packages_simon.tex"
       ns1:text="-5.0"
       ns1:pdfconverter="pdf2svg"
       ns1:texconverter="pdflatex"
       ns1:version="0.11.0"
       transform="matrix(0.279653,0,0,0.279653,1.733071,119.71182)">
      <g
         style="fill:#808080;fill-opacity:1"
         id="g137237">
        <g
           id="g137235"
           style="fill:#808080;fill-opacity:1">
          <path
             inkscape:connector-curvature="0"
             id="path137227"
             transform="translate(148.712,134.765)"
             d="m 2.953125,-1.921875 v -0.65625 H 0.6875 v 0.65625 z m 0,0"
             style="fill:#808080;fill-opacity:1;stroke:none;stroke-width:0" />
          <path
             inkscape:connector-curvature="0"
             id="path137229"
             transform="translate(152.35831,134.765)"
             d="M 4.46875,-2.1875 C 4.453125,-3.59375 3.578125,-4.515625 2.171875,-4.515625 1.984375,-4.5 1.5625,-4.453125 1.3125,-4.359375 l 0.25,-1.8125 H 4 v -0.71875 H 1.0625 l -0.421875,3.40625 C 1.1875,-3.75 1.3125,-3.8125 2.015625,-3.8125 3.03125,-3.8125 3.75,-3.25 3.75,-2.1875 c 0,1.09375 -0.703125,1.625 -1.734375,1.625 -0.6875,0 -1.140625,-0.140625 -1.640625,-0.453125 v 0.859375 c 0.453125,0.171875 1.125,0.296875 1.65625,0.296875 1.484375,0 2.4375,-0.8125 2.4375,-2.328125 z m 0,0"
             style="fill:#808080;fill-opacity:1;stroke:none;stroke-width:0" />
          <path
             inkscape:connector-curvature="0"
             id="path137231"
             transform="translate(157.26987,134.765)"
             d="M 1.640625,0 V -1.015625 H 0.6875 V 0 Z m 0,0"
             style="fill:#808080;fill-opacity:1;stroke:none;stroke-width:0" />
          <path
             inkscape:connector-curvature="0"
             id="path137233"
             transform="translate(159.59116,134.765)"
             d="m 4.96875,-3.421875 c -0.015625,-1.46875 -0.34375,-3.59375 -2.203125,-3.59375 -1.859375,0 -2.171875,2.15625 -2.171875,3.59375 0,1.453125 0.328125,3.5625 2.171875,3.5625 1.84375,0 2.203125,-2.109375 2.203125,-3.5625 z m -0.71875,0 c 0,0.953125 -0.078125,2.90625 -1.484375,2.90625 -1.40625,0 -1.453125,-1.984375 -1.453125,-2.90625 0,-0.9375 0.03125,-2.953125 1.453125,-2.953125 1.40625,0 1.484375,2.03125 1.484375,2.953125 z m 0,0"
             style="fill:#808080;fill-opacity:1;stroke:none;stroke-width:0" />
        </g>
      </g>
    </g>
    <g
       transform="matrix(0.279653,0,0,0.279653,-1.3905835,116.5676)"
       ns1:version="0.11.0"
       ns1:texconverter="pdflatex"
       ns1:pdfconverter="pdf2svg"
       ns1:text="-5.0"
       ns1:preamble="C:\\Users\\drsjd\\AppData\\Roaming\\inkscape\\extensions\\textext\\default_packages_simon.tex"
       ns1:scale="0.792715367395"
       ns1:alignment="middle center"
       inkscapeversion="0.92.3"
       ns1:jacobian_sqrt="0.279653"
       style="fill:#808080;fill-opacity:1"
       id="g137546">
      <g
         id="g137544"
         style="fill:#808080;fill-opacity:1">
        <g
           style="fill:#808080;fill-opacity:1"
           id="g137542">
          <path
             inkscape:connector-curvature="0"
             style="fill:#808080;fill-opacity:1;stroke:none;stroke-width:0"
             d="m 2.953125,-1.921875 v -0.65625 H 0.6875 v 0.65625 z m 0,0"
             transform="translate(148.712,134.765)"
             id="path137534" />
          <path
             inkscape:connector-curvature="0"
             style="fill:#808080;fill-opacity:1;stroke:none;stroke-width:0"
             d="M 4.46875,-2.1875 C 4.453125,-3.59375 3.578125,-4.515625 2.171875,-4.515625 1.984375,-4.5 1.5625,-4.453125 1.3125,-4.359375 l 0.25,-1.8125 H 4 v -0.71875 H 1.0625 l -0.421875,3.40625 C 1.1875,-3.75 1.3125,-3.8125 2.015625,-3.8125 3.03125,-3.8125 3.75,-3.25 3.75,-2.1875 c 0,1.09375 -0.703125,1.625 -1.734375,1.625 -0.6875,0 -1.140625,-0.140625 -1.640625,-0.453125 v 0.859375 c 0.453125,0.171875 1.125,0.296875 1.65625,0.296875 1.484375,0 2.4375,-0.8125 2.4375,-2.328125 z m 0,0"
             transform="translate(152.35831,134.765)"
             id="path137536" />
          <path
             inkscape:connector-curvature="0"
             style="fill:#808080;fill-opacity:1;stroke:none;stroke-width:0"
             d="M 1.640625,0 V -1.015625 H 0.6875 V 0 Z m 0,0"
             transform="translate(157.26987,134.765)"
             id="path137538" />
          <path
             inkscape:connector-curvature="0"
             style="fill:#808080;fill-opacity:1;stroke:none;stroke-width:0"
             d="m 4.96875,-3.421875 c -0.015625,-1.46875 -0.34375,-3.59375 -2.203125,-3.59375 -1.859375,0 -2.171875,2.15625 -2.171875,3.59375 0,1.453125 0.328125,3.5625 2.171875,3.5625 1.84375,0 2.203125,-2.109375 2.203125,-3.5625 z m -0.71875,0 c 0,0.953125 -0.078125,2.90625 -1.484375,2.90625 -1.40625,0 -1.453125,-1.984375 -1.453125,-2.90625 0,-0.9375 0.03125,-2.953125 1.453125,-2.953125 1.40625,0 1.484375,2.03125 1.484375,2.953125 z m 0,0"
             transform="translate(159.59116,134.765)"
             id="path137540" />
        </g>
      </g>
    </g>
    <g
       id="g137831"
       style="fill:#808080;fill-opacity:1"
       ns1:jacobian_sqrt="0.279653"
       inkscapeversion="0.92.3"
       ns1:alignment="middle center"
       ns1:scale="0.792715367395"
       ns1:preamble="C:\\Users\\drsjd\\AppData\\Roaming\\inkscape\\extensions\\textext\\default_packages_simon.tex"
       ns1:text="5.0"
       ns1:pdfconverter="pdf2svg"
       ns1:texconverter="pdflatex"
       ns1:version="0.11.0"
       transform="matrix(0.279653,0,0,0.279653,-0.370882,77.340401)">
      <g
         style="fill:#808080;fill-opacity:1"
         id="g137829">
        <g
           id="g137827"
           style="fill:#808080;fill-opacity:1">
          <path
             id="path137821"
             transform="translate(148.712,134.765)"
             d="M 4.46875,-2.1875 C 4.453125,-3.59375 3.578125,-4.515625 2.171875,-4.515625 1.984375,-4.5 1.5625,-4.453125 1.3125,-4.359375 l 0.25,-1.8125 H 4 v -0.71875 H 1.0625 l -0.421875,3.40625 C 1.1875,-3.75 1.3125,-3.8125 2.015625,-3.8125 3.03125,-3.8125 3.75,-3.25 3.75,-2.1875 c 0,1.09375 -0.703125,1.625 -1.734375,1.625 -0.6875,0 -1.140625,-0.140625 -1.640625,-0.453125 v 0.859375 c 0.453125,0.171875 1.125,0.296875 1.65625,0.296875 1.484375,0 2.4375,-0.8125 2.4375,-2.328125 z m 0,0"
             style="fill:#808080;fill-opacity:1;stroke:none;stroke-width:0"
             inkscape:connector-curvature="0" />
          <path
             id="path137823"
             transform="translate(153.62356,134.765)"
             d="M 1.640625,0 V -1.015625 H 0.6875 V 0 Z m 0,0"
             style="fill:#808080;fill-opacity:1;stroke:none;stroke-width:0"
             inkscape:connector-curvature="0" />
          <path
             id="path137825"
             transform="translate(155.94485,134.765)"
             d="m 4.96875,-3.421875 c -0.015625,-1.46875 -0.34375,-3.59375 -2.203125,-3.59375 -1.859375,0 -2.171875,2.15625 -2.171875,3.59375 0,1.453125 0.328125,3.5625 2.171875,3.5625 1.84375,0 2.203125,-2.109375 2.203125,-3.5625 z m -0.71875,0 c 0,0.953125 -0.078125,2.90625 -1.484375,2.90625 -1.40625,0 -1.453125,-1.984375 -1.453125,-2.90625 0,-0.9375 0.03125,-2.953125 1.453125,-2.953125 1.40625,0 1.484375,2.03125 1.484375,2.953125 z m 0,0"
             style="fill:#808080;fill-opacity:1;stroke:none;stroke-width:0"
             inkscape:connector-curvature="0" />
        </g>
      </g>
    </g>
  </g>
</svg>
